<svg width="877" height="870" viewBox="0 0 877 870" fill="none" xmlns="http://www.w3.org/2000/svg">
<path d="M307.454 17.8067C280.108 -3.73851 222.171 -0.838211 196.62 3.30509C76.4643 19.8783 -2.25795 70.6338 0.849525 136.927C3.957 203.22 79.5721 232.223 22.6017 338.913C-34.3688 445.603 59.8914 580.26 205.943 579.224C351.994 578.189 399.642 614.442 415.18 673.485C430.56 731.93 451.016 755.866 498.65 811.604L500.117 813.321C739.393 945.907 833.653 808.142 862.657 756.351C891.66 704.559 887.516 475.642 740.429 466.319C576.769 456.997 646.169 329.59 630.632 267.441C615.094 205.291 539.479 181.467 456.613 188.718C373.747 195.969 325.063 158.679 316.776 128.64C308.49 98.6011 341.636 44.7382 307.454 17.8067Z" fill="#F2F7FC"/>
</svg>
