<svg width="234" height="125" viewBox="0 0 234 125" fill="none" xmlns="http://www.w3.org/2000/svg">
<g clip-path="url(#clip0)">
<path d="M35.753 96.3917H17.5511V105.126H35.753V96.3917Z" fill="#4D4D4D"/>
<path d="M33.8005 96.3917H31.8479V103.252H33.8005V96.3917Z" fill="#E6E6E6"/>
<path d="M21.4507 96.3917H19.4982V103.252H21.4507V96.3917Z" fill="#E6E6E6"/>
<path d="M34.8944 103.252H17.7535C16.2039 103.252 14.9477 104.457 14.9477 105.944V106.175C14.9477 107.663 16.2039 108.868 17.7535 108.868H34.8944C36.4439 108.868 37.7001 107.663 37.7001 106.175V105.944C37.7001 104.457 36.4439 103.252 34.8944 103.252Z" fill="#333333"/>
<path d="M68.2464 92.6493H11.6989V97.6409H68.2464V92.6493Z" fill="#333333"/>
<path d="M168.363 47.7512L160.875 49.4413V88.2823" stroke="#333333" stroke-width="3" stroke-linecap="round" stroke-linejoin="round"/>
<path d="M57.1983 107.619H199.368C208.157 107.619 214.343 104.512 214.343 96.0715C214.343 87.6419 208.157 84.5242 199.368 84.5242H160.536L154.52 88.9804L57.1983 88.9016V107.619Z" fill="#333333"/>
<path d="M169.708 34.6345H170.058C170.151 34.6345 170.239 34.6345 170.332 34.6345H215.257L223.625 47.9874L231.501 71.0558L231.583 105.756H202.797C202.797 91.4106 189.075 90.786 189.075 90.786H164.479V39.8728C164.479 37.2064 166.962 34.6345 169.708 34.6345Z" fill="#CCCCCC"/>
<path d="M173.553 39.0016V60.2172C173.553 60.2172 178.032 66.9776 218.905 71.9167C218.905 71.9167 217.154 47.7356 203.738 39.0016H173.553Z" fill="#333333"/>
<path d="M181.347 74.5568H174.198V85.7839H181.347V74.5568Z" fill="#4D4D4D"/>
<path d="M181.347 82.0468H174.198V85.7891H181.347V82.0468Z" fill="#666666"/>
<path d="M222.06 99.5095H213.435C212.227 99.5095 211.248 100.45 211.248 101.609V101.777C211.248 102.937 212.227 103.877 213.435 103.877H222.06C223.269 103.877 224.248 102.937 224.248 101.777V101.609C224.248 100.45 223.269 99.5095 222.06 99.5095Z" fill="white"/>
<path d="M211.253 102.024C211.253 103.247 212.035 103.876 213.84 103.876H219.052V99.5094H213.84C212.467 99.3782 211.253 100.108 211.253 101.326V102.024Z" fill="#F7931E"/>
<path d="M215.278 35.0702C215.278 35.0702 231.583 47.2684 231.501 73.0976C231.501 73.0976 228.919 73.2603 228.766 72.0478C226.283 51.5724 217.269 41.3582 215.278 35.0702Z" fill="#333333"/>
<path d="M230.795 82.0468H230.702C230.01 82.0468 229.449 82.5849 229.449 83.2487V100.806C229.449 101.47 230.01 102.008 230.702 102.008H230.795C231.487 102.008 232.047 101.47 232.047 100.806V83.2487C232.047 82.5849 231.487 82.0468 230.795 82.0468Z" fill="#999999"/>
<path d="M231.812 105.75H202.387C201.179 105.75 200.2 106.69 200.2 107.85V108.018C200.2 109.177 201.179 110.117 202.387 110.117H231.812C233.021 110.117 234 109.177 234 108.018V107.85C234 106.69 233.021 105.75 231.812 105.75Z" fill="#666666"/>
<path d="M215.399 34.6345C215.399 34.6345 210.367 10.7683 164.736 10.8786C164.736 10.8786 163.451 28.2573 165.436 31.5168C165.436 31.5168 166.962 34.6345 168.833 34.6345H215.399Z" fill="#E6E6E6"/>
<path d="M164.036 109.062C164.036 112.105 164.977 115.08 166.738 117.61C168.5 120.14 171.004 122.112 173.934 123.276C176.863 124.44 180.087 124.745 183.196 124.15C186.306 123.556 189.162 122.091 191.404 119.939C193.646 117.787 195.172 115.045 195.79 112.06C196.408 109.076 196.09 105.982 194.876 103.171C193.662 100.36 191.606 97.9581 188.969 96.2682C186.332 94.5784 183.232 93.6771 180.061 93.6781C177.957 93.6781 175.872 94.0761 173.928 94.8493C171.983 95.6225 170.216 96.7557 168.728 98.1843C167.24 99.613 166.06 101.309 165.255 103.175C164.45 105.042 164.036 107.042 164.036 109.062Z" fill="#333333"/>
<path d="M169.648 109.062C169.648 111.035 170.257 112.963 171.399 114.603C172.541 116.243 174.164 117.521 176.063 118.276C177.962 119.031 180.051 119.228 182.067 118.843C184.083 118.459 185.934 117.509 187.388 116.114C188.841 114.719 189.831 112.942 190.232 111.008C190.633 109.073 190.427 107.068 189.64 105.246C188.854 103.424 187.522 101.866 185.813 100.77C184.104 99.6745 182.095 99.0896 180.04 99.0896C177.284 99.0896 174.64 100.14 172.691 102.011C170.743 103.881 169.648 106.417 169.648 109.062Z" fill="#CCCCCC"/>
<path d="M177.02 109.062C177.019 109.641 177.197 110.207 177.532 110.688C177.866 111.17 178.342 111.546 178.899 111.768C179.455 111.989 180.068 112.048 180.66 111.935C181.251 111.823 181.795 111.544 182.221 111.135C182.647 110.726 182.938 110.204 183.055 109.637C183.172 109.069 183.112 108.481 182.88 107.946C182.649 107.412 182.258 106.955 181.756 106.634C181.254 106.314 180.664 106.143 180.061 106.144C179.255 106.144 178.481 106.451 177.911 106.999C177.341 107.546 177.02 108.288 177.02 109.062Z" fill="#E6E6E6" stroke="#333333" stroke-miterlimit="10"/>
<path d="M182.648 100.759H177.447V102.008H182.648V100.759Z" fill="#333333"/>
<path d="M182.648 116.353H177.447V117.602H182.648V116.353Z" fill="#333333"/>
<path d="M173.553 106.994H172.251V111.361H173.553V106.994Z" fill="#333333"/>
<path d="M188.501 106.994H187.199V111.361H188.501V106.994Z" fill="#333333"/>
<path d="M140.398 101.383H69.5481V105.75H140.398V101.383Z" fill="#808080"/>
<path d="M41.4193 109.062C41.4193 112.105 42.3594 115.079 44.1209 117.609C45.8824 120.139 48.386 122.111 51.3152 123.275C54.2444 124.44 57.4677 124.744 60.5773 124.151C63.6869 123.557 66.5433 122.092 68.7853 119.941C71.0272 117.789 72.5539 115.048 73.1725 112.064C73.791 109.079 73.4736 105.986 72.2603 103.175C71.0469 100.364 68.9922 97.9612 66.356 96.2708C63.7198 94.5804 60.6204 93.6781 57.4499 93.6781C53.1983 93.6781 49.1208 95.2989 46.1145 98.184C43.1082 101.069 41.4193 104.982 41.4193 109.062Z" fill="#333333"/>
<path d="M47.0363 109.062C47.0363 111.035 47.6457 112.963 48.7876 114.603C49.9295 116.243 51.5524 117.521 53.4513 118.276C55.3501 119.031 57.4395 119.228 59.4553 118.843C61.4711 118.459 63.3228 117.509 64.7761 116.114C66.2294 114.719 67.2191 112.942 67.6201 111.008C68.021 109.073 67.8152 107.068 67.0287 105.246C66.2422 103.424 64.9103 101.866 63.2013 100.77C61.4924 99.6745 59.4833 99.0896 57.428 99.0896C54.6719 99.0896 52.0288 100.14 50.0799 102.011C48.1311 103.881 47.0363 106.417 47.0363 109.062Z" fill="#CCCCCC"/>
<path d="M54.4035 109.062C54.4024 109.641 54.5801 110.206 54.9142 110.688C55.2483 111.169 55.7237 111.545 56.2803 111.767C56.8368 111.989 57.4496 112.048 58.0409 111.936C58.6322 111.823 59.1755 111.545 59.6021 111.137C60.0287 110.728 60.3194 110.207 60.4374 109.64C60.5554 109.073 60.4954 108.484 60.2649 107.95C60.0345 107.415 59.6441 106.958 59.143 106.637C58.6419 106.316 58.0527 106.144 57.4499 106.144C57.0501 106.143 56.6541 106.218 56.2845 106.365C55.9149 106.511 55.579 106.726 55.2961 106.997C55.0131 107.268 54.7886 107.59 54.6355 107.944C54.4823 108.299 54.4035 108.679 54.4035 109.062Z" fill="#E6E6E6" stroke="#333333" stroke-miterlimit="10"/>
<path d="M59.8017 100.759H55.2512V102.008H59.8017V100.759Z" fill="#333333"/>
<path d="M59.8017 116.353H55.2512V117.602H59.8017V116.353Z" fill="#333333"/>
<path d="M50.7007 106.994H49.399V111.361H50.7007V106.994Z" fill="#333333"/>
<path d="M65.6539 106.994H64.3522V111.361H65.6539V106.994Z" fill="#333333"/>
<path d="M210.996 39.4476C210.996 39.4476 223.275 56.7686 222.624 74.0004V93.4523L203.197 93.4261C203.197 93.4261 199.685 86.419 188.375 86.419" stroke="#999999" stroke-linecap="round" stroke-linejoin="round"/>
<path d="M217.876 74.5568H211.767C211.121 74.5568 210.597 75.0597 210.597 75.68V75.9267C210.597 76.547 211.121 77.0499 211.767 77.0499H217.876C218.523 77.0499 219.047 76.547 219.047 75.9267V75.68C219.047 75.0597 218.523 74.5568 217.876 74.5568Z" fill="#666666"/>
<path d="M155.996 99.5095H131.948V109.493H155.996V99.5095Z" fill="#666666"/>
<path d="M0.650848 102.008H11.234L15.9103 88.907H0.650848V102.008Z" fill="#D9D9D9"/>
<path d="M195.026 39.0016L199.904 69.0823C194.629 68.106 189.423 66.8123 184.317 65.2087L180.045 39.0016H195.026Z" fill="#4D4D4D"/>
<path d="M154.7 0.328491H0.650848V93.2739H154.7V0.328491Z" fill="url(#paint0_linear)"/>
<path d="M9.26505 85.1646H147.163V5.9447H9.26505V85.1646Z" fill="url(#paint1_linear)"/>
<path d="M35.0967 5.9447H22.1453V38.3244H35.0967V5.9447Z" fill="#E1632A"/>
<path d="M35.0967 51.9976H22.1453V85.1541H35.0967V51.9976Z" fill="#E1632A"/>
<path d="M39.7238 40.8806H18.0215C15.4358 40.8806 13.3397 42.8922 13.3397 45.3736C13.3397 47.855 15.4358 49.8665 18.0215 49.8665H39.7238C42.3094 49.8665 44.4055 47.855 44.4055 45.3736C44.4055 42.8922 42.3094 40.8806 39.7238 40.8806Z" fill="#E1632A"/>
<path d="M39.7292 50.0607H18.0215C16.7247 50.0607 15.481 49.5663 14.564 48.6863C13.647 47.8064 13.1319 46.6128 13.1319 45.3683C13.1319 44.1238 13.647 42.9303 14.564 42.0503C15.481 41.1703 16.7247 40.6759 18.0215 40.6759H39.7292C41.026 40.6759 42.2697 41.1703 43.1867 42.0503C44.1037 42.9303 44.6188 44.1238 44.6188 45.3683C44.6188 46.6128 44.1037 47.8064 43.1867 48.6863C42.2697 49.5663 41.026 50.0607 39.7292 50.0607ZM18.0215 41.0748C16.8349 41.0748 15.6969 41.5272 14.8579 42.3323C14.0189 43.1375 13.5475 44.2296 13.5475 45.3683C13.5475 46.507 14.0189 47.5991 14.8579 48.4043C15.6969 49.2095 16.8349 49.6618 18.0215 49.6618H39.7292C40.9158 49.6618 42.0538 49.2095 42.8928 48.4043C43.7318 47.5991 44.2032 46.507 44.2032 45.3683C44.2032 44.2296 43.7318 43.1375 42.8928 42.3323C42.0538 41.5272 40.9158 41.0748 39.7292 41.0748H18.0215Z" fill="black"/>
<path d="M16.9823 44.2885C16.976 44.2715 16.976 44.253 16.9823 44.236C16.9982 44.2304 17.0156 44.2304 17.0315 44.236H18.1254C18.2174 44.2367 18.3084 44.2545 18.3934 44.2885C18.475 44.322 18.5492 44.3701 18.6122 44.4302C18.6759 44.4897 18.7262 44.5612 18.7598 44.6402C18.799 44.7226 18.8195 44.812 18.82 44.9026C18.8189 44.9758 18.806 45.0484 18.7817 45.1178C18.7551 45.1824 18.7182 45.2426 18.6723 45.2963C18.7492 45.3652 18.8122 45.447 18.8583 45.5377C18.8978 45.6265 18.9182 45.722 18.9182 45.8185C18.9182 45.9151 18.8978 46.0106 18.8583 46.0993C18.8222 46.1815 18.7703 46.2563 18.7051 46.3198C18.6411 46.3837 18.565 46.4354 18.4809 46.472C18.3967 46.509 18.3054 46.5287 18.2129 46.5297H17.0479C17.0321 46.5359 17.0145 46.5359 16.9987 46.5297C16.9924 46.5128 16.9924 46.4942 16.9987 46.4773L16.9823 44.2885ZM18.1965 44.8974C18.2046 44.8681 18.2046 44.8374 18.1965 44.8082C18.1852 44.7823 18.1685 44.7591 18.1473 44.7399C18.1251 44.7183 18.0992 44.7005 18.0707 44.6874C18.0382 44.6815 18.0048 44.6815 17.9722 44.6874H17.6277V45.1336H17.9668C18.0012 45.1391 18.0363 45.1391 18.0707 45.1336C18.0992 45.1229 18.1253 45.1068 18.1473 45.0863C18.1685 45.0672 18.1852 45.0439 18.1965 45.0181C18.2067 44.9856 18.2067 44.9509 18.1965 44.9184V44.8974ZM18.2785 45.7897C18.2837 45.7601 18.2837 45.73 18.2785 45.7004C18.2656 45.6696 18.247 45.6412 18.2238 45.6165C18.2034 45.5917 18.1772 45.5719 18.1473 45.5587C18.117 45.5428 18.0833 45.5338 18.0488 45.5325H17.6222V46.0574H18.0488C18.0812 46.0647 18.1149 46.0647 18.1473 46.0574C18.1774 46.0446 18.2037 46.0247 18.2238 45.9996C18.247 45.9768 18.2655 45.9502 18.2785 45.9209C18.2855 45.8845 18.2855 45.8471 18.2785 45.8107V45.7897Z" fill="black"/>
<path d="M19.2521 44.2875C19.2458 44.2705 19.2458 44.252 19.2521 44.235C19.2699 44.23 19.2889 44.23 19.3068 44.235H20.8983C20.907 44.2315 20.9163 44.2297 20.9257 44.2297C20.9351 44.2297 20.9444 44.2315 20.953 44.235C20.9566 44.2433 20.9585 44.2522 20.9585 44.2612C20.9585 44.2702 20.9566 44.2792 20.953 44.2875V44.6706C20.9598 44.6875 20.9598 44.7062 20.953 44.7231C20.9446 44.7273 20.9352 44.7294 20.9257 44.7294C20.9162 44.7294 20.9068 44.7273 20.8983 44.7231H19.8592V45.1063H20.6631H20.7124C20.7157 45.1128 20.7175 45.12 20.7175 45.1273C20.7175 45.1346 20.7157 45.1417 20.7124 45.1483V45.4842C20.7154 45.4908 20.7169 45.498 20.7169 45.5052C20.7169 45.5124 20.7154 45.5196 20.7124 45.5262C20.6965 45.5318 20.679 45.5318 20.6631 45.5262H19.8592V45.9198H20.953C21.0022 45.9198 21.0241 45.9198 21.0241 45.9881V46.3765C21.0241 46.3765 21.0241 46.3765 21.0241 46.4027C21.0235 46.4102 21.0213 46.4174 21.0175 46.4239C21.0138 46.4304 21.0086 46.4361 21.0024 46.4406C20.9962 46.445 20.9891 46.4482 20.9815 46.4498C20.9739 46.4514 20.9661 46.4515 20.9585 46.45H19.3177C19.3019 46.4561 19.2843 46.4561 19.2685 46.45C19.2645 46.4417 19.2625 46.4328 19.2625 46.4237C19.2625 46.4147 19.2645 46.4057 19.2685 46.3975L19.2521 44.2875Z" fill="black"/>
<path d="M21.7297 45.7892L21.7953 45.8469L21.8938 45.9152C21.9449 45.9492 21.9999 45.9774 22.0578 45.9991C22.112 46.0184 22.1696 46.0273 22.2274 46.0254C22.2727 46.0315 22.3188 46.0315 22.3641 46.0254C22.3971 46.0174 22.4274 46.0011 22.4516 45.9781C22.473 45.9601 22.4882 45.9363 22.4954 45.9099C22.5005 45.8839 22.5005 45.8572 22.4954 45.8312C22.4934 45.7981 22.48 45.7667 22.4571 45.7419C22.4293 45.7169 22.398 45.6956 22.3641 45.679L22.2493 45.6265L22.1453 45.5897C22.0308 45.5522 21.9192 45.5066 21.8117 45.4533C21.722 45.4085 21.6391 45.3519 21.5656 45.2853C21.5066 45.2271 21.4585 45.1597 21.4234 45.0858C21.3897 45.0077 21.373 44.9237 21.3742 44.8392C21.374 44.7485 21.3945 44.6589 21.4343 44.5767C21.477 44.4989 21.5367 44.4308 21.6093 44.3773C21.6892 44.3188 21.7803 44.276 21.8773 44.2513C21.9909 44.2187 22.1089 44.2028 22.2274 44.204C22.3214 44.2036 22.415 44.2141 22.5063 44.2355C22.6002 44.2563 22.6904 44.2899 22.7743 44.3353L22.8782 44.3983L22.9603 44.4665C22.9854 44.4801 23.0062 44.5001 23.0204 44.5242C23.0268 44.5394 23.0268 44.5563 23.0204 44.5715C23.025 44.5833 23.025 44.5964 23.0204 44.6082L22.9931 44.6449L22.747 44.8969C22.7319 44.9107 22.7128 44.9199 22.6923 44.9231H22.6485L22.6102 44.8916L22.5391 44.8339L22.4516 44.7867L22.3586 44.7499C22.326 44.7449 22.2928 44.7449 22.2602 44.7499H22.1563L22.0742 44.7814C22.0523 44.7927 22.0335 44.8089 22.0195 44.8287C22.0133 44.8528 22.0133 44.878 22.0195 44.9021C22.0141 44.9264 22.0141 44.9514 22.0195 44.9756C22.0381 45 22.0625 45.0198 22.0906 45.0334C22.1242 45.056 22.161 45.0737 22.2 45.0858L22.3586 45.1383L22.6704 45.2486C22.7588 45.2847 22.8417 45.3324 22.9165 45.3903C22.9857 45.4424 23.0418 45.5087 23.0806 45.5845C23.1222 45.6698 23.1428 45.7632 23.1408 45.8574C23.1431 45.9646 23.1188 46.0708 23.0697 46.1671C23.021 46.2576 22.9519 46.3365 22.8673 46.398C22.7803 46.467 22.6799 46.5188 22.5719 46.5503C22.4536 46.5868 22.3298 46.6045 22.2055 46.6027C22.0823 46.6022 21.9601 46.5809 21.8445 46.5398C21.7264 46.4975 21.6143 46.4411 21.5109 46.3718L21.4015 46.2826C21.3807 46.2572 21.3568 46.2343 21.3304 46.2143C21.3113 46.1997 21.2978 46.1794 21.2921 46.1566C21.2921 46.1566 21.2921 46.1199 21.3304 46.0936L21.6093 45.8417C21.6271 45.8361 21.6463 45.8361 21.664 45.8417H21.6969L21.7297 45.7892Z" fill="black"/>
<path d="M23.3978 44.2875C23.392 44.2722 23.392 44.2555 23.3978 44.2402C23.4065 44.2368 23.4158 44.235 23.4252 44.235C23.4345 44.235 23.4438 44.2368 23.4525 44.2402H25.1808C25.1895 44.2368 25.1988 44.235 25.2082 44.235C25.2176 44.235 25.2268 44.2368 25.2355 44.2402C25.2394 44.2476 25.2414 44.2557 25.2414 44.2639C25.2414 44.2721 25.2394 44.2802 25.2355 44.2875V44.6706C25.241 44.6877 25.241 44.706 25.2355 44.7231C25.226 44.727 25.2158 44.729 25.2054 44.729C25.1951 44.729 25.1849 44.727 25.1753 44.7231H24.6284V46.4132C24.6319 46.4207 24.6337 46.4287 24.6337 46.4369C24.6337 46.445 24.6319 46.453 24.6284 46.4605C24.6222 46.4688 24.614 46.4755 24.6044 46.4801C24.5949 46.4846 24.5844 46.4869 24.5737 46.4867H24.1034C24.0872 46.4907 24.0703 46.4907 24.0541 46.4867C24.0461 46.4802 24.0395 46.4722 24.0348 46.4632C24.0301 46.4542 24.0273 46.4443 24.0268 46.4342V44.7441H23.4798C23.4712 44.7476 23.4619 44.7494 23.4525 44.7494C23.4431 44.7494 23.4338 44.7476 23.4252 44.7441C23.4181 44.7255 23.4181 44.705 23.4252 44.6864L23.3978 44.2875Z" fill="black"/>
<path d="M26.9802 45.7882L27.0513 45.8459L27.1443 45.9142C27.1954 45.9482 27.2505 45.9764 27.3084 45.9982C27.3626 46.0174 27.4202 46.0263 27.4779 46.0244C27.5233 46.0305 27.5693 46.0305 27.6147 46.0244C27.6477 46.0164 27.6779 46.0001 27.7022 45.9772C27.7235 45.9591 27.7388 45.9354 27.7459 45.9089C27.7511 45.8829 27.7511 45.8562 27.7459 45.8302C27.7463 45.8136 27.7431 45.7971 27.7365 45.7817C27.7299 45.7664 27.7201 45.7525 27.7076 45.741C27.6799 45.7159 27.6486 45.6947 27.6147 45.678L27.4998 45.6255L27.3959 45.5887C27.2813 45.5512 27.1698 45.5056 27.0623 45.4523C26.9733 45.4089 26.892 45.3522 26.8216 45.2843C26.7594 45.2276 26.7092 45.1599 26.6739 45.0849C26.6457 44.9966 26.6382 44.9033 26.6521 44.8119C26.6519 44.7213 26.6724 44.6317 26.7122 44.5495C26.7549 44.4717 26.8146 44.4036 26.8872 44.35C26.9671 44.2916 27.0582 44.2488 27.1552 44.2241C27.2688 44.1915 27.3868 44.1756 27.5053 44.1768C27.601 44.1766 27.6965 44.1872 27.7897 44.2083C27.8815 44.2301 27.9698 44.2636 28.0522 44.308L28.1561 44.371L28.2436 44.4393C28.266 44.4545 28.2846 44.4742 28.2983 44.497C28.3047 44.5122 28.3047 44.5291 28.2983 44.5442C28.3029 44.5561 28.3029 44.5691 28.2983 44.581V44.6177L28.0522 44.8697C28.0371 44.8835 28.0181 44.8926 27.9975 44.8959H27.9538L27.9155 44.8644L27.8444 44.8067L27.7623 44.7594L27.6639 44.7227C27.6313 44.7177 27.5981 44.7177 27.5654 44.7227H27.467C27.4381 44.729 27.4104 44.7397 27.385 44.7542C27.3604 44.7638 27.3394 44.7802 27.3248 44.8014C27.3185 44.8256 27.3185 44.8508 27.3248 44.8749C27.3172 44.8989 27.3172 44.9244 27.3248 44.9484C27.3397 44.9739 27.3627 44.9941 27.3904 45.0061C27.424 45.0288 27.4608 45.0465 27.4998 45.0586L27.6584 45.1111L27.9702 45.2213C28.0596 45.2587 28.1441 45.3063 28.2218 45.3631C28.2879 45.4167 28.3419 45.4828 28.3804 45.5573C28.4245 45.6418 28.4452 45.7358 28.4405 45.8302C28.4429 45.9374 28.4185 46.0436 28.3694 46.1399C28.3211 46.229 28.254 46.3077 28.1725 46.3708C28.0829 46.4389 27.9809 46.4905 27.8717 46.523C27.7536 46.5604 27.6296 46.5781 27.5053 46.5755C27.382 46.575 27.2598 46.5537 27.1443 46.5125C27.0261 46.4703 26.914 46.4139 26.8107 46.3446L26.7013 46.2553L26.6357 46.1871C26.6175 46.1726 26.6057 46.1519 26.6028 46.1294C26.6054 46.1052 26.6171 46.0829 26.6357 46.0664L26.9146 45.8145C26.9325 45.8098 26.9514 45.8098 26.9693 45.8145H27.0021L26.9802 45.7882Z" fill="black"/>
<path d="M28.7851 44.2874C28.7812 44.2792 28.7791 44.2702 28.7791 44.2612C28.7791 44.2521 28.7812 44.2432 28.7851 44.2349C28.801 44.2293 28.8185 44.2293 28.8343 44.2349H30.4806C30.4985 44.23 30.5174 44.23 30.5353 44.2349C30.5408 44.252 30.5408 44.2703 30.5353 44.2874V44.6706C30.5402 44.6878 30.5402 44.7059 30.5353 44.7231C30.5258 44.727 30.5156 44.729 30.5052 44.729C30.4949 44.729 30.4846 44.727 30.4751 44.7231H29.3867V45.1062H30.1907C30.2065 45.1001 30.2242 45.1001 30.24 45.1062C30.24 45.1062 30.24 45.1062 30.24 45.1482V45.4841C30.2446 45.4978 30.2446 45.5125 30.24 45.5261C30.2221 45.5311 30.2031 45.5311 30.1853 45.5261H29.3867V45.9198H30.4806C30.5298 45.9198 30.5572 45.9198 30.5572 45.988V46.3764C30.5596 46.3804 30.5608 46.385 30.5608 46.3896C30.5608 46.3942 30.5596 46.3987 30.5572 46.4027C30.5572 46.4342 30.5353 46.4499 30.4915 46.4499H28.8507C28.835 46.456 28.8173 46.456 28.8015 46.4499C28.7953 46.4329 28.7953 46.4144 28.8015 46.3974L28.7851 44.2874Z" fill="black"/>
<path d="M30.9619 44.2875C30.9557 44.2705 30.9557 44.252 30.9619 44.235C30.9706 44.2315 30.9799 44.2297 30.9893 44.2297C30.9986 44.2297 31.0079 44.2315 31.0166 44.235H32.0503C32.1578 44.234 32.2642 44.2555 32.3621 44.298C32.4566 44.3328 32.5423 44.3865 32.6136 44.4554C32.6872 44.5236 32.745 44.6059 32.7832 44.6969C32.8268 44.7874 32.8492 44.8859 32.8488 44.9856C32.849 45.0533 32.838 45.1206 32.816 45.185C32.7943 45.2467 32.7668 45.3065 32.734 45.3635C32.6981 45.417 32.6559 45.4663 32.6082 45.5104C32.5605 45.555 32.5072 45.5938 32.4496 45.6259L32.8598 46.3765L32.8871 46.4237C32.893 46.4408 32.893 46.4592 32.8871 46.4762C32.8897 46.482 32.891 46.4883 32.891 46.4946C32.891 46.5009 32.8897 46.5071 32.8871 46.513C32.8713 46.5191 32.8537 46.5191 32.8379 46.513H32.291H32.2417C32.2296 46.501 32.2202 46.4867 32.2144 46.471L31.8261 45.7624H31.5745V46.4605C31.5753 46.4696 31.574 46.4789 31.5708 46.4875C31.5675 46.4961 31.5623 46.504 31.5555 46.5105C31.5487 46.517 31.5405 46.522 31.5315 46.5251C31.5225 46.5283 31.5129 46.5295 31.5034 46.5287H31.0275C31.0178 46.5306 31.0077 46.5302 30.9981 46.5275C30.9886 46.5247 30.9799 46.5198 30.9728 46.513C30.9658 46.5062 30.9606 46.4979 30.9577 46.4887C30.9549 46.4795 30.9544 46.4698 30.9564 46.4605L30.9619 44.2875ZM32.2199 44.9698C32.2275 44.9405 32.2275 44.9099 32.2199 44.8806C32.1998 44.8163 32.1547 44.7618 32.0941 44.7284C32.0638 44.7117 32.0303 44.701 31.9956 44.6969H31.5745V45.2637H31.9737C32.0084 45.2596 32.0419 45.2489 32.0722 45.2323C32.1024 45.2171 32.1285 45.1956 32.1488 45.1693C32.1703 45.1444 32.187 45.1159 32.198 45.0853C32.2105 45.0551 32.2179 45.0232 32.2199 44.9908V44.9698Z" fill="black"/>
<path d="M33.8771 46.492C33.8641 46.4757 33.8531 46.4581 33.8442 46.4395L33.8169 46.3765L32.991 44.2875C32.991 44.256 32.991 44.2402 33.0512 44.2402H33.5708C33.589 44.2405 33.6067 44.2461 33.6214 44.2565C33.6362 44.2668 33.6471 44.2813 33.6528 44.298L34.1451 45.7046C34.1888 45.5892 34.2326 45.4685 34.2708 45.353C34.3091 45.2375 34.3474 45.1168 34.3912 45.0013L34.506 44.6496C34.5498 44.5342 34.5881 44.4187 34.6318 44.298C34.6395 44.2805 34.6525 44.2657 34.6691 44.2554C34.6856 44.2451 34.7051 44.2398 34.7248 44.2402H35.228C35.2366 44.2368 35.2459 44.235 35.2553 44.235C35.2647 44.235 35.274 44.2368 35.2827 44.2402C35.2827 44.2402 35.2827 44.2402 35.2827 44.2717L34.4623 46.387V46.4342C34.4579 46.4521 34.4484 46.4684 34.4349 46.4815C34.4289 46.4985 34.4174 46.5132 34.4021 46.5235C34.388 46.5287 34.3724 46.5287 34.3584 46.5235H33.9646C33.9568 46.5278 33.9482 46.5305 33.9393 46.5312C33.9304 46.5319 33.9214 46.5307 33.913 46.5277C33.9046 46.5247 33.897 46.5199 33.8908 46.5137C33.8846 46.5076 33.8799 46.5001 33.8771 46.492Z" fill="black"/>
<path d="M35.589 44.2876C35.5843 44.2721 35.5843 44.2557 35.589 44.2403C35.6048 44.2347 35.6223 44.2347 35.6382 44.2403H36.114C36.1298 44.2342 36.1475 44.2342 36.1632 44.2403C36.1723 44.2446 36.1798 44.2514 36.1847 44.2598C36.1895 44.2683 36.1916 44.2779 36.1906 44.2876V46.4448C36.1916 46.4545 36.1902 46.4642 36.1867 46.4733C36.1831 46.4824 36.1774 46.4905 36.1699 46.4971C36.1625 46.5037 36.1536 46.5086 36.1439 46.5114C36.1342 46.5141 36.124 46.5147 36.114 46.513H35.6382C35.5944 46.513 35.5726 46.4868 35.5726 46.4448L35.589 44.2876Z" fill="black"/>
<path d="M38.5479 44.4033C38.5647 44.4133 38.5781 44.4279 38.5862 44.4453C38.5914 44.4541 38.5942 44.464 38.5942 44.4742C38.5942 44.4843 38.5914 44.4943 38.5862 44.503L38.3182 44.8704C38.3182 44.8704 38.3182 44.9019 38.2799 44.9019C38.2722 44.9056 38.2638 44.9076 38.2553 44.9076C38.2467 44.9076 38.2383 44.9056 38.2306 44.9019C38.1785 44.8622 38.1191 44.832 38.0556 44.8127C37.9904 44.7917 37.9221 44.781 37.8533 44.7812C37.7704 44.7793 37.6881 44.7954 37.6126 44.8285C37.5396 44.8584 37.4743 44.9031 37.4212 44.9597C37.3662 45.0157 37.3234 45.0817 37.2954 45.1539C37.2373 45.3064 37.2373 45.4738 37.2954 45.6263C37.3219 45.6991 37.3649 45.7654 37.4212 45.8205C37.4743 45.877 37.5396 45.9218 37.6126 45.9517C37.6881 45.9847 37.7704 46.0009 37.8533 45.9989C37.9221 45.9996 37.9906 45.989 38.0556 45.9674C38.1188 45.9473 38.1779 45.9171 38.2306 45.8782C38.2306 45.8782 38.2689 45.8782 38.2799 45.8782C38.2908 45.8782 38.3072 45.8782 38.3182 45.8782L38.5916 46.2561C38.5983 46.2644 38.6019 46.2745 38.6019 46.285C38.6019 46.2954 38.5983 46.3056 38.5916 46.3139C38.5832 46.3297 38.5698 46.3425 38.5533 46.3506C38.3489 46.485 38.1066 46.5564 37.8587 46.5553C37.6422 46.5539 37.4295 46.4997 37.2407 46.3978C37.062 46.2894 36.9107 46.1441 36.7977 45.9727C36.7455 45.8852 36.705 45.7917 36.6774 45.6945C36.619 45.4883 36.619 45.2709 36.6774 45.0646C36.706 44.9661 36.7464 44.871 36.7977 44.7812C36.8523 44.6946 36.9185 44.6152 36.9946 44.545C37.0653 44.4709 37.1485 44.4088 37.2407 44.3613C37.3324 44.3074 37.4319 44.2667 37.536 44.2406C37.6413 44.2134 37.7497 44.1993 37.8587 44.1986C37.983 44.1969 38.1068 44.2146 38.2252 44.2511C38.3398 44.2866 38.4485 44.3379 38.5479 44.4033Z" fill="black"/>
<path d="M38.9909 44.2875C38.9846 44.2705 38.9846 44.252 38.9909 44.235C39.0086 44.229 39.0279 44.229 39.0456 44.235H40.6372C40.6458 44.2315 40.6551 44.2297 40.6645 44.2297C40.6739 44.2297 40.6832 44.2315 40.6919 44.235C40.6955 44.2433 40.6973 44.2522 40.6973 44.2612C40.6973 44.2702 40.6955 44.2792 40.6919 44.2875V44.6706C40.6986 44.6875 40.6986 44.7062 40.6919 44.7231C40.6833 44.7269 40.6739 44.7288 40.6645 44.7288C40.6551 44.7288 40.6457 44.7269 40.6372 44.7231H39.598V45.1063H40.402H40.4512C40.4512 45.1063 40.4512 45.1063 40.4512 45.1483V45.4842C40.4558 45.4978 40.4558 45.5125 40.4512 45.5262C40.4353 45.5318 40.4179 45.5318 40.402 45.5262H39.6144V45.9198H40.7083C40.7575 45.9198 40.7794 45.9198 40.7794 45.9881V46.3765C40.7823 46.385 40.7823 46.3942 40.7794 46.4027C40.7788 46.4102 40.7765 46.4174 40.7728 46.4239C40.769 46.4304 40.7639 46.4361 40.7577 46.4406C40.7515 46.445 40.7443 46.4482 40.7368 46.4498C40.7292 46.4514 40.7213 46.4515 40.7137 46.45H39.0729C39.0551 46.4552 39.0361 46.4552 39.0182 46.45C39.012 46.433 39.012 46.4145 39.0182 46.3975L38.9909 44.2875Z" fill="black"/>
<path d="M149.499 87.6577H8.45012V90.7755H149.499V87.6577Z" fill="#E6E6E6"/>
<path d="M151.501 2.20227H147.497C146.808 2.20227 146.25 2.73806 146.25 3.39899V3.49872C146.25 4.15965 146.808 4.69544 147.497 4.69544H151.501C152.189 4.69544 152.748 4.15965 152.748 3.49872V3.39899C152.748 2.73806 152.189 2.20227 151.501 2.20227Z" fill="#F7931E"/>
<path d="M8.49935 2.20227H4.4958C3.80709 2.20227 3.24879 2.73806 3.24879 3.39899V3.49872C3.24879 4.15965 3.80709 4.69544 4.4958 4.69544H8.49935C9.18805 4.69544 9.74636 4.15965 9.74636 3.49872V3.39899C9.74636 2.73806 9.18805 2.20227 8.49935 2.20227Z" fill="#F7931E"/>
<path d="M107.248 98.2655H87.75V103.882H107.248V98.2655Z" fill="#B3B3B3"/>
<path d="M107.248 103.876H87.75V109.493H107.248V103.876Z" fill="#333333"/>
<path d="M9.1502 96.3917H3.20503C2.51331 96.3917 1.95255 96.9299 1.95255 97.5937V97.6829C1.95255 98.3468 2.51331 98.8849 3.20503 98.8849H9.1502C9.84192 98.8849 10.4027 98.3468 10.4027 97.6829V97.5937C10.4027 96.9299 9.84192 96.3917 9.1502 96.3917Z" fill="#C1272D"/>
<path d="M10.7636 100.759H0.935256C0.418728 100.759 0 101.161 0 101.656V107.971C0 108.466 0.418728 108.868 0.935256 108.868H10.7636C11.2802 108.868 11.6989 108.466 11.6989 107.971V101.656C11.6989 101.161 11.2802 100.759 10.7636 100.759Z" fill="#333333"/>
</g>
<defs>
<linearGradient id="paint0_linear" x1="0.650848" y1="46.8012" x2="154.7" y2="46.8012" gradientUnits="userSpaceOnUse">
<stop stop-color="#CCCCCC"/>
<stop offset="1" stop-color="#A7A9AC"/>
</linearGradient>
<linearGradient id="paint1_linear" x1="9.26505" y1="45.552" x2="147.163" y2="45.552" gradientUnits="userSpaceOnUse">
<stop stop-color="white"/>
<stop offset="1" stop-color="#E6E6E6"/>
</linearGradient>
<clipPath id="clip0">
<rect width="234" height="124.118" fill="white" transform="translate(0 0.328491)"/>
</clipPath>
</defs>
</svg>
