<svg xmlns="http://www.w3.org/2000/svg" width="116.56" height="115.531" viewBox="0 0 116.56 115.531">
  <g id="grid" transform="translate(-549.977 -4263.288)" opacity="0.82">
    <g id="Group_479" data-name="Group 479" transform="translate(549.977 4263.288)">
      <circle id="Ellipse_672" data-name="Ellipse 672" cx="3.484" cy="3.484" r="3.484" fill="#e8e6ff"/>
      <circle id="Ellipse_687" data-name="Ellipse 687" cx="3.484" cy="3.484" r="3.484" transform="translate(0 24.484)" fill="#e8e6ff"/>
      <circle id="Ellipse_673" data-name="Ellipse 673" cx="3.484" cy="3.484" r="3.484" transform="translate(12.193)" fill="#e8e6ff"/>
      <circle id="Ellipse_688" data-name="Ellipse 688" cx="3.484" cy="3.484" r="3.484" transform="translate(12.193 24.484)" fill="#e8e6ff"/>
      <circle id="Ellipse_674" data-name="Ellipse 674" cx="3.484" cy="3.484" r="3.484" transform="translate(24.385)" fill="#e8e6ff"/>
      <circle id="Ellipse_689" data-name="Ellipse 689" cx="3.484" cy="3.484" r="3.484" transform="translate(24.385 24.484)" fill="#e8e6ff"/>
      <circle id="Ellipse_675" data-name="Ellipse 675" cx="3.484" cy="3.484" r="3.484" transform="translate(36.578)" fill="#e8e6ff"/>
      <circle id="Ellipse_690" data-name="Ellipse 690" cx="3.484" cy="3.484" r="3.484" transform="translate(36.578 24.484)" fill="#e8e6ff"/>
      <circle id="Ellipse_676" data-name="Ellipse 676" cx="3.484" cy="3.484" r="3.484" transform="translate(48.771)" fill="#e8e6ff"/>
      <circle id="Ellipse_691" data-name="Ellipse 691" cx="3.484" cy="3.484" r="3.484" transform="translate(48.771 24.484)" fill="#e8e6ff"/>
      <circle id="Ellipse_677" data-name="Ellipse 677" cx="3.484" cy="3.484" r="3.484" transform="translate(48.771 12.193)" fill="#e8e6ff"/>
      <circle id="Ellipse_682" data-name="Ellipse 682" cx="3.484" cy="3.484" r="3.484" transform="translate(48.771 36.677)" fill="#e8e6ff"/>
      <circle id="Ellipse_692" data-name="Ellipse 692" cx="3.484" cy="3.484" r="3.484" transform="translate(48.771 48.919)" fill="#e8e6ff"/>
      <circle id="Ellipse_678" data-name="Ellipse 678" cx="3.484" cy="3.484" r="3.484" transform="translate(36.578 12.193)" fill="#e8e6ff"/>
      <circle id="Ellipse_683" data-name="Ellipse 683" cx="3.484" cy="3.484" r="3.484" transform="translate(36.578 36.677)" fill="#e8e6ff"/>
      <circle id="Ellipse_693" data-name="Ellipse 693" cx="3.484" cy="3.484" r="3.484" transform="translate(36.578 48.919)" fill="#e8e6ff"/>
      <circle id="Ellipse_679" data-name="Ellipse 679" cx="3.484" cy="3.484" r="3.484" transform="translate(24.385 12.193)" fill="#e8e6ff"/>
      <circle id="Ellipse_684" data-name="Ellipse 684" cx="3.484" cy="3.484" r="3.484" transform="translate(24.385 36.677)" fill="#e8e6ff"/>
      <circle id="Ellipse_694" data-name="Ellipse 694" cx="3.484" cy="3.484" r="3.484" transform="translate(24.385 48.919)" fill="#e8e6ff"/>
      <circle id="Ellipse_680" data-name="Ellipse 680" cx="3.484" cy="3.484" r="3.484" transform="translate(12.193 12.193)" fill="#e8e6ff"/>
      <circle id="Ellipse_685" data-name="Ellipse 685" cx="3.484" cy="3.484" r="3.484" transform="translate(12.193 36.677)" fill="#e8e6ff"/>
      <circle id="Ellipse_695" data-name="Ellipse 695" cx="3.484" cy="3.484" r="3.484" transform="translate(12.193 48.919)" fill="#e8e6ff"/>
      <circle id="Ellipse_681" data-name="Ellipse 681" cx="3.484" cy="3.484" r="3.484" transform="translate(0 12.193)" fill="#e8e6ff"/>
      <circle id="Ellipse_686" data-name="Ellipse 686" cx="3.484" cy="3.484" r="3.484" transform="translate(0 36.677)" fill="#e8e6ff"/>
      <circle id="Ellipse_696" data-name="Ellipse 696" cx="3.484" cy="3.484" r="3.484" transform="translate(0 48.919)" fill="#e8e6ff"/>
    </g>
    <g id="Group_480" data-name="Group 480" transform="translate(549.977 4322.932)">
      <circle id="Ellipse_672-2" data-name="Ellipse 672" cx="3.484" cy="3.484" r="3.484" fill="#e8e6ff"/>
      <circle id="Ellipse_687-2" data-name="Ellipse 687" cx="3.484" cy="3.484" r="3.484" transform="translate(0 24.484)" fill="#e8e6ff"/>
      <circle id="Ellipse_673-2" data-name="Ellipse 673" cx="3.484" cy="3.484" r="3.484" transform="translate(12.193)" fill="#e8e6ff"/>
      <circle id="Ellipse_688-2" data-name="Ellipse 688" cx="3.484" cy="3.484" r="3.484" transform="translate(12.193 24.484)" fill="#e8e6ff"/>
      <circle id="Ellipse_674-2" data-name="Ellipse 674" cx="3.484" cy="3.484" r="3.484" transform="translate(24.385)" fill="#e8e6ff"/>
      <circle id="Ellipse_689-2" data-name="Ellipse 689" cx="3.484" cy="3.484" r="3.484" transform="translate(24.385 24.484)" fill="#e8e6ff"/>
      <circle id="Ellipse_675-2" data-name="Ellipse 675" cx="3.484" cy="3.484" r="3.484" transform="translate(36.578)" fill="#e8e6ff"/>
      <circle id="Ellipse_690-2" data-name="Ellipse 690" cx="3.484" cy="3.484" r="3.484" transform="translate(36.578 24.484)" fill="#e8e6ff"/>
      <circle id="Ellipse_676-2" data-name="Ellipse 676" cx="3.484" cy="3.484" r="3.484" transform="translate(48.771)" fill="#e8e6ff"/>
      <circle id="Ellipse_691-2" data-name="Ellipse 691" cx="3.484" cy="3.484" r="3.484" transform="translate(48.771 24.484)" fill="#e8e6ff"/>
      <circle id="Ellipse_677-2" data-name="Ellipse 677" cx="3.484" cy="3.484" r="3.484" transform="translate(48.771 12.193)" fill="#e8e6ff"/>
      <circle id="Ellipse_682-2" data-name="Ellipse 682" cx="3.484" cy="3.484" r="3.484" transform="translate(48.771 36.677)" fill="#e8e6ff"/>
      <circle id="Ellipse_692-2" data-name="Ellipse 692" cx="3.484" cy="3.484" r="3.484" transform="translate(48.771 48.919)" fill="#e8e6ff"/>
      <circle id="Ellipse_678-2" data-name="Ellipse 678" cx="3.484" cy="3.484" r="3.484" transform="translate(36.578 12.193)" fill="#e8e6ff"/>
      <circle id="Ellipse_683-2" data-name="Ellipse 683" cx="3.484" cy="3.484" r="3.484" transform="translate(36.578 36.677)" fill="#e8e6ff"/>
      <circle id="Ellipse_693-2" data-name="Ellipse 693" cx="3.484" cy="3.484" r="3.484" transform="translate(36.578 48.919)" fill="#e8e6ff"/>
      <circle id="Ellipse_679-2" data-name="Ellipse 679" cx="3.484" cy="3.484" r="3.484" transform="translate(24.385 12.193)" fill="#e8e6ff"/>
      <circle id="Ellipse_684-2" data-name="Ellipse 684" cx="3.484" cy="3.484" r="3.484" transform="translate(24.385 36.677)" fill="#e8e6ff"/>
      <circle id="Ellipse_694-2" data-name="Ellipse 694" cx="3.484" cy="3.484" r="3.484" transform="translate(24.385 48.919)" fill="#e8e6ff"/>
      <circle id="Ellipse_680-2" data-name="Ellipse 680" cx="3.484" cy="3.484" r="3.484" transform="translate(12.193 12.193)" fill="#e8e6ff"/>
      <circle id="Ellipse_685-2" data-name="Ellipse 685" cx="3.484" cy="3.484" r="3.484" transform="translate(12.193 36.677)" fill="#e8e6ff"/>
      <circle id="Ellipse_695-2" data-name="Ellipse 695" cx="3.484" cy="3.484" r="3.484" transform="translate(12.193 48.919)" fill="#e8e6ff"/>
      <circle id="Ellipse_681-2" data-name="Ellipse 681" cx="3.484" cy="3.484" r="3.484" transform="translate(0 12.193)" fill="#e8e6ff"/>
      <circle id="Ellipse_686-2" data-name="Ellipse 686" cx="3.484" cy="3.484" r="3.484" transform="translate(0 36.677)" fill="#e8e6ff"/>
      <circle id="Ellipse_696-2" data-name="Ellipse 696" cx="3.484" cy="3.484" r="3.484" transform="translate(0 48.919)" fill="#e8e6ff"/>
    </g>
    <g id="Group_481" data-name="Group 481" transform="translate(610.798 4322.932)">
      <circle id="Ellipse_672-3" data-name="Ellipse 672" cx="3.484" cy="3.484" r="3.484" fill="#e8e6ff"/>
      <circle id="Ellipse_687-3" data-name="Ellipse 687" cx="3.484" cy="3.484" r="3.484" transform="translate(0 24.484)" fill="#e8e6ff"/>
      <circle id="Ellipse_673-3" data-name="Ellipse 673" cx="3.484" cy="3.484" r="3.484" transform="translate(12.193)" fill="#e8e6ff"/>
      <circle id="Ellipse_688-3" data-name="Ellipse 688" cx="3.484" cy="3.484" r="3.484" transform="translate(12.193 24.484)" fill="#e8e6ff"/>
      <circle id="Ellipse_674-3" data-name="Ellipse 674" cx="3.484" cy="3.484" r="3.484" transform="translate(24.385)" fill="#e8e6ff"/>
      <circle id="Ellipse_689-3" data-name="Ellipse 689" cx="3.484" cy="3.484" r="3.484" transform="translate(24.385 24.484)" fill="#e8e6ff"/>
      <circle id="Ellipse_675-3" data-name="Ellipse 675" cx="3.484" cy="3.484" r="3.484" transform="translate(36.578)" fill="#e8e6ff"/>
      <circle id="Ellipse_690-3" data-name="Ellipse 690" cx="3.484" cy="3.484" r="3.484" transform="translate(36.578 24.484)" fill="#e8e6ff"/>
      <circle id="Ellipse_676-3" data-name="Ellipse 676" cx="3.484" cy="3.484" r="3.484" transform="translate(48.771)" fill="#e8e6ff"/>
      <circle id="Ellipse_691-3" data-name="Ellipse 691" cx="3.484" cy="3.484" r="3.484" transform="translate(48.771 24.484)" fill="#e8e6ff"/>
      <circle id="Ellipse_677-3" data-name="Ellipse 677" cx="3.484" cy="3.484" r="3.484" transform="translate(48.771 12.193)" fill="#e8e6ff"/>
      <circle id="Ellipse_682-3" data-name="Ellipse 682" cx="3.484" cy="3.484" r="3.484" transform="translate(48.771 36.677)" fill="#e8e6ff"/>
      <circle id="Ellipse_692-3" data-name="Ellipse 692" cx="3.484" cy="3.484" r="3.484" transform="translate(48.771 48.919)" fill="#e8e6ff"/>
      <circle id="Ellipse_678-3" data-name="Ellipse 678" cx="3.484" cy="3.484" r="3.484" transform="translate(36.578 12.193)" fill="#e8e6ff"/>
      <circle id="Ellipse_683-3" data-name="Ellipse 683" cx="3.484" cy="3.484" r="3.484" transform="translate(36.578 36.677)" fill="#e8e6ff"/>
      <circle id="Ellipse_693-3" data-name="Ellipse 693" cx="3.484" cy="3.484" r="3.484" transform="translate(36.578 48.919)" fill="#e8e6ff"/>
      <circle id="Ellipse_679-3" data-name="Ellipse 679" cx="3.484" cy="3.484" r="3.484" transform="translate(24.385 12.193)" fill="#e8e6ff"/>
      <circle id="Ellipse_684-3" data-name="Ellipse 684" cx="3.484" cy="3.484" r="3.484" transform="translate(24.385 36.677)" fill="#e8e6ff"/>
      <circle id="Ellipse_694-3" data-name="Ellipse 694" cx="3.484" cy="3.484" r="3.484" transform="translate(24.385 48.919)" fill="#e8e6ff"/>
      <circle id="Ellipse_680-3" data-name="Ellipse 680" cx="3.484" cy="3.484" r="3.484" transform="translate(12.193 12.193)" fill="#e8e6ff"/>
      <circle id="Ellipse_685-3" data-name="Ellipse 685" cx="3.484" cy="3.484" r="3.484" transform="translate(12.193 36.677)" fill="#e8e6ff"/>
      <circle id="Ellipse_695-3" data-name="Ellipse 695" cx="3.484" cy="3.484" r="3.484" transform="translate(12.193 48.919)" fill="#e8e6ff"/>
      <circle id="Ellipse_681-3" data-name="Ellipse 681" cx="3.484" cy="3.484" r="3.484" transform="translate(0 12.193)" fill="#e8e6ff"/>
      <circle id="Ellipse_686-3" data-name="Ellipse 686" cx="3.484" cy="3.484" r="3.484" transform="translate(0 36.677)" fill="#e8e6ff"/>
      <circle id="Ellipse_696-3" data-name="Ellipse 696" cx="3.484" cy="3.484" r="3.484" transform="translate(0 48.919)" fill="#e8e6ff"/>
    </g>
    <g id="Group_482" data-name="Group 482" transform="translate(610.798 4263.288)">
      <circle id="Ellipse_672-4" data-name="Ellipse 672" cx="3.484" cy="3.484" r="3.484" fill="#e8e6ff"/>
      <circle id="Ellipse_687-4" data-name="Ellipse 687" cx="3.484" cy="3.484" r="3.484" transform="translate(0 24.484)" fill="#e8e6ff"/>
      <circle id="Ellipse_673-4" data-name="Ellipse 673" cx="3.484" cy="3.484" r="3.484" transform="translate(12.193)" fill="#e8e6ff"/>
      <circle id="Ellipse_688-4" data-name="Ellipse 688" cx="3.484" cy="3.484" r="3.484" transform="translate(12.193 24.484)" fill="#e8e6ff"/>
      <circle id="Ellipse_674-4" data-name="Ellipse 674" cx="3.484" cy="3.484" r="3.484" transform="translate(24.385)" fill="#e8e6ff"/>
      <circle id="Ellipse_689-4" data-name="Ellipse 689" cx="3.484" cy="3.484" r="3.484" transform="translate(24.385 24.484)" fill="#e8e6ff"/>
      <circle id="Ellipse_675-4" data-name="Ellipse 675" cx="3.484" cy="3.484" r="3.484" transform="translate(36.578)" fill="#e8e6ff"/>
      <circle id="Ellipse_690-4" data-name="Ellipse 690" cx="3.484" cy="3.484" r="3.484" transform="translate(36.578 24.484)" fill="#e8e6ff"/>
      <circle id="Ellipse_676-4" data-name="Ellipse 676" cx="3.484" cy="3.484" r="3.484" transform="translate(48.771)" fill="#e8e6ff"/>
      <circle id="Ellipse_691-4" data-name="Ellipse 691" cx="3.484" cy="3.484" r="3.484" transform="translate(48.771 24.484)" fill="#e8e6ff"/>
      <circle id="Ellipse_677-4" data-name="Ellipse 677" cx="3.484" cy="3.484" r="3.484" transform="translate(48.771 12.193)" fill="#e8e6ff"/>
      <circle id="Ellipse_682-4" data-name="Ellipse 682" cx="3.484" cy="3.484" r="3.484" transform="translate(48.771 36.677)" fill="#e8e6ff"/>
      <circle id="Ellipse_692-4" data-name="Ellipse 692" cx="3.484" cy="3.484" r="3.484" transform="translate(48.771 48.919)" fill="#e8e6ff"/>
      <circle id="Ellipse_678-4" data-name="Ellipse 678" cx="3.484" cy="3.484" r="3.484" transform="translate(36.578 12.193)" fill="#e8e6ff"/>
      <circle id="Ellipse_683-4" data-name="Ellipse 683" cx="3.484" cy="3.484" r="3.484" transform="translate(36.578 36.677)" fill="#e8e6ff"/>
      <circle id="Ellipse_693-4" data-name="Ellipse 693" cx="3.484" cy="3.484" r="3.484" transform="translate(36.578 48.919)" fill="#e8e6ff"/>
      <circle id="Ellipse_679-4" data-name="Ellipse 679" cx="3.484" cy="3.484" r="3.484" transform="translate(24.385 12.193)" fill="#e8e6ff"/>
      <circle id="Ellipse_684-4" data-name="Ellipse 684" cx="3.484" cy="3.484" r="3.484" transform="translate(24.385 36.677)" fill="#e8e6ff"/>
      <circle id="Ellipse_694-4" data-name="Ellipse 694" cx="3.484" cy="3.484" r="3.484" transform="translate(24.385 48.919)" fill="#e8e6ff"/>
      <circle id="Ellipse_680-4" data-name="Ellipse 680" cx="3.484" cy="3.484" r="3.484" transform="translate(12.193 12.193)" fill="#e8e6ff"/>
      <circle id="Ellipse_685-4" data-name="Ellipse 685" cx="3.484" cy="3.484" r="3.484" transform="translate(12.193 36.677)" fill="#e8e6ff"/>
      <circle id="Ellipse_695-4" data-name="Ellipse 695" cx="3.484" cy="3.484" r="3.484" transform="translate(12.193 48.919)" fill="#e8e6ff"/>
      <circle id="Ellipse_681-4" data-name="Ellipse 681" cx="3.484" cy="3.484" r="3.484" transform="translate(0 12.193)" fill="#e8e6ff"/>
      <circle id="Ellipse_686-4" data-name="Ellipse 686" cx="3.484" cy="3.484" r="3.484" transform="translate(0 36.677)" fill="#e8e6ff"/>
      <circle id="Ellipse_696-4" data-name="Ellipse 696" cx="3.484" cy="3.484" r="3.484" transform="translate(0 48.919)" fill="#e8e6ff"/>
    </g>
  </g>
</svg>
