<svg width="701" height="351" viewBox="0 0 701 351" fill="none" xmlns="http://www.w3.org/2000/svg">
<mask id="mask0" mask-type="alpha" maskUnits="userSpaceOnUse" x="0" y="0" width="701" height="351">
<path d="M0.871094 0.574402H700.869V332.575C700.869 342.516 692.81 350.575 682.869 350.575H18.8711C8.92995 350.575 0.871094 342.516 0.871094 332.575V0.574402Z" fill="#C4C4C4"/>
</mask>
<g mask="url(#mask0)">
<path d="M0.871094 350.575V0.574402L351.009 176.001L700.871 0.574402V350.575H0.871094Z" fill="#FFB489"/>
<path d="M351.014 175.997L0.873047 350.575H700.871L351.014 175.997Z" fill="#FFBC96"/>
<path d="M98.5086 160.036H93.8106V172.636H96.2946V168.496H98.5086C100.939 168.496 102.811 166.624 102.811 164.266C102.811 161.908 100.939 160.036 98.5086 160.036ZM98.5086 166.174H96.2946V162.358H98.5086C99.5706 162.358 100.345 163.168 100.345 164.266C100.345 165.346 99.5706 166.174 98.5086 166.174ZM111.34 172.636H114.022L111.232 167.884C112.672 167.218 113.662 165.796 113.662 164.212C113.662 161.908 111.79 160.036 109.468 160.036H104.428V172.636H106.912V168.262H108.802L111.34 172.636ZM106.912 162.358H109.468C110.404 162.358 111.178 163.168 111.178 164.212C111.178 165.256 110.404 166.084 109.468 166.084H106.912V162.358ZM115.484 160.036V172.636H117.968V160.036H115.484ZM126.259 172.888C129.895 172.888 132.811 170.008 132.811 166.336C132.811 162.646 129.895 159.784 126.259 159.784C122.623 159.784 119.725 162.646 119.725 166.336C119.725 170.008 122.623 172.888 126.259 172.888ZM126.259 170.458C123.973 170.458 122.191 168.748 122.191 166.336C122.191 163.906 123.973 162.196 126.259 162.196C128.545 162.196 130.327 163.906 130.327 166.336C130.327 168.748 128.545 170.458 126.259 170.458ZM141.469 172.636H144.151L141.361 167.884C142.801 167.218 143.791 165.796 143.791 164.212C143.791 161.908 141.919 160.036 139.597 160.036H134.557V172.636H137.041V168.262H138.931L141.469 172.636ZM137.041 162.358H139.597C140.533 162.358 141.307 163.168 141.307 164.212C141.307 165.256 140.533 166.084 139.597 166.084H137.041V162.358ZM145.613 160.036V172.636H148.097V160.036H145.613ZM158.764 160.036H149.494V162.412H152.878V172.636H155.362V162.412H158.764V160.036ZM170.122 160.036H167.314L164.578 165.292L161.842 160.036H159.034L163.336 167.722V172.636H165.802V167.722L170.122 160.036ZM188.16 160.036H185.604L182.004 165.994L178.386 160.036H175.83V172.636H178.314V164.482L181.86 170.314H182.148L185.694 164.464V172.636H188.16V160.036ZM198.608 172.636H201.308L196.88 160.036H193.802L189.392 172.636H192.074L192.83 170.368H197.852L198.608 172.636ZM193.622 168.046L195.35 162.898L197.078 168.046H193.622ZM202.531 160.036V172.636H205.015V160.036H202.531ZM209.832 170.26V160.036H207.348V172.636H214.638V170.26H209.832ZM99.9626 185.836H92.8926V187.068H95.7766V195.636H97.0646V187.068H99.9626V185.836ZM105.241 195.818C108.083 195.818 110.323 193.55 110.323 190.736C110.323 187.908 108.083 185.654 105.241 185.654C102.399 185.654 100.173 187.908 100.173 190.736C100.173 193.55 102.399 195.818 105.241 195.818ZM105.241 194.544C103.099 194.544 101.461 192.878 101.461 190.736C101.461 188.58 103.099 186.914 105.241 186.914C107.383 186.914 109.021 188.58 109.021 190.736C109.021 192.878 107.383 194.544 105.241 194.544ZM112.258 190.288C112.776 190.288 113.168 189.882 113.168 189.378C113.168 188.874 112.776 188.468 112.258 188.468C111.754 188.468 111.348 188.874 111.348 189.378C111.348 189.882 111.754 190.288 112.258 190.288ZM112.258 195.79C112.776 195.79 113.168 195.384 113.168 194.88C113.168 194.376 112.776 193.97 112.258 193.97C111.754 193.97 111.348 194.376 111.348 194.88C111.348 195.384 111.754 195.79 112.258 195.79ZM124.119 190.554C124.763 190.106 125.183 189.392 125.183 188.51C125.183 186.998 123.965 185.836 122.439 185.836H118.519V195.636H122.747C124.329 195.636 125.589 194.432 125.589 192.864C125.589 191.8 125.001 190.974 124.119 190.554ZM122.439 187.054C123.251 187.054 123.895 187.726 123.895 188.552C123.895 189.392 123.251 190.05 122.439 190.05H119.821V187.054H122.439ZM122.747 194.418H119.821V191.24H122.747C123.615 191.24 124.301 191.94 124.301 192.822C124.301 193.718 123.615 194.418 122.747 194.418ZM128.434 194.404V191.296H132.564V190.078H128.434V187.068H132.914V185.836H127.132V195.636H132.984V194.404H128.434ZM137.72 195.818C139.722 195.818 141.108 194.726 141.108 193.004C141.108 191.114 139.498 190.61 137.79 190.05C136.418 189.616 135.732 189.28 135.732 188.37C135.732 187.474 136.46 186.914 137.51 186.914C138.7 186.914 139.386 187.586 139.736 188.426L140.828 187.796C140.282 186.564 139.12 185.654 137.51 185.654C135.872 185.654 134.43 186.662 134.43 188.426C134.43 190.246 135.942 190.736 137.51 191.24C138.952 191.688 139.82 192.024 139.82 193.032C139.82 193.914 139.134 194.544 137.748 194.544C136.32 194.544 135.48 193.844 135.13 192.766L134.01 193.41C134.528 194.88 135.858 195.818 137.72 195.818ZM148.566 185.836H141.496V187.068H144.38V195.636H145.668V187.068H148.566V185.836ZM156.519 195.818C158.521 195.818 159.907 194.726 159.907 193.004C159.907 191.114 158.297 190.61 156.589 190.05C155.217 189.616 154.531 189.28 154.531 188.37C154.531 187.474 155.259 186.914 156.309 186.914C157.499 186.914 158.185 187.586 158.535 188.426L159.627 187.796C159.081 186.564 157.919 185.654 156.309 185.654C154.671 185.654 153.229 186.662 153.229 188.426C153.229 190.246 154.741 190.736 156.309 191.24C157.751 191.688 158.619 192.024 158.619 193.032C158.619 193.914 157.933 194.544 156.547 194.544C155.119 194.544 154.279 193.844 153.929 192.766L152.809 193.41C153.327 194.88 154.657 195.818 156.519 195.818ZM162.682 194.404V191.296H166.812V190.078H162.682V187.068H167.162V185.836H161.38V195.636H167.232V194.404H162.682ZM174.614 195.636H176.056L173.746 191.716C174.922 191.296 175.776 190.162 175.776 188.874C175.776 187.194 174.404 185.836 172.724 185.836H168.804V195.636H170.106V191.884H172.416L174.614 195.636ZM170.106 187.054H172.724C173.69 187.054 174.474 187.866 174.474 188.874C174.474 189.882 173.69 190.708 172.724 190.708H170.106V187.054ZM179.774 195.636H181.244L184.758 185.836H183.344L180.516 194.012L177.674 185.836H176.274L179.774 195.636ZM185.907 185.836V195.636H187.209V185.836H185.907ZM193.918 195.818C195.738 195.818 197.334 194.866 198.146 193.424L197.012 192.78C196.452 193.844 195.262 194.544 193.918 194.544C191.622 194.544 190.082 192.878 190.082 190.736C190.082 188.58 191.622 186.914 193.918 186.914C195.262 186.914 196.452 187.614 197.012 188.692L198.146 188.034C197.32 186.592 195.724 185.654 193.918 185.654C190.922 185.654 188.794 187.908 188.794 190.736C188.794 193.55 190.922 195.818 193.918 195.818ZM200.922 194.404V191.296H205.052V190.078H200.922V187.068H205.402V185.836H199.62V195.636H205.472V194.404H200.922Z" fill="#966042"/>
<path fill-rule="evenodd" clip-rule="evenodd" d="M572.557 140.261C572.747 138.736 574.136 137.654 575.661 137.844L624.542 143.929C626.067 144.119 627.149 145.509 626.959 147.033L619.01 210.888C618.82 212.413 617.43 213.495 615.906 213.305L567.025 207.221C565.5 207.031 564.418 205.641 564.608 204.116L572.557 140.261ZM575.801 141.226L567.989 203.976L615.766 209.924L623.577 147.173L575.801 141.226Z" fill="#966041"/>
<path fill-rule="evenodd" clip-rule="evenodd" d="M622.371 129.794L616.282 129.036L614.032 128.756L613.823 130.433C613.581 132.377 611.809 133.757 609.865 133.515C607.921 133.273 606.541 131.501 606.783 129.557L606.992 127.879L604.906 127.62L598.817 126.862L596.568 126.582L596.359 128.259C596.117 130.203 594.345 131.583 592.401 131.341C590.457 131.099 589.077 129.327 589.319 127.383L589.528 125.706L587.441 125.446L581.352 124.688L579.104 124.408L578.895 126.085C578.653 128.029 576.881 129.409 574.937 129.167C572.993 128.925 571.613 127.153 571.855 125.209L572.064 123.532L569.976 123.272L563.485 122.464C561.961 122.274 560.571 123.356 560.381 124.881L560.027 127.722L560.029 127.722L559.482 132.112L561.167 132.322L561.168 132.322C563.12 132.565 564.505 134.344 564.262 136.297C564.019 138.249 562.24 139.634 560.287 139.391L560.277 139.39L558.602 139.182L558.076 143.407L558.075 143.407L557.844 145.26L557.845 145.26L557.299 149.65L558.983 149.86L558.984 149.86C560.936 150.103 562.322 151.882 562.079 153.835C561.836 155.787 560.056 157.172 558.104 156.929L558.096 156.928L556.419 156.72L555.893 160.945L555.892 160.945L555.661 162.797L555.662 162.797L555.116 167.187L556.8 167.397L556.801 167.397C558.753 167.64 560.139 169.419 559.896 171.372C559.653 173.324 557.873 174.709 555.921 174.466L555.918 174.466L554.236 174.257L553.71 178.482L553.708 178.482L553.478 180.334L553.479 180.334L552.933 184.724L554.611 184.933L554.618 184.934C556.57 185.177 557.956 186.956 557.713 188.909C557.47 190.861 555.69 192.246 553.738 192.003L553.737 192.003L552.053 191.794L551.527 196.019L551.525 196.019L551.305 197.791L551.306 197.791L550.76 202.181L552.438 202.39L552.445 202.391C554.397 202.634 555.783 204.413 555.54 206.365C555.297 208.318 553.517 209.703 551.565 209.46L551.564 209.46L549.88 209.25L549.354 213.476L549.352 213.476L549.033 216.042C548.843 217.567 549.925 218.957 551.45 219.146L557.919 219.952L560.121 220.226L560.33 218.549C560.572 216.605 562.344 215.225 564.288 215.467C566.232 215.709 567.612 217.481 567.37 219.425L567.161 221.102L569.295 221.368L575.384 222.126L577.586 222.4L577.795 220.723C578.037 218.779 579.809 217.399 581.753 217.641C583.697 217.883 585.077 219.655 584.835 221.599L584.626 223.277L586.76 223.542L592.849 224.3L595.05 224.574L595.259 222.897C595.501 220.953 597.273 219.573 599.217 219.815C601.161 220.057 602.541 221.829 602.299 223.773L602.09 225.451L604.225 225.716L610.314 226.474L612.514 226.748L612.722 225.071C612.964 223.127 614.737 221.747 616.681 221.989C618.625 222.231 620.005 224.003 619.763 225.947L619.554 227.624L621.69 227.89L628.077 228.685C629.602 228.875 630.992 227.793 631.182 226.268L631.488 223.806L631.469 223.803L632.015 219.414L630.331 219.204L630.33 219.204C628.378 218.961 626.992 217.181 627.235 215.229C627.478 213.277 629.258 211.891 631.21 212.134L631.22 212.136L632.895 212.344L633.421 208.119L633.441 208.121L633.672 206.268L633.652 206.265L634.199 201.876L632.514 201.666L632.513 201.666C630.561 201.423 629.175 199.643 629.418 197.691C629.661 195.739 631.441 194.353 633.393 194.596L633.402 194.597L635.079 194.806L635.605 190.58L635.624 190.583L635.855 188.731L635.835 188.728L636.382 184.339L634.697 184.129L634.696 184.129C632.744 183.886 631.358 182.106 631.601 180.154C631.844 178.202 633.624 176.816 635.576 177.059L635.579 177.06L637.262 177.269L637.788 173.044L637.807 173.046L638.038 171.194L638.018 171.191L638.565 166.802L636.887 166.593L636.879 166.592C634.927 166.349 633.541 164.569 633.784 162.617C634.028 160.665 635.807 159.279 637.759 159.522L637.76 159.522L639.445 159.732L639.971 155.507L639.99 155.509L640.211 153.737L640.191 153.735L640.738 149.345L639.06 149.136L639.052 149.135C637.1 148.892 635.715 147.112 635.958 145.16C636.201 143.208 637.98 141.822 639.932 142.065L639.933 142.066L641.618 142.275L642.144 138.05L642.163 138.052L642.53 135.107C642.72 133.582 641.638 132.192 640.113 132.003L633.747 131.21L631.497 130.93L631.288 132.607C631.046 134.551 629.274 135.931 627.33 135.689C625.386 135.447 624.006 133.675 624.248 131.731L624.457 130.054L622.371 129.794ZM561.654 141.681L560.925 147.537C563.326 148.565 564.862 151.088 564.523 153.81C564.184 156.531 562.077 158.601 559.497 159.009L558.734 165.137C561.135 166.165 562.671 168.688 562.332 171.41C561.993 174.132 559.886 176.201 557.306 176.609L556.543 182.737C558.944 183.766 560.48 186.289 560.141 189.01C559.802 191.732 557.695 193.801 555.115 194.209L554.352 200.338C556.753 201.366 558.289 203.889 557.95 206.611C557.611 209.332 555.504 211.402 552.924 211.81L552.414 215.902L558.331 216.639C559.355 214.263 561.855 212.745 564.551 213.08C567.247 213.416 569.298 215.501 569.708 218.055L575.796 218.813C576.82 216.437 579.319 214.919 582.016 215.255C584.712 215.59 586.763 217.675 587.173 220.229L593.261 220.987C594.285 218.611 596.784 217.093 599.48 217.429C602.177 217.764 604.228 219.849 604.638 222.403L610.726 223.161C611.75 220.785 614.249 219.267 616.945 219.603C619.642 219.938 621.693 222.023 622.102 224.577L627.938 225.304L628.43 221.347C626.029 220.319 624.493 217.796 624.832 215.074C625.171 212.353 627.278 210.283 629.858 209.875L630.621 203.747C628.22 202.719 626.684 200.196 627.023 197.474C627.362 194.752 629.469 192.683 632.049 192.275L632.812 186.147C630.411 185.119 628.875 182.596 629.214 179.874C629.553 177.152 631.66 175.083 634.24 174.675L635.003 168.546C632.602 167.518 631.066 164.995 631.405 162.273C631.743 159.552 633.851 157.482 636.431 157.074L637.16 151.218C634.759 150.19 633.223 147.667 633.562 144.945C633.901 142.224 636.008 140.154 638.588 139.746L639.148 135.247L633.335 134.523C632.311 136.899 629.811 138.417 627.115 138.081C624.419 137.746 622.368 135.661 621.958 133.107L615.87 132.349C614.846 134.725 612.347 136.243 609.65 135.907C606.954 135.572 604.903 133.487 604.493 130.933L598.405 130.175C597.381 132.551 594.882 134.069 592.186 133.733C589.489 133.398 587.438 131.313 587.028 128.759L580.94 128.001C579.916 130.377 577.417 131.895 574.721 131.559C572.024 131.224 569.973 129.139 569.564 126.585L563.625 125.845L563.082 130.209C565.483 131.237 567.019 133.76 566.68 136.481C566.341 139.203 564.234 141.273 561.654 141.681Z" fill="#966041"/>
<path d="M602.132 193.084C598.405 194.581 593.667 195.4 587.919 195.541C586.951 195.565 586.069 195.182 585.274 194.394C584.496 193.606 584.095 192.751 584.072 191.831L583.442 166.16C583.367 165.063 583.3 163.967 583.24 162.869C583.161 161.628 583.176 160.577 583.284 159.718C583.473 158.195 584.863 157.24 587.455 156.853C588.673 156.468 590.703 156.241 593.544 156.171C596.596 156.096 599.542 157.009 602.384 158.91C605.717 161.122 607.426 163.948 607.511 167.387C607.556 169.243 607.256 170.818 606.609 172.11C606.102 173.156 605.2 174.285 603.905 175.496C605.49 176.217 606.907 177.329 608.155 178.833C609.57 180.511 610.297 182.197 610.339 183.892C610.392 186.04 609.271 188.103 606.977 190.081C605.443 191.395 603.827 192.396 602.132 193.084ZM593.705 162.734C591.623 162.785 590.372 162.832 589.953 162.874L590.103 168.008L590.204 173.094C591.677 173.236 592.785 173.265 593.526 173.182C598.457 172.674 600.882 170.797 600.803 167.551C600.774 166.405 600.021 165.317 598.541 164.287C597.013 163.21 595.401 162.692 593.705 162.734ZM596.959 179.786C595.49 179.822 593.293 179.82 590.368 179.778L590.59 188.836C593.363 188.622 596.361 188.016 599.584 187.016C602.406 186.139 603.789 185.232 603.734 184.297C603.655 183.055 602.715 181.971 600.916 181.046C599.508 180.305 598.189 179.885 596.959 179.786Z" fill="#966041"/>
</g>
</svg>
