<svg width="206" height="128" viewBox="0 0 206 128" fill="none" xmlns="http://www.w3.org/2000/svg">
<g clip-path="url(#clip0)">
<path d="M187.586 84.762H169.562C165.575 84.762 162.344 87.9512 162.344 91.8852V107.515C162.344 111.449 165.575 114.638 169.562 114.638H187.586C191.572 114.638 194.804 111.449 194.804 107.515V91.8852C194.804 87.9512 191.572 84.762 187.586 84.762Z" fill="#441706"/>
<path d="M129.371 40.3847C129.371 40.3847 127.296 40.4838 126.862 40.314C126.428 40.1442 125.282 39.4722 125.45 38.7153C125.558 38.2449 126.418 38.9947 126.765 38.8568C127.113 38.7189 126.049 38.6163 125.998 38.4395C125.948 38.2626 126.876 38.1671 127.213 38.1105C127.55 38.0539 128.514 38.8179 129.281 39.0266C130.048 39.2353 129.371 40.3847 129.371 40.3847Z" fill="#FFB27D"/>
<path d="M156.451 38.1601C156.451 38.1601 153.584 41.3716 150.083 41.8349C146.581 42.2983 141.431 43.3346 139.84 43.3346C138.248 43.3346 129.22 40.5758 129.22 40.5758C129.109 40.2787 129.118 39.9505 129.245 39.6598C129.348 39.3076 129.576 39.0038 129.887 38.8038C129.887 38.8038 136.077 38.9559 138.965 39.352C140.166 39.5183 148.345 34.7081 149.624 31.8044C150.129 30.6619 156.451 38.1601 156.451 38.1601Z" fill="#CD5925"/>
<path d="M75.1141 84.2232L38.2561 79.7378L34.5083 109.73L71.3663 114.215L75.1141 84.2232Z" fill="#ED823A"/>
<path d="M56.683 81.9754L19.825 77.49L16.0773 107.482L52.9353 111.967L56.683 81.9754Z" fill="#FF9E55"/>
<path d="M72.2817 106.609L66.4398 105.898L67.1602 104.339L66.7875 103.118L72.6293 103.829L72.2817 106.609Z" fill="#DD732C"/>
<path d="M55.5123 91.2663L49.674 90.5518L50.3907 88.9956L50.0216 87.7719L55.8599 88.4828L55.5123 91.2663Z" fill="#FFB27D"/>
<path d="M55.8599 88.4828L61.7018 89.1937L60.985 90.7535L61.3542 91.9772L55.5123 91.2663L55.8599 88.4828Z" fill="#DD732C"/>
<path d="M16.9773 100.204L22.8192 100.915L22.0988 102.471L22.4716 103.695L16.6297 102.984L16.9773 100.204Z" fill="#FFB27D"/>
<path d="M21.4595 83.9006L32.0666 85.1914L32.5754 81.1195L21.9684 79.8286L21.4595 83.9006Z" fill="white"/>
<path d="M78.3136 58.6038L46.6489 54.7504L43.4292 80.5159L75.094 84.3693L78.3136 58.6038Z" fill="#ED823A"/>
<path d="M62.4829 56.678L30.8181 52.8246L27.5985 78.5901L59.2632 82.4435L62.4829 56.678Z" fill="#FF9E55"/>
<path d="M75.8836 77.8368L70.866 77.2285L71.4825 75.888L71.1635 74.8375L76.1811 75.4494L75.8836 77.8368Z" fill="#DD732C"/>
<path d="M61.476 64.6548L56.4584 64.0429L57.0749 62.706L56.7595 61.6555L61.7771 62.2674L61.476 64.6548Z" fill="#FFB27D"/>
<path d="M61.777 62.2675L66.7946 62.8758L66.1782 64.2163L66.4936 65.2667L61.476 64.6548L61.777 62.2675Z" fill="#DD732C"/>
<path d="M28.3708 72.3334L33.3883 72.9453L32.7719 74.2822L33.0909 75.3327L28.0733 74.7208L28.3708 72.3334Z" fill="#FFB27D"/>
<path d="M32.2195 58.3312L41.3326 59.4402L41.77 55.9404L32.6568 54.8314L32.2195 58.3312Z" fill="white"/>
<path d="M49.7692 88.9777L23.0345 85.7242L20.3162 107.478L47.0509 110.731L49.7692 88.9777Z" fill="#ED823A"/>
<path d="M36.3986 87.3505L9.66391 84.097L6.94566 105.85L33.6803 109.104L36.3986 87.3505Z" fill="#FF9E55"/>
<path d="M47.7099 105.216L43.4737 104.699L43.9933 103.568L43.7281 102.683L47.9644 103.2L47.7099 105.216Z" fill="#DD732C"/>
<path d="M35.5495 94.0853L31.3132 93.5689L31.8329 92.4406L31.5641 91.5529L35.8004 92.0692L35.5495 94.0853Z" fill="#FFB27D"/>
<path d="M35.8004 92.0692L40.0366 92.5856L39.517 93.7138L39.7858 94.6016L35.5495 94.0852L35.8004 92.0692Z" fill="#DD732C"/>
<path d="M7.59803 100.568L11.8343 101.085L11.3146 102.216L11.5798 103.101L7.34357 102.584L7.59803 100.568Z" fill="#FFB27D"/>
<path d="M10.8431 88.7425L18.537 89.6788L18.9059 86.7267L11.212 85.7904L10.8431 88.7425Z" fill="white"/>
<path d="M106.284 2.48622L91.2306 0.654297L76.5752 117.937L91.6286 119.768L106.284 2.48622Z" fill="#441706"/>
<path d="M177.167 68.2518H141.399C137.816 68.2518 134.912 71.118 134.912 74.6536V81.5363C134.912 85.0719 137.816 87.9381 141.399 87.9381H177.167C180.75 87.9381 183.654 85.0719 183.654 81.5363V74.6536C183.654 71.118 180.75 68.2518 177.167 68.2518Z" fill="#E87B4B"/>
<path d="M102.183 103.21L163.928 105.683V80.5283L101.158 81.5399L102.183 103.21Z" fill="#BA5021"/>
<path d="M118.886 122.164C126.351 114.796 126.351 102.851 118.886 95.4835C111.42 88.116 99.3158 88.116 91.8501 95.4835C84.3845 102.851 84.3845 114.796 91.8501 122.164C99.3158 129.531 111.42 129.531 118.886 122.164Z" fill="#E1632A"/>
<path d="M116.248 110.574C117.223 104.647 113.145 99.0623 107.139 98.1002C101.133 97.1381 95.4735 101.163 94.4986 107.09C93.5237 113.017 97.6022 118.602 103.608 119.564C109.614 120.526 115.273 116.501 116.248 110.574Z" fill="#441706"/>
<path d="M205.588 116.229C207.499 108.236 202.484 100.228 194.385 98.3418C186.286 96.4554 178.171 101.405 176.26 109.398C174.348 117.39 179.364 125.398 187.463 127.285C195.562 129.171 203.676 124.221 205.588 116.229Z" fill="#E1632A"/>
<path d="M182.253 112.82C182.253 111.126 182.763 109.47 183.717 108.062C184.671 106.653 186.027 105.556 187.614 104.908C189.2 104.26 190.945 104.091 192.629 104.422C194.312 104.753 195.859 105.569 197.072 106.767C198.286 107.966 199.112 109.492 199.447 111.154C199.781 112.815 199.609 114.537 198.952 116.103C198.295 117.668 197.183 119.005 195.755 119.946C194.328 120.888 192.65 121.39 190.933 121.39C189.793 121.39 188.664 121.168 187.61 120.737C186.557 120.307 185.6 119.675 184.794 118.88C183.988 118.084 183.348 117.139 182.912 116.099C182.476 115.06 182.252 113.945 182.253 112.82Z" fill="#441706"/>
<path d="M180.009 64.3577V75.5873H164.078L126.002 100.278V118.635H163.677C164.613 118.635 165.541 118.453 166.406 118.099C167.271 117.745 168.058 117.227 168.72 116.573C169.382 115.92 169.908 115.144 170.266 114.29C170.624 113.436 170.809 112.52 170.809 111.596V107.458C170.809 105.247 171.352 103.068 172.392 101.109C173.432 99.1506 174.937 97.4697 176.78 96.2108C178.885 94.7701 181.386 93.9999 183.948 94.0038H195.976C197.538 94.0038 199.037 93.3912 200.142 92.3007C201.247 91.2102 201.868 89.7313 201.868 88.1891V70.5896C201.868 68.9368 201.202 67.3517 200.018 66.183C198.834 65.0142 197.227 64.3577 195.553 64.3577H180.009Z" fill="#E1632A"/>
<path d="M102.373 87.5455L97.1438 86.9796L126.511 18.2934C128.381 13.9042 131.523 10.1581 135.544 7.52589C139.564 4.89363 144.283 3.49255 149.108 3.49868H173.741C176.66 3.50242 179.46 4.64873 181.524 6.68622C183.589 8.72371 184.75 11.4861 184.754 14.3675V75.5873H179.737V14.3675C179.735 12.7959 179.101 11.2893 177.975 10.178C176.849 9.0667 175.322 8.44156 173.73 8.43969H149.108C145.268 8.43485 141.512 9.54988 138.313 11.6447C135.113 13.7396 132.612 16.7208 131.124 20.214L102.373 87.5455Z" fill="#441706"/>
<path d="M127.518 119.996C127.156 119.995 126.809 119.853 126.553 119.601C126.298 119.348 126.153 119.006 126.152 118.649V104.823C126.147 100.248 124.302 95.861 121.023 92.6259C117.744 89.3908 113.299 87.5713 108.663 87.5667C108.61 87.5703 108.557 87.5703 108.505 87.5667C108.397 87.5667 97.6778 86.4172 89.4812 92.7199C89.1945 92.9175 88.8419 92.999 88.4962 92.9476C88.1504 92.8962 87.8378 92.7159 87.6227 92.4438C87.4077 92.1718 87.3066 91.8286 87.3403 91.4852C87.374 91.1417 87.5399 90.8241 87.8039 90.5978C96.6026 83.8317 107.584 84.7655 108.742 84.8857C114.089 84.9109 119.208 87.0234 122.982 90.7617C126.756 94.5 128.878 99.5603 128.883 104.837V118.663C128.879 119.018 128.733 119.356 128.478 119.606C128.222 119.855 127.877 119.995 127.518 119.996Z" fill="#441706"/>
<path d="M77.0203 114.348L0.45871 105.031L0.0104198 108.619L76.5721 117.936L77.0203 114.348Z" fill="#441706"/>
<path d="M81.8149 75.9903L78.4286 75.5782L73.1869 117.526L76.5732 117.938L81.8149 75.9903Z" fill="#441706"/>
<path d="M169.981 45.6264L168.189 68.2625H139.736C139.736 68.2625 138.23 61.9385 142.961 61.6626C147.692 61.3868 158.978 59.7067 158.978 59.7067C158.978 59.7067 158.423 45.6547 167.125 43.3133C167.473 43.2217 167.839 43.2133 168.192 43.2888C168.545 43.3643 168.874 43.5215 169.153 43.7475C169.432 43.9735 169.653 44.2617 169.797 44.5884C169.941 44.9151 170.004 45.2709 169.981 45.6264Z" fill="#BA5021"/>
<path d="M154.355 30.34C154.355 30.34 151.441 32.1085 148.28 31.5956C148.28 31.5956 147.656 31.44 147.965 30.7149C147.852 30.3985 147.758 30.0762 147.681 29.7494C147.533 29.2315 147.414 28.7061 147.323 28.1755L149.115 26.3151L150.814 24.5466C151.291 28.7838 154.355 30.34 154.355 30.34Z" fill="#FFB27D"/>
<path d="M151.083 26.1488C151.083 26.1488 150.108 28.7237 147.681 29.7493C147.405 28.7519 147.226 27.705 147.226 27.705L149.115 26.315L151.083 26.1488Z" fill="#ED985F"/>
<path d="M145.309 28.0835C145.309 28.0835 150.871 28.7696 151.258 25.399C151.645 22.0284 152.631 19.8426 149.108 19.2625C145.585 18.6825 144.735 19.8956 144.323 20.9885C143.911 22.0814 143.872 27.8182 145.309 28.0835Z" fill="#FFB27D"/>
<path d="M153.014 18.7143C153.065 18.6542 153.179 18.6046 153.434 18.5834C153.284 18.5064 153.118 18.4663 152.95 18.4667C152.882 18.113 152.667 17.4976 152.043 17.3667C152.146 17.4209 152.236 17.4974 152.305 17.5905C152.373 17.6836 152.42 17.7909 152.441 17.9043C151.699 17.197 149.14 18.2227 145.925 17.2253C141.008 15.6973 138.399 16.4542 143.058 21.7206C143.614 22.3431 145.567 20.893 146.925 20.9496C148.284 21.0062 148.603 22.9126 149.076 23.1601C149.549 23.4077 149.344 22.9479 149.95 22.6473C150.556 22.3467 150.667 23.3547 150.502 24.0231C150.337 24.6916 151.219 25.5192 151.219 25.5192L152.04 24.5784C152.864 23.6341 153.523 19.74 153.115 18.9194L153.014 18.7143Z" fill="#441706"/>
<path d="M159.58 51.3633C159.58 51.3633 134.216 52.4845 130.758 54.9603C127.299 57.4361 121.242 78.3497 121.242 78.3497C121.242 78.3497 122.472 79.4107 126.113 78.3497C126.113 78.3497 131.238 71.9125 133.199 67.4914C134.94 63.569 135.564 61.5919 136.31 61.79C137.894 62.218 154.158 62.7697 158.964 59.7103C162.042 57.7367 159.175 51.3633 159.58 51.3633Z" fill="#441706"/>
<path d="M154.355 29.8343C154.355 29.8343 157.602 32.4728 158.631 40.353C159.659 48.2332 160.806 55.1655 160.175 55.4484C155.728 57.4291 143.768 55.406 144.065 50.7161C144.363 46.0262 145.463 32.1298 148.28 30.9095C151.097 29.6893 154.355 29.8343 154.355 29.8343Z" fill="#E1632A"/>
<path d="M131.188 51.5472C130.934 51.6518 130.649 51.6529 130.394 51.5501C130.139 51.4473 129.936 51.2492 129.83 50.999L124.565 38.5457C124.459 38.2952 124.458 38.0134 124.562 37.7621C124.666 37.5109 124.867 37.3106 125.12 37.2052C125.375 37.1017 125.66 37.1017 125.915 37.205C126.169 37.3084 126.372 37.5067 126.479 37.7569L131.747 50.2103C131.852 50.4608 131.852 50.742 131.747 50.9925C131.642 51.243 131.441 51.4424 131.188 51.5472Z" fill="#441706"/>
<path d="M130.862 44.5371C130.862 44.5371 128.862 45.0747 128.414 45.0004C127.966 44.9261 126.687 44.5158 126.687 43.7413C126.687 43.2567 127.69 43.8049 128.002 43.5963C128.314 43.3876 127.249 43.5149 127.16 43.3522C127.07 43.1895 127.959 42.903 128.274 42.7757C128.59 42.6484 129.708 43.1895 130.493 43.2284C131.278 43.2673 130.862 44.5371 130.862 44.5371Z" fill="#FFB27D"/>
<path d="M156.824 36.6144C156.824 36.6144 154.717 40.3635 151.409 41.566C148.101 42.7686 143.287 44.8553 141.732 45.209C140.177 45.5627 130.761 44.7492 130.761 44.7492C130.589 44.4816 130.527 44.1586 130.589 43.8473C130.611 43.4815 130.766 43.1358 131.027 42.8747C131.027 42.8747 137.119 41.704 140.012 41.4776C141.22 41.3856 148.155 34.9485 148.771 31.8396C149.015 30.6265 156.824 36.6144 156.824 36.6144Z" fill="#E1632A"/>
<path d="M125.687 77.6422C125.687 77.6422 125.973 80.9139 125.271 81.2534L116.311 81.2357C116.311 81.2357 116.311 80.2136 117.744 79.9872C119.178 79.7608 121.716 78.9261 122.142 77.0763C122.569 75.2266 125.687 77.6422 125.687 77.6422Z" fill="#441706"/>
<path d="M120.863 42.7545H124.934C125.448 42.7582 125.948 42.9175 126.368 43.211C126.787 43.5046 127.105 43.9181 127.278 44.3956L128.453 47.6248C128.571 47.9476 128.619 48.291 128.595 48.6332C128.571 48.9753 128.475 49.3088 128.314 49.6125L127.636 50.8681C126.841 52.3585 125.673 53.6239 124.244 54.5448C122.815 55.4658 121.171 56.0117 119.468 56.131L114.505 56.4847L118.479 44.4593C118.644 43.9636 118.963 43.5318 119.391 43.2257C119.819 42.9196 120.334 42.7547 120.863 42.7545Z" fill="#441706"/>
</g>
<defs>
<clipPath id="clip0">
<rect width="206" height="127.027" fill="white" transform="translate(0 0.662109)"/>
</clipPath>
</defs>
</svg>
