<svg xmlns="http://www.w3.org/2000/svg" xmlns:xlink="http://www.w3.org/1999/xlink" viewBox="0 0 420 255"><defs><style>.a{fill:none;}.b{clip-path:url(#a);}.c{fill:#441706;}.d{fill:#ffb27d;}.e{fill:#cd5925;}.f{fill:#ed823a;}.g{fill:#ff9e55;}.h{fill:#dd732c;}.i{fill:#fff;}.j{fill:#e87b4b;}.k{fill:#ba5021;}.l{fill:#e1632a;}.m{fill:#ed985f;}</style><clipPath id="a"><rect class="a" x="63.19" y="50.62" width="290.81" height="179.32"/></clipPath></defs><title>storage</title><g class="b"><path class="c" d="M328,169.35H302.56a10.12,10.12,0,0,0-10.19,10.05v22.07a10.12,10.12,0,0,0,10.19,10.05H328a10.12,10.12,0,0,0,10.18-10.05V179.4A10.12,10.12,0,0,0,328,169.35Z"/><path class="d" d="M245.82,106.7a18.51,18.51,0,0,1-3.54-.1c-.61-.24-2.23-1.19-2-2.26.15-.66,1.37.4,1.86.2s-1-.34-1.09-.59,1.24-.38,1.72-.46,1.83,1,2.92,1.29S245.82,106.7,245.82,106.7Z"/><path class="e" d="M284.05,103.56s-4,4.53-9,5.19-12.21,2.11-14.46,2.11-15-3.89-15-3.89a1.7,1.7,0,0,1,0-1.29,2.11,2.11,0,0,1,.9-1.21s8.74.21,12.82.77c1.69.24,13.24-6.55,15.05-10.65C275.13,93,284.05,103.56,284.05,103.56Z"/><path class="f" d="M169.23,168.59l-52-6.34-5.29,42.34,52,6.34Z"/><path class="g" d="M143.21,165.41l-52-6.33-5.29,42.34,52,6.33Z"/><path class="h" d="M165.23,200.19l-8.24-1,1-2.2-.52-1.72,8.24,1Z"/><path class="d" d="M141.56,178.53l-8.24-1,1-2.2-.52-1.72,8.24,1Z"/><path class="h" d="M142.05,174.6l8.25,1-1,2.21.52,1.72-8.25-1Z"/><path class="d" d="M87.16,191.15l8.25,1-1,2.2.53,1.72-8.25-1Z"/><path class="i" d="M93.49,168.13l15,1.82.72-5.75-15-1.82Z"/><path class="f" d="M173.75,132.42,129.05,127l-4.55,36.37,44.7,5.44Z"/><path class="g" d="M151.4,129.7l-44.7-5.44-4.55,36.37,44.7,5.44Z"/><path class="h" d="M170.32,159.57l-7.09-.86.87-1.89-.45-1.48,7.09.86Z"/><path class="d" d="M150,141l-7.08-.86.87-1.89-.45-1.48,7.08.86Z"/><path class="h" d="M150.4,137.59l7.09.86-.87,1.89.44,1.49L150,141Z"/><path class="d" d="M103.24,151.8l7.09.87-.87,1.88.45,1.49-7.09-.87Z"/><path class="i" d="M108.68,132l12.86,1.56.62-4.94-12.87-1.57Z"/><path class="f" d="M133.45,175.3l-37.74-4.59-3.84,30.7,37.74,4.6Z"/><path class="g" d="M114.58,173l-37.74-4.59L73,199.12l37.74,4.59Z"/><path class="h" d="M130.54,198.22l-6-.73.74-1.59-.38-1.25,6,.73Z"/><path class="d" d="M113.38,182.51l-6-.73.73-1.59-.38-1.26,6,.73Z"/><path class="h" d="M113.73,179.66l6,.73L119,182l.38,1.26-6-.73Z"/><path class="d" d="M73.92,191.66l6,.73-.73,1.6.37,1.25-6-.73Z"/><path class="i" d="M78.5,175l10.86,1.32.52-4.17L79,170.8Z"/><path class="c" d="M213.23,53.2,192,50.61,171.29,216.18l21.25,2.58Z"/><path class="j" d="M313.3,146H262.8a9.1,9.1,0,0,0-9.15,9v9.71a9.1,9.1,0,0,0,9.15,9h50.5a9.09,9.09,0,0,0,9.15-9v-9.71A9.09,9.09,0,0,0,313.3,146Z"/><path class="k" d="M207.44,195.39l87.17,3.49V163.37L206,164.8Z"/><path class="l" d="M231,222.15a26.39,26.39,0,0,0,0-37.67,27.24,27.24,0,0,0-38.16,0,26.39,26.39,0,0,0,0,37.67A27.24,27.24,0,0,0,231,222.15Z"/><path class="c" d="M227.3,205.79a15.55,15.55,0,1,0-17.84,12.69A15.54,15.54,0,0,0,227.3,205.79Z"/><path class="l" d="M353.42,213.77a21,21,0,0,0-15.82-25.25A21.26,21.26,0,0,0,312,204.13a21,21,0,0,0,15.81,25.25A21.29,21.29,0,0,0,353.42,213.77Z"/><path class="c" d="M320.48,209a12,12,0,0,1,2.06-6.72,12.18,12.18,0,0,1,5.5-4.45,12.38,12.38,0,0,1,13.36,2.62,12,12,0,0,1,2.65,13.18,12.18,12.18,0,0,1-4.51,5.43,12.43,12.43,0,0,1-11.5,1.11,12.19,12.19,0,0,1-4-2.62,12.07,12.07,0,0,1-2.65-3.93A11.84,11.84,0,0,1,320.48,209Z"/><path class="l" d="M317.31,140.54V156.4H294.82l-53.75,34.85v25.91h53.18a10.24,10.24,0,0,0,3.86-.75,9.89,9.89,0,0,0,6.21-9.18v-5.84a19.14,19.14,0,0,1,2.24-9,19.37,19.37,0,0,1,6.19-6.91,17.94,17.94,0,0,1,10.12-3.12h17a8.37,8.37,0,0,0,5.88-2.4,8.17,8.17,0,0,0,2.44-5.81V149.34a8.75,8.75,0,0,0-2.61-6.22,9,9,0,0,0-6.31-2.58Z"/><path class="c" d="M207.71,173.28l-7.38-.8,41.46-97a34.23,34.23,0,0,1,12.75-15.2,34.91,34.91,0,0,1,19.15-5.68h34.77a15.65,15.65,0,0,1,11,4.5A15.29,15.29,0,0,1,324,70V156.4h-7.08V70a8.34,8.34,0,0,0-2.49-5.91,8.59,8.59,0,0,0-6-2.46H273.69a27.79,27.79,0,0,0-15.24,4.53,27.18,27.18,0,0,0-10.15,12.1Z"/><path class="c" d="M243.21,219.09a2,2,0,0,1-1.36-.56,1.91,1.91,0,0,1-.57-1.35V197.67A24.24,24.24,0,0,0,234,180.45a24.84,24.84,0,0,0-17.45-7.14h-.22c-.15,0-15.29-1.63-26.86,7.27a1.94,1.94,0,0,1-1.39.32,1.89,1.89,0,0,1-1-3.31c12.43-9.56,27.93-8.24,29.56-8.07a28.79,28.79,0,0,1,20.11,8.3,28,28,0,0,1,8.33,19.87V217.2a1.94,1.94,0,0,1-.58,1.34A2,2,0,0,1,243.21,219.09Z"/><path class="c" d="M171.92,211.11,63.84,198,63.21,203l108.08,13.15Z"/><path class="c" d="M178.69,157l-4.78-.58-7.4,59.22,4.78.58Z"/><path class="k" d="M303.15,114.1l-2.53,32H260.46s-2.13-8.92,4.55-9.31S287.62,134,287.62,134s-.78-19.84,11.5-23.15a3.35,3.35,0,0,1,1.51,0,3.2,3.2,0,0,1,1.35.65,3.08,3.08,0,0,1,.91,1.18A3,3,0,0,1,303.15,114.1Z"/><path class="d" d="M281.09,92.52a14.11,14.11,0,0,1-8.57,1.77s-.88-.22-.45-1.24a13.2,13.2,0,0,1-.4-1.36,21.13,21.13,0,0,1-.5-2.23l2.53-2.62,2.39-2.5A10.55,10.55,0,0,0,281.09,92.52Z"/><path class="m" d="M276.47,86.6a9.79,9.79,0,0,1-4.8,5.09c-.39-1.41-.64-2.89-.64-2.89l2.67-2Z"/><path class="d" d="M268.32,89.34s7.86,1,8.4-3.79,1.94-7.85-3-8.67-6.18.9-6.76,2.44S266.3,89,268.32,89.34Z"/><path class="c" d="M279.2,76.11c.07-.09.23-.16.59-.19a1.58,1.58,0,0,0-.68-.16,1.81,1.81,0,0,0-1.28-1.55,1,1,0,0,1,.37.31,1.06,1.06,0,0,1,.19.45c-1.05-1-4.66.44-9.2-1-6.94-2.16-10.62-1.09-4,6.34.78.88,3.54-1.17,5.45-1.09s2.37,2.78,3,3.12.38-.29,1.24-.72,1,1,.77,1.94,1,2.12,1,2.12l1.16-1.33c1.16-1.34,2.09-6.83,1.51-8Z"/><path class="c" d="M288.47,122.2s-35.81,1.58-40.69,5.08-13.43,33-13.43,33,1.74,1.5,6.88,0c0,0,7.23-9.08,10-15.32,2.46-5.54,3.34-8.33,4.39-8.05,2.24.6,25.2,1.38,32-2.94C292,131.2,287.9,122.2,288.47,122.2Z"/><path class="l" d="M281.09,91.81s4.59,3.72,6,14.85,3.07,20.91,2.18,21.31c-6.28,2.79-23.16-.06-22.74-6.68s2-26.24,5.95-28A22.06,22.06,0,0,1,281.09,91.81Z"/><path class="c" d="M248.39,122.46a1.45,1.45,0,0,1-1.12,0,1.43,1.43,0,0,1-.8-.78L239,104.1a1.4,1.4,0,0,1,0-1.1,1.44,1.44,0,0,1,.78-.79,1.57,1.57,0,0,1,1.13,0,1.51,1.51,0,0,1,.79.78l7.44,17.58a1.43,1.43,0,0,1,0,1.11A1.47,1.47,0,0,1,248.39,122.46Z"/><path class="d" d="M247.93,112.56a18.68,18.68,0,0,1-3.46.66c-.63-.11-2.43-.69-2.43-1.78,0-.69,1.41.09,1.85-.21s-1.06-.11-1.19-.34,1.13-.63,1.58-.81,2,.58,3.13.63S247.93,112.56,247.93,112.56Z"/><path class="l" d="M284.58,101.38s-3,5.29-7.65,7-11.46,4.64-13.66,5.14-15.48-.65-15.48-.65a1.73,1.73,0,0,1-.25-1.27,2.08,2.08,0,0,1,.62-1.37s8.6-1.66,12.69-2c1.7-.13,11.49-9.21,12.36-13.6C273.56,92.92,284.58,101.38,284.58,101.38Z"/><path class="c" d="M240.62,159.3s.41,4.61-.58,5.09l-12.65,0s0-1.44,2-1.76,5.61-1.5,6.21-4.11S240.62,159.3,240.62,159.3Z"/><path class="c" d="M233.81,110.05h5.75a3.59,3.59,0,0,1,2,.64,3.47,3.47,0,0,1,1.28,1.67l1.66,4.56a3.63,3.63,0,0,1,.2,1.42,3.54,3.54,0,0,1-.4,1.39l-1,1.77a14.18,14.18,0,0,1-11.54,7.43l-7,.5,5.61-17a3.44,3.44,0,0,1,1.29-1.74A3.56,3.56,0,0,1,233.81,110.05Z"/></g></svg>