<svg xmlns="http://www.w3.org/2000/svg" xmlns:xlink="http://www.w3.org/1999/xlink" width="1920" height="702" viewBox="0 0 1920 702">
  <defs>
    <clipPath id="clip-path">
      <rect id="Rectangle_2779" data-name="Rectangle 2779" width="825.859" height="341.839" transform="translate(0 0.069)" fill="#fff"/>
    </clipPath>
    <linearGradient id="linear-gradient" x1="0.5" x2="0.5" y2="1" gradientUnits="objectBoundingBox">
      <stop offset="0" stop-color="#38bec3"/>
      <stop offset="1" stop-color="#3c60ac"/>
    </linearGradient>
    <clipPath id="clip-path-2">
      <rect id="Rectangle_2792" data-name="Rectangle 2792" width="1076" height="702" transform="translate(844 150)" fill="#fff" opacity="0.39"/>
    </clipPath>
    <clipPath id="clip-path-3">
      <path id="SVGID" d="M340.662,1551.456c184.832-27.591,192.588-174.9,133.89-256.829-83.153-116.066-159.074-97.164-43.085-288.335,39.377-64.907,54.523-147.784,24.691-219.453-21.456-51.551-65.818-93.812-119.4-109.506-29.811-8.729-61.34-9.356-91.862-15.127S183,644.082,165.209,618.622c-17.135-24.52-18.572-56.794-14.461-86.425,9.886-71.266,48.846-136.516,52.33-208.886,2.935-61-17.241-131.029-60.319-175.407C86.372,89.816-1.234,77.318-78.282,72.845c-90.368-5.245-181.457,8.3-267.377,36.336C-455.728,145.1-557.383,204.372-647.852,276.629c-80.539,64.326-153.31,139.959-204.845,229.224-81.505,141.178-128.68,371.352,37.378,472.381C-615.4,1099.865-486.44,888.989-475.588,1096.48c6.49,124.158,95.428,318.3,337.96,221.595S74.477,1591.191,340.662,1551.456Z" transform="translate(926.88 -71.734)" fill="none"/>
    </clipPath>
  </defs>
  <g id="top" transform="translate(0 -150)">
    <g id="transport" transform="matrix(1, 0.017, -0.017, 1, 929.126, 309.81)" clip-path="url(#clip-path)">
      <path id="Path_37347" data-name="Path 37347" d="M1921.05,968.267s101.916,11.268,119.461,11.675,119.639-27.459,119.639-27.459-70.943-13.571-83.078-13.571S1955.23,955.872,1921.05,968.267Z" transform="translate(-1905.099 -659.846)" fill="#fff" opacity="0.45"/>
      <path id="Path_37348" data-name="Path 37348" d="M1355.57,1027.736s100.4,11.927,117.954,12.346,119.666-27.472,119.666-27.472-70.943-13.571-83.079-13.571S1389.75,1015.354,1355.57,1027.736Z" transform="translate(-1170.067 -702.104)" fill="#fff" opacity="0.45"/>
      <path id="Path_37349" data-name="Path 37349" d="M.172,983.742s101.9,11.663,119.461,11.687c26.667.027,309.029-46.721,309.029-46.721s-77.15-19.073-89.286-19.073S34.349,971.36.172,983.742Z" transform="translate(397.31 -653.327)" fill="#fff" opacity="0.45"/>
      <path id="Path_37350" data-name="Path 37350" d="M1911.965,858.83l-22.5,12.256s-5.665-17.644.113-29.356S1923,825.946,1911.965,858.83Z" transform="translate(-1649.363 -585.546)"/>
      <path id="Path_37351" data-name="Path 37351" d="M2243.229,890.473l-48.366-7.587s16.088-40.827,33.178-40.827S2253.452,871.856,2243.229,890.473Z" transform="translate(-2074.016 -591.78)"/>
      <path id="Path_37352" data-name="Path 37352" d="M2261.09,876.194s-13.654-3.857-20.52-.379c-8.477,3.579-15.2,14.09-16.344,27-1.367,15.609,4.447,29.091,14.935,31.442l1.269.2.672.1h.1c3.659.482,11.4,1.266,16.834.392C2258.037,935.006,2284.63,904.247,2261.09,876.194Z" transform="translate(-2105.814 -614.482)" fill="#231f20"/>
      <path id="Path_37353" data-name="Path 37353" d="M2248.3,909.3c-.734,15.885-7.094,28.7-15.874,29.343s-19.459-8.349-19-27.32c.315-20.5,11.4-31.443,19.179-31.81C2242.083,879.038,2249.076,892.673,2248.3,909.3Z" transform="translate(-2080.206 -618.098)" fill="#323232"/>
      <path id="Path_37354" data-name="Path 37354" d="M2255.487,926.184c-.479,12.737-6.56,23.107-13.565,23.107s-12.124-10.269-11.568-22.892,6.551-22.7,13.428-22.766S2255.956,913.612,2255.487,926.184Z" transform="translate(-2092.382 -635.053)" fill="#fff"/>
      <path id="Path_37355" data-name="Path 37355" d="M2256.978,930.775c-.443,11.635-6,21.134-12.415,21.146s-11.1-9.4-10.59-20.944,6-20.818,12.314-20.919S2257.42,919.139,2256.978,930.775Z" transform="translate(-2094.949 -639.569)" fill="#bbbdbf"/>
      <path id="Path_37356" data-name="Path 37356" d="M2260.5,941.422c-.345,9.082-4.675,16.441-9.668,16.441s-8.676-7.3-8.283-16.315,4.687-16.265,9.615-16.341S2260.84,932.341,2260.5,941.422Z" transform="translate(-2101.013 -650.216)" fill="#241f20"/>
      <path id="Path_37357" data-name="Path 37357" d="M2256.168,950.006a2.863,2.863,0,0,1,1.926.808,27.038,27.038,0,0,0,2.152-9.662v-1.606c-2.19-.569-3.8-3.959-3.6-8.133a14.821,14.821,0,0,1,.505-3.288c-1.429-2.074-3.254-3.339-5.305-3.3a4.316,4.316,0,0,0-.812.152c-.318,4.338-2.419,7.817-4.838,7.842a2.89,2.89,0,0,1-2.016-.9,27.4,27.4,0,0,0-2.054,9.4v1.606c2.384.2,4.155,3.794,3.965,8.233a14.009,14.009,0,0,1-.645,3.706,6.334,6.334,0,0,0,5.068,2.934,4.479,4.479,0,0,0,.862-.2C2251.695,953.32,2253.772,950.006,2256.168,950.006Z" transform="translate(-2100.624 -649.946)" fill="#fff"/>
      <path id="Path_37358" data-name="Path 37358" d="M2269.3,969.512c-.089,2.529-1.266,4.616-2.711,4.616s-2.419-2.049-2.306-4.566,1.266-4.553,2.687-4.566S2269.387,966.983,2269.3,969.512Z" transform="translate(-2116.263 -678.179)" fill="#241f20"/>
      <path id="Path_37359" data-name="Path 37359" d="M2618.022,850.354s-13.646-3.858-20.511-.392v.063c-8.473,3.567-15.2,14.077-16.353,26.991-1.355,15.62,4.458,29.089,14.935,31.443l1.266.19c.229,0,.443.089.672.1h.1c3.662.493,11.4,1.263,16.837.4C2614.981,909.165,2641.573,878.406,2618.022,850.354Z" transform="translate(-2568.841 -596.319)" fill="#231f20"/>
      <path id="Path_37360" data-name="Path 37360" d="M2605.26,883.351c-.734,15.885-7.08,28.7-15.86,29.355s-19.459-8.361-19-27.318c.315-20.515,11.4-31.455,19.165-31.822C2599,853.123,2606.032,866.757,2605.26,883.351Z" transform="translate(-2543.26 -599.86)" fill="#323232"/>
      <path id="Path_37361" data-name="Path 37361" d="M2612.442,900.191c-.469,12.736-6.562,23.119-13.556,23.119s-12.135-10.269-11.577-22.892,6.563-22.766,13.44-22.829S2612.924,887.556,2612.442,900.191Z" transform="translate(-2555.433 -616.75)" fill="#fff"/>
      <path id="Path_37362" data-name="Path 37362" d="M2613.9,904.719c-.443,11.649-6.019,21.133-12.415,21.148s-11.11-9.4-10.59-20.946,5.992-20.806,12.3-20.907S2614.335,893.158,2613.9,904.719Z" transform="translate(-2557.958 -621.265)" fill="#bbbdbf"/>
      <path id="Path_37363" data-name="Path 37363" d="M2617.425,915.451c-.354,9.068-4.687,16.442-9.677,16.442s-8.664-7.3-8.271-16.315,4.672-16.265,9.6-16.329S2617.767,906.421,2617.425,915.451Z" transform="translate(-2564.027 -631.972)" fill="#241f20"/>
      <path id="Path_37364" data-name="Path 37364" d="M2613.415,923.977a2.893,2.893,0,0,1,1.926.822,27.786,27.786,0,0,0,2.113-9.676v-1.606c-2.2-.569-3.8-3.971-3.608-8.133a14.084,14.084,0,0,1,.517-3.3,6.544,6.544,0,0,0-5.309-3.3,4.834,4.834,0,0,0-.823.164c-.3,4.326-2.4,7.8-4.839,7.842a3,3,0,0,1-2.015-.911,27.158,27.158,0,0,0-2.027,9.385v1.606c2.383.215,4.158,3.795,3.968,8.234a14.276,14.276,0,0,1-.66,3.719,6.332,6.332,0,0,0,5.067,2.934,7.522,7.522,0,0,0,.9-.164C2608.992,927.341,2611.07,923.989,2613.415,923.977Z" transform="translate(-2564.006 -631.645)" fill="#fff"/>
      <path id="Path_37365" data-name="Path 37365" d="M2626.218,943.553c-.1,2.53-1.266,4.616-2.71,4.629s-2.42-2.062-2.306-4.579,1.266-4.541,2.672-4.566S2626.307,941.023,2626.218,943.553Z" transform="translate(-2579.266 -659.935)" fill="#241f20"/>
      <path id="Path_37366" data-name="Path 37366" d="M1927.875,859.52s-9.059-2.858-13.618-.291c-5.627,2.631-10.135,10.4-10.845,19.946-.9,11.535,2.951,21.5,9.906,23.234l.874.152c.155,0,.292.062.446.077h.062a39.314,39.314,0,0,0,11.172.288S1943.494,880.25,1927.875,859.52Z" transform="translate(-1674 -603.096)" fill="#231f20"/>
      <path id="Path_37367" data-name="Path 37367" d="M1919.459,883.8c-.494,11.737-4.714,21.211-10.54,21.69s-12.911-6.171-12.67-20.235c.205-15.178,7.6-23.247,12.67-23.512C1915.316,861.4,1919.964,871.517,1919.459,883.8Z" transform="translate(-1657.072 -605.606)" fill="#323232"/>
      <path id="Path_37368" data-name="Path 37368" d="M1924.185,896.34c-.315,9.41-4.357,17.075-8.994,17.087s-8.058-7.589-7.689-16.923,4.357-16.784,8.866-16.872S1924.5,887.006,1924.185,896.34Z" transform="translate(-1665.117 -618.186)" fill="#fff"/>
      <path id="Path_37369" data-name="Path 37369" d="M1925.149,899.7c-.291,8.6-3.992,15.62-8.236,15.62s-7.374-6.944-7.029-15.468,3.977-15.38,8.156-15.456S1925.441,891.152,1925.149,899.7Z" transform="translate(-1666.789 -621.535)" fill="#bbbdbf"/>
      <path id="Path_37370" data-name="Path 37370" d="M1927.512,907.671c-.226,6.7-3.1,12.167-6.408,12.167s-5.751-5.388-5.5-12.053,3.1-12.016,6.334-12.066S1927.753,900.992,1927.512,907.671Z" transform="translate(-1670.852 -629.491)" fill="#241f20"/>
      <path id="Path_37371" data-name="Path 37371" d="M1924.829,913.923a1.754,1.754,0,0,1,1.269.607,22.16,22.16,0,0,0,1.391-7.159v-1.189c-1.456-.417-2.532-2.934-2.392-6.008a11.956,11.956,0,0,1,.342-2.428,4.3,4.3,0,0,0-3.522-2.454,4.235,4.235,0,0,0-.544.127c-.217,3.2-1.611,5.768-3.207,5.793a1.818,1.818,0,0,1-1.341-.671,22.186,22.186,0,0,0-1.355,6.944v1.189c1.581.152,2.761,2.808,2.634,6.083a11.932,11.932,0,0,1-.431,2.745,4.13,4.13,0,0,0,3.332,2.163,3.25,3.25,0,0,0,.595-.114C1921.866,916.4,1923.248,913.923,1924.829,913.923Z" transform="translate(-1670.779 -629.193)" fill="#fff"/>
      <path id="Path_37372" data-name="Path 37372" d="M1933.329,928.462c-.062,1.885-.874,3.415-1.8,3.415s-1.611-1.518-1.534-3.377.874-3.352,1.774-3.377S1933.38,926.6,1933.329,928.462Z" transform="translate(-1680.937 -650.157)" fill="#241f20"/>
      <path id="Path_37373" data-name="Path 37373" d="M1972.954,655.847S1920,684.1,1914.794,685.772s-25.754,10.118-31.544,16.518-9.832,11.459-10.415,20.97-.874,19.87.291,22.387,12.67,7.588,32.938,8.955,79.292,1.682,86.818-.556,8.093-5.882,12.147-15.672,11-29.09,25.463-27.421,14.469,31.063,11,42.533l70.943-13.152s4.054-34.693,13.313-34.971,9.767,9.625,9.184,22.766a4.782,4.782,0,0,0,1.471-2.529c.622-2.024,6.182-16.569,5.383-19.49s-.24-12.926-1.177-15.949c-1.837-5.982-9.7-4.528-23.587-23.942-8.147-11.383-31.609-16.961-46.949-18.415s-37.182-.24-55.74.974S1988.181,650.623,1972.954,655.847Z" transform="translate(-1872.328 -454.794)" fill="#ccc"/>
      <g id="Group_549" data-name="Group 549" transform="translate(207.762 225.893)" opacity="0.4">
        <path id="Path_37374" data-name="Path 37374" d="M2055.434,825.668s5.751-48.757,5.409-53.3-5.067-11.472-5.067-11.472l1.266-.885s5.347,5.161,5.728,9.6S2055.434,825.668,2055.434,825.668Z" transform="translate(-2055.434 -760.013)" fill="#ffd200"/>
      </g>
      <g id="Group_553" data-name="Group 553" transform="translate(-0.002 192.465)" opacity="0.4">
        <g id="Group_550" data-name="Group 550" transform="translate(10.594 81.25)" opacity="0.4">
          <path id="Path_37375" data-name="Path 37375" d="M2723.29,920.911a46.12,46.12,0,0,0,6.019.936A55.141,55.141,0,0,0,2723.29,920.911Z" transform="translate(-2723.29 -920.911)" fill="#ffd200"/>
        </g>
        <g id="Group_551" data-name="Group 551" transform="translate(191.321)" opacity="0.4">
          <path id="Path_37376" data-name="Path 37376" d="M2103.542,648.518c-1.483-.2-2.99-.4-4.559-.531-2.027-.19-4.182-.341-6.423-.443,2.063.215,6.9.683,12.756,1.265l-.481-.089Z" transform="translate(-2092.56 -647.544)" fill="#ffd200"/>
        </g>
        <g id="Group_552" data-name="Group 552" transform="translate(0 1.353)" opacity="0.4">
          <path id="Path_37377" data-name="Path 37377" d="M1872.836,726.719c-.583,9.524-.874,19.87.291,22.387s12.67,7.589,32.938,8.953,79.292,1.682,86.818-.556,8.093-5.881,12.147-15.67,11-29.09,25.463-27.42,14.469,31.063,11,42.535l70.943-13.154s4.054-34.693,13.313-34.971,9.767,9.625,9.184,22.766a4.784,4.784,0,0,0,1.471-2.53c.622-2.024,6.182-16.569,5.383-19.49s-.24-12.926-1.177-15.949c-1.837-5.982-9.7-4.528-23.587-23.942-7.044-9.84-25.528-15.329-40.312-17.581h-.3c26.185,4.3,38.8,20.161,37.4,25-1.507,5.211-9.553,6.564-9.553,6.564a102.926,102.926,0,0,1,15.759.569c7.451.961,12.391,5.666,17.256,11.383s2.532,14.9,2.342,17.821-3.344,4.857-4.194.809-4.687-7.3-11.552-7.3-10.221,16.037-14.252,25.928-54.474,18.453-59.97,17.328.342-4.376-2.687-21.868-18.419-20.085-25.121-17.328-12.667,1.935-20.446.316a78.421,78.421,0,0,0-16.469-1.265s13.3,4.376,6.028,10.042-37.9,6.147-37.9,6.147,28.06,1.265,35.711,3.794,1.266,15.468-4.94,19.275-17.242,3.592-21.257,3.453a6.541,6.541,0,0,1-5.525-4.073s-6.99,2.34-21.914,5.78-47.077-.3-53.208-2.694-8.031-15.013-6.637-18.238c.708-1.644,4.268-1.72,7.6-1.417-5.181-1.164-9.538-3.213-9.2-5.982.455-3.795,4.191-3.428,5.926-3.048s3.118-3.149,3.118-3.149.3-9.043,0-10.915a4.79,4.79,0,0,1,.493-3.124C1877.473,712.2,1873.419,717.233,1872.836,726.719Z" transform="translate(-1872.326 -652.097)" fill="#a7a9ac"/>
        </g>
      </g>
      <path id="Path_37378" data-name="Path 37378" d="M2095.73,793.542c.152.923-2.051,2.036-4.939,2.53s-5.321.063-5.487-.86,2.054-2.049,4.928-2.53S2095.567,792.606,2095.73,793.542Z" transform="translate(-1889.502 -556.937)" fill="#f6a01a"/>
      <path id="Path_37379" data-name="Path 37379" d="M2307.321,773.461s100.306.354,90.108,4.022c0,0-33.419,8.626-49.406,15.418,0,0,19.385-10.118,39.477-15C2394.932,776.13,2331.187,775.131,2307.321,773.461Z" transform="translate(-2257.911 -543.571)" fill="#fff" opacity="0.4"/>
      <path id="Path_37380" data-name="Path 37380" d="M2655.92,800.228s-12.147,6.728-9.639,9.4,10.132,4.857,23.436,5.287a61.813,61.813,0,0,1-24.072-3.554c-3.166-1.265-5.27,3.187-5.624,4.224C2640.033,815.646,2635.4,809.107,2655.92,800.228Z" transform="translate(-2628.225 -562.383)" fill="#fff" opacity="0.4"/>
      <path id="Path_37381" data-name="Path 37381" d="M2308.878,672.78l-27.338,26.712a6.15,6.15,0,0,1-4.369,2.087c-9.464-.658-49.915-3.074-91.213-1.834-2.711.088.4-1.758.4-1.758,10.35-5.578,37.054-19.857,46.961-25.448a10.936,10.936,0,0,1,4.179-1.378s38.005-2.112,54.664-1.783c8.729.177,13.455.531,15.988.835C2308.194,670.212,2311.476,670.541,2308.878,672.78Z" transform="translate(-2133.231 -470.399)" fill="#fff" opacity="0.4"/>
      <path id="Path_37382" data-name="Path 37382" d="M2310.856,674.031,2284,699.845a5.986,5.986,0,0,1-4.28,2.011c-9.312-.62-49.026-2.959-89.54-1.758-2.66.076.38-1.695.38-1.695,10.135-5.388,36.344-19.237,46.137-24.6a10.867,10.867,0,0,1,4.1-1.341s37.271-2.036,53.689-1.72c8.563.177,13.212.518,15.7.809C2310.187,671.5,2313.4,671.842,2310.856,674.031Z" transform="translate(-2136.451 -471.359)" fill="#003152"/>
      <g id="Group_554" data-name="Group 554" transform="translate(47.305 194.349)" opacity="0.1">
        <path id="Path_37383" data-name="Path 37383" d="M2258.624,689.905H2244.64l45.439-36.021h11.428Z" transform="translate(-2189.937 -653.884)" fill="#fff" opacity="0.1"/>
        <path id="Path_37384" data-name="Path 37384" d="M2347.09,689.905h-49.38l55.461-36.021h40.336Z" transform="translate(-2297.71 -653.884)" fill="#fff" opacity="0.1"/>
      </g>
      <path id="Path_37385" data-name="Path 37385" d="M1942.224,697.795s19.485-27.117,27.454-30.444c5.573-2.34,23.373-3.933,35.152-.177s22.2,10.384,23.905,12.787,7.856,10.118,4.776,11.092-83.117,9.22-87.043,10.118S1941.187,699.363,1942.224,697.795Z" transform="translate(-1785.504 -467.298)" fill="#fff" opacity="0.4"/>
      <path id="Path_37386" data-name="Path 37386" d="M1945.154,700.194s20.939-27.7,26.476-29.811,22.942-3.719,34.507-.152,21.777,9.878,23.462,12.142,7.7,9.562,4.687,10.536-81.6,8.74-85.447,9.549S1944.14,701.687,1945.154,700.194Z" transform="translate(-1787.114 -469.546)" fill="#003152"/>
      <g id="Group_555" data-name="Group 555" transform="translate(152.515 195.703)" opacity="0.1">
        <path id="Path_37387" data-name="Path 37387" d="M2089.233,698.62H2059.74l31.823-40.182h29.493Z" transform="translate(-2059.74 -658.438)" fill="#fff" opacity="0.1"/>
        <path id="Path_37388" data-name="Path 37388" d="M2027.315,698.62h-9.425l31.823-40.182h9.425Z" transform="translate(-1985.383 -658.438)" fill="#fff" opacity="0.1"/>
      </g>
      <g id="Group_556" data-name="Group 556" transform="translate(171.497 228.494)" opacity="0.4">
        <path id="Path_37389" data-name="Path 37389" d="M2183.572,770.465c-.368,1.543-2.672,3.086-4.738,3.529-1.685.354-2.951-.089-3.067-1.024s1.079-2.53,3.168-3.516C2181.623,768.239,2183.941,768.669,2183.572,770.465Z" transform="translate(-2175.76 -768.766)" fill="#f6a01a"/>
      </g>
      <path id="Path_37390" data-name="Path 37390" d="M2121.288,745.2s2.532-5.869,3.9-8.854,4.331-5.717,11.4-5.578,8.132,1.189,7.79,3.314-.268,7.589-5.688,8.145-9.208-.493-11.06,1.708S2120,748.208,2121.288,745.2Z" transform="translate(-1948.845 -513.563)" fill="#fff"/>
      <path id="Path_37391" data-name="Path 37391" d="M2141.146,731.758c3.5,1.063,2.964,5.578,1.166,7.589s-5.067,2.352-8.982,1.682-5.243.506-6.865.3-1.266-1.518-.3-3.959a14.838,14.838,0,0,1,2.532-4.186,8.764,8.764,0,0,0-3.421,3.858c-1.418,3.01-3.9,8.853-3.9,8.853-1.269,3.01,4.47.911,6.334-1.265s5.635-1.138,11.06-1.707,5.358-6.033,5.685-8.145C2144.707,733.2,2144.175,732.226,2141.146,731.758Z" transform="translate(-1948.941 -514.263)" fill="#e6e7e8"/>
      <path id="Path_37392" data-name="Path 37392" d="M2538.484,920.4s26.97,3.073,43.893,3.073,24.805-1.126,21.614,4.857-13.568,16.2-28.15,15.177-30.985-1.783-34.2-5.5S2532.617,919.778,2538.484,920.4Z" transform="translate(-2532.4 -646.822)" fill="#231f20"/>
      <g id="Group_557" data-name="Group 557" transform="translate(3.968 276.282)" opacity="0.3">
        <path id="Path_37393" data-name="Path 37393" d="M2581.914,929.916c-3.647,0-7.763-.139-11.969-.367,24.574,1.948,22.36,7.589,18,12.079s-21.448,4.212-35.851,2.264c-13.2-1.771-15.836-9.764-16.189-11.092a33.89,33.89,0,0,0,5.293,11.7c3.2,3.718,19.611,4.528,34.207,5.5s24.97-9.233,28.147-15.177S2598.84,929.916,2581.914,929.916Z" transform="translate(-2535.904 -929.549)" fill="#231f20"/>
      </g>
      <path id="Path_37394" data-name="Path 37394" d="M2469.92,962.515a5.445,5.445,0,1,1-3.445-4.97,5.438,5.438,0,0,1,3.445,4.97Z" transform="translate(-2374.715 -672.675)" fill="#a7a9ac"/>
      <path id="Path_37395" data-name="Path 37395" d="M2470.822,963.138a4.942,4.942,0,1,1-4.94-4.781,4.855,4.855,0,0,1,4.94,4.781Z" transform="translate(-2376.238 -673.512)" fill="#fff"/>
      <path id="Path_37396" data-name="Path 37396" d="M2468.089,960.656a4.674,4.674,0,0,1,.467,2.011,4.863,4.863,0,0,1-4.939,4.781,5.083,5.083,0,0,1-2.535-.67,4.944,4.944,0,0,0,4.461,2.757,4.856,4.856,0,0,0,4.94-4.781,4.731,4.731,0,0,0-2.393-4.1Z" transform="translate(-2375.936 -675.128)" fill="#cfe0f3" opacity="0.7"/>
      <path id="Path_37397" data-name="Path 37397" d="M2567.36,855.59l38.172.392s4.357.43.619,1.366a80.93,80.93,0,0,1-22.993,2.618c-11.072-.266-19.634-.24-19.8-1.872C2563.219,856.728,2565.056,855.577,2567.36,855.59Z" transform="translate(-2543.517 -601.29)" fill="#fff" opacity="0.4"/>
      <path id="Path_37398" data-name="Path 37398" d="M2569.13,856.356l37.777.38s3.659.2-.609,1.138a88.083,88.083,0,0,1-21.929,2.074c-10.566-.24-18.686-.126-18.9-1.379S2566.925,856.356,2569.13,856.356Z" transform="translate(-2544.842 -601.828)" fill="#323232"/>
      <g id="Group_558" data-name="Group 558" transform="translate(20.622 254.768)" opacity="0.4">
        <path id="Path_37399" data-name="Path 37399" d="M2606.882,857.342l-17.28-.177c14.251.4,11.4,1.328,5.688,2.264s-20.686.607-25.8.228c-4.877-.354-2.419-2.264-2.155-2.453-1.266.354-2.027,1.075-1.887,1.973.214,1.265,8.337,1.138,18.9,1.379a88.094,88.094,0,0,0,21.929-2.074C2610.529,857.545,2606.882,857.342,2606.882,857.342Z" transform="translate(-2565.427 -857.165)" fill="#323232"/>
      </g>
      <path id="Path_37400" data-name="Path 37400" d="M2567.36,875.377l38.172.392s4.357.43.619,1.366a80.937,80.937,0,0,1-22.993,2.618c-11.072-.266-19.634-.24-19.8-1.872C2563.219,876.516,2565.056,875.352,2567.36,875.377Z" transform="translate(-2543.517 -615.196)" fill="#fff" opacity="0.4"/>
      <path id="Path_37401" data-name="Path 37401" d="M2569.073,876.271l37.788.4s3.662.2-.609,1.138a87.3,87.3,0,0,1-21.928,2.087c-10.563-.24-18.683-.126-18.9-1.391S2566.868,876.258,2569.073,876.271Z" transform="translate(-2544.785 -615.824)" fill="#323232"/>
      <g id="Group_559" data-name="Group 559" transform="translate(20.622 260.687)" opacity="0.4">
        <path id="Path_37402" data-name="Path 37402" d="M2606.882,877.244l-17.28-.164c14.251.4,11.4,1.328,5.688,2.251s-20.686.607-25.8.24c-4.877-.367-2.419-2.264-2.155-2.454-1.266.354-2.027,1.075-1.887,1.961.214,1.265,8.337,1.151,18.9,1.391a87.3,87.3,0,0,0,21.929-2.087C2610.529,877.409,2606.882,877.244,2606.882,877.244Z" transform="translate(-2565.427 -877.08)" fill="#323232"/>
      </g>
      <path id="Path_37403" data-name="Path 37403" d="M2749.513,841.165a22.61,22.61,0,0,1,1.887,5.363c.38,2.365.66,9.852-.19,10.308s-5.308-.3-6.892-1.556a19.688,19.688,0,0,1-2.012-1.771S2744.294,844.415,2749.513,841.165Z" transform="translate(-2740.807 -591.152)" fill="#fff" opacity="0.4"/>
      <path id="Path_37404" data-name="Path 37404" d="M2750.857,841.165a17.292,17.292,0,0,1,1.433,4.389c.377,2.378.657,9.853-.191,10.308s-5.308-.3-6.88-1.556-1.367-1.353-1.367-1.353S2745.638,844.415,2750.857,841.165Z" transform="translate(-2742.151 -591.152)" fill="#fff"/>
      <path id="Path_37405" data-name="Path 37405" d="M2752.341,845.554a17.094,17.094,0,0,0-1.382-4.389,9.164,9.164,0,0,0-1.013.721c1.848.089,3.052,6.7,2.027,10.308s-5.739,2.175-6.776.417,1.748-7.058,2.027-7.589a26.709,26.709,0,0,0-3.32,7.955s0,.228,1.367,1.353,6.03,2.011,6.881,1.556S2752.669,847.932,2752.341,845.554Z" transform="translate(-2742.204 -591.152)" fill="#cfe0f3" opacity="0.7"/>
      <path id="Path_37406" data-name="Path 37406" d="M2348.112,859.306s14.1-15.923,26.883-15.721,35.117,1.176,33.812,4.123-7.983,12.648-19.991,13.128S2344.679,862.733,2348.112,859.306Z" transform="translate(-2280.664 -592.851)" fill="#fff" opacity="0.4"/>
      <path id="Path_37407" data-name="Path 37407" d="M2353.871,859.455s13.315-15.3,25.68-15.064,32.67,1.265,31.416,4.136-7.79,10.928-19.355,11.383S2350.566,862.845,2353.871,859.455Z" transform="translate(-2284.535 -593.418)" fill="#fff"/>
      <path id="Path_37408" data-name="Path 37408" d="M2396.338,846.781c9.793,3,10.275,5.338,2.8,8.854-13.315,6.324-34.2,5.59-38.463,4.136s.267-5.059.585-5.375a64.4,64.4,0,0,0-7.109,6.729c-3.305,3.389,26.135.974,37.69.493s18.089-8.512,19.355-11.383C2412,848.438,2404.851,847.388,2396.338,846.781Z" transform="translate(-2284.855 -595.099)" fill="#cfe0f3" opacity="0.7"/>
      <path id="Path_37409" data-name="Path 37409" d="M2044.27,676.842V690.59a7.663,7.663,0,0,0,.585,2.959,7.731,7.731,0,0,0,7.154,4.769h2.535a7.758,7.758,0,0,0,7.74-7.728V676.842a7.617,7.617,0,0,0-1.126-3.971,7.742,7.742,0,0,0-6.613-3.794h-2.535a7.761,7.761,0,0,0-7.739,7.766Z" transform="translate(-1843.856 -470.211)" fill="#fff"/>
      <path id="Path_37410" data-name="Path 37410" d="M2044.27,703.065a7.762,7.762,0,0,0,6.928,4.275h2.535a7.758,7.758,0,0,0,7.74-7.728v-13.8a7.618,7.618,0,0,0-1.126-3.971C2060.156,682.7,2056.86,701.623,2044.27,703.065Z" transform="translate(-1843.044 -479.183)" fill="#a8302d" opacity="0.3"/>
      <path id="Path_37411" data-name="Path 37411" d="M1708.868,934.2H1654.23V888.612h56.995Z" transform="translate(-1376.869 -624.497)" fill="#231f20"/>
      <path id="Path_37412" data-name="Path 37412" d="M1423.77,508.317l188.035,4.629,12.337-111.364H1500.678c-11.782,0-34.953,18.972-40.324,29.406l-8.081,15.747Z" transform="translate(-1221.29 -282.221)" fill="#6d6e71"/>
      <path id="Path_37413" data-name="Path 37413" d="M1768.438,955.523c0,12.37-7.728,26.016-7.728,26.016H1747.6c-11.479,0-20.787-11.648-20.787-26.016s22.384-26.016,33.862-26.016S1768.438,941.156,1768.438,955.523Z" transform="translate(-1456.228 -653.237)" fill="#231f20"/>
      <path id="Path_37414" data-name="Path 37414" d="M1705.578,981.539c-11.479,0-20.787-11.648-20.787-26.016s9.309-26.016,20.787-26.016,20.79,11.648,20.79,26.016S1717.059,981.539,1705.578,981.539Z" transform="translate(-1401.095 -653.237)" fill="#414042"/>
      <path id="Path_37415" data-name="Path 37415" d="M1718.568,990.308c-8.646,0-15.657-8.774-15.657-19.593s7.011-19.591,15.657-19.591,15.657,8.771,15.657,19.591S1727.217,990.308,1718.568,990.308Z" transform="translate(-1414.338 -668.43)" fill="#d1d3d4"/>
      <path id="Path_37416" data-name="Path 37416" d="M2112.683,947.017c0,12.572-6.5,26.446-6.5,26.446h-10.994c-9.666,0-17.509-11.838-17.509-26.446s18.838-26.446,28.5-26.446S2112.683,932.4,2112.683,947.017Z" transform="translate(-1904.68 -646.957)" fill="#231f20"/>
      <path id="Path_37417" data-name="Path 37417" d="M2077.342,947.017c0,14.608-7.829,26.446-17.5,26.446s-17.494-11.838-17.494-26.446,7.829-26.446,17.494-26.446S2077.342,932.4,2077.342,947.017Z" transform="translate(-1858.343 -646.957)" fill="#414042"/>
      <path id="Path_37418" data-name="Path 37418" d="M2083.973,962.448c0,11-5.9,19.92-13.187,19.92s-13.176-8.917-13.176-19.92,5.9-19.92,13.176-19.92S2083.973,951.432,2083.973,962.448Z" transform="translate(-1869.51 -662.388)" fill="#6d6e71"/>
      <path id="Path_37419" data-name="Path 37419" d="M1307.057,961.74c0,10.471-5.409,22.006-5.409,22.006h-9.16c-8.043,0-14.555-9.853-14.555-22.006s15.669-22.021,23.715-22.021S1307.057,949.6,1307.057,961.74Z" transform="translate(-861.271 -660.414)" fill="#231f20"/>
      <path id="Path_37420" data-name="Path 37420" d="M1277.646,961.74c0,12.153-6.524,22.006-14.567,22.006s-14.57-9.853-14.57-22.006,6.524-22.021,14.57-22.021S1277.646,949.6,1277.646,961.74Z" transform="translate(-822.703 -660.414)" fill="#414042"/>
      <path id="Path_37421" data-name="Path 37421" d="M1283.151,974.6c0,9.154-4.913,16.579-10.97,16.579s-10.97-7.425-10.97-16.579,4.9-16.583,10.97-16.583S1283.151,965.467,1283.151,974.6Z" transform="translate(-831.982 -673.274)" fill="#6d6e71"/>
      <path id="Path_37422" data-name="Path 37422" d="M1474.32,816.551a16.641,16.641,0,0,0,16.647,16.694L1591.3,835.32a32.434,32.434,0,0,1-.683-6.628c0-16.82,12.213-30.48,27.249-30.48s27.276,13.66,27.276,30.48a31.819,31.819,0,0,1-.66,6.628l54.575-2.075s2.532-28.09,2.229-42.179c-.253-12.269-.253-36.287.482-42.143,0-.873-60.808-.986-76.124-1.037H1622.2l-.217.139-.229.177c-2.823,1.973-18.683,13.065-28.527,19.566-8.691,5.717-72.753,8.044-97.877,8.752-6.245.164-10.132.228-10.132.228a44.8,44.8,0,0,0-6.474,9.056,34.257,34.257,0,0,0-4.36,15.822v12.736C1474.32,815.1,1474.32,815.83,1474.32,816.551Z" transform="translate(-1313.938 -525.598)" fill="#e6e7e8"/>
      <path id="Path_37423" data-name="Path 37423" d="M1681.317,623.306h84.5a4.98,4.98,0,0,0,4.536-2.909l20.927-46.468a2.3,2.3,0,0,0-2.1-3.238h-89.148a4.939,4.939,0,0,0-4.536,2.973l-14.986,34.149-3.8,8.537a4.95,4.95,0,0,0,4.613,6.956Z" transform="translate(-1463.673 -401.068)" fill="#003152"/>
      <path id="Path_37424" data-name="Path 37424" d="M1423.784,571c0,1.455.077,2.821.166,4.048.594,8.081,8.741,14.8,8.741,14.8l11.4,2.075a32.468,32.468,0,0,1-.683-6.628,33.235,33.235,0,0,1,3.914-15.658c4.788-8.854,13.467-14.836,23.385-14.836s18.621,5.982,23.412,14.836a33.3,33.3,0,0,1,3.864,15.647,31.8,31.8,0,0,1-.66,6.625l59.973-2.036,12.338-188.287h-68.663l1.382,47.29s-16.469,38.614-23.879,55.651c-1.825,4.237-3.118,7.121-3.448,7.74-1.646,3.137-39.9,22.463-46.226,28.167C1425.344,543.541,1423.6,559.958,1423.784,571Z" transform="translate(-1166.782 -282.221)" fill="#a7a9ac"/>
      <path id="Path_37425" data-name="Path 37425" d="M1599.681,581.324l-17.991,44.267h30.872s6.334-1.062,7.157-13.988c.862-13.8.862-37.615.862-37.615l-13.553-.063C1601.859,574.7,1601.048,577.53,1599.681,581.324Z" transform="translate(-1264.665 -403.341)" fill="#003152"/>
      <path id="Path_37426" data-name="Path 37426" d="M1741.86,776.578h100.154l36.573-28.723.217-.139H1777.773L1749,770.824Z" transform="translate(-1570.493 -525.478)" fill="#fff"/>
      <path id="Path_37427" data-name="Path 37427" d="M2163.661,840.273a3.393,3.393,0,0,0,2.14,1.733l14.05,2.593c1.177.228,2.1-1.821,1.786-3.946l-1.367-9.435v-.228l-.267-1.935a4.072,4.072,0,0,0-1.875-3.276l-.812-.316-7.131,5.755A44.885,44.885,0,0,0,2163.661,840.273Z" transform="translate(-1998.755 -580.117)" fill="#fff"/>
      <path id="Path_37428" data-name="Path 37428" d="M1850.388,857.6l9.056-.9a7.072,7.072,0,0,0,6.334-5.793l2.077-11.383a1.449,1.449,0,0,0,0-.531c-6.447,3.693-11.883,6.994-13.933,8.854C1852.4,849.138,1851.223,852.881,1850.388,857.6Z" transform="translate(-1591.825 -589.627)" fill="#a8302d"/>
      <path id="Path_37429" data-name="Path 37429" d="M1853.915,850.052l17.164-1.707,9.059-.9a7.079,7.079,0,0,0,6.334-5.793l2.078-11.383a1.59,1.59,0,0,0,0-.531,3.8,3.8,0,0,0-4.574-3.87l-26.741,5.426a4.588,4.588,0,0,0-3.522,3.289l-3.142,11.6a3.089,3.089,0,0,0-.012,1.482,3.13,3.13,0,0,0,3.355,2.388Z" transform="translate(-1612.544 -580.346)" fill="#fff"/>
      <path id="Path_37430" data-name="Path 37430" d="M1553.81,446.735h104.336a60.03,60.03,0,0,1,3.029-14.28c2.33-6.716,18.749-26.56,25.8-30.873h-85.272c-13.934,0-38.6,19.781-43.5,30.873a14.49,14.49,0,0,0-.6,1.379A86.212,86.212,0,0,0,1553.81,446.735Z" transform="translate(-1322.776 -282.221)" fill="#ccc"/>
      <path id="Path_37431" data-name="Path 37431" d="M1850.387,857.539l9.083-.9a7.072,7.072,0,0,0,6.334-5.793l2.077-11.383a1.589,1.589,0,0,0,0-.556c-6.447,3.719-11.883,7.019-13.933,8.854C1852.426,849.078,1851.249,852.822,1850.387,857.539Z" transform="translate(-1591.852 -589.567)" fill="#e6e7e8"/>
      <path id="Path_37432" data-name="Path 37432" d="M1835.29,970.537c0,9.208,7.8,16.671,17.459,16.671l99.521,2.075a32.477,32.477,0,0,1-.683-6.628A33.246,33.246,0,0,1,1955.45,967l-120.133,1.353C1835.29,969.083,1835.29,969.817,1835.29,970.537Z" transform="translate(-1674.908 -679.584)" fill="#58595b"/>
      <path id="Path_37433" data-name="Path 37433" d="M1469.144,982.655a31.838,31.838,0,0,1-.66,6.628l59.973-2.051V968.387L1465.28,967A33.281,33.281,0,0,1,1469.144,982.655Z" transform="translate(-1137.942 -679.584)" fill="#58595b"/>
      <path id="Path_37434" data-name="Path 37434" d="M2038.111,847.547h-40.957c-1.266,0-2.307,1.771-2.1,3.719l1.459,14.2c.2,2.1,1.391,3.643,2.8,3.643h33.746c2.155,0,4.066-2.138,4.7-5.262l2.431-12.091C2040.608,849.672,2039.568,847.547,2038.111,847.547Z" transform="translate(-1807.217 -595.638)" fill="#58595b"/>
      <path id="Path_37435" data-name="Path 37435" d="M1743.99,607.85c48.3-2.53,80.989-28.293,90.845-37.159h-71.323a4.939,4.939,0,0,0-4.536,2.973Z" transform="translate(-1527.157 -401.068)" fill="#fff" opacity="0.1"/>
      <path id="Path_37436" data-name="Path 37436" d="M886.209,401.582l-12.4,188.275h182.726l12.39-188.275Z" transform="translate(-502.613 -282.221)" fill="#a7a9ac"/>
      <path id="Path_37437" data-name="Path 37437" d="M1666.459,671.289s-1.572,17.884,7.285,22.766H1657.21Z" transform="translate(-1340.274 -471.767)" fill="#414042"/>
      <path id="Path_37438" data-name="Path 37438" d="M1677.105,700.218s3.739-2.656,4.054-4.844v12.433h-4.889Z" transform="translate(-1353.354 -488.693)" fill="#414042"/>
      <path id="Path_37439" data-name="Path 37439" d="M1615.66,676.872V690.62a7.725,7.725,0,0,0,7.743,7.728h2.532a7.758,7.758,0,0,0,7.74-7.728V676.872a7.572,7.572,0,0,0-1.24-3.959,7.742,7.742,0,0,0-6.613-3.794h-2.535a7.761,7.761,0,0,0-7.627,7.753Z" transform="translate(-1287.855 -470.242)" fill="#fff"/>
      <path id="Path_37440" data-name="Path 37440" d="M1615.66,703.1a7.771,7.771,0,0,0,6.931,4.275h2.532a7.758,7.758,0,0,0,7.74-7.728v-13.8a7.573,7.573,0,0,0-1.24-3.959C1631.547,682.732,1628.254,701.654,1615.66,703.1Z" transform="translate(-1287.044 -479.213)" fill="#e6e7e8"/>
      <path id="Path_37441" data-name="Path 37441" d="M963.259,957.326h44.947c.95-4.045,3.8-32.884-21.383-32.884C963.931,924.442,962.246,950.736,963.259,957.326Z" transform="translate(-469.018 -649.678)" fill="#231f20"/>
      <path id="Path_37442" data-name="Path 37442" d="M1040.183,961.74c0,10.471-5.409,22.006-5.409,22.006H1025.6c-8.043,0-14.555-9.853-14.555-22.006s15.669-22.021,23.715-22.021S1040.183,949.6,1040.183,961.74Z" transform="translate(-515.069 -660.414)" fill="#231f20"/>
      <path id="Path_37443" data-name="Path 37443" d="M1010.738,961.74c0,12.153-6.523,22.006-14.569,22.006S981.6,973.894,981.6,961.74s6.524-22.021,14.567-22.021S1010.738,949.6,1010.738,961.74Z" transform="translate(-476.464 -660.414)" fill="#414042"/>
      <path id="Path_37444" data-name="Path 37444" d="M1016.247,974.6c0,9.154-4.915,16.579-10.972,16.579S994.3,983.754,994.3,974.6s4.9-16.583,10.97-16.583S1016.247,965.467,1016.247,974.6Z" transform="translate(-485.749 -673.274)" fill="#d1d3d4"/>
      <path id="Path_37445" data-name="Path 37445" d="M1640.63,519.735h104.336a60.031,60.031,0,0,1,3.029-14.279H1645.026a14.554,14.554,0,0,0-.6,1.379A86.243,86.243,0,0,0,1640.63,519.735Z" transform="translate(-1409.596 -355.222)" fill="#fff"/>
      <path id="Path_37446" data-name="Path 37446" d="M38.673.979,38.66,15.347,231,79.737l.215-7.058Z" transform="translate(583.316 -0.685)" fill="#999"/>
      <path id="Path_37447" data-name="Path 37447" d="M39.587,49.32l-.2,212.559,188.39-11.459,4.155-136.71Z" transform="translate(582.388 -34.658)" fill="#ccc"/>
      <path id="Path_37448" data-name="Path 37448" d="M129.809,227.313l-1.6,52.223-19.737-4.87,1.634-53.854Z" transform="translate(663.973 -155.18)" fill="#e1632a"/>
      <path id="Path_37449" data-name="Path 37449" d="M138.965,520l-1.824,59.672-19.927,1.215,1.976-64.96Z" transform="translate(652.22 -362.579)" fill="#e1632a"/>
      <g id="Group_566" data-name="Group 566" transform="matrix(0.899, 0.438, -0.438, 0.899, 765.714, 115.162)">
        <path id="Path_37450" data-name="Path 37450" d="M10.985,27.273A10.686,10.686,0,0,1,8.135,6.214L32.281.308A11.247,11.247,0,0,1,34.523,0a10.7,10.7,0,0,1,11,10.346v.784A10.69,10.69,0,0,1,37.044,21.91L12.873,26.995A11.272,11.272,0,0,1,10.985,27.273Z" transform="translate(0.714 0.786)" fill="#e1632a"/>
        <path id="Path_37451" data-name="Path 37451" d="M1.3,5.206,1.2,3.828l.684-.164h.165l.139.127a1.006,1.006,0,0,1,.1.2.819.819,0,0,1,0,.24.631.631,0,0,1,0,.266,1.323,1.323,0,0,1,0,.24.48.48,0,0,1-.114.19l-.152.089-.7.164ZM1.127,2.651l-.089-1.2L1.6,1.323h.139l.139.1a.582.582,0,0,1,.089.177.893.893,0,0,1,0,.215.834.834,0,0,1,0,.253.945.945,0,0,1,0,.2l-.127.152-.152.089-.557.126ZM1.812.021.076.413,0,.489V.64L.469,6.4v.126H.545l1.9-.443a.838.838,0,0,0,.418-.24,1.776,1.776,0,0,0,.329-.493A2.968,2.968,0,0,0,3.4,4.7a2.829,2.829,0,0,0,0-.734A2.527,2.527,0,0,0,3.23,3.2a1.758,1.758,0,0,0-.355-.569,2.418,2.418,0,0,0,.139-.519,3.106,3.106,0,0,0,0-.594A3.612,3.612,0,0,0,2.876.83,2.122,2.122,0,0,0,2.584.324.963.963,0,0,0,2.192.033a.635.635,0,0,0-.405,0" transform="translate(4.25 15.163)"/>
        <path id="Path_37452" data-name="Path 37452" d="M2.622,0,.089.607,0,.683V.822L.469,6.577v.139H.558l2.648-.607s.089,0,.089-.139V5.894L3.205,4.857c0-.126,0-.177-.127-.164l-1.761.4-.089-1.05,1.267-.3.076-.076V3.541L2.5,2.656V2.542H2.407l-1.267.3L1.052,1.821l1.685-.392.089-.076V1.2L2.736.19V.051h-.1" transform="translate(7.911 14.21)"/>
        <path id="Path_37453" data-name="Path 37453" d="M1.334.234h-.1A1.713,1.713,0,0,0,.675.487,1.792,1.792,0,0,0,.257.942a2.228,2.228,0,0,0-.228.594,2.274,2.274,0,0,0,0,.721A2.426,2.426,0,0,0,.156,2.9a1.641,1.641,0,0,0,.278.481,1.7,1.7,0,0,0,.431.354,3.112,3.112,0,0,0,.583.253h.165l.2.089a.858.858,0,0,1,.165.139.341.341,0,0,1,.076.215,1.386,1.386,0,0,1,0,.228.946.946,0,0,1-.063.2l-.127.164a.952.952,0,0,1-.228.089.547.547,0,0,1-.24,0,1.015,1.015,0,0,1-.279-.152l-.241-.1L.751,4.724V4.661l-.089.089L.27,5.533V5.71a.52.52,0,0,0,.076.139L.485,6a.95.95,0,0,0,.19.2,1.685,1.685,0,0,0,.583.329.964.964,0,0,0,.532,0h.063a1.384,1.384,0,0,0,.583-.278A2.023,2.023,0,0,0,3.158,4.99a2.711,2.711,0,0,0,0-.86,2.179,2.179,0,0,0-.152-.708,1.431,1.431,0,0,0-.3-.455,1.686,1.686,0,0,0-.431-.278,4.549,4.549,0,0,0-.545-.177L1.46,2.422a.573.573,0,0,1-.177-.089l-.127-.139a.266.266,0,0,1,0-.177.58.58,0,0,1,0-.215l.076-.152.127-.1h.494l.152.1.127.127h.012l.089-.089L2.575.93V.588L2.461.449,2.309.322,2.119.183A1.131,1.131,0,0,0,1.676.019a.9.9,0,0,0-.367,0" transform="translate(11.442 13.331)"/>
        <path id="Path_37454" data-name="Path 37454" d="M2.888.051.089.708,0,.772V.911L.089,1.948a.2.2,0,0,0,0,.139h.1l.9-.215L1.457,6.4v.127h.089l.773-.177.089-.089V6.122L2.04,1.606l.9-.215L3.028,1.3V1.151L2.952.127V0H2.863" transform="translate(14.613 12.54)"/>
        <path id="Path_37455" data-name="Path 37455" d="M1.359.217H1.232A1.266,1.266,0,0,0,.675.47,1.351,1.351,0,0,0,.27.912a1.893,1.893,0,0,0-.241.594,2.257,2.257,0,0,0,0,.721,3.076,3.076,0,0,0,.127.645,1.684,1.684,0,0,0,.291.481,1.447,1.447,0,0,0,.418.354,2.445,2.445,0,0,0,.583.24l.165.063.2.089a.6.6,0,0,1,.165.139.444.444,0,0,1,.076.215,1.385,1.385,0,0,1,0,.228.552.552,0,0,1,0,.2l-.127.165-.215.088a.58.58,0,0,1-.254,0,.867.867,0,0,1-.278-.152A2.331,2.331,0,0,1,1,4.821L.89,4.694.815,4.631l-.076.076-.405.784v.177a.277.277,0,0,0,.076.152l.127.152a.952.952,0,0,0,.19.2,2.077,2.077,0,0,0,.583.329.963.963,0,0,0,.532,0,1.6,1.6,0,0,0,.6-.278,1.91,1.91,0,0,0,.443-.506,2.059,2.059,0,0,0,.266-.708,2.666,2.666,0,0,0,0-.847,2.331,2.331,0,0,0-.165-.708A1.264,1.264,0,0,0,2.677,3a1.428,1.428,0,0,0-.431-.291L1.7,2.519a1.479,1.479,0,0,1-.253-.076l-.2-.088-.114-.139a.379.379,0,0,1,0-.19.527.527,0,0,1,0-.2l.089-.152.127-.1h.481l.152.114.127.114h.152l.076-.1L2.677.937V.6L2.563.457,2.411.33,2.233.191A1.7,1.7,0,0,0,1.777.014a1.192,1.192,0,0,0-.367,0" transform="translate(19.955 11.4)"/>
        <path id="Path_37456" data-name="Path 37456" d="M2.622,0,.089.594,0,.67V.809L.469,6.577V6.7H.558l2.635-.62c.076,0,.1,0,.1-.139V5.869L3.218,4.831c0-.114,0-.177-.127-.164l-1.748.4-.089-1.05,1.267-.3.089-.076V3.529l-.076-.885V2.53H2.445l-1.267.316L1.09,1.821l1.7-.392.089-.088V1.2L2.787.177V.038h-.1" transform="translate(23.405 10.618)"/>
        <path id="Path_37457" data-name="Path 37457" d="M1.153,3.023,1.026,1.518l.367-.088h.279a.252.252,0,0,1,.165,0,.478.478,0,0,1,.139.139,1.126,1.126,0,0,1,.1.215,1.358,1.358,0,0,1,0,.24.944.944,0,0,1,0,.265.816.816,0,0,1,0,.24.638.638,0,0,1-.114.2.728.728,0,0,1-.152.126H1.647l-.481.1ZM1.761,0,.089.392,0,.468V.607L.456,6.374V6.5H.545l.773-.177c.076,0,.114-.089.1-.215L1.28,4.25l.418-.1.786,1.745V6h.089l.9-.215V5.426L2.635,3.579a2.648,2.648,0,0,0,.24-.367,2.386,2.386,0,0,0,.165-.455,2.1,2.1,0,0,0,.1-.506,1.94,1.94,0,0,0,0-.544A2.6,2.6,0,0,0,2.99.961,2.274,2.274,0,0,0,2.66.38,1.141,1.141,0,0,0,2.2.051a.7.7,0,0,0-.481,0" transform="translate(26.939 9.935)"/>
        <path id="Path_37458" data-name="Path 37458" d="M3.623,0,2.8.19a.2.2,0,0,0-.127.19,8.739,8.739,0,0,1-.127.986l-.114.987-.114.986a6.578,6.578,0,0,1-.139.986L1.077.759A.116.116,0,0,0,.937.632L.089.822C.025.822,0,.822,0,.961v.063L1.8,6.261v.291h.114L2.559,6.4V6.008l.9-5.856V.063H3.37" transform="translate(30.157 8.809)"/>
        <path id="Path_37459" data-name="Path 37459" d="M.836,0,.076.177,0,.253V.392L.469,6.16q0,.165.114.152l.773-.177c.076,0,.114-.1.114-.215L1,.152V.025H.912" transform="translate(34.413 8.468)"/>
        <path id="Path_37460" data-name="Path 37460" d="M1.843,0H1.755a1.623,1.623,0,0,0-.52.24,2.074,2.074,0,0,0-.456.43,2.643,2.643,0,0,0-.355.582,3.707,3.707,0,0,0-.266.708,4.343,4.343,0,0,0-.139.81,4.887,4.887,0,0,0,0,.86,5.329,5.329,0,0,0,.127.822,5.111,5.111,0,0,0,.266.709,2.815,2.815,0,0,0,.367.556,1.9,1.9,0,0,0,.443.4,1.569,1.569,0,0,0,.507.2,1.021,1.021,0,0,0,.481,0,1.266,1.266,0,0,0,.583-.278A2.264,2.264,0,0,0,3.3,5.515V5.249l-.532-.911V4.275l-.089.063a1.533,1.533,0,0,1-.266.3,1.081,1.081,0,0,1-.317.164.531.531,0,0,1-.367,0,.835.835,0,0,1-.342-.266,1.891,1.891,0,0,1-.241-.481,2.624,2.624,0,0,1-.1-1.265A2.676,2.676,0,0,1,1.2,2.226a1.747,1.747,0,0,1,.292-.417.722.722,0,0,1,.38-.215.819.819,0,0,1,.3,0,.787.787,0,0,1,.292.177h.152v-.1L2.983.582V.418L2.907.329A1.642,1.642,0,0,0,2.35.051a1.122,1.122,0,0,0-.507,0" transform="translate(36.307 7.708)"/>
        <path id="Path_37461" data-name="Path 37461" d="M2.622,0,.089.607,0,.67V.81L.481,6.577V6.7H.558L3.205,6.1s.1-.063.1-.152l-.089-1.05c0-.126,0-.177-.127-.164L1.33,5.148,1.254,4.085l1.267-.3L2.6,3.706V3.592l-.076-.885V2.593H2.445l-1.267.3L1.09,1.872l1.7-.392.089-.089V1.252L2.8.228V.1H2.711" transform="translate(39.987 6.76)"/>
        <path id="Path_37462" data-name="Path 37462" d="M35.262,1.5a9.951,9.951,0,0,1,10.223,9.625v.784a9.907,9.907,0,0,1-7.829,10.017L13.486,26.984A9.456,9.456,0,0,1,11.7,27.2,9.927,9.927,0,0,1,9.026,7.7L33.172,1.79A9.784,9.784,0,0,1,35.262,1.5Zm0-1.493a11.263,11.263,0,0,0-2.394.329L8.722,6.242a11.425,11.425,0,0,0,3.053,22.526,11.626,11.626,0,0,0,2.052-.253l24.159-5.122A11.387,11.387,0,0,0,47.056,11.87v-.784A11.4,11.4,0,0,0,35.287.006Z" transform="translate(0 0)"/>
      </g>
      <path id="Path_37463" data-name="Path 37463" d="M686.635,0l-.025,14.381-.127,234.87,9.476.43.026-22.463.2-212.559L696.2.291Z" transform="translate(-74.211 0.003)" fill="#b1a2a2"/>
      <path id="Path_37464" data-name="Path 37464" d="M53.39,737.388l-.025,22.463L241.374,739.26l.405-13.331Z" transform="translate(568.383 -510.167)" fill="#fff"/>
      <path id="Path_37465" data-name="Path 37465" d="M725.132,69.481,718.748,279.4,894.2,283.254l.127-234.87Z" transform="translate(-281.932 -34)" fill="#ccc"/>
      <path id="Path_37466" data-name="Path 37466" d="M786.561,207.916s5.665-45.734,37.562-57.573l146.154-6.767-2.052,67.185Z" transform="translate(-378.034 -100.9)" fill="#a7a9ac"/>
      <path id="Path_37467" data-name="Path 37467" d="M719.082,21.855l-.419,13.622,169.2-21.1L887.887,0Z" transform="translate(-275.463 0.003)" fill="#999"/>
      <path id="Path_37468" data-name="Path 37468" d="M101.557,756.32,64.1,754.992c16.279,2.441,18.09,28.749,17.241,42.9l33.267,1.138C115.239,780.389,112.148,760.671,101.557,756.32Z" transform="translate(692.289 -530.591)" fill="#414042" fill-rule="evenodd"/>
      <path id="Path_37469" data-name="Path 37469" d="M107.4,756.108,69.94,754.78c16.279,2.441,18.116,28.748,17.242,42.9l33.267,1.2C121.082,780.189,117.94,760.459,107.4,756.108Z" transform="translate(684.71 -530.443)" fill="#58595b" fill-rule="evenodd"/>
      <path id="Path_37470" data-name="Path 37470" d="M192.185,810.087c-1.039,18.238,3.23,33.2,9.514,33.4s12.174-14.406,13.137-32.632-3.306-33.188-9.526-33.4S193.237,791.862,192.185,810.087Z" transform="translate(553.977 -546.377)" fill="#231f20" fill-rule="evenodd"/>
      <path id="Path_37471" data-name="Path 37471" d="M161.474,842.208s-14.67,1.442-25.336-.848l3.611-66.035s15.1-2.631,26.249,1.088Z" transform="translate(619.564 -544.247)" fill="#231f20" fill-rule="evenodd"/>
      <path id="Path_37472" data-name="Path 37472" d="M107.418,812.938c-.95,18.238,3.383,33.187,9.666,33.4S129.195,832,130.069,813.709s-3.433-33.188-9.653-33.4S108.381,794.712,107.418,812.938Z" transform="translate(663.955 -548.38)" fill="#414042" fill-rule="evenodd"/>
      <path id="Path_37473" data-name="Path 37473" d="M119.4,837.94a58.628,58.628,0,0,0,.266,9.916c.874,7.487,3.243,12.648,6.334,12.787,4.269.152,8.222-9.777,8.868-22.185s-2.331-22.564-6.562-22.7c-2.952-.1-5.751,4.667-7.411,11.737A60.026,60.026,0,0,0,119.4,837.94Z" transform="translate(655.606 -573.295)" fill="#d1d3d4" fill-rule="evenodd"/>
      <path id="Path_37474" data-name="Path 37474" d="M152.081,864.352a58.628,58.628,0,0,0,.266,9.916,1.748,1.748,0,0,0,1.267.759c2.065,0,3.965-4.73,4.269-10.725s-1.1-10.89-3.154-10.966a1.775,1.775,0,0,0-1.267.569A60.028,60.028,0,0,0,152.081,864.352Z" transform="translate(622.927 -599.705)" fill="#58595b" fill-rule="evenodd"/>
      <path id="Path_37475" data-name="Path 37475" d="M135.62,755.759l29.568,1.05c-23.259,1.025-28.1,27.1-28.124,41.282l-23.6-.835C114.172,778.576,120.317,759.187,135.62,755.759Z" transform="translate(627.113 -531.131)" fill="#414042" fill-rule="evenodd"/>
      <path id="Path_37476" data-name="Path 37476" d="M146.783,753.333l30.771,1.088c-21.878,1.113-26.869,27.522-26.907,41.889l-26.059-.974C125.323,776.466,131.492,756.811,146.783,753.333Z" transform="translate(611.44 -529.426)" fill="#6d6e71" fill-rule="evenodd"/>
      <path id="Path_37477" data-name="Path 37477" d="M909.179,235.451a8.785,8.785,0,0,0-8.868,8.651l-.076,5.945a8.785,8.785,0,0,0,8.652,8.854,8.862,8.862,0,0,0,8.868-8.651l.076-5.957a8.784,8.784,0,0,0-8.652-8.841Z" transform="translate(-359.375 -165.468)" fill="#f58220" fill-rule="evenodd"/>
      <path id="Path_37478" data-name="Path 37478" d="M912.793,251.11a7.342,7.342,0,0,0-7.424,7.209l-.064,4.97a7.323,7.323,0,0,0,14.645.19l.064-4.971a7.329,7.329,0,0,0-7.221-7.4Z" transform="translate(-363.065 -176.472)" fill="#f0a72f" fill-rule="evenodd"/>
      <path id="Path_37479" data-name="Path 37479" d="M918.164,270.429a5.062,5.062,0,0,0-5.143,5.059v3.44a5.074,5.074,0,0,0,10.147.063v-3.44a5.066,5.066,0,0,0-5-5.123Z" transform="translate(-368.511 -190.049)" fill="#d1642c" fill-rule="evenodd"/>
      <path id="Path_37480" data-name="Path 37480" d="M900.536,283.665v.392c-.1,7.019,3.8,12.812,8.6,12.876,4.827.063,8.868-5.628,8.944-12.648v-.392Z" transform="translate(-359.713 -199.352)" fill="#414042" fill-rule="evenodd"/>
      <path id="Path_37481" data-name="Path 37481" d="M209.1,779.642l321.977-21.16c-6.777,14.76-12.288,27.825-12.909,48.062,0,1.631-.076,3.263-.076,4.882L207.318,838.341Z" transform="translate(233.323 -533.044)" fill="#58595b" fill-rule="evenodd"/>
      <path id="Path_37482" data-name="Path 37482" d="M1340.776,229.918a8.786,8.786,0,0,0-8.869,8.639l-.077,5.957a8.785,8.785,0,0,0,8.655,8.853,8.857,8.857,0,0,0,8.866-8.651l.077-5.957a8.789,8.789,0,0,0-8.652-8.841Z" transform="translate(-919.249 -161.579)" fill="#f58220" fill-rule="evenodd"/>
      <path id="Path_37483" data-name="Path 37483" d="M1344.452,245.578a7.342,7.342,0,0,0-7.425,7.209v4.97a7.292,7.292,0,1,0,14.582.24V253.04a7.328,7.328,0,0,0-7.157-7.462Z" transform="translate(-922.975 -172.585)" fill="#f0a72f" fill-rule="evenodd"/>
      <path id="Path_37484" data-name="Path 37484" d="M1349.674,264.855a5.068,5.068,0,0,0-5.145,5.059v3.453a5.105,5.105,0,0,0,.363,1.941,5.076,5.076,0,0,0,9.787-1.878v-3.44a5.066,5.066,0,0,0-5.005-5.135Z" transform="translate(-928.274 -186.132)" fill="#d1642c" fill-rule="evenodd"/>
      <path id="Path_37485" data-name="Path 37485" d="M1332.052,278.133v.392c-.089,7.019,3.8,12.812,8.6,12.875,4.827,0,8.869-5.628,8.943-12.648v-.38Z" transform="translate(-919.483 -195.464)" fill="#414042" fill-rule="evenodd"/>
      <path id="Path_37486" data-name="Path 37486" d="M1363.36,874.762a12.956,12.956,0,0,0-2.535,0c-11.4.974-20.547,16.366-20.8,35.326s8.551,34.6,19.875,35.856v.077h1.266l22.018.276.924-71.256Z" transform="translate(-956.364 -614.72)" fill="#231f20" fill-rule="evenodd"/>
      <path id="Path_37487" data-name="Path 37487" d="M1289.878,946.819c11.921.152,21.855-15.732,22.107-35.413s-9.261-35.793-21.18-35.945-21.855,15.747-22.107,35.414S1277.96,946.667,1289.878,946.819Z" transform="translate(-863.046 -615.254)" fill="#414042" fill-rule="evenodd"/>
      <path id="Path_37488" data-name="Path 37488" d="M1307.63,961.943c7.817.1,14.341-10.89,14.516-24.462s-6.054-24.727-13.934-24.828-14.353,10.89-14.531,24.461S1299.8,961.842,1307.63,961.943Z" transform="translate(-880.631 -641.393)" fill="#6d6e71" fill-rule="evenodd"/>
      <path id="Path_37489" data-name="Path 37489" d="M805.63,858.1l-56.64-.721c24.691,2.289,28.479,30.266,27.769,45.341l50.28.645C827.255,883.47,821.706,862.537,805.63,858.1Z" transform="translate(-223.635 -602.546)" fill="#808285" fill-rule="evenodd"/>
      <path id="Path_37490" data-name="Path 37490" d="M814.452,857.971l-56.639-.721c24.689,2.289,28.477,30.266,27.78,45.344l50.281.645C836.089,883.355,830.5,862.41,814.452,857.971Z" transform="translate(-235.092 -602.457)" fill="#58595b" fill-rule="evenodd"/>
      <path id="Path_37491" data-name="Path 37491" d="M875.966,881.02a13.065,13.065,0,0,0-2.534,0c-11.4.974-20.548,16.366-20.8,35.326s8.551,34.605,19.889,35.856v.074h1.267l22.03.279.887-71.321Z" transform="translate(-324.097 -619.118)" fill="#231f20" fill-rule="evenodd"/>
      <path id="Path_37492" data-name="Path 37492" d="M802.5,953.2c11.921.151,21.84-15.735,22.093-35.414s-9.26-35.756-21.194-35.9-21.84,15.746-22.094,35.414S790.58,953.044,802.5,953.2Z" transform="translate(-230.792 -619.77)" fill="#414042" fill-rule="evenodd"/>
      <path id="Path_37493" data-name="Path 37493" d="M818.417,968.2c8.234.116,15.1-10.875,15.278-24.446s-6.41-24.74-14.645-24.841-15.075,10.877-15.278,24.41S810.183,968.1,818.417,968.2Z" transform="translate(-246.57 -645.789)" fill="#d1d3d4" fill-rule="evenodd"/>
      <path id="Path_37494" data-name="Path 37494" d="M833.717,943.379c0-13.407-6.486-24.284-14.645-24.385S804,929.808,803.794,943.379a35.05,35.05,0,0,0,3.572,16.442,31.14,31.14,0,0,0,26.35-16.442Z" transform="translate(-246.591 -645.849)" fill="#d1d3d4" fill-rule="evenodd"/>
      <path id="Path_37495" data-name="Path 37495" d="M822.038,971.6c7.411.1,13.58-9.776,13.733-21.982s-5.751-22.222-13.162-22.323-13.568,9.777-13.72,21.981S814.64,971.508,822.038,971.6Z" transform="translate(-250.165 -651.68)" fill="#a7a9ac" fill-rule="evenodd"/>
      <path id="Path_37496" data-name="Path 37496" d="M835.875,950.627v-.8c.152-12.229-5.739-22.221-13.162-22.322s-13.568,9.751-13.72,21.983a30.022,30.022,0,0,0,4.155,16.442,26.529,26.529,0,0,0,22.727-15.3Z" transform="translate(-250.296 -651.83)" fill="#d1d3d4" fill-rule="evenodd"/>
      <path id="Path_37497" data-name="Path 37497" d="M810.365,981.363c5.726.063,10.489-6.69,10.591-15.051s-4.472-15.241-10.2-15.317-10.489,6.691-10.6,15.052S804.639,981.285,810.365,981.363Z" transform="translate(-232.754 -668.338)" fill="#6d6e71" fill-rule="evenodd"/>
      <path id="Path_37498" data-name="Path 37498" d="M872.286,1009.21c4.028,0,7.259,2.048,7.233,4.452s-2.99,4.122-6.727,4.262a32.992,32.992,0,0,1-1.584-8.676C871.564,1009.222,871.919,1009.21,872.286,1009.21Z" transform="translate(-312.436 -709.251)" fill="#6d6e71" fill-rule="evenodd"/>
      <path id="Path_37499" data-name="Path 37499" d="M875.407,964.1c3.294.455,5.752,2.239,5.726,4.338,0,2.4-3.319,4.313-7.348,4.262h-.19A32.557,32.557,0,0,1,875.407,964.1Z" transform="translate(-314.758 -677.551)" fill="#6d6e71" fill-rule="evenodd"/>
      <path id="Path_37500" data-name="Path 37500" d="M857.762,928.442c2.445,1.012,3.7,2.643,2.888,4.06-1.039,1.783-4.953,2.53-8.754,1.758l-.95-.24A12.865,12.865,0,0,1,857.762,928.442Z" transform="translate(-287.789 -652.489)" fill="#6d6e71" fill-rule="evenodd"/>
      <path id="Path_37501" data-name="Path 37501" d="M857.3,1057.233c3.547-.785,5.625-2.743,4.675-4.476s-4.877-2.708-8.7-1.985a12.845,12.845,0,0,0-1.761.455A14.458,14.458,0,0,0,857.3,1057.233Z" transform="translate(-289.266 -738.291)" fill="#6d6e71" fill-rule="evenodd"/>
      <path id="Path_37502" data-name="Path 37502" d="M804.1,981.185c5.143.062,9.425-6.792,9.539-15.268s-4-15.454-9.147-15.518-9.438,6.792-9.539,15.28S798.929,981.12,804.1,981.185Z" transform="translate(-223.889 -667.92)" fill="#bcbec0" fill-rule="evenodd"/>
      <path id="Path_37503" data-name="Path 37503" d="M812.688,989.054c3.218,0,5.9-4.25,5.967-9.55s-2.534-9.662-5.713-9.7-5.9,4.25-5.967,9.548S809.521,989.015,812.688,989.054Z" transform="translate(-232.479 -681.558)" fill="#e6e7e8" fill-rule="evenodd"/>
      <path id="Path_37504" data-name="Path 37504" d="M821.874,972.082a4.7,4.7,0,0,0-3.7-2.277c-3.231,0-5.9,4.237-5.967,9.548a15.15,15.15,0,0,0,.405,3.8,4.763,4.763,0,0,0,3.7,2.277c3.23,0,5.9-4.238,5.967-9.549A14.649,14.649,0,0,0,821.874,972.082Z" transform="translate(-237.663 -681.558)" fill="#58595b" fill-rule="evenodd"/>
      <path id="Path_37505" data-name="Path 37505" d="M801.265,844.935l57.623.743-.081,6.26-57.623-.743Z" transform="translate(-270.991 -593.802)" fill="#414042"/>
      <path id="Path_37506" data-name="Path 37506" d="M1146.08,833.377l90.821,1.164-9.059,40.954a4.026,4.026,0,0,1-4.015,3.213l-66.913-.86a4.016,4.016,0,0,1-3.941-3.4Z" transform="translate(-751.514 -585.679)" fill="#414042" fill-rule="evenodd"/>
      <path id="Path_37507" data-name="Path 37507" d="M848.92,829.635l-88.931-1.151v3.946l-.089,6.982-.66,51.059,28.986,6.83c-6.93-22.994.747-62.493,28.149-63.543,5.206-.2,14.1.936,18.255,6.615l14.15.19Z" transform="translate(-248.556 -582.24)" fill="#a7a9ac" fill-rule="evenodd"/>
      <path id="Path_37508" data-name="Path 37508" d="M963.743,999.337l159.9,2.061c.66,8.765,11.059,13.827,20.18,15.976L982.515,1015.3C975.537,1015.551,965.654,1008.418,963.743,999.337Z" transform="translate(-604.239 -702.313)" fill="#58595b" fill-rule="evenodd"/>
      <path id="Path_37509" data-name="Path 37509" d="M751.909,453.994l87.626,1.126L841.714,300.9c0-3.137-3.382-5.274-7.6-5.325l-76.34.228Z" transform="translate(-239.172 -207.725)" fill="#a7a9ac" fill-rule="evenodd"/>
      <path id="Path_37510" data-name="Path 37510" d="M1524.968,501.959l-15.2-.2a6.686,6.686,0,0,1-6.589-6.741l.621-48.163a6.7,6.7,0,0,1,6.765-6.59l15.2.2a6.683,6.683,0,0,1,6.586,6.754l-.621,48.163a6.574,6.574,0,0,1-.541,2.544,6.68,6.68,0,0,1-6.224,4.033Zm-14.442-59.926a4.89,4.89,0,0,0-4.964,4.832l-.621,48.163A4.913,4.913,0,0,0,1509.78,500l15.2.2a4.926,4.926,0,0,0,4.978-4.844l.657-48.125a4.913,4.913,0,0,0-4.851-4.971Z" transform="translate(-1153.103 -309.405)" fill="#414042"/>
      <path id="Path_37511" data-name="Path 37511" d="M759.4,822.073l235.153,3.032-.06,4.667L759.342,826.74Z" transform="translate(-394.224 -577.735)" fill="#414042"/>
      <path id="Path_37512" data-name="Path 37512" d="M875.682,291.535l159.048,1.455a5.683,5.683,0,0,1,5.612,5.742l-.557,28.736-210.092-2.694,2.714-14.836C832.862,294.988,870.46,291.472,875.682,291.535Z" transform="translate(-460.92 -204.882)" fill="#ccc" fill-rule="evenodd"/>
      <g id="Group_565" data-name="Group 565" transform="matrix(0.999, 0.035, -0.035, 0.999, 397.761, 97.979)">
        <path id="Path_37513" data-name="Path 37513" d="M78.407,0,8.157,1.078a8.265,8.265,0,1,0,.256,16.529L78.66,16.53A8.265,8.265,0,1,0,78.407,0Z" transform="translate(0 0)" fill="#e1632a"/>
        <path id="Path_37514" data-name="Path 37514" d="M.016.167a.192.192,0,0,1,0-.152A.158.158,0,0,1,.084,0,.162.162,0,0,1,.155.015h2.99a1.668,1.668,0,0,1,.746.139,1.7,1.7,0,0,1,.621.4,1.747,1.747,0,0,1,.419.607,1.626,1.626,0,0,1,.164.746,1.638,1.638,0,0,1-.089.632,1.846,1.846,0,0,1-.291.518,2.3,2.3,0,0,1,.52.7,2.067,2.067,0,0,1,.2.873,1.963,1.963,0,0,1-.152.772,1.859,1.859,0,0,1-.4.645A2.017,2.017,0,0,1,4.26,6.5a1.745,1.745,0,0,1-.749.164H.256a.2.2,0,0,1-.14,0,.223.223,0,0,1,0-.152ZM3.7,4.48a.988.988,0,0,0,0-.265.957.957,0,0,0-.152-.24.751.751,0,0,0-.229-.164.675.675,0,0,0-.277,0H1.852V5.315H3.044a.7.7,0,0,0,.277-.076.878.878,0,0,0,.217-.165.678.678,0,0,0,.14-.24A.753.753,0,0,0,3.7,4.48ZM3.425,1.951a.6.6,0,0,0,0-.253.612.612,0,0,0-.14-.2.533.533,0,0,0-.229-.139.625.625,0,0,0-.267,0H1.814V2.621h.951a.915.915,0,0,0,.279,0,.54.54,0,0,0,.214-.139.489.489,0,0,0,.14-.215.576.576,0,0,0,.027-.38Z" transform="translate(10.715 6.222)"/>
        <path id="Path_37515" data-name="Path 37515" d="M.013.228a.221.221,0,0,1,0-.152A.169.169,0,0,1,.085.059.147.147,0,0,1,.153.076L4.614,0a.217.217,0,0,1,.152.063.223.223,0,0,1,.062.152V1.328a.222.222,0,0,1,0,.152.215.215,0,0,1-.152,0H1.764V2.593H4.005a.263.263,0,0,1,.151,0,.144.144,0,0,1,.018.07.145.145,0,0,1-.018.07v.961a.229.229,0,0,1,0,.126.211.211,0,0,1-.151.063H1.749V5.034H4.766a.18.18,0,0,1,.083.007.174.174,0,0,1,.068.043.17.17,0,0,1,.045.07.194.194,0,0,1,.006.082V6.362a.083.083,0,0,1,.009.038.084.084,0,0,1-.009.038c0,.089-.077.126-.178.139L.242,6.64a.168.168,0,0,1-.077-.006A.16.16,0,0,1,.1,6.594a.156.156,0,0,1-.044-.065A.176.176,0,0,1,.04,6.45Z" transform="translate(17.063 6.06)"/>
        <path id="Path_37516" data-name="Path 37516" d="M1.079,4.63a1.644,1.644,0,0,1,.2.165A1.719,1.719,0,0,0,1.56,5a1.878,1.878,0,0,0,.455.228,1.178,1.178,0,0,0,.47.076,1.1,1.1,0,0,0,.38,0,.781.781,0,0,0,.253-.139.484.484,0,0,0,.113-.2.658.658,0,0,0,0-.241.333.333,0,0,0-.1-.24,1.476,1.476,0,0,0-.265-.2l-.318-.139-.291-.089A7.111,7.111,0,0,1,1.3,3.656a2.97,2.97,0,0,1-.684-.481,1.815,1.815,0,0,1-.416-.582,1.758,1.758,0,0,1-.14-.708,1.669,1.669,0,0,1,.151-.759A1.571,1.571,0,0,1,.7.532,2.315,2.315,0,0,1,1.444.14,3.365,3.365,0,0,1,2.422,0a3.2,3.2,0,0,1,.785.076,2.861,2.861,0,0,1,.746.291l.291.177.241.177A.992.992,0,0,1,4.651.9.182.182,0,0,1,4.7.962a.171.171,0,0,1,.018.076.149.149,0,0,1,0,.1.333.333,0,0,1-.089.114L3.953,2a.2.2,0,0,1-.068.053.2.2,0,0,1-.083.022.2.2,0,0,1-.113,0l-.116-.088-.19-.165-.241-.139-.265-.1a1.138,1.138,0,0,0-.291,0H2.306a.993.993,0,0,0-.229.089.428.428,0,0,0-.152.139.3.3,0,0,0,0,.215.313.313,0,0,0,.065.215.485.485,0,0,0,.19.164l.315.152.431.139c.318.1.621.2.886.316a2.654,2.654,0,0,1,.7.4,1.646,1.646,0,0,1,.47.557,1.832,1.832,0,0,1,.175.784,2.036,2.036,0,0,1-.19.9,1.946,1.946,0,0,1-.544.7,2.71,2.71,0,0,1-.823.455,3.358,3.358,0,0,1-1.025.164A2.794,2.794,0,0,1,1.56,6.806a4.1,4.1,0,0,1-.939-.481L.306,6.072l-.19-.2A.334.334,0,0,1,0,5.693a.285.285,0,0,1,.1-.177l.773-.746a.269.269,0,0,1,.152-.076h.089Z" transform="translate(22.967 5.869)"/>
        <path id="Path_37517" data-name="Path 37517" d="M.018.223a.144.144,0,0,1,0-.139.263.263,0,0,1,.152,0L5.008.008a.352.352,0,0,1,.152,0A.224.224,0,0,1,5.225.16V1.273a.264.264,0,0,1-.065.152.156.156,0,0,1-.065.059.163.163,0,0,1-.086.017H3.463l.062,4.92a.187.187,0,0,1,0,.139.158.158,0,0,1-.065.057.178.178,0,0,1-.086.019H2.107a.24.24,0,0,1-.152,0,.264.264,0,0,1,0-.152l-.077-4.92H.333A.218.218,0,0,1,.181,1.5a.193.193,0,0,1-.048-.075.181.181,0,0,1-.015-.089Z" transform="translate(28.665 5.887)"/>
        <path id="Path_37518" data-name="Path 37518" d="M1.114,4.62l.2.177L1.6,5a1.912,1.912,0,0,0,.458.228A1.437,1.437,0,0,0,2.52,5.3a1.106,1.106,0,0,0,.38,0,.772.772,0,0,0,.253-.139.625.625,0,0,0,.128-.2,1.629,1.629,0,0,0,0-.24.4.4,0,0,0-.1-.253l-.267-.19L2.6,4.139l-.291-.1a4.83,4.83,0,0,1-.951-.392,2.542,2.542,0,0,1-.684-.468A2.054,2.054,0,0,1,.253,2.6a1.867,1.867,0,0,1-.14-.708,1.967,1.967,0,0,1,.155-.772A1.624,1.624,0,0,1,.749.535,2.43,2.43,0,0,1,1.495.143,3.371,3.371,0,0,1,2.47,0,2.686,2.686,0,0,1,3.257.08,3.334,3.334,0,0,1,4,.358l.291.19.241.177A1.2,1.2,0,0,1,4.714.9a.222.222,0,0,1,0,.139.147.147,0,0,1,0,.1.415.415,0,0,1-.089.114L3.953,2a.2.2,0,0,1-.068.053.215.215,0,0,1-.083.022H3.685l-.113-.089-.2-.152L3.13,1.7l-.267-.1a1.166,1.166,0,0,0-.291,0H2.295a.943.943,0,0,0-.229.076.424.424,0,0,0-.152.152.378.378,0,0,0,0,.215.329.329,0,0,0,.063.215.484.484,0,0,0,.19.164l.318.152.428.139c.318.1.621.2.889.316a2.683,2.683,0,0,1,.7.4,1.536,1.536,0,0,1,.47.557,1.707,1.707,0,0,1,.178.784,2.124,2.124,0,0,1-.19.9,1.986,1.986,0,0,1-.547.7,2.678,2.678,0,0,1-.823.455,3.343,3.343,0,0,1-1.025.164,3.1,3.1,0,0,1-1.014-.164A4.034,4.034,0,0,1,.609,6.34a4.018,4.018,0,0,1-.318-.253l-.19-.2A.3.3,0,0,1,0,5.708a.234.234,0,0,1,.089-.177l.773-.746a.28.28,0,0,1,.152-.076H1.1Z" transform="translate(37.638 5.652)"/>
        <path id="Path_37519" data-name="Path 37519" d="M.016.228a.192.192,0,0,1,0-.152A.146.146,0,0,1,.084.059.17.17,0,0,1,.155.076L4.613,0a.212.212,0,0,1,.152.063.208.208,0,0,1,.062.152V1.328a.187.187,0,0,1,0,.139.159.159,0,0,1-.065.057.18.18,0,0,1-.086.018H1.763V2.656H4a.273.273,0,0,1,.154,0,.17.17,0,0,1,0,.139v.961a.228.228,0,0,1,0,.127A.22.22,0,0,1,4,3.946H1.751V5.1H4.765c.14,0,.2.063.217.2V6.45a.112.112,0,0,1,0,.076c0,.089-.077.126-.178.126L.256,6.729a.185.185,0,0,1-.08-.006.209.209,0,0,1-.068-.04.254.254,0,0,1-.045-.066.175.175,0,0,1-.009-.078Z" transform="translate(43.742 5.668)"/>
        <path id="Path_37520" data-name="Path 37520" d="M.011.162a.263.263,0,0,1,0-.152.279.279,0,0,1,.152,0h2.9a2.192,2.192,0,0,1,.874.164,2.428,2.428,0,0,1,.71.455,2.208,2.208,0,0,1,.482.683,1.988,1.988,0,0,1,.19.847,2.261,2.261,0,0,1-.077.582,2.337,2.337,0,0,1-.214.519,2.032,2.032,0,0,1-.357.443,1.666,1.666,0,0,1-.443.341L5.421,6.2a.782.782,0,0,0,.089.152.437.437,0,0,1,0,.152.187.187,0,0,1,.012.057.19.19,0,0,1-.012.057.194.194,0,0,1-.128,0H3.7a.184.184,0,0,1,0-.127L2.57,4.45H1.848V6.486c0,.127,0,.19-.2.19H.314a.2.2,0,0,1-.152,0,.145.145,0,0,1-.018-.07.143.143,0,0,1,.018-.07ZM3.557,2.11a.872.872,0,0,0,0-.278.96.96,0,0,0-.152-.24.811.811,0,0,0-.214-.19.728.728,0,0,0-.279-.089h-1.1V2.97H2.924a.69.69,0,0,0,.279-.1.765.765,0,0,0,.214-.19,1.061,1.061,0,0,0,.128-.24,1.029,1.029,0,0,0,.012-.316Z" transform="translate(49.827 5.632)"/>
        <path id="Path_37521" data-name="Path 37521" d="M2.559,6.6a1.112,1.112,0,0,1-.086-.164L2.4,6.26,0,.265V.189C0,.1.065.063.167.063H1.623a.229.229,0,0,1,.229.164L3.281,4.3c.128-.346.241-.687.342-1.024s.217-.683.318-1.024.214-.7.318-1.037L4.6.189A.25.25,0,0,1,4.69.062.261.261,0,0,1,4.842.012H6.259a.236.236,0,0,1,.152,0,.1.1,0,0,1,.012.05.1.1,0,0,1-.012.051L4.182,6.172v.139L4.1,6.45a.269.269,0,0,1-.086.114.17.17,0,0,1-.065.012.166.166,0,0,1-.062-.012h-1.1A.819.819,0,0,1,2.559,6.6Z" transform="translate(55.524 5.517)"/>
        <path id="Path_37522" data-name="Path 37522" d="M.011.215a.224.224,0,0,1,0-.139A.213.213,0,0,1,.163.012H1.429a.24.24,0,0,1,.152,0,.152.152,0,0,1,.056.06.15.15,0,0,1,.021.079l.089,6.324c0,.139-.065.2-.217.2H.264a.18.18,0,0,1-.083-.007.157.157,0,0,1-.068-.043.17.17,0,0,1-.045-.07.154.154,0,0,1-.006-.082Z" transform="translate(62.774 5.39)"/>
        <path id="Path_37523" data-name="Path 37523" d="M5.315.468a.51.51,0,0,1,.116.114.23.23,0,0,1,0,.177L4.682,1.847a.169.169,0,0,1-.1.089.159.159,0,0,1-.068.015.182.182,0,0,1-.071-.015,1.8,1.8,0,0,0-.493-.24,1.668,1.668,0,0,0-.559-.089,1.59,1.59,0,0,0-.684.152,1.475,1.475,0,0,0-.52.392,1.644,1.644,0,0,0-.342.569,1.8,1.8,0,0,0-.125.7,2,2,0,0,0,.14.683,1.827,1.827,0,0,0,.366.556,1.753,1.753,0,0,0,.532.367,1.783,1.783,0,0,0,.683.139,2.143,2.143,0,0,0,.571-.1,1.94,1.94,0,0,0,.482-.266.243.243,0,0,1,.14,0,.279.279,0,0,1,.1.089L5.517,5.97a.139.139,0,0,1,.027.082.14.14,0,0,1-.027.082.155.155,0,0,1-.036.068.167.167,0,0,1-.065.045A3.794,3.794,0,0,1,4.5,6.7a3.328,3.328,0,0,1-1.025.164,3.111,3.111,0,0,1-.912-.1,3.186,3.186,0,0,1-.823-.341,3.56,3.56,0,0,1-.707-.519,4.558,4.558,0,0,1-.547-.683A3.616,3.616,0,0,1,.134,4.4,3.522,3.522,0,0,1,.022,3.05,3.479,3.479,0,0,1,.438,1.758,3.7,3.7,0,0,1,.97,1.05,3.224,3.224,0,0,1,1.653.506,3.333,3.333,0,0,1,3.377,0,3.8,3.8,0,0,1,4.4.139,4.149,4.149,0,0,1,5.315.468Z" transform="translate(65.754 5.327)"/>
        <path id="Path_37524" data-name="Path 37524" d="M.011.215a.265.265,0,0,1,0-.152.215.215,0,0,1,.152,0L4.621,0a.212.212,0,0,1,.152.063.192.192,0,0,1,0,.152V1.328a.28.28,0,0,1,0,.139.174.174,0,0,1-.071.059.188.188,0,0,1-.092.017H1.7V2.656H3.937a.229.229,0,0,1,.14,0,.144.144,0,0,1,.063.127v.974a.186.186,0,0,1,0,.127.148.148,0,0,1-.068.017A.17.17,0,0,1,4,3.883H1.747V5.034H4.773a.181.181,0,0,1,.083.007.19.19,0,0,1,.071.043.2.2,0,0,1,.041.07.155.155,0,0,1,.006.082V6.45c0,.076-.074.127-.187.127H.237a.165.165,0,0,1-.068.014A.166.166,0,0,1,.1,6.577a.17.17,0,0,1,0-.152Z" transform="translate(72.288 5.263)"/>
      </g>
      <path id="Path_37525" data-name="Path 37525" d="M1157.026,350.615h.14l70.259,1.075a8.64,8.64,0,1,0,.265-17.277l-70.256-1.088a8.651,8.651,0,0,0-.407,17.29Zm70.765-15.456a7.892,7.892,0,0,1-.327,15.759l-70.259-1.075h-.178a7.894,7.894,0,1,1,.369-15.784l70.259,1.087Z" transform="translate(-751.641 -234.252)"/>
      <path id="Path_37526" data-name="Path 37526" d="M783.932,291.536,965.52,292.8c3.129,0,6.461,2.694,6.334,6.21v2.53l-220.426-2.656C752.617,294.343,779.159,291.472,783.932,291.536Z" transform="translate(-369.173 -204.882)" fill="#999" fill-rule="evenodd"/>
      <path id="Path_37527" data-name="Path 37527" d="M780.06,322.11l58.844.607-.469,26.561-86.143-1.113,4.128-12.471C758.055,330.584,768.316,321.755,780.06,322.11Z" transform="translate(-236.475 -226.363)" fill="#a7a9ac" fill-rule="evenodd"/>
      <path id="Path_37528" data-name="Path 37528" d="M1026,403.582l149.4,1.922-10.617,72.523-147.331-2.555Z" transform="translate(-651.779 -283.627)" fill="#003152" fill-rule="evenodd"/>
      <g id="Group_560" data-name="Group 560" transform="translate(439.995 120.815)" opacity="0.1">
        <path id="Path_37529" data-name="Path 37529" d="M1018.033,406.476l83.04,1.062-5.93,40.473-65.457-.847c-6.8-.076-12.314-5.123-12.236-11.206l.369-27.6A8.937,8.937,0,0,1,1018.033,406.476Z" transform="translate(-1017.45 -406.476)" fill="#fff" fill-rule="evenodd" opacity="0.1"/>
      </g>
      <g id="Group_561" data-name="Group 561" transform="translate(371.639 120.461)" opacity="0.1">
        <path id="Path_37530" data-name="Path 37530" d="M1173.187,405.7l10.209.139-10.45,18.909Zm-.939,72.346,14.659.253,39.765-71.9-24.919-.329L1172.5,458.961Zm-33.874-72.763,34.852.443-.241,19.048-29.139,52.8-44.945-.784Zm34.2,53.7-10.45,18.908,10.2.177Z" transform="translate(-1098.9 -405.284)" fill="#fff" fill-rule="evenodd" opacity="0.1"/>
      </g>
      <g id="Group_562" data-name="Group 562" transform="translate(376.365 127.721)" opacity="0.1">
        <path id="Path_37531" data-name="Path 37531" d="M1384.856,470.676l-4.6,8.322-44.933,6.4a8.994,8.994,0,0,1-3.914-.139l30.72-55.549,20.687.253a2.964,2.964,0,0,1,1.8.582,1.583,1.583,0,0,1,.538.577,1.565,1.565,0,0,1,.2.764Z" transform="translate(-1331.41 -429.71)" fill="#fff" fill-rule="evenodd" opacity="0.1"/>
      </g>
      <g id="Group_563" data-name="Group 563" transform="translate(371.499 119.955)" opacity="0.1">
        <path id="Path_37532" data-name="Path 37532" d="M1036.153,403.582l144.647,1.859-2.725,23.993-144.644-1.859Z" transform="translate(-1033.43 -403.582)" fill="#fff" fill-rule="evenodd" opacity="0.1"/>
      </g>
      <path id="Path_37533" data-name="Path 37533" d="M1034.909,837.505l29.532.379a3.8,3.8,0,0,1,3.685,3.3l5.689,36.2a3.8,3.8,0,0,0,3.686,3.4l62.431.8a3.8,3.8,0,0,0,3.8-3.213l7.424-36.2a3.8,3.8,0,0,1,3.8-3.124l29.909.38a5.15,5.15,0,0,1,4.966,5.3l-.559,42.724a5.14,5.14,0,0,1-5.068,5.16l-149.878-1.923a5.133,5.133,0,0,1-4.952-5.3l.544-42.712a5.155,5.155,0,0,1,4.99-5.173Z" transform="translate(-669.758 -588.58)" fill="#e6e7e8" fill-rule="evenodd"/>
      <path id="Path_37534" data-name="Path 37534" d="M1188.445,962.682l.4,2.605a3.8,3.8,0,0,0,3.686,3.4l62.431.8a3.7,3.7,0,0,0,3.165-1.771l-1.064,3.883-70.447-.911.1-8.031h1.724Z" transform="translate(-784.793 -676.534)" fill="#fff" fill-rule="evenodd"/>
      <path id="Path_37535" data-name="Path 37535" d="M1037.53,837.505l29.532.379h.089a3.7,3.7,0,0,1,2.28.9l-2.054,2.163-34.457-.443v-.342l.062-.114.066-.1v-.076l.14-.19.062-.089.074-.089.19-.215h.14l.1-.076.089-.076.1-.076h.077l.2-.139h2.408Zm116.334,4.224a1.7,1.7,0,0,1,.113-.316,3.889,3.889,0,0,1,.47-.835,3.542,3.542,0,0,1,.544-.595h.065a4.261,4.261,0,0,1,.9-.531h1.456l29.912.38h1.519l.151.063h.419l.113.063h.267l.2.139h.062l.1.089.357.392.086.076.116.114.229.24v.063l.327.455v.392l.065.114v.266l.062.114v.089l-38.169-.493v-.3Z" transform="translate(-672.379 -588.58)" fill="#fff" fill-rule="evenodd"/>
      <path id="Path_37536" data-name="Path 37536" d="M1033.445,894.989l27.261-4.123c1.382-.2,2.535,1.265,2.535,2.681l-.14,10.877a2.593,2.593,0,0,1-2.535,2.618l-28.007-.506a2.552,2.552,0,0,1-1-.2,2.53,2.53,0,0,1-1.531-2.464l.886-6.324a2.936,2.936,0,0,1,2.535-2.555Z" transform="translate(-543.358 -626.068)" fill="#a4a2a2" fill-rule="evenodd"/>
      <path id="Path_37537" data-name="Path 37537" d="M1484.656,889.013l-27.148-4.806c-1.379-.24-2.532,1.151-2.532,2.606l-.14,10.89a2.593,2.593,0,0,0,.71,1.86,2.606,2.606,0,0,0,1.822.808l28.01.228a2.53,2.53,0,0,0,2.535-2.618l-.722-6.324a2.974,2.974,0,0,0-2.535-2.643Z" transform="translate(-1094.295 -621.382)" fill="#a4a2a2" fill-rule="evenodd"/>
      <path id="Path_37538" data-name="Path 37538" d="M1061.016,898.85a2.252,2.252,0,0,1,0,.278l-.128,10.118a2.532,2.532,0,0,1-2.532,2.441l-28.01-.493h-.166a1.966,1.966,0,0,1,0-.265l.889-5.869a2.82,2.82,0,0,1,2.532-2.441l27.264-3.794Z" transform="translate(-541.184 -631.675)" fill="#dbdcda" fill-rule="evenodd"/>
      <path id="Path_37539" data-name="Path 37539" d="M1463.093,892.017a2.358,2.358,0,0,0,0,.291l-.128,10.207a2.533,2.533,0,0,0,2.532,2.53l28.025.228h.1a2.157,2.157,0,0,0,0-.278l-.737-5.894a2.858,2.858,0,0,0-2.532-2.53l-27.148-4.528Z" transform="translate(-1102.424 -626.89)" fill="#dbdcda" fill-rule="evenodd"/>
      <path id="Path_37540" data-name="Path 37540" d="M814.629,435.5l44.491.544a2.979,2.979,0,0,1,1.812.582,1.579,1.579,0,0,1,.722,1.34l-.57,44.963a1.975,1.975,0,0,1-1.66,1.745l-47.8,6.792a7.612,7.612,0,0,1-4.865-.531,3.427,3.427,0,0,1-2.04-3.314l4.687-48.643C809.676,436.975,811.943,435.458,814.629,435.5Z" transform="translate(-274.807 -306.055)" fill="#003152" fill-rule="evenodd"/>
      <path id="Path_37541" data-name="Path 37541" d="M807.682,490.407a6.736,6.736,0,0,1-3.281-.8,4.338,4.338,0,0,1-2.534-4.174l4.763-48.643c.254-2.53,2.838-4.313,6.03-4.275l44.5.556a3.73,3.73,0,0,1,2.331.759,2.441,2.441,0,0,1,1.077,2.049l-.583,44.963a2.835,2.835,0,0,1-2.293,2.53l-47.873,6.817A12.41,12.41,0,0,1,807.682,490.407Zm49.495-55.575-44.491-.556c-2.242,0-4.1,1.151-4.256,2.694l-4.751,48.643a2.681,2.681,0,0,0,1.6,2.454,6.432,6.432,0,0,0,4.307.43l47.81-6.792c.481-.152.887-.506.887-.885l.57-45.013a.771.771,0,0,0-.38-.62A2.042,2.042,0,0,0,857.177,434.832Z" transform="translate(-272.877 -303.962)" fill="#414042"/>
      <g id="Group_564" data-name="Group 564" transform="translate(532.424 130.111)" opacity="0.1">
        <path id="Path_37542" data-name="Path 37542" d="M837.739,437.752l38.955.481-.279,22.209c-.076,6.084-5.714,10.978-12.516,10.89l-34.2-.43,2.9-29.672C832.786,439.245,835.041,437.727,837.739,437.752Z" transform="translate(-829.695 -437.752)" fill="#fff" fill-rule="evenodd" opacity="0.1"/>
      </g>
      <path id="Path_37543" data-name="Path 37543" d="M1575.509,457.217l6.334.076a3.619,3.619,0,0,1,3.8,3.364l-.318,24.6a3.609,3.609,0,0,1-3.864,3.263l-6.334-.089a3.591,3.591,0,0,1-2.595-.89,3.576,3.576,0,0,1-1.2-2.462l.315-24.613a3.6,3.6,0,0,1,3.864-3.25Z" transform="translate(-1226.649 -321.313)" fill="#414042" fill-rule="evenodd"/>
      <path id="Path_37544" data-name="Path 37544" d="M1572.662,572.118l8.664.114a3,3,0,0,1,3.142,2.8l-.125,9.372a2.988,2.988,0,0,1-3.207,2.707l-8.664-.114a3,3,0,0,1-3.141-2.8l.128-9.372a2.987,2.987,0,0,1,3.2-2.707Z" transform="translate(-1224.878 -402.065)" fill="#414042" fill-rule="evenodd"/>
      <path id="Path_37545" data-name="Path 37545" d="M1531.089,703.32l6.283.081a4.619,4.619,0,0,1,4.562,4.676l-.336,26.014a4.619,4.619,0,0,1-4.684,4.557l-6.283-.081a4.619,4.619,0,0,1-4.562-4.676l.336-26.015A4.622,4.622,0,0,1,1531.089,703.32Z" transform="translate(-1169.488 -494.277)" fill="#a7a9ac"/>
      <path id="Path_37546" data-name="Path 37546" d="M1532.958,710.184l5.068.076a3.934,3.934,0,0,1,3.685,4.136l-.291,23.07a3.923,3.923,0,0,1-3.8,4.035l-5.068-.063a3.939,3.939,0,0,1-3.688-4.136l.291-23.069a3.936,3.936,0,0,1,3.8-4.047Z" transform="translate(-1170.099 -499.101)" fill="#58595b" fill-rule="evenodd"/>
      <path id="Path_37547" data-name="Path 37547" d="M1034.158,627.157l149.483,1.91a4.38,4.38,0,0,1,4.372,4.338l-.648,49.415a4.35,4.35,0,0,1-4.47,4.224l-149.486-1.922a4.355,4.355,0,0,1-4.369-4.325l.633-49.428a4.367,4.367,0,0,1,4.485-4.212Z" transform="translate(-667.84 -440.751)" fill="#e6e7e8" fill-rule="evenodd"/>
      <path id="Path_37548" data-name="Path 37548" d="M1132.793,694.651l96.379,1.265a1.266,1.266,0,0,1,.63.216,1.25,1.25,0,0,1,.434.505,2.453,2.453,0,0,1,.253,1.581l-1.456,8.854c-.152.885-.707,1.505-1.367,1.492l-93.847-1.265a1.545,1.545,0,0,1-1.344-1.568l-1.064-8.853a2.323,2.323,0,0,1,.318-1.556,1.186,1.186,0,0,1,1.064-.658Zm3.623,30.089,87.828,1.138a1.179,1.179,0,0,1,.627.2,1.194,1.194,0,0,1,.425.506,2.38,2.38,0,0,1,.265,1.581l-.392,2.365c-.14.885-.707,1.493-1.367,1.493l-87.144-1.126a1.523,1.523,0,0,1-1.332-1.556l-.291-2.378a2.377,2.377,0,0,1,.318-1.556,1.266,1.266,0,0,1,1.064-.67Zm-1.572-13.053,91.541,1.176a1.267,1.267,0,0,1,1.052.708,2.4,2.4,0,0,1,.267,1.581l-.811,4.907c-.14.885-.71,1.492-1.367,1.48l-90.134-1.151a1.524,1.524,0,0,1-1.332-1.568l-.595-4.907a2.306,2.306,0,0,1,.315-1.556,1.265,1.265,0,0,1,1.064-.683Z" transform="translate(-740.77 -488.185)" fill="#414042" fill-rule="evenodd"/>
      <path id="Path_37549" data-name="Path 37549" d="M784.015,538.156h-1.76l1.2-60.8,7.8-62.2,57.919.746c3.307,0,5.967,2.163,5.941,4.743L853.59,539.079h-1.761l1.52-118.434c0-1.581-1.9-2.934-4.193-2.96l-56.349-.721-7.6,60.545Z" transform="translate(-261.6 -291.761)" fill="#414042"/>
      <path id="Path_37550" data-name="Path 37550" d="M1029.4,434.6l4.027.038-6.334,59.1-4.408-.051Z" transform="translate(-511.37 -305.429)" fill="#82adb1" fill-rule="evenodd"/>
      <path id="Path_37551" data-name="Path 37551" d="M1019.311,403.369l154.845,1.986-1.861,11.193-154.845-1.986Z" transform="translate(-650.537 -283.477)" fill="#6d6e71" fill-rule="evenodd"/>
      <path id="Path_37552" data-name="Path 37552" d="M1019.314,409.667l8.854.114-1.861,11.193-8.857-.114Z" transform="translate(-504.549 -287.904)" fill="#58595b" fill-rule="evenodd"/>
      <path id="Path_37553" data-name="Path 37553" d="M1017.227,480.534a.891.891,0,0,1-.372-.034.9.9,0,0,1-.324-.182.859.859,0,0,1-.22-.3.892.892,0,0,1,0-.726.855.855,0,0,1,.22-.3.905.905,0,0,1,.324-.183.888.888,0,0,1,.372-.034l146.026,1.847a2.9,2.9,0,0,0,2.925-2.53l6.943-58.888a.884.884,0,0,1,.294-.557.87.87,0,0,1,.591-.214h.1a.9.9,0,0,1,.773.986L1167.94,478.3a4.673,4.673,0,0,1-4.7,4.123Z" transform="translate(-650.908 -294.064)" fill="#fff" opacity="0.1"/>
      <path id="Path_37554" data-name="Path 37554" d="M1033.491,627.159l149.483,1.91a4.38,4.38,0,0,1,4.36,4.048l-158.254-2.024a4.346,4.346,0,0,1,4.411-3.933Z" transform="translate(-667.172 -440.752)" fill="#fff" fill-rule="evenodd"/>
      <path id="Path_37555" data-name="Path 37555" d="M950.368,465.36l-6.334-.089a3.609,3.609,0,0,0-3.8,3.263l-.317,24.613a3.585,3.585,0,0,0,3.8,3.352l6.334.076a3.57,3.57,0,0,0,3.8-3.25l.317-24.613a3.585,3.585,0,0,0-3.8-3.352Z" transform="translate(-407.506 -326.977)" fill="#414042" fill-rule="evenodd"/>
      <path id="Path_37556" data-name="Path 37556" d="M953.491,580.262l-8.678-.1a2.988,2.988,0,0,0-3.2,2.707l-.114,9.372a2.988,2.988,0,0,0,3.129,2.8l8.678.1a2.989,2.989,0,0,0,3.205-2.707l.114-9.372a2.988,2.988,0,0,0-3.129-2.8Z" transform="translate(-410.426 -407.717)" fill="#414042" fill-rule="evenodd"/>
      <path id="Path_37557" data-name="Path 37557" d="M969.749,509.173l-10.653-.139v-1.758l10.666.139a4.925,4.925,0,0,0,4.979-4.844l.621-48.163a4.913,4.913,0,0,0-4.852-4.971l-10.667-.139V447.54l10.667.139a6.668,6.668,0,0,1,6.587,6.754l-.621,48.163a6.671,6.671,0,0,1-6.727,6.577Z" transform="translate(-436.134 -314.52)" fill="#414042"/>
      <path id="Path_37558" data-name="Path 37558" d="M1414.9,847.256l7.35,41.864,3.142-2.858-.167-.152-.14-.164V885.6a2.383,2.383,0,0,0-.14-.468v-.24l-5.686-36.211a4,4,0,0,0-1.115-2.2Z" transform="translate(-1019.903 -594.891)" fill="#a7a9ac" fill-rule="evenodd"/>
      <path id="Path_37559" data-name="Path 37559" d="M1032.816,710.14h3.8l-.443,35.237h-3.8a4.6,4.6,0,0,1-4.562-4.667l.33-26.029a4.622,4.622,0,0,1,4.675-4.541Z" transform="translate(-516.075 -499.07)" fill="#a7a9ac" fill-rule="evenodd"/>
      <path id="Path_37560" data-name="Path 37560" d="M1049.856,909.943c2.167,0,3.965-2.732,4.015-6.147s-1.682-6.21-3.864-6.248-3.965,2.732-4,6.147S1047.689,909.918,1049.856,909.943Z" transform="translate(-538.741 -630.777)" fill="#fff" fill-rule="evenodd"/>
      <path id="Path_37561" data-name="Path 37561" d="M1528.068,903.645c2.167,0,3.98-2.732,4.018-6.147s-1.685-6.222-3.8-6.248-3.965,2.732-4.016,6.147S1525.9,903.645,1528.068,903.645Z" transform="translate(-1159.104 -626.352)" fill="#fff" fill-rule="evenodd"/>
      <path id="Path_37562" data-name="Path 37562" d="M1052.617,912.411c1.534,0,2.812-1.935,2.839-4.351s-1.192-4.4-2.726-4.427-2.812,1.935-2.85,4.351S1051.072,912.348,1052.617,912.411Z" transform="translate(-541.476 -635.054)" fill="#dbdcda" fill-rule="evenodd"/>
      <path id="Path_37563" data-name="Path 37563" d="M1530.83,906.283c1.534,0,2.812-1.935,2.85-4.351s-1.2-4.4-2.738-4.427-2.812,1.935-2.835,4.351S1529.3,906.258,1530.83,906.283Z" transform="translate(-1161.839 -630.747)" fill="#dbdcda" fill-rule="evenodd"/>
      <path id="Path_37564" data-name="Path 37564" d="M1088.018,917.46c1.581,0,2.886-1.986,2.925-4.477s-1.266-4.528-2.812-4.541-2.889,1.986-2.913,4.477S1086.445,917.447,1088.018,917.46Z" transform="translate(-587.466 -638.433)" fill="#fff" fill-rule="evenodd"/>
      <path id="Path_37565" data-name="Path 37565" d="M1495.2,912.225c1.572,0,2.889-1.986,2.927-4.465s-1.269-4.528-2.815-4.553-2.886,1.986-2.925,4.477S1493.616,912.213,1495.2,912.225Z" transform="translate(-1115.67 -634.755)" fill="#fff" fill-rule="evenodd"/>
      <path id="Path_37566" data-name="Path 37566" d="M1090.017,919.255c1.115,0,2.039-1.4,2.066-3.162s-.874-3.213-1.989-3.225-2.054,1.4-2.066,3.175S1088.89,919.243,1090.017,919.255Z" transform="translate(-589.442 -641.544)" fill="#dbdcda" fill-rule="evenodd"/>
      <path id="Path_37567" data-name="Path 37567" d="M1497.2,914.021c1.115,0,2.054-1.4,2.078-3.162s-.874-3.213-1.988-3.225-2.051,1.417-2.078,3.175S1496.082,914.008,1497.2,914.021Z" transform="translate(-1117.655 -637.865)" fill="#dbdcda" fill-rule="evenodd"/>
      <path id="Path_37568" data-name="Path 37568" d="M1044.285,968.319l21.23.274a2.48,2.48,0,0,1,2.449,2.511l-.048,3.883a2.482,2.482,0,0,1-2.517,2.447l-21.23-.274a2.48,2.48,0,0,1-2.449-2.511l.051-3.883A2.482,2.482,0,0,1,1044.285,968.319Z" transform="translate(-551.559 -680.513)" fill="#a8a6a7"/>
      <path id="Path_37569" data-name="Path 37569" d="M1477.174,962.738l21.242.274a2.481,2.481,0,0,1,2.452,2.511l-.051,3.882a2.482,2.482,0,0,1-2.515,2.447l-21.242-.274a2.481,2.481,0,0,1-2.452-2.511l.051-3.882A2.481,2.481,0,0,1,1477.174,962.738Z" transform="translate(-1113.126 -676.591)" fill="#a8a6a7"/>
      <path id="Path_37570" data-name="Path 37570" d="M1044.192,973.209l17.735.228h.066c1.34,0,2.407.835,2.392,1.783v2.744c0,.961-1.126,1.733-2.532,1.72l-17.735-.228c-1.355,0-2.47-.822-2.458-1.783v-2.745c0-.949,1.1-1.707,2.443-1.72Z" transform="translate(-547.962 -683.95)" fill="#eee6d4" fill-rule="evenodd"/>
      <path id="Path_37571" data-name="Path 37571" d="M1494.359,967.863l-17.735-.228c-1.331,0-2.419.772-2.434,1.72v2.757c0,.961,1.091,1.758,2.458,1.771l17.735.228c1.37,0,2.535-.746,2.535-1.707v-2.757c0-.948-1.064-1.733-2.4-1.771Z" transform="translate(-1109.052 -680.033)" fill="#eee6d4" fill-rule="evenodd"/>
      <path id="Path_37572" data-name="Path 37572" d="M1041.737,973.635l8.105.1h.065c1.34,0,2.407.835,2.392,1.783v2.745c0,.961-1.126,1.732-2.532,1.72l-8.108-.1Z" transform="translate(-535.877 -684.25)" fill="#f58220" fill-rule="evenodd"/>
      <path id="Path_37573" data-name="Path 37573" d="M1525.65,967.749l-8.105-.114c-1.331,0-2.419.772-2.434,1.72v2.757c0,.961,1.091,1.758,2.458,1.771l8.108.114Z" transform="translate(-1149.971 -680.033)" fill="#f58220" fill-rule="evenodd"/>
      <path id="Path_37574" data-name="Path 37574" d="M1044.153,973.209l17.735.228h.065c1.34,0,2.407.835,2.393,1.783v.506l-22.687-.291v-.506c0-.949,1.1-1.707,2.443-1.72Z" transform="translate(-547.923 -683.95)" fill="#d2c8ad" fill-rule="evenodd"/>
      <path id="Path_37575" data-name="Path 37575" d="M1494.489,967.863l-17.735-.228c-1.332,0-2.419.772-2.434,1.72v.518l22.69.291v-.519c0-.948-1.064-1.733-2.4-1.771Z" transform="translate(-1109.181 -680.033)" fill="#d2c8ad" fill-rule="evenodd"/>
      <path id="Path_37576" data-name="Path 37576" d="M1041.684,973.635l8.108.1h.065c1.34,0,2.407.835,2.393,1.783v.506l-10.59-.127Z" transform="translate(-535.827 -684.25)" fill="#d56a2c" fill-rule="evenodd"/>
      <path id="Path_37577" data-name="Path 37577" d="M1525.569,967.749l-8.105-.114c-1.331,0-2.419.772-2.434,1.72v.518l10.59.139Z" transform="translate(-1149.891 -680.033)" fill="#d56a2c" fill-rule="evenodd"/>
      <path id="Path_37578" data-name="Path 37578" d="M834.454,636.117l10.476.135a2.189,2.189,0,0,1,2.163,2.216l-.044,3.377A2.189,2.189,0,0,1,844.83,644l-10.476-.135a2.19,2.19,0,0,1-2.163-2.216l.044-3.377A2.19,2.19,0,0,1,834.454,636.117Z" transform="translate(-268.412 -447.048)" fill="#414042"/>
      <path id="Path_37579" data-name="Path 37579" d="M821.954,642.732l20,.266a.885.885,0,0,1,.887.974l-.139,1.783a1.05,1.05,0,0,1-1.051.948l-20-.253a.911.911,0,0,1-.963-.936l.152-1.771a1.064,1.064,0,0,1,1.115-1.012Z" transform="translate(-260.748 -451.696)" fill="#58595b" fill-rule="evenodd"/>
      <path id="Path_37580" data-name="Path 37580" d="M429.719,791.114l2.352,44.37-111.844,5.911-2.352-44.37Z" transform="translate(299.474 -555.977)" fill="#808285"/>
      <path id="Path_37581" data-name="Path 37581" d="M624.561,806.952l2.352,44.37-7.008.37-2.352-44.37Z" transform="translate(15.563 -567.108)" fill="#a7a9ac"/>
      <path id="Path_37582" data-name="Path 37582" d="M369.3,818.684l-1.292-24.474,7.005-.367,2.356,44.368-7.005.367Z" transform="translate(339.278 -557.896)" fill="#a7a9ac" fill-rule="evenodd"/>
      <path id="Path_37583" data-name="Path 37583" d="M497.8,800.291l2.352,44.37-7.008.37-2.353-44.37Z" transform="translate(179.997 -562.427)" fill="#a7a9ac"/>
      <path id="Path_37584" data-name="Path 37584" d="M612.447,790.522l43.123-2.593-5.523,47.088-5.979,16.113-29.086,3.427Z" transform="translate(-11.577 -553.739)" fill="#58595b" fill-rule="evenodd"/>
      <path id="Path_37585" data-name="Path 37585" d="M381.405,799.334,263.932,809.92l-.608,7.791L380.81,806.923Z" transform="translate(366.354 -561.754)" fill="#58595b" fill-rule="evenodd"/>
      <path id="Path_37586" data-name="Path 37586" d="M383.341,830.058l-117.46,10.586-.127,1.632,117.473-10.8Z" transform="translate(363.696 -583.347)" fill="#58595b" fill-rule="evenodd"/>
      <path id="Path_37587" data-name="Path 37587" d="M389.438,875.506l-117.549,9.916-.722,7.791,117.562-10.131Z" transform="translate(355.99 -615.287)" fill="#58595b" fill-rule="evenodd"/>
      <path id="Path_37588" data-name="Path 37588" d="M391.724,906.229l-117.549,9.916-.152,1.619,117.561-10.131Z" transform="translate(352.855 -636.878)" fill="#58595b" fill-rule="evenodd"/>
    </g>
    <g id="Group_587" data-name="Group 587">
      <g id="Group_2" data-name="Group 2" transform="translate(0 150)">
        <path id="Path_387" data-name="Path 387" d="M1686.734,535.377c-55.739-52.61-112.452-51.083-179.757-69.531-17.451-4.784-34.9-12.227-47.582-26.01-36.445-39.616-24.187-106.815-21.627-156.285,1.941-37.552-2.256-77.336-25.107-107.4-32.492-42.756-86.65-58.786-137.818-62.358-55.425-3.868-111.869,4.243-166.588-8.722-35.071-8.31-69.163-26.245-93.749-53.975H968.792l.861,580.369q3.56.425,7.081.886c45.881,6.067,92,22.03,126.773,54.855,19.469,18.377,34.045,40.927,44.184,65.889h606.5C1758.152,672.11,1743.171,588.645,1686.734,535.377Z" transform="translate(-968.792 -51.091)" opacity="0.03" fill="url(#linear-gradient)"/>
      </g>
      <ellipse id="Ellipse_749" data-name="Ellipse 749" cx="12.701" cy="12.701" rx="12.701" ry="12.701" transform="matrix(-0.682, 0.731, -0.731, -0.682, 1146.742, 304.949)" fill="#fa5b41" opacity="0.6"/>
      <ellipse id="Ellipse_747" data-name="Ellipse 747" cx="12.701" cy="12.701" rx="12.701" ry="12.701" transform="translate(1411.259 235.762) rotate(-35)" fill="#7eaafe"/>
      <g id="Mask_Group_2" data-name="Mask Group 2" clip-path="url(#clip-path-2)">
        <g id="Group_569" data-name="Group 569" transform="translate(1289.229 932.642) rotate(-163)">
          <path id="Path_37589" data-name="Path 37589" d="M318.217,1519.324c181.559-26.992,189.178-171.1,131.519-251.252C368.055,1154.527,293.479,1173.018,407.414,986c38.68-63.5,53.557-144.575,24.253-214.688-21.076-50.431-64.652-91.775-117.288-107.128-29.283-8.539-60.254-9.153-90.235-14.8s-60.8-17.731-78.275-42.638c-16.832-23.988-18.243-55.56-14.2-84.548,9.711-69.718,47.981-133.552,51.4-204.351,2.883-59.672-16.936-128.184-59.251-171.6C68.429,89.424-17.625,77.2-93.309,72.821c-88.767-5.131-178.244,8.115-262.643,35.547-108.12,35.141-207.975,93.124-296.842,163.812-79.113,62.929-150.6,136.919-201.217,224.246-80.062,138.113-126.4,363.288,36.716,462.123,196.378,118.99,323.055-87.307,333.715,115.679,6.375,121.462,93.739,311.389,331.976,216.783S56.745,1558.2,318.217,1519.324Z" transform="translate(335.821 32.197)" fill="#7eaafe" opacity="0.1"/>
          <g id="Group_568" data-name="Group 568" transform="translate(-607.989 71.734)">
            <g id="Group_567" data-name="Group 567" clip-path="url(#clip-path-3)">
              <path id="Path_37590" data-name="Path 37590" d="M-913.778,446.971c3.724-125.062,101.045-141.87,160.156-109.329,83.739,46.1,77.175,98.068,195.094,5.838,40.037-31.312,93.934-47.933,143.943-33.772,35.967,10.186,67.572,36.338,82.245,70.719,8.162,19.129,11.072,40.041,17.32,59.874s16.946,39.714,35.282,49.531c17.654,9.451,39.223,7.853,58.6,2.776,46.6-12.208,86.9-43.271,134.732-51.311,40.323-6.776,88.475,1.1,121.385,26.226C78.053,500.417,93.293,557.67,102.36,608.54c10.633,59.662,8.835,121.288-3.011,180.627-15.175,76.015-46.538,148.289-87.419,214.148-36.4,58.629-80.919,112.995-136.191,154.315-87.41,65.352-236.7,114.918-317,12.51-96.676-123.287,33.32-225.7-105.481-216.5-83.057,5.506-219.16-38.268-174.051-207.15S-919.14,627.075-913.778,446.971Z" transform="translate(943.873 232.3)" fill="#7eaafe" opacity="0.07"/>
              <path id="Path_37591" data-name="Path 37591" d="M-901.724,421.147c43.131-109.931,134.951-93.874,177.106-46.139,59.722,67.623,37.346,111.708,171.483,67.307,45.538-15.074,98.723-12.678,138.644,15.828,28.712,20.5,48.466,53.8,50.552,89.021,1.162,19.593-2.912,39.1-3.67,58.712s2.407,40.682,15.57,55.24c12.679,14.02,32.352,19.468,51.182,21.129,45.289,3.989,90.986-10.779,136.046-2.691,37.982,6.818,78.259,29.145,99.5,61.951,27.8,42.944,23.111,98.663,14.968,146.746-9.55,56.4-30.768,110.581-60.185,159.528-37.69,62.708-88.567,116.935-145.861,162.433-51.007,40.5-107.876,74.625-170.139,93.741-98.474,30.231-246.9,26.736-285.635-89.823C-758.8,1073.811-610.7,1024.209-736.948,988.186c-75.545-21.557-182.534-103.786-88.68-239.477S-963.837,579.46-901.724,421.147Z" transform="translate(945.722 276.427)" fill="#7eaafe" opacity="0.1"/>
            </g>
          </g>
          <rect id="Rectangle_2780" data-name="Rectangle 2780" width="1394.302" height="929.535" rx="4.704" transform="translate(-1171.131 479.734)" fill="none"/>
        </g>
      </g>
    </g>
  </g>
</svg>
