<svg id="Layer_1" data-name="Layer 1" xmlns="http://www.w3.org/2000/svg" xmlns:xlink="http://www.w3.org/1999/xlink" viewBox="0 0 420 255">
  <defs>
    <style>
      .cls-1, .cls-14, .cls-6 {
        fill: none;
      }

      .cls-2 {
        clip-path: url(#clip-path);
      }

      .cls-3 {
        fill: #4d4d4d;
      }

      .cls-12, .cls-4 {
        fill: #e6e6e6;
      }

      .cls-5 {
        fill: #333;
      }

      .cls-12, .cls-6 {
        stroke: #333;
      }

      .cls-14, .cls-6 {
        stroke-linecap: round;
        stroke-linejoin: round;
      }

      .cls-6 {
        stroke-width: 3px;
      }

      .cls-7 {
        fill: #ccc;
      }

      .cls-8 {
        fill: #666;
      }

      .cls-9 {
        fill: #fff;
      }

      .cls-10 {
        fill: #f7931e;
      }

      .cls-11 {
        fill: #999;
      }

      .cls-12 {
        stroke-miterlimit: 10;
      }

      .cls-13 {
        fill: gray;
      }

      .cls-14 {
        stroke: #999;
      }

      .cls-15 {
        fill: #d9d9d9;
      }

      .cls-16 {
        fill: url(#linear-gradient);
      }

      .cls-17 {
        fill: url(#linear-gradient-2);
      }

      .cls-18 {
        fill: #e1632a;
      }

      .cls-19 {
        fill: #b3b3b3;
      }

      .cls-20 {
        fill: #c1272d;
      }
    </style>
    <clipPath id="clip-path">
      <rect id="SVGID" class="cls-1" x="51.69" y="56.84" width="321.31" height="170.43"/>
    </clipPath>
    <linearGradient id="linear-gradient" x1="52.59" y1="134.35" x2="264.11" y2="134.35" gradientTransform="matrix(1, 0, 0, -1, 0, 255)" gradientUnits="userSpaceOnUse">
      <stop offset="0" stop-color="#ccc"/>
      <stop offset="1" stop-color="#a7a9ac"/>
    </linearGradient>
    <linearGradient id="linear-gradient-2" x1="64.41" y1="136.06" x2="253.76" y2="136.06" gradientTransform="matrix(1, 0, 0, -1, 0, 255)" gradientUnits="userSpaceOnUse">
      <stop offset="0" stop-color="#fff"/>
      <stop offset="1" stop-color="#e6e6e6"/>
    </linearGradient>
  </defs>
  <title>truck</title>
  <g class="cls-2">
    <g>
      <path class="cls-3" d="M100.79,188.74h-25v12h25Z"/>
      <path class="cls-4" d="M98.1,188.74H95.42v9.42H98.1Z"/>
      <path class="cls-4" d="M81.15,188.74H78.47v9.42h2.68Z"/>
      <path class="cls-5" d="M99.61,198.16H76.07a3.78,3.78,0,0,0-3.85,3.7v.32a3.78,3.78,0,0,0,3.85,3.7H99.61a3.78,3.78,0,0,0,3.85-3.7v-.32A3.78,3.78,0,0,0,99.61,198.16Z"/>
      <path class="cls-5" d="M145.4,183.61H67.76v6.85H145.4Z"/>
      <path class="cls-6" d="M282.87,122l-10.28,2.32v53.33"/>
      <path class="cls-5" d="M130.23,204.16H325.45c12.06,0,20.56-4.27,20.56-15.85s-8.5-15.86-20.56-15.86H272.13l-8.26,6.12-133.64-.11Z"/>
      <path class="cls-7" d="M284.72,104h62.54l11.49,18.33L369.57,154l.11,47.64H330.15c0-19.69-18.84-20.55-18.84-20.55H277.54V111.14A7.54,7.54,0,0,1,284.72,104Z"/>
      <path class="cls-5" d="M290,109.94v29.13s6.15,9.29,62.27,16.07c0,0-2.4-33.21-20.82-45.2Z"/>
      <path class="cls-3" d="M300.7,158.76h-9.81v15.42h9.81Z"/>
      <path class="cls-8" d="M300.7,169.05h-9.81v5.14h9.81Z"/>
      <path class="cls-9" d="M356.61,193H344.76a2.94,2.94,0,0,0-3,2.88v.23a2.94,2.94,0,0,0,3,2.88h11.85a2.94,2.94,0,0,0,3-2.88v-.23A2.94,2.94,0,0,0,356.61,193Z"/>
      <path class="cls-10" d="M341.77,196.48c0,1.68,1.07,2.54,3.55,2.54h7.15v-6h-7.15c-1.89-.18-3.55.82-3.55,2.49Z"/>
      <path class="cls-5" d="M347.29,104.54s22.39,16.75,22.28,52.22c0,0-3.55.22-3.76-1.44C362.4,127.2,350,113.18,347.29,104.54Z"/>
      <path class="cls-11" d="M368.6,169.05h-.13a1.69,1.69,0,0,0-1.72,1.65v24.11a1.69,1.69,0,0,0,1.72,1.65h.13a1.69,1.69,0,0,0,1.72-1.65V170.7A1.69,1.69,0,0,0,368.6,169.05Z"/>
      <path class="cls-8" d="M370,201.59H329.59a3,3,0,0,0-3,2.89v.23a2.94,2.94,0,0,0,3,2.88H370a2.94,2.94,0,0,0,3-2.88v-.23A3,3,0,0,0,370,201.59Z"/>
      <path class="cls-4" d="M347.46,104s-6.91-32.78-69.57-32.62c0,0-1.76,23.86,1,28.33,0,0,2.1,4.29,4.67,4.29Z"/>
      <path class="cls-5" d="M276.93,206.14a20.51,20.51,0,0,0,3.71,11.74,21.9,21.9,0,0,0,9.88,7.78,22.82,22.82,0,0,0,12.72,1.2,22.39,22.39,0,0,0,11.27-5.78,20.89,20.89,0,0,0,6-10.82,20.31,20.31,0,0,0-1.25-12.21,21.34,21.34,0,0,0-8.11-9.47A22.61,22.61,0,0,0,298.94,185a22.89,22.89,0,0,0-8.43,1.61,22,22,0,0,0-7.14,4.58,21,21,0,0,0-4.76,6.85A20.31,20.31,0,0,0,276.93,206.14Z"/>
      <path class="cls-7" d="M284.64,206.14a13.28,13.28,0,0,0,2.4,7.61,14.14,14.14,0,0,0,6.41,5,14.76,14.76,0,0,0,8.24.78,14.45,14.45,0,0,0,7.31-3.74,13.59,13.59,0,0,0,3.9-7,13.18,13.18,0,0,0-.81-7.91,13.79,13.79,0,0,0-5.26-6.14,14.71,14.71,0,0,0-18,1.7A13.4,13.4,0,0,0,284.64,206.14Z"/>
      <path class="cls-12" d="M294.76,206.14a3.93,3.93,0,0,0,.7,2.24,4.23,4.23,0,0,0,1.88,1.48,4.44,4.44,0,0,0,2.42.23,4.27,4.27,0,0,0,2.14-1.1,3.93,3.93,0,0,0,1.15-2.06,3.85,3.85,0,0,0-.24-2.32,4.09,4.09,0,0,0-1.55-1.8,4.24,4.24,0,0,0-2.32-.67,4.3,4.3,0,0,0-3,1.17A3.93,3.93,0,0,0,294.76,206.14Z"/>
      <path class="cls-5" d="M302.49,194.74h-7.14v1.72h7.14Z"/>
      <path class="cls-5" d="M302.49,216.15h-7.14v1.72h7.14Z"/>
      <path class="cls-5" d="M290,203.3h-1.79v6H290Z"/>
      <path class="cls-5" d="M310.52,203.3h-1.78v6h1.78Z"/>
      <path class="cls-13" d="M244.47,195.6H147.19v6h97.28Z"/>
      <path class="cls-5" d="M108.57,206.14a20.54,20.54,0,0,0,3.71,11.74,21.82,21.82,0,0,0,9.87,7.78,22.83,22.83,0,0,0,12.72,1.2,22.31,22.31,0,0,0,11.27-5.78,20.86,20.86,0,0,0,6-10.82,20.29,20.29,0,0,0-1.26-12.2,21.28,21.28,0,0,0-8.1-9.48A22.7,22.7,0,0,0,130.58,185,22.47,22.47,0,0,0,115,191.21,20.71,20.71,0,0,0,108.57,206.14Z"/>
      <path class="cls-7" d="M116.28,206.14a13.36,13.36,0,0,0,2.4,7.61,14.14,14.14,0,0,0,6.41,5,14.76,14.76,0,0,0,8.24.78,14.45,14.45,0,0,0,7.31-3.74,13.59,13.59,0,0,0,3.9-7,13.18,13.18,0,0,0-.81-7.91,13.83,13.83,0,0,0-5.25-6.14,14.73,14.73,0,0,0-18,1.7A13.4,13.4,0,0,0,116.28,206.14Z"/>
      <path class="cls-12" d="M126.39,206.14a3.94,3.94,0,0,0,.71,2.24,4.15,4.15,0,0,0,1.87,1.48,4.44,4.44,0,0,0,2.42.23,4.27,4.27,0,0,0,2.14-1.1,3.94,3.94,0,0,0,1.15-2.05,3.85,3.85,0,0,0-.24-2.32,4,4,0,0,0-1.54-1.81,4.3,4.3,0,0,0-2.32-.67,4.14,4.14,0,0,0-1.6.3,4.06,4.06,0,0,0-1.36.87,3.92,3.92,0,0,0-.91,1.3A3.85,3.85,0,0,0,126.39,206.14Z"/>
      <path class="cls-5" d="M133.81,194.74h-6.25v1.72h6.25Z"/>
      <path class="cls-5" d="M133.81,216.15h-6.25v1.72h6.25Z"/>
      <path class="cls-5" d="M121.31,203.3h-1.79v6h1.79Z"/>
      <path class="cls-5" d="M141.84,203.3h-1.78v6h1.78Z"/>
      <path class="cls-14" d="M341.41,110.55s16.86,23.79,16,47.45v26.71l-26.68,0s-4.82-9.62-20.35-9.62"/>
      <path class="cls-8" d="M350.86,158.76h-8.39a1.57,1.57,0,0,0-1.6,1.55v.33a1.57,1.57,0,0,0,1.6,1.55h8.39a1.58,1.58,0,0,0,1.61-1.55v-.33A1.58,1.58,0,0,0,350.86,158.76Z"/>
      <path class="cls-8" d="M265.89,193h-33v13.7h33Z"/>
      <path class="cls-15" d="M52.59,196.46H67.12l6.42-18h-21Z"/>
      <path class="cls-3" d="M319.48,109.94l6.7,41.31a182.27,182.27,0,0,1-21.4-5.32l-5.87-36Z"/>
      <path class="cls-16" d="M264.11,56.84H52.59V184.46H264.11Z"/>
      <path class="cls-17" d="M64.41,173.33H253.76V64.55H64.41Z"/>
      <path class="cls-18" d="M99.88,64.55H82.1V109H99.88Z"/>
      <path class="cls-18" d="M99.88,127.79H82.1v45.52H99.88Z"/>
      <path class="cls-18" d="M106.24,112.52H76.44a6.18,6.18,0,1,0,0,12.34h29.8a6.18,6.18,0,1,0,0-12.34Z"/>
      <path d="M106.25,125.13H76.44a6.86,6.86,0,0,1-4.75-1.89,6.25,6.25,0,0,1,0-9.11,6.86,6.86,0,0,1,4.75-1.89h29.81a6.84,6.84,0,0,1,4.74,1.89,6.25,6.25,0,0,1,0,9.11A6.84,6.84,0,0,1,106.25,125.13ZM76.44,112.79a6.29,6.29,0,0,0-4.35,1.73,5.72,5.72,0,0,0,0,8.33,6.29,6.29,0,0,0,4.35,1.73h29.81a6.26,6.26,0,0,0,4.34-1.73,5.72,5.72,0,0,0,0-8.33,6.26,6.26,0,0,0-4.34-1.73Z"/>
      <path d="M75,117.2a.09.09,0,0,1,0-.07h1.57a.94.94,0,0,1,.37.07,1,1,0,0,1,.3.2.76.76,0,0,1,.2.28.78.78,0,0,1,.08.36.76.76,0,0,1,0,.3.92.92,0,0,1-.15.25,1.06,1.06,0,0,1,.26.33,1,1,0,0,1,.08.38,1,1,0,0,1-.08.39,1,1,0,0,1-.21.3,1.06,1.06,0,0,1-.31.21,1,1,0,0,1-.37.08H75.1a.08.08,0,0,1-.07,0v-.07Zm1.67.84a.24.24,0,0,0,0-.12.36.36,0,0,0-.07-.1l-.1-.07a.33.33,0,0,0-.14,0H75.9v.61h.46a.38.38,0,0,0,.15,0,.27.27,0,0,0,.1-.06.36.36,0,0,0,.07-.1.29.29,0,0,0,0-.13Zm.11,1.22a.24.24,0,0,0,0-.12.75.75,0,0,0-.07-.12.26.26,0,0,0-.11-.07.22.22,0,0,0-.13,0h-.59v.72h.59a.22.22,0,0,0,.24-.08.41.41,0,0,0,.07-.11.38.38,0,0,0,0-.15Z"/>
      <path d="M78.13,117.2a.09.09,0,0,1,0-.07h2.33a0,0,0,0,1,0,0s0,0,0,0v.53a.09.09,0,0,1,0,.07H79v.52h1.17a0,0,0,0,1,0,.06v.46a0,0,0,0,1,0,.06H79v.54h1.5c.07,0,.1,0,.1.1v.56a0,0,0,0,1,0,0s0,0,0,0H78.22a.09.09,0,0,1-.07,0s0,0,0,0,0,0,0,0Z"/>
      <path d="M81.53,119.26l.09.08.14.1a1.51,1.51,0,0,0,.22.11.59.59,0,0,0,.23,0h.19a.24.24,0,0,0,.12-.07.18.18,0,0,0,.06-.09.21.21,0,0,0,0-.11.17.17,0,0,0,0-.12.38.38,0,0,0-.13-.09l-.16-.07L82.1,119a3.71,3.71,0,0,1-.46-.19,1.85,1.85,0,0,1-.34-.23,1,1,0,0,1-.19-.27A.83.83,0,0,1,81,118a.86.86,0,0,1,.08-.36,1.08,1.08,0,0,1,.24-.28,1,1,0,0,1,.37-.17,1.58,1.58,0,0,1,.48-.06,1.29,1.29,0,0,1,.39,0,1.13,1.13,0,0,1,.36.14l.15.08.11.1a.15.15,0,0,1,.08.08.06.06,0,0,1,0,.06,0,0,0,0,1,0,0l0,0-.33.35a.11.11,0,0,1-.08,0h-.06l-.05,0-.1-.08-.12-.06-.13,0a.29.29,0,0,0-.13,0h-.14l-.12,0s0,0-.07.06a.17.17,0,0,0,0,.1.17.17,0,0,0,0,.1.16.16,0,0,0,.1.08.36.36,0,0,0,.15.08l.21.07.43.15a1.41,1.41,0,0,1,.34.19.93.93,0,0,1,.22.27.85.85,0,0,1,.09.38.9.9,0,0,1-.1.42,1,1,0,0,1-.28.32,1.53,1.53,0,0,1-.4.21,1.79,1.79,0,0,1-.51.07,1.37,1.37,0,0,1-.49-.09,2,2,0,0,1-.46-.23l-.15-.12a.28.28,0,0,0-.1-.09.22.22,0,0,1,0-.08.12.12,0,0,1,0-.09l.38-.35h.12Z"/>
      <path d="M83.82,117.2a.06.06,0,0,1,0-.06h2.52a.05.05,0,0,1,0,.06v.53a.08.08,0,0,1,0,.07h-.83v2.32a.05.05,0,0,1,0,.06l0,0h-.69a.09.09,0,0,1-.07,0s0,0,0,0a.08.08,0,0,1,0,0v-2.32h-.82a.11.11,0,0,1,0-.08Z"/>
      <path d="M88.74,119.26l.1.08.12.09a1.27,1.27,0,0,0,.23.12.59.59,0,0,0,.23,0h.19a.35.35,0,0,0,.12-.07.18.18,0,0,0,.06-.09.2.2,0,0,0,0-.11.17.17,0,0,0,0-.07.1.1,0,0,0,0,0,.38.38,0,0,0-.13-.09l-.16-.07-.14-.05a3.71,3.71,0,0,1-.46-.19,1.5,1.5,0,0,1-.33-.23,1.05,1.05,0,0,1-.2-.27.82.82,0,0,1,0-.38.9.9,0,0,1,.08-.36.78.78,0,0,1,.24-.27,1.27,1.27,0,0,1,.37-.18,2,2,0,0,1,.48-.06,1.72,1.72,0,0,1,.39,0,1.42,1.42,0,0,1,.36.14l.14.08.12.1a.2.2,0,0,1,.08.08.06.06,0,0,1,0,.06,0,0,0,0,1,0,0v.05l-.34.35-.07,0h-.06L90,118l-.09-.08-.12-.06-.13,0h-.27l-.11,0a.16.16,0,0,0-.09.07.17.17,0,0,0,0,.1.17.17,0,0,0,0,.1.24.24,0,0,0,.09.08l.15.07.22.07.43.15a1.45,1.45,0,0,1,.34.2.68.68,0,0,1,.22.26.73.73,0,0,1,.08.38.86.86,0,0,1-.09.42,1,1,0,0,1-.27.32,1.38,1.38,0,0,1-.42.21,1.41,1.41,0,0,1-.5.07,1.69,1.69,0,0,1-.5-.08,2,2,0,0,1-.45-.24l-.15-.12-.09-.09a.1.1,0,0,1,0-.17l.38-.34h.12Z"/>
      <path d="M91.22,117.2s0,0,0,0a0,0,0,0,1,0,0h2.4a.09.09,0,0,1,0,.07v.53a.08.08,0,0,1,0,.07H92v.52h1.18v.58H92v.54h1.51c.06,0,.1,0,.1.1v.53a0,0,0,0,1,0,0h0c0,.05,0,.07-.09.07H91.31a0,0,0,0,1-.07-.07Z"/>
      <path d="M94.21,117.2a.09.09,0,0,1,0-.07H95.7a1.22,1.22,0,0,1,.43.08,1,1,0,0,1,.34.22.85.85,0,0,1,.24.33.93.93,0,0,1,.09.4.86.86,0,0,1,0,.27,1.12,1.12,0,0,1-.11.25,1.63,1.63,0,0,1-.17.2l-.22.16.56,1,0,.06a.11.11,0,0,1,0,.08,0,0,0,0,1,0,0s0,0,0,0H96s0,0,0-.06l-.54-1h-.34v1s0,0,0,0,0,0,0,0l0,0h-.73l0,0s0,0,0,0v-3Zm1.72.94a.29.29,0,0,0,0-.13.33.33,0,0,0-.17-.2.35.35,0,0,0-.13,0h-.58v.78h.55l.13,0a.31.31,0,0,0,.11-.09.24.24,0,0,0,.06-.11.35.35,0,0,0,0-.13Z"/>
      <path d="M98.21,120.23l0-.07,0-.09L97,117.2s0-.06.09-.06h.71a.1.1,0,0,1,.07,0,.1.1,0,0,1,0,0l.68,1.94c.06-.16.12-.33.17-.49s.11-.32.17-.48l.15-.48.18-.49a.08.08,0,0,1,0,0,.07.07,0,0,1,.07,0h.77v0L99,120.08v.07s0,0,0,.06a.1.1,0,0,1,0,.06.06.06,0,0,1-.06,0h-.61l0,0Z"/>
      <path d="M100.56,117.2a.06.06,0,0,1,0-.06.09.09,0,0,1,.07,0h.65a.09.09,0,0,1,.07,0l0,0s0,0,0,0v3s0,0,0,0,0,0,0,0a.05.05,0,0,1,0,0h-.69c-.06,0-.09,0-.09-.1Z"/>
      <path d="M104.62,117.36s0,0,.06.06,0,0,0,0,0,0,0,0l-.37.5s0,0,0,0h-.07a1.08,1.08,0,0,0-.24-.12.9.9,0,0,0-.28,0,.92.92,0,0,0-.33.06.85.85,0,0,0-.44.45.91.91,0,0,0,0,.65.8.8,0,0,0,.18.27,1,1,0,0,0,.26.18.92.92,0,0,0,.33.06.9.9,0,0,0,.28,0,.8.8,0,0,0,.24-.13h.12l.37.52,0,0a.05.05,0,0,1,0,0,.12.12,0,0,1-.05,0,1.61,1.61,0,0,1-.95.28,1.78,1.78,0,0,1-.85-.21,1.91,1.91,0,0,1-.61-.59,1.63,1.63,0,0,1-.17-.38,1.57,1.57,0,0,1,0-.86,1.56,1.56,0,0,1,.44-.72,1.42,1.42,0,0,1,.34-.25,1.4,1.4,0,0,1,.4-.16,1.74,1.74,0,0,1,.45-.06,1.68,1.68,0,0,1,.5.07A1.63,1.63,0,0,1,104.62,117.36Z"/>
      <path d="M105.23,117.2a.09.09,0,0,1,0-.07h2.34v.6a.09.09,0,0,1,0,.07h-1.5v.52h1.17v.58h-1.15v.54h1.5c.07,0,.1,0,.1.1v.56s0,0,0,0l0,0h-2.32a0,0,0,0,1-.07-.07Z"/>
      <path class="cls-4" d="M257,176.75H63.3V181H257Z"/>
      <path class="cls-10" d="M259.72,59.41h-5.5a1.68,1.68,0,0,0-1.71,1.65v.13a1.68,1.68,0,0,0,1.71,1.65h5.5a1.68,1.68,0,0,0,1.71-1.65v-.13A1.68,1.68,0,0,0,259.72,59.41Z"/>
      <path class="cls-10" d="M63.36,59.41H57.87a1.69,1.69,0,0,0-1.72,1.65v.13a1.69,1.69,0,0,0,1.72,1.65h5.49a1.69,1.69,0,0,0,1.72-1.65v-.13A1.69,1.69,0,0,0,63.36,59.41Z"/>
      <path class="cls-19" d="M199,191.32H172.18V199H199Z"/>
      <path class="cls-5" d="M199,199H172.18v7.71H199Z"/>
      <path class="cls-20" d="M64.26,188.74H56.09a1.69,1.69,0,0,0-1.72,1.66v.12a1.69,1.69,0,0,0,1.72,1.65h8.17A1.69,1.69,0,0,0,66,190.52v-.12A1.69,1.69,0,0,0,64.26,188.74Z"/>
      <path class="cls-5" d="M66.47,194.74H53A1.26,1.26,0,0,0,51.69,196v8.67A1.27,1.27,0,0,0,53,205.88H66.47a1.27,1.27,0,0,0,1.29-1.24V196A1.26,1.26,0,0,0,66.47,194.74Z"/>
    </g>
  </g>
</svg>
