<svg id="Layer_1" data-name="Layer 1" xmlns="http://www.w3.org/2000/svg" xmlns:xlink="http://www.w3.org/1999/xlink" viewBox="0 0 427.84 236.47"><defs><style>.cls-1{fill:#4d4d4d;}.cls-10,.cls-2{fill:#e6e6e6;}.cls-3{fill:#333;}.cls-12,.cls-4{fill:none;stroke-linecap:round;stroke-linejoin:round;}.cls-10,.cls-4{stroke:#333;}.cls-4{stroke-width:3px;}.cls-5{fill:#ccc;}.cls-6{fill:#666;}.cls-7{fill:#fff;}.cls-8{fill:#f7931e;}.cls-9{fill:#999;}.cls-10{stroke-miterlimit:10;}.cls-11{fill:gray;}.cls-12{stroke:#999;}.cls-13{fill:#d9d9d9;}.cls-14{fill:url(#linear-gradient);}.cls-15{fill:url(#linear-gradient-2);}.cls-16{fill:#e1632a;}.cls-17{isolation:isolate;}.cls-18{fill:#b3b3b3;}.cls-19{fill:#c1272d;}</style><linearGradient id="linear-gradient" x1="1.19" y1="88.54" x2="282.85" y2="88.54" gradientUnits="userSpaceOnUse"><stop offset="0" stop-color="#ccc"/><stop offset="1" stop-color="#a7a9ac"/></linearGradient><linearGradient id="linear-gradient-2" x1="16.94" y1="86.16" x2="269.07" y2="86.16" gradientUnits="userSpaceOnUse"><stop offset="0" stop-color="#fff"/><stop offset="1" stop-color="#e6e6e6"/></linearGradient></defs><title>Transport</title><rect class="cls-1" x="32.09" y="183.02" width="33.28" height="16.64"/><rect class="cls-2" x="58.23" y="183.02" width="3.57" height="13.07"/><rect class="cls-2" x="35.65" y="183.02" width="3.57" height="13.07"/><rect class="cls-3" x="27.33" y="196.09" width="41.6" height="10.7" rx="5.13"/><rect class="cls-3" x="21.39" y="175.89" width="103.39" height="9.51"/><polyline class="cls-4" points="307.83 90.35 294.14 93.57 294.14 167.57"/><path class="cls-3" d="M278.85,305.66H538.79c16.07,0,27.38-5.92,27.38-22h0c0-16.06-11.31-22-27.38-22h-71l-11,8.49L278.85,270Z" transform="translate(-174.27 -101.25)"/><path class="cls-5" d="M484.56,166.61h.64c.17,0,.33,0,.5,0l0,0h82.14l15.3,25.44L597.54,236l.15,66.11H545.06c0-27.33-25.09-28.52-25.09-28.52H475v-97C475,171.51,479.54,166.61,484.56,166.61Z" transform="translate(-174.27 -101.25)"/><path class="cls-3" d="M491.59,174.93v40.42s8.19,12.88,82.92,22.29c0,0-3.2-46.07-27.73-62.71Z" transform="translate(-174.27 -101.25)"/><rect class="cls-1" x="318.5" y="141.42" width="13.07" height="21.39"/><rect class="cls-6" x="318.5" y="155.69" width="13.07" height="7.13"/><rect class="cls-7" x="386.24" y="188.96" width="23.77" height="8.32" rx="4"/><path class="cls-8" d="M560.52,295c0,2.33,1.43,3.53,4.73,3.53h9.53v-8.32h-9.53c-2.51-.25-4.73,1.14-4.73,3.46Z" transform="translate(-174.27 -101.25)"/><path class="cls-3" d="M567.88,167.44s29.81,23.24,29.66,72.45c0,0-4.72.31-5-2C588,198.88,571.52,179.42,567.88,167.44Z" transform="translate(-174.27 -101.25)"/><rect class="cls-9" x="419.52" y="155.69" width="4.75" height="38.03" rx="2.29"/><rect class="cls-6" x="366.04" y="200.85" width="61.8" height="8.32" rx="4"/><path class="cls-2" d="M568.1,166.61s-9.2-45.47-92.63-45.26c0,0-2.35,33.11,1.28,39.32,0,0,2.79,5.94,6.21,5.94Z" transform="translate(-174.27 -101.25)"/><path class="cls-3" d="M474.19,308.41a29.31,29.31,0,1,0,29.3-29.31A29.3,29.3,0,0,0,474.19,308.41Z" transform="translate(-174.27 -101.25)"/><path class="cls-5" d="M484.45,308.41a19,19,0,1,0,19-19A19,19,0,0,0,484.45,308.41Z" transform="translate(-174.27 -101.25)"/><path class="cls-10" d="M497.93,308.41a5.57,5.57,0,1,0,5.56-5.56A5.56,5.56,0,0,0,497.93,308.41Z" transform="translate(-174.27 -101.25)"/><rect class="cls-3" x="324.44" y="191.34" width="9.51" height="2.38"/><rect class="cls-3" x="324.44" y="221.05" width="9.51" height="2.38"/><rect class="cls-3" x="314.94" y="203.22" width="2.38" height="8.32"/><rect class="cls-3" x="342.27" y="203.22" width="2.38" height="8.32"/><rect class="cls-11" x="127.16" y="192.53" width="129.54" height="8.32"/><path class="cls-3" d="M250,308.41a29.31,29.31,0,1,0,29.31-29.31A29.31,29.31,0,0,0,250,308.41Z" transform="translate(-174.27 -101.25)"/><path class="cls-5" d="M260.27,308.41a19,19,0,1,0,19-19A19,19,0,0,0,260.27,308.41Z" transform="translate(-174.27 -101.25)"/><path class="cls-10" d="M273.74,308.41a5.57,5.57,0,1,0,5.57-5.56A5.56,5.56,0,0,0,273.74,308.41Z" transform="translate(-174.27 -101.25)"/><rect class="cls-3" x="101.02" y="191.34" width="8.32" height="2.38"/><rect class="cls-3" x="101.02" y="221.05" width="8.32" height="2.38"/><rect class="cls-3" x="90.32" y="203.22" width="2.38" height="8.32"/><rect class="cls-3" x="117.66" y="203.22" width="2.38" height="8.32"/><path class="cls-12" d="M560.05,175.78s22.45,33,21.26,65.83v37.06l-35.52-.05s-6.42-13.35-27.1-13.35" transform="translate(-174.27 -101.25)"/><rect class="cls-6" x="385.05" y="141.42" width="15.45" height="4.75" rx="2.14"/><rect class="cls-6" x="241.25" y="188.96" width="43.97" height="19.02"/><polygon class="cls-13" points="1.19 193.72 20.54 193.72 29.09 168.76 1.19 168.76 1.19 193.72"/><path class="cls-1" d="M530.85,174.93l8.92,57.31a234.27,234.27,0,0,1-28.5-7.38l-7.81-49.93Z" transform="translate(-174.27 -101.25)"/><rect class="cls-14" x="1.19" width="281.66" height="177.08"/><polygon class="cls-15" points="16.94 161.63 16.94 161.63 269.07 161.63 269.07 10.7 269.07 10.7 16.94 10.7 16.94 161.63"/><rect class="cls-16" x="40.49" y="10.7" width="23.68" height="61.69"/><rect class="cls-16" x="40.49" y="98.44" width="23.68" height="63.17"/><g id="Rectangle_3-2" data-name="Rectangle 3-2"><rect class="cls-16" x="24.39" y="77.26" width="56.8" height="17.12" rx="8.56"/><path d="M246.91,196H207.22a8.94,8.94,0,1,1,0-17.88h39.69a8.94,8.94,0,0,1,0,17.88Zm-39.69-17.12a8.18,8.18,0,1,0,0,16.36h39.69a8.18,8.18,0,1,0,0-16.36Z" transform="translate(-174.27 -101.25)"/></g><g class="cls-17"><path d="M205.32,185a.15.15,0,0,1,0-.1.13.13,0,0,1,.09,0h2a1.3,1.3,0,0,1,.49.1,1.28,1.28,0,0,1,.4.27,1.18,1.18,0,0,1,.27.4,1.22,1.22,0,0,1,.11.5,1.35,1.35,0,0,1-.07.41,1.27,1.27,0,0,1-.2.34,1.57,1.57,0,0,1,.34.46,1.36,1.36,0,0,1,0,1.07,1.34,1.34,0,0,1-.28.42,1.33,1.33,0,0,1-.41.29,1.21,1.21,0,0,1-.49.11h-2.13a.12.12,0,0,1-.09,0,.15.15,0,0,1,0-.1Zm2.22,1.16a.33.33,0,0,0,0-.17.38.38,0,0,0-.09-.13.5.5,0,0,0-.14-.1.48.48,0,0,0-.18,0h-.63v.85h.62a.58.58,0,0,0,.19,0,.42.42,0,0,0,.14-.09.38.38,0,0,0,.09-.13A.33.33,0,0,0,207.54,186.2Zm.15,1.7a.51.51,0,0,0,0-.17.54.54,0,0,0-.1-.16.38.38,0,0,0-.14-.11.41.41,0,0,0-.18-.05h-.78v1h.78a.39.39,0,0,0,.18,0,.36.36,0,0,0,.14-.11.49.49,0,0,0,.1-.15A.58.58,0,0,0,207.69,187.9Z" transform="translate(-174.27 -101.25)"/><path d="M209.47,185a.15.15,0,0,1,0-.1.18.18,0,0,1,.1,0h2.91a.13.13,0,0,1,.1,0,.13.13,0,0,1,0,.1v.73a.14.14,0,0,1,0,.1.11.11,0,0,1-.1,0h-1.9v.73h1.47l.09,0a.09.09,0,0,1,0,.08v.64a.1.1,0,0,1,0,.08.13.13,0,0,1-.09,0h-1.47v.75h2c.09,0,.13,0,.13.13v.74s0,0,0,.05a.1.1,0,0,1-.12.09h-3a.12.12,0,0,1-.09,0,.12.12,0,0,1,0-.1Z" transform="translate(-174.27 -101.25)"/><path d="M214,187.86l.12.11.18.13a1.46,1.46,0,0,0,.3.16.81.81,0,0,0,.31.05.9.9,0,0,0,.25,0,.35.35,0,0,0,.16-.09.26.26,0,0,0,.08-.13.4.4,0,0,0,0-.15.28.28,0,0,0-.07-.17.74.74,0,0,0-.17-.12l-.21-.1-.19-.07a4.47,4.47,0,0,1-.61-.26,2,2,0,0,1-.45-.32,1.35,1.35,0,0,1-.26-.38,1.19,1.19,0,0,1-.09-.47,1.18,1.18,0,0,1,.11-.5,1.16,1.16,0,0,1,.32-.38,1.4,1.4,0,0,1,.49-.24,2.15,2.15,0,0,1,.64-.09,2.1,2.1,0,0,1,.51.06,1.84,1.84,0,0,1,.49.19l.19.12.15.13a.29.29,0,0,1,.11.11.12.12,0,0,1,0,.09.1.1,0,0,1,0,.07l-.05.07-.45.48a.19.19,0,0,1-.1.05l-.08,0-.07-.06,0,0-.13-.11-.16-.09-.17-.07a.57.57,0,0,0-.18,0h-.19l-.15.06a.28.28,0,0,0-.1.09.29.29,0,0,0,0,.14.33.33,0,0,0,0,.14.36.36,0,0,0,.13.11.75.75,0,0,0,.2.1l.29.1.57.21a1.91,1.91,0,0,1,.45.27,1.07,1.07,0,0,1,.3.37,1.17,1.17,0,0,1,.11.52,1.28,1.28,0,0,1-.13.59,1.3,1.3,0,0,1-.37.44,1.56,1.56,0,0,1-.54.29,2.09,2.09,0,0,1-.67.1,1.92,1.92,0,0,1-.66-.12,2.73,2.73,0,0,1-.61-.32l-.2-.17a.79.79,0,0,0-.13-.13h0a.2.2,0,0,1-.07-.11s0-.07.07-.12l.51-.48a.16.16,0,0,1,.1,0h.06Z" transform="translate(-174.27 -101.25)"/><path d="M217.05,185a.13.13,0,0,1,0-.09.13.13,0,0,1,.1,0h3.16a.13.13,0,0,1,.1,0,.1.1,0,0,1,0,.09v.73a.17.17,0,0,1,0,.1.14.14,0,0,1-.11,0h-1v3.22a.11.11,0,0,1,0,.09.12.12,0,0,1-.1.05h-.86a.18.18,0,0,1-.09,0,.14.14,0,0,1-.05-.1v-3.22h-1a.13.13,0,0,1-.1,0,.16.16,0,0,1,0-.11Z" transform="translate(-174.27 -101.25)"/><path d="M223.6,187.86l.13.11.17.13a1.46,1.46,0,0,0,.3.16.81.81,0,0,0,.31.05.9.9,0,0,0,.25,0,.35.35,0,0,0,.16-.09.26.26,0,0,0,.08-.13.4.4,0,0,0,0-.15.23.23,0,0,0-.07-.17.74.74,0,0,0-.17-.12l-.21-.1-.19-.07a4.47,4.47,0,0,1-.61-.26,1.72,1.72,0,0,1-.44-.32,1.21,1.21,0,0,1-.27-.38A1.19,1.19,0,0,1,223,186a1.18,1.18,0,0,1,.11-.5,1.16,1.16,0,0,1,.32-.38,1.4,1.4,0,0,1,.49-.24,2.15,2.15,0,0,1,.64-.09,2.24,2.24,0,0,1,.52.06,1.92,1.92,0,0,1,.48.19l.19.12.16.13a.35.35,0,0,1,.1.11.12.12,0,0,1,0,.09.1.1,0,0,1,0,.07l0,.07-.45.48a.19.19,0,0,1-.1.05l-.08,0-.07-.06,0,0-.13-.11-.15-.09-.18-.07a.57.57,0,0,0-.18,0h-.18a.52.52,0,0,0-.15.06.24.24,0,0,0-.11.09.29.29,0,0,0,0,.14.24.24,0,0,0,0,.14.26.26,0,0,0,.12.11.75.75,0,0,0,.2.1l.29.1.57.21a2.23,2.23,0,0,1,.46.27,1.16,1.16,0,0,1,.29.37,1.05,1.05,0,0,1,.11.52,1.28,1.28,0,0,1-.13.59,1.39,1.39,0,0,1-.36.44,1.7,1.7,0,0,1-.55.29,2,2,0,0,1-.67.1,1.92,1.92,0,0,1-.66-.12,2.73,2.73,0,0,1-.61-.32l-.2-.17-.12-.13h0a.17.17,0,0,1-.06-.11.19.19,0,0,1,.06-.12l.51-.48a.19.19,0,0,1,.1,0h.06Z" transform="translate(-174.27 -101.25)"/><path d="M226.9,185a.12.12,0,0,1,0-.1.13.13,0,0,1,.09,0H230a.18.18,0,0,1,.1,0,.17.17,0,0,1,0,.1v.73a.19.19,0,0,1,0,.1.14.14,0,0,1-.11,0H228v.73h1.47a.12.12,0,0,1,.09,0s0,0,0,.08v.64a.13.13,0,0,1,0,.08.18.18,0,0,1-.1,0H228v.75h2c.09,0,.14,0,.14.13v.74a.05.05,0,0,1,0,.05q0,.09-.12.09h-3a.12.12,0,0,1-.09,0,.15.15,0,0,1,0-.1Z" transform="translate(-174.27 -101.25)"/><path d="M230.88,185a.15.15,0,0,1,0-.1.13.13,0,0,1,.1,0h1.89a1.35,1.35,0,0,1,.57.12,1.31,1.31,0,0,1,.46.3,1.33,1.33,0,0,1,.31.46,1.3,1.3,0,0,1,.12.55,1.21,1.21,0,0,1-.06.38,2.07,2.07,0,0,1-.15.34,1.56,1.56,0,0,1-.23.28,1.48,1.48,0,0,1-.29.22l.75,1.43.05.09a.16.16,0,0,1,0,.1.09.09,0,0,1,0,.07.12.12,0,0,1-.09,0h-1l-.09,0a.22.22,0,0,1-.05-.08l-.71-1.35H232v1.33a.12.12,0,0,1-.13.13H231a.11.11,0,0,1-.13-.13Zm2.3,1.3a.35.35,0,0,0,0-.17.5.5,0,0,0-.23-.29.48.48,0,0,0-.18-.06H232v1.08h.73a.48.48,0,0,0,.18-.06.41.41,0,0,0,.14-.12.51.51,0,0,0,.09-.16A.58.58,0,0,0,233.18,186.34Z" transform="translate(-174.27 -101.25)"/><path d="M236.21,189.2a.53.53,0,0,1-.06-.1l-.05-.12L234.59,185v0c0-.06,0-.09.11-.09h.95a.16.16,0,0,1,.15.11l.9,2.68c.08-.22.16-.45.23-.67s.14-.45.22-.67l.21-.67c.08-.22.15-.44.23-.67a.18.18,0,0,1,.17-.11h.92a.13.13,0,0,1,.1,0s0,0,0,.06v0h0L237.28,189l0,.09a.19.19,0,0,1-.05.09.16.16,0,0,1-.06.08.11.11,0,0,1-.08,0h-.72A.11.11,0,0,1,236.21,189.2Z" transform="translate(-174.27 -101.25)"/><path d="M239.34,185a.16.16,0,0,1,0-.09.13.13,0,0,1,.09,0h.87a.12.12,0,0,1,.09,0,.09.09,0,0,1,.05.09v4.11a.12.12,0,0,1-.14.13h-.87c-.08,0-.12-.05-.12-.13Z" transform="translate(-174.27 -101.25)"/><path d="M244.75,185.22a.18.18,0,0,1,.07.08.11.11,0,0,1,0,.11l-.49.7s0,.06-.07.06a.1.1,0,0,1-.09,0,1,1,0,0,0-.32-.17,1.15,1.15,0,0,0-.37-.06,1,1,0,0,0-.44.09,1,1,0,0,0-.35.25,1.1,1.1,0,0,0-.23.37,1.31,1.31,0,0,0,0,.9,1,1,0,0,0,.23.37,1,1,0,0,0,.35.25,1,1,0,0,0,.44.09,1.1,1.1,0,0,0,.37-.06,1.09,1.09,0,0,0,.32-.17s.07,0,.09,0,.05,0,.07,0l.5.72a.09.09,0,0,1,0,.11.16.16,0,0,1-.07.07,2.23,2.23,0,0,1-1.27.39,2.34,2.34,0,0,1-1.13-.3,2.61,2.61,0,0,1-.81-.81,2.27,2.27,0,0,1-.22-.53,2.29,2.29,0,0,1,0-1.2,2.55,2.55,0,0,1,.22-.54,2.22,2.22,0,0,1,.36-.45,1.7,1.7,0,0,1,.45-.35,2,2,0,0,1,.54-.23,2.33,2.33,0,0,1,.59-.08,2.09,2.09,0,0,1,.67.1A2.28,2.28,0,0,1,244.75,185.22Z" transform="translate(-174.27 -101.25)"/><path d="M245.56,185a.15.15,0,0,1,0-.1.15.15,0,0,1,.1,0h2.91a.13.13,0,0,1,.1,0,.13.13,0,0,1,0,.1v.73a.14.14,0,0,1,0,.1.12.12,0,0,1-.1,0h-1.9v.73h1.47l.09,0s0,0,0,.08v.64a.13.13,0,0,1,0,.08.13.13,0,0,1-.09,0H246.7v.75h2c.09,0,.13,0,.13.13v.74a.08.08,0,0,1,0,.05.1.1,0,0,1-.12.09h-3a.17.17,0,0,1-.1,0,.15.15,0,0,1,0-.1Z" transform="translate(-174.27 -101.25)"/></g><rect class="cls-2" x="15.45" y="166.38" width="257.89" height="5.94"/><rect class="cls-8" x="267.4" y="3.57" width="11.88" height="4.75" rx="2.28"/><rect class="cls-8" x="5.94" y="3.57" width="11.88" height="4.75" rx="2.28"/><rect class="cls-18" x="160.44" y="186.59" width="35.65" height="10.7"/><rect class="cls-3" x="160.44" y="197.28" width="35.65" height="10.7"/><rect class="cls-19" x="3.57" y="183.02" width="15.45" height="4.75" rx="2.29"/><rect class="cls-3" y="191.34" width="21.39" height="15.45" rx="1.71"/></svg>