<svg xmlns="http://www.w3.org/2000/svg" viewBox="0 0 420 255"><defs><style>.a{opacity:0.6;}.b{fill:#c4c6c8;}.c{fill:#1d1d1b;}.d{fill:#4f514f;}.e{fill:#231f20;}.f{opacity:0.4;}.g{fill:#2a2b2a;}.h{fill:#13ab62;}.i,.j{fill:#fff;}.i,.l{opacity:0.18;}.i{isolation:isolate;}.k{fill:#0b9b56;}.m{fill:#149356;}</style></defs><title>waste</title><g class="a"><path class="b" d="M208.47,251.73c33.58,0,60.8-1.07,60.8-2.38s-27.22-2.41-60.8-2.41-60.78,1.07-60.78,2.41S174.89,251.73,208.47,251.73Z"/></g><path class="c" d="M258.62,229.61H158.86V237h99.76Z"/><path class="d" d="M163.55,245.89a3.72,3.72,0,0,1-1.13,2.67,4,4,0,0,1-2.75,1.1h0a3.85,3.85,0,0,1-2.73-1.1,3.8,3.8,0,0,1-.84-1.22,3.62,3.62,0,0,1-.3-1.45V217.4a3.69,3.69,0,0,1,1.14-2.67,4,4,0,0,1,5.48,0,3.72,3.72,0,0,1,1.13,2.67Z"/><path class="e" d="M159.64,250a4.35,4.35,0,0,1-3-1.22,4.08,4.08,0,0,1-1.25-2.93V217.4a3.91,3.91,0,0,1,.28-1.65,4.29,4.29,0,0,1,.91-1.39,4.58,4.58,0,0,1,1.41-.94,4.3,4.3,0,0,1,1.65-.33,4.3,4.3,0,0,1,3,1.27,4.61,4.61,0,0,1,.92,1.39,4.44,4.44,0,0,1,.28,1.65v28.49a4,4,0,0,1-1.25,2.93,4.35,4.35,0,0,1-3,1.22Zm0-36a3.57,3.57,0,0,0-2.46,1,3.29,3.29,0,0,0-1,2.38v28.51a3.52,3.52,0,0,0,.23,1.33,3.23,3.23,0,0,0,.75,1.14,3.44,3.44,0,0,0,2.5,1,3.51,3.51,0,0,0,1.36-.27,3.58,3.58,0,0,0,1.15-.77,3.48,3.48,0,0,0,.75-1.14,3.52,3.52,0,0,0,.23-1.33V217.38a3.39,3.39,0,0,0-1-2.38,3.61,3.61,0,0,0-2.47-1Z"/><g class="f"><g class="f"><path class="g" d="M155.69,241.12v4.77a3.72,3.72,0,0,0,1.13,2.67,4,4,0,0,0,5.48,0,3.69,3.69,0,0,0,1.14-2.67v-4.77Z"/></g></g><g class="f"><g class="f"><path class="g" d="M159.64,213.63h0v36h0a4,4,0,0,0,2.75-1.1,3.72,3.72,0,0,0,1.13-2.67V217.38a3.68,3.68,0,0,0-1.13-2.65A4,4,0,0,0,159.64,213.63Z"/></g></g><path class="d" d="M261.17,245.89a3.73,3.73,0,0,1-1.12,2.67,4,4,0,0,1-2.68,1.05h0a3.91,3.91,0,0,1-2.73-1.1,3.69,3.69,0,0,1-1.14-2.67V217.4a3.69,3.69,0,0,1,1.14-2.67,3.91,3.91,0,0,1,2.73-1.1h0a3.91,3.91,0,0,1,2.73,1.1,3.69,3.69,0,0,1,1.14,2.67Z"/><path class="e" d="M257.37,250a4.23,4.23,0,0,1-3-1.22,4.06,4.06,0,0,1-1.27-2.93V217.4a4.2,4.2,0,0,1,1.25-3,4.39,4.39,0,0,1,6.06,0,4.2,4.2,0,0,1,1.25,3v28.49a4.13,4.13,0,0,1-1.25,2.93,4.33,4.33,0,0,1-3,1.22Zm0-36a3.5,3.5,0,0,0-2.45,1,3.25,3.25,0,0,0-1,2.38v28.51a3.35,3.35,0,0,0,1,2.39,3.58,3.58,0,0,0,4.94,0,3.35,3.35,0,0,0,1-2.39V217.38a3.29,3.29,0,0,0-1-2.38A3.52,3.52,0,0,0,257.37,214Z"/><g class="f"><g class="f"><path class="g" d="M253.44,241.12v4.77a3.64,3.64,0,0,0,1.13,2.67,4,4,0,0,0,2.8,1.05,4,4,0,0,0,2.75-1.1,3.73,3.73,0,0,0,1.12-2.67v-4.77Z"/></g></g><g class="f"><g class="f"><path class="g" d="M256.81,213.68a3.76,3.76,0,0,0-2.4,1.23,3.63,3.63,0,0,0-1,2.47v28.51a3.59,3.59,0,0,0,1,2.47,3.88,3.88,0,0,0,2.4,1.25Z"/></g></g><path class="h" d="M262.9,142.32l-3.69-5.42-.79,2.62,2.24,2Z"/><path class="h" d="M225.49,184.65l-2-.41.84.87Z"/><path class="h" d="M255.2,130.28l-1.5.5-.13.92.66-.31-.12,1.21,2.52,2.13h.1l1.79,1.53h.28l-.69-1,4.16-.25-5.81-4.44.48-.18-1.89-.91-.59.2Z"/><path class="h" d="M263.74,148.82l.11-.79-.56-.1-.31.87Z"/><path class="h" d="M263.85,147.07l-.34.28v.13Z"/><path class="h" d="M272.18,92.1l-.46-.46.36,1.15A1.66,1.66,0,0,0,272.18,92.1Z"/><path class="h" d="M258,185.63l.23-.7.3-2-1.51-.74-.84.2.16,2.43.66-.29v.8Z"/><path class="h" d="M252.66,181.62l-.15.26h0Z"/><path class="h" d="M226.81,177.85v1l.14.43,1.14-1.25Z"/><path class="h" d="M267.72,122l-.41,2.8h0c.2-1.39.4-2.74.59-4.07l-.46.13-.79,1.53Z"/><path class="h" d="M226.1,206.24v-.3l-.48.15Z"/><path class="h" d="M268.13,119.68l-.39.76.24.22C268,120.31,268.08,120,268.13,119.68Z"/><path class="h" d="M261.63,162.91v-.25l-.79.25Z"/><path class="h" d="M252.22,109.94l-.38-.48-1.17.89-.11-.77h0l-.45,1.45,1.65-.27Z"/><path class="h" d="M258.18,95.18l.32-.58-.11-.13Z"/><path class="h" d="M254.59,107.27h.08l-.13.12.29.44,1.17-.11.1-.08-.39-.53-.61-.53Z"/><path class="h" d="M267.82,112.11h1.43l.13-.65-1.91.09Z"/><path class="h" d="M264.55,107.21h.09l-.18-1.19-.28.63Z"/><path class="h" d="M255,143.15l1.94.66v-.11l-2.32-2.39-.71,2.35.32.28h.9Z"/><path class="h" d="M265.7,108.92l1.28-2.44L265,108Z"/><path class="h" d="M267.8,87.84l.12.18.28.11-.13.1.41.64,1-1Z"/><path class="h" d="M262.11,87.84h-1.45l.13.57,2.36-.24Z"/><path class="h" d="M218.21,238.09l.27-.12v1l.84-1.65-1.22.36Z"/><path class="h" d="M251.28,174.87l2.93.74.13-.69-.76-.77,1-.22v-.16l.15.11.9-.21-1.1-.38,2.62-2.14V169l3.29,1.86.1-.64h-.28l.33-1h-.3l.49-.59h0l.2-1.28-1.25-.25,1.55-1.65a8.21,8.21,0,0,1,.18-1.28l-1.65,2.65h0l-1.2,2-1.65-2.83.93,2.73-2.13-.33-6.58,1.95,5.13,2.94Z"/><path class="h" d="M256.33,188.28h0v.38h.18Z"/><path class="h" d="M262.16,159.4l.38-2.45-1.93,1Z"/><path class="h" d="M250.9,178l-.71-2.41-2.89,1.64Z"/><path class="h" d="M263.06,151l-1.26-2.19h.51l-.25-.28-1.48,1.25-.2-1-1.07.89,1.17,1.1v-1l2.34,1.35.1-.11Z"/><path class="h" d="M241.6,109.33l-.61-.52-.61.8-.44,1.45,2.65-.41Z"/><path class="h" d="M257.17,188.43h-.28l.15-.19-.51.51.36.09.23-.18Z"/><path class="h" d="M253.3,92.46l-.29.94L251.66,92l-1,1.1,2,1.12,1.76-.41Z"/><path class="h" d="M248.17,87.84h-.51l-.91,1.49-.87-1.49h-.31l.49,1.46-5.91-1.2-3.9,1.65,1.43.49h3.56l-.63,1,1.65.59-1.37,1.11,1.5.85-3.29,1.85,2.72,3.44.88-4.73,3.49,2.88V90.62l3.59,2Zm-5.42,3.47,1.86-1.22.15,2.19Z"/><path class="h" d="M207.73,92.36l-.61.81-.44,1.43,2.65-.38-1-1.33Z"/><path class="h" d="M259.48,112.13l-.45-.58-.26.56Z"/><path class="h" d="M257.55,130.1l1.84-.7-.26-1.31-1.65.56Z"/><path class="h" d="M253.37,113.76l.43.94.75-1Z"/><path class="h" d="M246.72,234l1.65,1.45-4.15,1.38.76,2.44-3.38-.76,1.15-1.2-1.12.38L243,231l3.61,3.06,1.51-2-3-2.35,2.34-.9-.81-1,2.89-.43-1.65-.39,2.37-2.44.87,2.82.36-.15c.14-.69.27-1.5.43-2.4h0l.1-.1c.38-2.13.82-4.81,1.33-7.94l-.37-.46h.46l.56-3.54L251.62,215l-2-8.14,2,.59.51-.54-2.25-1.52,3.72-1.64-.17,1.84.15-.15.56,1.89-.61-2.61,1.53.44.1-.39.09-.55-1.4-.93,1.64-.76a3,3,0,0,1,.08-.51l-.67-.66.76-.16.39-2.54-.18.59-.62-.62-.19,2.42-3.06-2,2.49-1.17-.79-.8-.91,1.5L251,195.38h1.12l-2-2.06,2-.48-1.08-.37,2.58-2.11-.56-2.26L253,188l-6.32,1.42.11-.32-2.4.71.41,2.34,3.39-.79-1.41,4.69,1.23-.81.15,2.19-1.65-.75-.75,2.5-.63-.65L245,201l-3.06-2,.34-.16-1.48-1.65h-.21V198l-1.37-.65-1.43,1.42,3.29,1.83-7.34,4.24-.1-6.47-.18-.32h.18v-1.39h.18l-.49-1.64-.66,1.1h.25l-2.29,4.43.15.36h-.31l-1.5,2.9-1.78-2.62-.26.79-2.44-3,1.33-.28-1.43-2.09,4-.23-1.32-2.29h7l-.41.67,3.93,1,1.22-.77-.94-1,2.45-.54-.21-.21,2-.48-1.1-.38,3.29-2.68.86-3.62-.56-1-.76-.36.23,3.39-2.32-1.07.41.39-2.5.74,2.67,1.45-2.18,1.25v1l-1-.49L235,193.9v-4.28l-.86.26.81-3.41V186L232.68,182h3.39v-.17l.2.17h.89l.11-.5-1.36-4.93,2.38.6.61-2.56,6.19,5.63-5.83,1.89h.37l-1.21,2,2.26,2,2.47-1.65H243l-1.39.32,1-3.2.5.5h2.71l.28-.18v.18h0v-.17l.18.17h1.25l-.47-1.65-.33-.58h.16l-.87-3.11.94.25v-6.58l-2.65.7,1-3.76,1.94,1.86.63.36.61-2.55-.31-.55-3.39,1,.46-1.91-2.72.8,1.91-8,2.07,1.9.18-.79,2.84,2.55.47-2.08-.66-2.35,1.16.3.14-.61,1,.89,2.83.72.12-.54.85.75.74.2-.26.25,1.5,1.35.18-.78-.23.12v-.41l.2-2.9.66.43.28-1.2,1.89,1.64v-1.64l-2-.46,2-2v-2.75l-3.8,1h0l-.81-4.08-1-1.65-2.42.71-2.5,2.32,1.75,1.65-.79.19-.2,2.33,2.14-2.19-1.65-1.12,1-.48-.46-.81h2.17l1-.42v.44h.59l-.69,1.15-.1,1.14.92,2.32-1.65-.25v1l.91,3-6.37-1.48,1.53-1.65-2.77-1.86,1.06-.48-.45.12.33-1.24-1.53,1.29-1.64-8.81,4.26,1.45.53-2.19-2.21-2.24,3.28-.75L248,135.17l4.15-.24-3.29-2.56-.23.09v-.23l-2.26-1.75,2.8-1,.72-3.67,2.75,2.32.33-.13.79-4-.8-.82-3.3,1,1-4.06L249,118.5l-1.55,4.74-3.81-4,4.93-1.11-1-1.08,2.63-.58,1.78-2.3-.23-.28h-1.65l.66-1.25-.86-1-.29.94-.83-.84-2,4.62-3.58-4.75-.65,1.64.24-.34,2.26,5.1-5.73-.66,2.47-3.19-2.06-2.5-.29,1-2.87-2.94-1.74.39.33-1h-.3l.48-.58L235,108l.56-.14,1.22-3.88,2.81,3,1.73-.4h.12l.18-2.53,2.63,1.71,3.29.74-.33.33.14.62,2.81-.66-1-.95.9-.21h.15l5.32-1.24,1.74-.54-.49,2.14,3.29-.35,1.25-1.1.2.94,2.93-.31v-.43l-1.17.34,1-4.34,3.29,3-1.32.38,1.65.68.2-.38.41.62.28.1-.13.12,1.35,2c.7-4.72,1.31-8.85,1.81-12.16l-.65,1-1-1.65-6.59.33,2.75-5.25-2.2,1.64-.22-2.1L260.81,96l2.25,3.64,4.25-3.29.16,1,1.85-1.64L270.6,101l-2.66-.77.31,1.84-4.94-1.81.12.18-6.85.17v.16l-.15-.16h-1.17l.45-.77-1.32-1.37L253,98.27l.56-.72-1.46-1.5-5.78,3.29v-.9l-2.94,1,.18,1.76,1.28,1.64-1.13.14v.13l-.47-.2-7.58.94,3.52-8.23-4,2.19V92.68l-.67-3.61.46.15.18-1.35H223.3l-.49.15v-.15H144.08c.1.67.23,1.65.4,2.63,3.29,22.21,18.42,124.14,21.25,138.14A17.49,17.49,0,0,0,178.89,243a19.09,19.09,0,0,0,5.2.68H212.6l-1.32-5.63,4.42,1.27,1.15-1.19-.56.17,1-4.23,2.57,2.32.86-1.65,3.09,4.63,1.09-1.14,1,3.21-.8-.18.24.39-5.9.3.36,1.18-2.69-.6-1.2,1.08h16.92A19.46,19.46,0,0,0,238,243l-4.18.22,3.85-7.34,3.91,5.82a16.77,16.77,0,0,0,7.7-7.4Zm-1-56.27.13,2.19-2-1Zm0-77,3.16,1.84.28-.3L247,100l5.5-1.21L250.83,104l-.65-.69.56,1.65-2.88-.68-2.13,1.15Zm-3,121.79,2.47-3.29-2.47-3,4.26-.64-1.07,2.66.26-.32,2.26,5.15Zm7.62-27.3,1.12,1.89h-2.26Zm-1.22,4.93-1.25,4.12-3-3.11Zm-6.58,3.3-.23.79,1.2-.55-.36,4-1.65-1.05-.23.75,2.52.74L245,207l-.58.15,1-4.22,3.29,3-2.43.72.09.35.27-.12v.76l.46,1.5.54.16-.39.35L248,212l-2.67-.61-3.83,3.54-1.07-4.31-.22.71-.9-.94-.13.34-3.3-3.68H236l-1.55-1.65Zm-9.48,9.87,1-3.75,2.83,2.73Zm2.12,1.75-2-1,1.88-1.21Zm-.66-9.88-2.25,4.2-2.64-4Zm-2.86,7.8-1.9,3.1L228,213h1.65L228,210.29h3.71L230,213Zm-13.17,6.59.51-.6,1.37-4.38,4.28,4.43,2.94-1.33-.43-1.55,3.95,1L228.29,220l-.17-.59-.18,2-3.11-2.12-6.32,1.42.33-1Zm10.73-14.59-2.07.63,1.89,1.64.76.27-.22.18,1.17,1-3.88,1.35.36,3.84L224,212.48l-1.15.92-1.19-6-.53.16v-.31l-2.46,1.37v-1.65l-2.93-3.06v5.89l-5.47-3.16,5.35-2.91-2.06-2.11,5.25-1.23h0l2.82-.66-.56,1.93,1.27.72.67-2.88Zm-11.37,8.05.28,4.13-3.29-1.64-1.4.31,1-3.29,1.57,1.64Zm-2.16-2.9,1.88-1.21.13,2.19Zm-6.91-26.71,3.72-1.64-.35,4Zm1.09,17.79-3.87,1,1-3.77Zm8.65-2.28-8.09,2.4,1.9-8Zm10.67-7.56.13-1.83-5.45-4.21-3,.68,2.72,2.45-8.12,2.4,1.91-8,1.48,1.35,1.14-3.66,2.84,3,2.23-2.4-3.81-.89,4.48-4.61,1.14-1.38,1.46,3.74h-.13l1.65,4.93,1.74-.69-1,6.59,1.64,1.05Zm-7.75-58,3.86-3.54,1.22,5Zm11.22-5.83,1-4.21,3.29,3-2.45.72.12.35.26-.13v.77l.25.81h1.77l-1.16,1.94.49,1.65-1.32-.32-1.64,2.62-1-1.78-2.6,2.39-2-8,4.39,1.27,1.17-1.2Zm-1.27,15.72-2,3.16-1.86-3.29Zm0-15.13L228,126l3.72-1.65Zm-4.06-10.42,1.12-1.89,1.13,1.89Zm6.94,53.28,1-3.75,2.83,2.75Zm.46-3.64.58-2.43-.21.2-1.07-3.84,2,.53.47-1.93-4.83-3.7h.2l-.36-.25,2-.9v.54l4.54-1.76-2.93-2.24-.31,1-3.1-3.29,4.4-1-.28.93,5.51-2.14-.61,4-.29,3.29-.19-.13-.14,1-.71-.54-.92,6.2,4.41,4Zm8.35-21.39-3.64-3.72-2.91,1,.18.43-1.07-.13-.69.23.11,1.64-2.05-1h-.22l.27-1.25L231,143l2.47-3.29-2.47-3,4.26-.64-.74,1.86,4.61,3.9L237.34,140l8.13-1.9Zm-3.29-20.31,5.33,4.52-1.65.55.14,2-2.72-1.18-2.58.84ZM236.43,112,235,116.62l1.22-.79.14,2.19-1.56-.76-.54,1.77,4.75-1-1.64,5.23-.55-.56L236,125l-3-3.15,2.45-.57-1.48-1.55-.62-.63-.18,2.42-3-2,2.49-1.17-.56-.6-.4.1-.72,1.19L229.11,116h1.12l-2-2,2-.48-1.08-.39,3.29-2.73.46,2.48Zm-1.87-5.4-3.29-1.65-1.42.31,1-3.19,1.55,1.65,1.94-1.25ZM234,98.34l.15,2.19-2-1ZM223.45,87.9l2.83,2.73-4,1Zm-13.53,1.65-.48,2.14,3.29-.36L214,90.24l.2.92,2.93-.31L216.85,89l3.82,1.5.19-.38.41.61.28.11-.14.1,4.06,6.09-2.86.15,1.64.15h0l.48.13,6.32.61-.66.84.66.14-.43.43,1.06.15-2.54,3.13-.54-1.29-.43.43-.59.81h.16l-1.2,2,3.79,3.44-8.12,2.4.46-1.91-7.39,2.88,1.44-9.87,6.15,4.67-2.15-3.7H224v-.18l.18.16-1-2.09-2.53-.58,1.53-1.64-.51-1.1-4.94.24,2.76-5.25-2.2,1.65L217,91.72l-3.49,8.12L210,95.08l-.67,1.64.26-.34,2.25,5.1-5.72-.67,2.45-3.2-2.06-2.5-.29,1-4.51-4.63L208,90Zm-9.58,13.17,5.5-1.21-1.65,5.24Zm4.2,110.5h3.29V213l.2.18h1.11l-1.51-5.35,6.85,1.65-3.66,3.88h.63l-1.2,2,3.78,3.44-8.11,2.4.9-3.75Zm6.58,15.24,1.12-1.91,1.13,1.89Zm4.07,10.44-3.4-2.29,3.72-1.65ZM214,230.17l2.49-1.17-.79-.8-.91,1.49L213,226.57h1.12l-2-2.08,2-.47-1.09-.38,3.39-2.75.44,2.5,3.4-.79-1.44,4.68,1.24-.81.15,2.2-1.65-.75-.76,2.48-.64-.66-.18,2.42Zm6,5.45-3.1-3.13,4.3-1Zm2.22-9.36,1-4.23,3.29,3Zm5,14.31,3.45-4.49,2.06,5.3Zm6.09-7.29-2.7-3.29,4.26-.64ZM232,225.19l2-.89-.18,2.09Zm.13-6.37,4.3-1-1.25,4.12Zm4.07,3.7,4.51-4.63,1.81,6.06ZM238,227l2.37-2.44,1,3.29Z"/><path class="h" d="M244.45,197.81l-.81-.8-.9,1.5v.13Z"/><path class="h" d="M254.55,187.07l-1.23-.83.26-.11-.57.16.49.43-1.28.43.66.67h.26Z"/><path class="h" d="M256.78,126.17l2.35,2-.79-4.1,1.65.58,1.64-.74v.54L266,122.8l-.77-1.14-1.53.46.48-2-.56-.82-.68,2.22-3.11-3.19,2.7-.64-1-1.52,4.08-.36-2.45-1.89v.34l-.91-.44h-1.35v0h-.51l.21-.43-1-1.3-1.12,1.83.77,1.77-2-.23-.29.63-.56-.72-2.39-.28,1.24,2.79-2.77-.33-1,3,.15.11L259,119Zm4-6.24,3.29,3-4.38,1.3Z"/><path class="h" d="M271.13,92.81v.11h.44Z"/><path class="h" d="M244,107l-.2-.66-.9.44-.2.81Z"/><path class="h" d="M252.83,181.37l-.1.17,1.53,1.64,1-.66Z"/><path class="h" d="M259,180.48l.12-.7-.33-.33-.1,1.23Z"/><path class="h" d="M255.49,179.81h.13l-.46-.22.27,2.84.29-.3.56-1.79Z"/><path class="h" d="M264.64,142.92c.25-1.66.49-3.31.74-4.93l-.11-.17-2.34,4.51Z"/><path class="h" d="M256.27,179.33l-.3-.53v.76l2-.92-.66-.68-.28.1Z"/><path class="h" d="M272.51,90.24a4.8,4.8,0,0,1,.13-.87L271,88.89l1.12-1h-1.58l.82,2.65Z"/><path class="h" d="M268.73,115.64c.13-.86.26-1.65.37-2.54l-1.33,2.21-.87-1.52-.28,2Z"/><path class="h" d="M255.15,90.16l-.61-.53-.63.81-.44,1.43,2.66-.4Z"/><path class="h" d="M260.22,87.84h-3.85l-.25,1.08,3.29-.34Z"/><path class="h" d="M253.81,179.18l-.13.13.25-.18Z"/><path class="h" d="M256.76,92.3l-.43,1.1,1.06-.26Z"/><path class="h" d="M276.23,87.39H140.71V90H276.23Z"/><path class="i" d="M204.7,243.62H190.88a108.72,108.72,0,0,1-12-.66h0a17.52,17.52,0,0,1-13.17-14.42c-2.84-13.94-18-115.87-21.26-138l7.36-.4s14.91,119.15,19.61,136.48A15,15,0,0,0,179,236.89C188.88,241.94,204.7,243.62,204.7,243.62Z"/><path class="j" d="M208.52,138.74l.21.27c.92,1.23,1.83,2.48,2.72,3.77.26.39.51.8.76,1.21-.93.42-1.85.83-2.79,1.21h0l-.41.21a27,27,0,0,0,2.82,1.22c1.64.62,3.19,1.18,4.74,1.86s2.94,1.15,4.44,1.64h.25l.15-.44c.31-1,.62-1.89,1-2.83l1.14-3.29a3.6,3.6,0,0,1,.34-1c.25-.66.46-1.29.69-2s.35-.95.53-1.41h0a2.78,2.78,0,0,0,.16-.4,6.3,6.3,0,0,1-1,.38c-.75.33-1.64.61-2.33.89-.74-1-1.45-2-2.18-3a26.62,26.62,0,0,0-2.37-2.93c-.36-.36-.9-.64-1.3-1a1.88,1.88,0,0,0-.95-.31A67.1,67.1,0,0,0,208,133a54,54,0,0,0-5.83.08,4.21,4.21,0,0,0-1.83.2,2.72,2.72,0,0,0-.71.51h0a53.2,53.2,0,0,0-4.83,5.55l-1.65,1.82.3.23h0c1.51,1,2.93,2.13,4.37,3.16a40.89,40.89,0,0,0,4.12,2.92h0l.61.39c.08-.11.16-.26.24-.39.61-1,1.32-2,2-3.06s1.22-1.95,1.83-2.9a19.64,19.64,0,0,1,1.91-2.7Zm-5.81-4.7c-.41-.14-1.07-.45-1.51-.3s-.15,0-.43,0h0c.34,0,.56-.26.94-.21l.83.16a5.08,5.08,0,0,1,1.93.89,19.41,19.41,0,0,1,3.82,3.7s-.1.25-.18.17c-.56-.51-1-1.11-1.53-1.65s-1.22-1.08-1.85-1.64a5.7,5.7,0,0,0-2-1.21Z"/><path class="j" d="M194.18,159.09a.38.38,0,0,1,.12-.32c.57-1.43,1.18-2.85,1.83-4.24.19-.43.42-.86.64-1.27l2.55,1.65h0l.41.21a27,27,0,0,0-.46-3c-.31-1.64-.68-3.29-.92-4.93a43.41,43.41,0,0,0-1-4.5v-.24l-.47.11c-1,.26-2,.51-3,.74l-3.46.86a4.52,4.52,0,0,1-1.09.24l-2,.48-1.52.35h-.41a8,8,0,0,1,.84.59c.69.44,1.37.95,2,1.43l-1.55,3.56a27.12,27.12,0,0,0-1.28,3.5c-.11.5,0,1.09-.15,1.65a2,2,0,0,0,.23.94c1.19,2,2.6,3.83,3.94,5.72a36.19,36.19,0,0,0,3.29,4.73,3.9,3.9,0,0,0,1.15,1.4,2.72,2.72,0,0,0,.82.31h0a55.56,55.56,0,0,0,7.26,1l2.45.31v-.36h0c0-1.75.28-3.54.4-5.27a37,37,0,0,0,.33-4.94h0a4.09,4.09,0,0,1,0-.7h-7.7a21.43,21.43,0,0,1-3.3-.12Zm-1,7.24c.13.41.2,1.12.58,1.4s.14,0,.28.33h0c-.23-.28-.53-.33-.7-.68a7.28,7.28,0,0,1-.31-.77,4.87,4.87,0,0,1-.26-2,18.54,18.54,0,0,1,1.17-5.1c0-.1.28,0,.24,0-.13.74-.42,1.38-.57,2.12s-.3,1.64-.38,2.35a6,6,0,0,0,0,2.31Z"/><path class="j" d="M232,157.7v-.13a51.37,51.37,0,0,0-2.26-6.71c-.28-.76-.52-1.52-.8-2.27l-.35.13h0c-1.65.77-3.39,1.33-5,2a39.93,39.93,0,0,0-4.7,1.92l-.66.28.23.41c.61,1.06,1.12,2.16,1.64,3.29s1.07,2,1.65,3a19.13,19.13,0,0,1,1.38,2.93h-.34c-1.65.13-3.15.23-4.73.31h-1.46c.11-1,.23-2,.36-2.95h0v-.44a23.27,23.27,0,0,0-2.53,1.64c-1.37,1-2.7,2-4.1,3s-2.54,1.85-3.74,2.83l-.16.19.31.34,2,2.27,2.25,2.65a4.59,4.59,0,0,1,.71.82l1.35,1.57,1,1.18h0l.25.33h0a4.68,4.68,0,0,1,.17-1c.09-.79.26-1.65.42-2.42l3.74-.27a24.66,24.66,0,0,0,3.92-.38c.51-.11,1-.42,1.53-.57a1.75,1.75,0,0,0,.77-.63c1.3-1.89,2.39-4,3.56-6,.95-1.65,2.1-3.15,2.94-4.94a4,4,0,0,0,.78-1.65,2.75,2.75,0,0,0-.1-.85Zm-.56,1.49a7,7,0,0,1-3.16,2.73,10.84,10.84,0,0,1-4.33.64c-.17,0,0-.23,0-.26a24.43,24.43,0,0,0,4.16-.79,8.61,8.61,0,0,0,3.24-2.42h0Z"/><path class="k" d="M267.24,125.43h0v.34h0A1,1,0,0,0,267.24,125.43Z"/><path class="k" d="M255.05,129.46l-.59.2.74.62-1.5.5-.13.92.66-.31-.12,1.21,2.52,2.13h.1l1.79,1.53h.28l-.69-1,4.16-.25-5.81-4.44.48-.18Z"/><path class="k" d="M263.06,151l-1.26-2.19h.51l-.25-.28-1.48,1.25-.2-1-1.07.89,1.17,1.1v-1l2.34,1.35.1-.11Z"/><path class="k" d="M249.34,153.75l-.13,1.09.67-.71Z"/><path class="k" d="M250,159.89l-.66-2.35,1.15.3.15-.61,1,.9,2.83.71.13-.53.84.78.74.19-.25.25,1.48,1.35.19-.77-.23.11v-.41h0l.19-2.9.66.43.3-1.2,1.89,1.65v-1.65l-2-.44,2-2.06v-2.75l-3.79,1h0l-.81-4.08-1-1.64-2.41.7-2.51,2.34h0l1.64,1.65-.79.19-.19,2.33,2.13-2.21L251.05,150l1-.46-.47-.8h2.18l1-.43v.44h.61l-.71,1.16-.1,1.13.92,2.32-1.64-.24v1l.92,3-5.63-1.25-.63,5.12,1.09,1Z"/><path class="k" d="M254.18,113.71v.58l.44-.6Z"/><path class="k" d="M257.55,130.1l1.84-.7-.26-1.31-1.65.56Z"/><path class="k" d="M252.61,128.08l.32-.12.79-3.95-.7-.72-.59,4.67Z"/><path class="k" d="M251.64,134.65V135h.5Z"/><path class="k" d="M262.93,142.33l1.65.59c.24-1.66.49-3.31.74-4.93l-.12-.17Z"/><path class="k" d="M263.85,147.07l-.34.28v.13Z"/><path class="k" d="M262.9,142.32l-3.69-5.42-.79,2.62,2.24,2Z"/><path class="k" d="M263.74,148.82a1.94,1.94,0,0,1,.11-.79l-.56-.1-.31.87Z"/><path class="k" d="M255.49,179.81h.13l-.46-.22.27,2.84.29-.3.56-1.79Z"/><path class="k" d="M260.84,88.41l2.36-.24-1.09-.32h-1.45Z"/><path class="k" d="M252.83,181.37l-.1.17,1.53,1.64,1-.66Z"/><path class="k" d="M258.18,95.18l.32-.58-.11-.13Z"/><path class="k" d="M257.37,93.14l-.63-.84-.42,1.1Z"/><path class="k" d="M254.55,187.07l-1.23-.83.26-.11-.57.16.49.43-1.28.43.66.67h.26Z"/><path class="k" d="M255.1,143.9l-.15-.75,1.94.66v-.11l-2.32-2.39-.71,2.35.32.28Z"/><path class="k" d="M257.17,188.43h-.28l.15-.19-.51.51.36.09.23-.18Z"/><path class="k" d="M255.15,90.16l-.61-.53-.63.81-.44,1.43,2.66-.4Z"/><path class="k" d="M256.12,88.92l3.29-.34.82-.73h-3.85Z"/><path class="k" d="M254.21,175.55l.13-.7-.76-.77,1-.21v-.17l.15.12.9-.22-1.1-.38,2.62-2.13V169l3.29,1.86.1-.64h-.28l.33-1h-.3l.49-.59h0l.2-1.28-1.25-.25,1.55-1.65a8.21,8.21,0,0,1,.18-1.28l-1.65,2.65h0l-1.2,2-1.65-2.83.93,2.73-2.13-.33-6.58,1.95,5.13,2.94-3,1.65Z"/><path class="k" d="M266.9,113.79l-.28,2,2.11-.11c.13-.86.26-1.65.37-2.54l-1.33,2.21Z"/><path class="k" d="M259,180.48a1.42,1.42,0,0,1,.12-.7l-.33-.33-.1,1.23Z"/><path class="k" d="M257.37,178l-.28.1-.77,1.27-.3-.53v.76l2-.92Z"/><path class="k" d="M263.59,119.16l-.67,2.22-3.13-3.18,2.7-.64-1-1.51,4.12-.25-2.45-1.89v.34l-.91-.44h-1.35v0h-.51l.21-.43-1-1.3-1.12,1.83.77,1.77-2-.23-.29.63-.56-.72-2.39-.28,1.24,2.79-1.65-.18-.31,2.59,5.54-1.3-2.14,7.19,2.36,2-.81-4.1,1.65.58,1.64-.74v.54l4.35-1.64-.76-1.14-1.55.46.5-2Zm.51,3.72-4.39,1.3,1-4.33Z"/><path class="k" d="M257.17,103.79l-.49,2.13,3.29-.34,1.25-1.1.2.93,2.93-.31v-.43l-1.17.35,1-4.35,3.29,3-1.34.39,1.65.68.2-.38.41.61.28.11-.13.1,1.35,2c.7-4.73,1.31-8.84,1.81-12.16l-.64,1-1-1.64-6.5.33,2.75-5.26-2.19,1.65L264,89.09,260.81,96l2.25,3.64,4.25-3.29.16,1,1.85-1.64L270.6,101l-2.66-.77.31,1.84-4.94-1.81.12.18-6.85.17v.16l-.15-.16h-.71l-.47,3.88h.11Z"/><path class="k" d="M247.91,169.55l.62-2.56-.33-.55-.43.12-.28,2.73Z"/><path class="k" d="M252.66,181.62l-.15.26h0Z"/><path class="k" d="M247,180.48l-.34-.59h.18l-.5-1.65-.52,3.71H246v.18h0V182l.2.18h1.33Z"/><path class="k" d="M270.54,87.84l.82,2.65,1.09-.25a4.8,4.8,0,0,1,.13-.87l-1.65-.48,1.12-1Z"/><path class="k" d="M258,185.63l.23-.7.3-2-1.51-.74-.84.2.16,2.43.66-.29v.8Z"/><path class="k" d="M247,173.34l-.43,3.52.38.1Z"/><path class="k" d="M267.8,87.85l.12.17.28.11-.13.1.41.64,1-1Z"/><path class="k" d="M233.77,243.24l.79-1.51a6,6,0,0,1-2,1.43,6,6,0,0,1-2.43.52h2.7A19.52,19.52,0,0,0,238,243Z"/><path class="k" d="M236.25,89.66l1.43.5h3.56l-.59,1h2.28L244.58,90v1.09h1.51v-.54l1,.54h2.09l-1.12-3.29h-.51l-.93,1.49-.8-1.51h-.31l.49,1.47-5.91-1.21Z"/><path class="k" d="M262.54,157l-1.93,1,1.55,1.4Z"/><path class="k" d="M246.72,234l1.65,1.45-4.15,1.38.76,2.44-3.38-.78,1.15-1.18-1.12.38L243,231l3.61,3.06,1.51-2-3-2.35,2.34-.9-.81-1,2.89-.43-1.65-.39,2.37-2.44.87,2.82.36-.15c.14-.69.27-1.5.43-2.4h0l.1-.1c.36-2.13.82-4.81,1.33-7.94l-.37-.46h.46l.56-3.54L251.62,215l-2-8.14,2,.59.51-.54-2.25-1.52,3.72-1.64-.17,1.84.15-.15.56,1.89-.61-2.61,1.53.44.1-.39.09-.55-1.4-.93,1.64-.78a2.78,2.78,0,0,1,.08-.49l-.67-.66.76-.16.39-2.54-.18.59-.62-.62-.19,2.42-3.06-2,2.49-1.17-.79-.8-.91,1.5L251,195.38h1.12l-2-2.06,2-.48-1.08-.37,2.58-2.11-.56-2.26L253,188l-6.32,1.42.11-.32-1.82.55-.25,2,.08.48,3.39-.79-1.41,4.67,1.23-.79.15,2.19-1.65-.76-.67,2.54-.63-.66L245,201l-1.3-.88-.44,3.69.23-.1-.36,4-.33-.21v.34l1.08.31,1.17-1.18-.58.16,1-4.23,3.29,3-2.44.72.1.35.26-.12v.76l.46,1.51.55.15-.4.35.74,2.4-2.66-.61-3.3,3-.74,6.17,1.07,3.48-1.43-.33a18.69,18.69,0,0,1-.33,2.42l.53,1.64-.77-.18a43.87,43.87,0,0,1-2.41,8.72l3.61,5.39a16.65,16.65,0,0,0,7.7-7.41Zm3.64-38.74,1.12,1.89h-2.26Zm-2.47,9.06-3-3.11,4.28-1ZM247,215.64l-1.07,2.67.26-.33,2.26,5.15-5.73-.66,2.45-3.29-2.45-3Z"/><path class="k" d="M244.05,197.42V198l.48-.23Z"/><path class="k" d="M256.33,188.28h0v.38h.18Z"/><path class="k" d="M208,90l1.75-.54-.38,1.64h3.29l1.12-1,.2.92,2.93-.31L216.63,89l3.82,1.5.2-.38.41.61.28.11-.15.1.15.21h1.07l.89-3.29,2.81,2.75-2.15.58h10.81L234.38,89l.46.16.18-1.35H223.3l-.49.15v-.15H144.08c.12.83.3,2,.5,3.29h58.56Z"/><path class="k" d="M267.82,112.11h1.43a4.63,4.63,0,0,1,.1-.65l-1.89.09Z"/><path class="k" d="M264.55,107.21h.09l-.18-1.19-.28.63Z"/><path class="k" d="M267.74,120.41l.24.23.15-1Z"/><path class="k" d="M265.7,108.92l1.28-2.44L265,108Z"/><path class="k" d="M261.66,162.66l-.79.25h.76Z"/><path class="k" d="M267.51,120.85l-.79,1.52,1-.38-.41,2.8h0c.2-1.39.4-2.74.59-4.07Z"/><path class="k" d="M253.81,179.18l-.13.13.25-.18Z"/><path class="k" d="M259.48,112.13l-.45-.58-.26.56Z"/><path class="k" d="M272.18,92.82l.1-.69-.46-.47Z"/><path class="k" d="M271.66,92.94l-.53-.13v.11Z"/><path class="k" d="M250.9,178l-.71-2.41-2.89,1.64Z"/><path class="k" d="M255,106.71l-.14,1.16,1.12-.12.1-.08-.39-.53-.61-.52Z"/><path class="h" d="M242.06,62.72l-.54-.95-.43.85Z"/><path class="h" d="M228.91,47.17l.61.51.41-.22V48L232,49.8,234,49A9,9,0,0,0,228.91,47.17Z"/><path class="h" d="M242.26,65.72l-.26.36h.54Z"/><path class="h" d="M233.21,65,233,63.71,236.7,65l-1.35-2.92,5.36.53L237.62,58l-.33.33-.17-.59-.16,2L235,58.46l.6,2.35-2.5-.71-1.42,4.69Z"/><path class="h" d="M214.12,61.78l1.64,1.2h1.43l2,.27-3-.69,4.51-4.63.31,1,.28-.13v.78l1.24,4,6.58.81L227.68,63l-3.08.91,1-4.38-5.11-2.34,1.65-1.1-2.67-2.7,4.28-1-1,3.19L225.13,54l.47,5.36.83-3.5,4,3.67h.37l-.49-.15,4-3.77.34,1.37,1.65-.79-.3-.43h.35l-.58-1.83L232,51.23l-.5.18.13,2L229,52.22l-2.56.84.56-2.8-.53-.31-7.29,2.85.82-5.62h-31.8A8.45,8.45,0,0,0,182,50l-9,16.3,26.9-3.3H214ZM211.28,53l8.12,6.06L210,62.85Z"/><path class="h" d="M227.74,47.17h-1.46l1.27,1Z"/><path class="h" d="M237.75,54.94l-.13-.23-.13.13h0Z"/><g class="l"><path class="i" d="M235.05,53.37a8.39,8.39,0,0,0-6.27-2.91H188.24A8.35,8.35,0,0,0,182,53.31l-9,12.93h71.17Z"/></g><path class="m" d="M233.47,66.34,233,63.71,236.7,65l-1.35-2.92,1.86.18-1.91-2.75.33,1.32-2.5-.71-1.88,6.24Z"/><path class="m" d="M213.51,66.33l.62-4.55,6.08,4.55h2.37L221.79,65h3.68l-.8,1.33h2.81l-.49-.23,1.84-1.22.1,1.45h2L227.6,63l-3.08.91,1-4.38-5.1-2.34,1.64-1.09-2.6-2.73,4.28-1-1,3.19L225.13,54l.47,5.36.83-3.5,4,3.67h.37l-.49-.15,2.93-2.72-1.22-1.74a7.23,7.23,0,0,0-4-2.31l-1.65.55.15-.73h-6.17l-1.22.48v-.48H190.46A7.47,7.47,0,0,0,185,54.89l-8,11.52Zm7.19-8.4.33,1,.26-.12v.76L222.64,64l-6.42-1.46ZM211.32,53l8.1,6.08L210,62.85Z"/><path class="k" d="M181.66,59.59,177,66.34h63.15l-4.69-6.75Z"/><path class="h" d="M254.54,89.63l-.23.3h.57Z"/><path class="h" d="M263.51,90H264l-.11-.86Z"/><path class="h" d="M236,81.86l.2-1.45,4.94,3.64,2.42-2.62.66,2h1.66L244.78,82l4.62-.49.74-.66.14.57,1.08-.11V78.49h-3.87l1.21.79-3.07,1.46.15-2.25H227.86l.85,2.81,3.61-1.17.31-1.28,1,.87,2.22-.71-.48,2.29Z"/><path class="h" d="M256.12,88.92l3.29-.34,1.25-1.11.2.94,2.35-.24-1.28-.38,1.23-1.12L262,86.4l.52.79-6.09.3Z"/><path class="h" d="M265.83,90h.36l.23-.43Z"/><path class="h" d="M237,90h11.86l-.9-2.62-1.24,2-1.64-2.78.92,2.74-5.89-1.2-3.92,1.65Z"/><path class="h" d="M209.8,89.52l-.16.44h7.13l-.15-.91,2.32.91h3.87l.54-2.06L225.5,90h9.12l-.16-.89.46.17.51-3.71-1.05.32-.27,1.28-1.05-.91-2.35.71.54-2.27-3.51-3,.55-.17-2.62-.61,5.22,4.74L222.81,88l1.77-7.39-2.17-.51,1.53-1.64H140.71V90h67.74Z"/><path class="h" d="M266,78.44v2.4l-3.87-2.24.2-.16h-4.58l.91.51-2.18,1.25v1l-.74-.33-1.64,1.76-1,2.24.87.23,2.32-1.52L258,80.33l3.46,5.19,3.87-4,.42,1.4.53-2.6L269.45,83l1.73-.94v2.37l.51.41-.51.18v1.42l-1.65-.91-2.7.91.36,1.18h-.37l.54.22.2-.38.41.61.28.11-.13.1.41.64L270.39,87l.9,3h2.54l.43-.1-3.3-.94,4-3.69.35,1.37.95-.45V80.71l-4.44-1.65.69-.56Z"/><path class="h" d="M228.2,82l-.42-.37.54-.17-2.62-.61L227,82Z"/><path class="h" d="M255.51,81.19h.77l-.56-.28Z"/><path class="h" d="M236.14,63.79h-3l3.5,1.19Z"/><path class="h" d="M204.7,82.7l3.79-.11,3.78.11v-.23l12-.36.36-1.53-2.17-.5,4.51-4.62.33,1,.26-.12v.77l1.28,4.17,3.61-1.17.29-1.28,1,.87,2.26-.73-.49,2.31.49.44h0l.18-1.35,1.65,1.3,5.45-.16.1-.12v.12l6.09-.18.56-.54.13.54h1.08V76.32l-3.72-1.39.12.18h-2v2l-3.29-1.89h-.28l.79,2.51-5.14-1.16.53,1.64-3.39-.77,2.44-2.27.09.33L241,71.77l.08-.1-1.27-2.18h2.92l.62-1.14,1.88,3,.69-2.53,2.81,2.73-2.91.78,1.42,2.25,4.24-3.29.74,4.38,1,.52.44-.46.27.84,4.8,2.62-2.17,1.25v.87h.89l.43-.84.57.81,7.41-.21L262,78.87l4-2.14-.09,4.33h.17l.11-.58.66.54,5.71-.16-4.93-6.75-.38-.15.11.18-8.23.2,3.76-6.7a7.9,7.9,0,0,0-6.77-3.78h-.29l.09,1.08,5.45,4.94-4.71,1.4h0l-4.13,1.65.32-2.19-6.21-1.44,1.88-1.94-.92-1,2.35-.46,1.18-1.2.25.92,1.17-.23-.66,1.88,1,3.11.24-1.75.84.63.84-3.56-3.85-1.76h-7.29l-.49.66,3.16-.13-2.18,4.11-1.82-2.79-.69.9h.08l-.23.2-2.37,3.21-.41-.89-3.95,3.29-1.65-8.74h-1l-.85,2.85-2.83-2.77H225l-.43.12v-.13h-2v.28l-1.2-.28h-4.64l5.49,4.11-9.44,3.79,1.08-7.92h-8.92c-13.17,0-40.77.16-44.12,0A7.86,7.86,0,0,0,154,67.63l-9.66,13.16,60.37,1.76Zm41.15-5.25,2.81,1.84-3,1.49ZM228.9,64.88l.14,2.2-2-1Zm1.11,5-.95,3.2,2.32-1.65.48,5.46-5.14-2.33.61-.41-2.14-1.47,1.65-.76-1.14-1.13ZM221.79,65h3.7l-1.89,3.09Z"/><path class="h" d="M265.6,71.1,267,73.35l.15-.11Z"/><path class="i" d="M276.23,78.44H140.71V80H276.23Z"/><path class="i" d="M165,64.61c-6.84,0-9,3.62-9,3.62l-6.84,8.56H159.9c3.13-7,5.22-9.07,14.39-9.69,7.29-.51,71.25-2,78.54-2.45H210.18Z"/><path class="h" d="M306.17,234.24l-5.6,1.64,4.23,3.9Z"/><path class="h" d="M311.68,229.48l-3.29-3.7-1.64,4.61Z"/><path class="h" d="M330,221.12l-5.77.51,3.29,4.61Z"/><path class="h" d="M317.46,196.45l-2.91-2.8-1,3.82Z"/><path class="h" d="M333.21,178.24l1.33-3.86-4.11.82Z"/><path class="h" d="M355.4,176.88l-3.89-3.11-.84,4.82Z"/><path class="h" d="M339.37,172.7l-3.84,1.12,2.9,2.66Z"/><path class="h" d="M325.51,162.87l-5.6-1.22,1.65,5.37Z"/><path class="h" d="M276.48,210.41l-6.83-7.76-3.48,9.63Z"/><path class="h" d="M299.91,199.74,295,195.26l-1.55,6.36Z"/><path class="h" d="M277,184.94l-6.07-5.71-2,8Z"/><path class="h" d="M309.05,144.85l1.3-3.8-4,.8Z"/><path class="h" d="M356.12,144.14l-8.1-6.58-1.77,10.14Z"/><path class="h" d="M322.68,135.42l-8,2.27,6,5.58Z"/><path class="h" d="M340.6,138.58l1.53-3.8-4.11.61Z"/><path class="h" d="M353.67,129.77l1.46-5.71-5.81,1.65Z"/><path class="h" d="M377.52,132.36,379,128.7l-4,.55Z"/><path class="h" d="M379.79,124.41l-2-5.37L374,123.4Z"/><path class="h" d="M365.21,122.66l-4.94.4,2.78,3.88Z"/><path class="h" d="M359.66,110.3l-4.76-2.73v5.35Z"/><path class="h" d="M373.52,88.22l.66-3.69-3.62,1.28Z"/><path class="h" d="M391.31,96.36l1.4-4.62-4.82,1.13Z"/><path class="h" d="M397.88,95.23l-5.35,1.56,4.06,3.7Z"/><path class="h" d="M393.78,92l-4,4.1,5.64,1.32Z"/><path class="h" d="M367.4,90,365,92.74l3.67.61Z"/><path class="h" d="M345.34,90.63l-3.7,4.27,5.59,1Z"/><path class="h" d="M292.21,188.37l-8.51.67,4.94,6.8Z"/><path class="h" d="M305,188.17l-5.81.54,3.3,4.66Z"/><path class="h" d="M278.14,164.65l-3.9-2.27v4.43Z"/><path class="h" d="M293.87,137.08l-2.63,3.1,4.08.67Z"/><path class="h" d="M247.38,137l-7.93,8.94,12,2.19Z"/><path class="h" d="M319.91,59.07l-1.23-5.68-4.45,3.87Z"/><path class="h" d="M330.92,51.58l-.69-4-3.29,2.59Z"/><path class="h" d="M337.61,41.69l-2-4.32-2.85,3.82Z"/><path class="h" d="M352.93,34.84,348.24,34l1.64,4.38Z"/><path class="h" d="M355.28,43.64,353,49l5.94-.79Z"/><path class="h" d="M340,35.1l-1.14,4L343,38.05Z"/><path class="h" d="M319.52,56.29l-1.43,3.91,4.21-.74Z"/><path class="h" d="M306.63,55l-1.94,5,5.45-.87Z"/><path class="h" d="M282.53,55.84l-1.64,4.69,5.05-.9Z"/><path class="h" d="M258.21,57.36l-2.11,5.28,5.76-.86Z"/><path class="h" d="M239.86,68.66,238.54,72l3.52-.51Z"/><path class="h" d="M223.78,71.44l-2.27,5.73,6.23-1Z"/><path class="h" d="M215.1,54.47l2.06-2.86-3.59-.31Z"/><path class="h" d="M237.39,65.81l2.29-3.29-4.05-.29Z"/><path class="h" d="M262.11,55.79l3.7-3.85-5.28-1.2Z"/><path class="h" d="M279.93,69.39l3.77-4.68-6-.8Z"/><path class="h" d="M298.52,63.28l3.29-2.55-4-1.56Z"/><path class="h" d="M294.29,92.13,292.9,96l4.12-.76Z"/><path class="h" d="M277,98.19l-1,4.33,4.35-1.32Z"/><path class="h" d="M253.32,92.89l-1.65,5.2,5.5-1.17Z"/><path class="h" d="M238.18,106.5l-.41,3.62,3.44-1.48Z"/><path class="h" d="M229.83,96l2.51-3.87-4.7-.15Z"/><path class="h" d="M244.71,90.32l3.39-4.11-5.36-.79Z"/><path class="h" d="M261.53,99.16l2-2.9L260,96Z"/><path class="h" d="M278.77,93.25l3.5-3.73-5.15-1Z"/><path class="h" d="M297.51,98.85l2.65-2.78-3.82-.88Z"/><path class="h" d="M306.88,116.15l-.88,4.93,4.86-1.74Z"/><path class="h" d="M297.07,131.35l-.4,4.84,4.53-2.07Z"/><path class="h" d="M280.12,136l-.61,5.34,5.05-2.16Z"/><path class="h" d="M265.14,136.87l4.57-1-3.14-3.37Z"/><path class="h" d="M286.11,133.58l3.55-3.64-4.94-1.17Z"/><path class="h" d="M349.42,198l3.53-1.65-3.3-2.14Z"/><path class="h" d="M359.17,56.6l1.31-3.87-4.11.82Z"/><path class="h" d="M381.34,55.23l-3.82-3.13-.84,4.83Z"/><path class="h" d="M375.36,76.35l3.52-1.65-3.29-2.14Z"/><path class="h" d="M328.14,135.06l-5.59,1.64,4.23,3.9Z"/><path class="h" d="M311.11,104l-3.29-3.7-1.65,4.6Z"/><path class="h" d="M322.71,97.83l-5.79.51,3.29,4.62Z"/><path class="h" d="M310.12,73.16l-2.91-2.75-1,3.82Z"/><path class="h" d="M292.46,88.08l-3.29-3.78L287.52,89Z"/><path class="h" d="M303.24,76.33l-7.36.64,4.28,5.86Z"/><path class="h" d="M342.1,74.7l3.5-1.64-3.29-2.14Z"/><path class="h" d="M281.33,158l1.34-3.87-4.12.82Z"/><path class="h" d="M303.45,156.62l-3.88-3.13-.84,4.82Z"/><path class="h" d="M287.47,152.5l-3.82,1.11,2.9,2.66Z"/><path class="h" d="M273.63,142.63,268,141.41l1.73,5.37Z"/><path class="h" d="M297.54,177.72l3.51-1.65-3.21-2.17Z"/><path class="h" d="M293.41,171.74l-1.64,5.43,5.66-1.33Z"/><path class="h" d="M320.27,168l-2.91-2.75-1,3.82Z"/><path class="h" d="M336,149.75l1.34-3.86-4.14.8Z"/><path class="h" d="M342.18,144.27l-3.83,1.11,3,2.61Z"/><path class="h" d="M328.34,134.4l-5.66-1.24,1.64,5.39Z"/><path class="h" d="M275.47,150.5l-1.87-1.78-.64,2.47Z"/><path class="h" d="M333.33,125.61l2.23-1.53L333.08,123Z"/><path class="h" d="M319.06,120l-3.3-.41,1.26,2.91Z"/><path class="h" d="M343.42,110.09l1.53-3.8-4.15.61Z"/><path class="h" d="M328.14,175.22l-10.35.82,5.91,8.23Z"/><path class="h" d="M307.8,159.68l-5.81.46,3.29,4.66Z"/><path class="h" d="M297.25,106.86l-5.07,5.94,7.83,1.29Z"/><path class="h" d="M282.93,107.5l-.61,5.32,5.05-2.14Z"/><path class="h" d="M331,106.57l-5.59,1.64,4.23,3.9Z"/><path class="h" d="M258.21,217.7l1.33-3.87-4.11.82Z"/><path class="h" d="M280.41,216.33l-3.88-3.11-.84,4.82Z"/><path class="h" d="M264.36,212.15l-3.83,1.1,2.9,2.69Z"/><path class="h" d="M281.14,183l-4.58-3.65-1,5.66Z"/><path class="h" d="M265.6,178l1.53-3.8-4.15.61Z"/><path class="h" d="M302.45,171.81l1.53-3.65-4,.54Z"/><path class="h" d="M304.79,163.86l-2-5.37L299,162.86Z"/><path class="h" d="M290.29,162.12l-4.86.39,2.78,3.88Z"/><path class="h" d="M286.34,146.48l-4.74-2.75v5.35Z"/><path class="h" d="M298.52,127.67l.65-3.69-3.62,1.3Z"/><path class="h" d="M292.39,129.33,290,132.11l3.66.61Z"/><path class="h" d="M270.34,130.09l-3.7,4.21,5.59,1Z"/><path class="h" d="M255.92,91l-.69-4-3.29,2.6Z"/><path class="h" d="M280.28,83.1,278,88.48l6-.79Z"/><path class="h" d="M274.42,237.45l3.52-1.65-3.29-2.14Z"/><path class="h" d="M284.16,96.05l1.32-3.87-4.11.82Z"/><path class="h" d="M306.33,94.68l-3.88-3.07-.84,4.82Z"/><path class="h" d="M300.36,115.8l3.52-1.65L300.59,112Z"/><path class="h" d="M267.1,114.15l3.5-1.64-3.29-2.14Z"/><path class="h" d="M261,189.21l1.27-3.79-4.13.81Z"/><path class="h" d="M267.24,183.66l-3.83,1.1,2.9,2.69Z"/><path class="h" d="M268.41,149.54l1.53-3.8-4.14.61Z"/><path class="h" d="M256,146l-5.58,1.64,4.21,3.91Z"/><path class="h" d="M284.16,129.46l1.32-3.87-4.11.81Z"/><path class="h" d="M306.33,128.11,302.45,125l-.84,4.82Z"/><path class="h" d="M290.29,123.93l-3.84,1.12,2.9,2.67Z"/><path class="h" d="M300.36,149.21l3.52-1.64-3.29-2.14Z"/><path class="h" d="M296.23,143.25l-1.65,5.42,5.66-1.32Z"/><path class="h" d="M300,214l-2.91-2.74-1,3.82Z"/><path class="h" d="M315.73,195.79l1.34-3.88-4.12.82Z"/><path class="h" d="M321.87,190.24l-3.82,1.11L321,194Z"/><path class="h" d="M308,180.48l-5.65-1.21,1.73,5.36Z"/><path class="h" d="M259.49,202.49l-6.07-5.73-2.06,8Z"/><path class="h" d="M274.9,125.08l2.78-8.09-8.61,1.64Z"/><path class="h" d="M305.2,153l-8,2.29,6,5.58Z"/><path class="h" d="M323.11,156.11l1.54-3.79-4.16.61Z"/><path class="h" d="M275.67,205.9l-10.37.83,5.93,8.23Z"/><path class="h" d="M287.49,205.71l-5.81.47,3.29,4.65Z"/><path class="h" d="M258.67,182.13l-5.05-2.91-.09,5.69Z"/><path class="h" d="M274.29,155.3l-2.57,3,3.95.64Z"/><path class="h" d="M262.64,153.52l-.61,5.34,5-2.16Z"/><path class="h" d="M310.68,152.59l-5.58,1.56,4.23,3.9Z"/><path class="h" d="M263.85,175.55l1.34-3.89-4.13.82Z"/><path class="h" d="M286,174.15,282.16,171l-.84,4.82Z"/><path class="h" d="M270,170l-3.82,1.1,2.88,2.68Z"/><path class="h" d="M280.07,195.3l3.5-1.65-3.29-2.14Z"/><path class="h" d="M275.92,189.27l-1.65,5.43,5.66-1.31Z"/><path class="h" d="M269.43,170.41l-1.64,5.1,5.38-1.17Z"/><path class="h" d="M245.34,174.84l-1.78,5.64,5.84-1.28Z"/><path class="h" d="M228.91,178.69l-1.07,4,4.08-1.07Z"/><path class="h" d="M209.8,182.29l.12,5.9,5.18-3.05Z"/><path class="h" d="M210.23,189.55l4.59-4.13-6-1.78Z"/><path class="h" d="M258.54,192.42l4.85-1-3.29-3.58Z"/><path class="h" d="M252.6,217l-1.21,5.71,5.68-1.84Z"/><path class="h" d="M233.78,217.88l-1.3,5.35,5.42-1.65Z"/><path class="h" d="M223.2,222.55l5.81-1.64-4.36-4.09Z"/><path class="h" d="M235.64,220.3l3.48-4.28-5.53-.78Z"/><path class="h" d="M260.91,222.4l2.33-2.66-3.55-.64Z"/><path class="h" d="M277,234.53l4.94.32-2.21-4.33Z"/></svg>