<svg width="230" height="214" viewBox="0 0 230 214" fill="none" xmlns="http://www.w3.org/2000/svg">
<g style="mix-blend-mode:multiply" opacity="0.6">
<path d="M114.292 213.954C134.691 213.954 151.227 213.303 151.227 212.5C151.227 211.696 134.691 211.045 114.292 211.045C93.8938 211.045 77.3575 211.696 77.3575 212.5C77.3575 213.303 93.8938 213.954 114.292 213.954Z" fill="#C4C6C8"/>
</g>
<path d="M144.755 200.514H84.1483V204.986H144.755V200.514Z" fill="#1D1D1B"/>
<path d="M86.9784 210.402C86.9784 211.009 86.7305 211.591 86.2892 212.021C85.8478 212.45 85.2491 212.692 84.6245 212.693V212.693C84.3151 212.693 84.0088 212.633 83.723 212.518C83.4372 212.403 83.1775 212.234 82.9589 212.022C82.7403 211.809 82.567 211.556 82.4489 211.278C82.3308 211.001 82.2703 210.703 82.2707 210.402V193.09C82.2707 192.483 82.5187 191.901 82.9601 191.473C83.4016 191.044 84.0003 190.803 84.6245 190.803C85.2485 190.803 85.8467 191.045 86.2879 191.473C86.7292 191.902 86.9775 192.483 86.9784 193.09V210.402Z" fill="#4F514F"/>
<path d="M84.6246 212.926C83.9361 212.925 83.276 212.659 82.7891 212.185C82.3023 211.712 82.0284 211.071 82.0275 210.402V193.09C82.0148 192.751 82.0726 192.413 82.1973 192.096C82.322 191.779 82.5111 191.49 82.7534 191.246C82.9956 191.002 83.286 190.808 83.6072 190.675C83.9284 190.543 84.2739 190.474 84.6228 190.474C84.9718 190.474 85.3173 190.543 85.6385 190.675C85.9597 190.808 86.2501 191.002 86.4923 191.246C86.7346 191.49 86.9237 191.779 87.0484 192.096C87.1732 192.413 87.2309 192.751 87.2182 193.09V210.402C87.2182 211.071 86.9451 211.712 86.4588 212.185C85.9725 212.658 85.3128 212.925 84.6246 212.926V212.926ZM84.6246 191.032C84.0642 191.033 83.527 191.25 83.1308 191.635C82.7345 192.02 82.5115 192.542 82.5106 193.086V210.399C82.4991 210.675 82.5453 210.951 82.6462 211.21C82.7472 211.469 82.901 211.705 83.0982 211.904C83.2955 212.104 83.5323 212.263 83.7942 212.371C84.0562 212.48 84.3381 212.536 84.6228 212.536C84.9076 212.536 85.1895 212.48 85.4515 212.371C85.7134 212.263 85.9502 212.104 86.1475 211.904C86.3447 211.705 86.4985 211.469 86.5995 211.21C86.7004 210.951 86.7466 210.675 86.7351 210.399V193.086C86.7351 192.542 86.5129 192.02 86.1172 191.635C85.7215 191.25 85.1846 191.033 84.6246 191.032V191.032Z" fill="#231F20"/>
<g style="mix-blend-mode:multiply" opacity="0.4">
<g style="mix-blend-mode:multiply" opacity="0.4">
<path d="M82.2228 207.502V210.402C82.2228 211.009 82.4708 211.59 82.9122 212.019C83.3536 212.448 83.9523 212.689 84.5766 212.689C85.2009 212.689 85.7996 212.448 86.241 212.019C86.6824 211.59 86.9304 211.009 86.9304 210.402V207.502H82.2228Z" fill="#2A2B2A"/>
</g>
</g>
<g style="mix-blend-mode:multiply" opacity="0.4">
<g style="mix-blend-mode:multiply" opacity="0.4">
<path d="M84.6245 190.799H84.5766V212.683H84.6245C85.2491 212.682 85.8478 212.44 86.2892 212.011C86.7305 211.581 86.9784 210.999 86.9784 210.392V193.08C86.9757 192.475 86.7266 191.895 86.2855 191.468C85.8445 191.041 85.2474 190.8 84.6245 190.799V190.799Z" fill="#2A2B2A"/>
</g>
</g>
<path d="M146.314 210.402C146.314 211.009 146.066 211.591 145.625 212.021C145.183 212.45 144.585 212.692 143.96 212.693V212.693C143.336 212.692 142.737 212.45 142.296 212.021C141.854 211.591 141.606 211.009 141.606 210.402V193.09C141.607 192.483 141.856 191.902 142.297 191.473C142.738 191.045 143.336 190.803 143.96 190.803V190.803C144.584 190.803 145.182 191.045 145.624 191.473C146.065 191.902 146.313 192.483 146.314 193.09V210.402Z" fill="#4F514F"/>
<path d="M143.96 212.926C143.272 212.925 142.612 212.659 142.125 212.186C141.638 211.713 141.364 211.071 141.363 210.402V193.09C141.363 192.421 141.637 191.779 142.124 191.305C142.611 190.832 143.271 190.566 143.96 190.566C144.649 190.566 145.31 190.832 145.797 191.305C146.284 191.779 146.557 192.421 146.557 193.09V210.402C146.556 211.071 146.282 211.713 145.796 212.186C145.309 212.659 144.649 212.925 143.96 212.926V212.926ZM143.96 191.032C143.4 191.033 142.863 191.25 142.466 191.635C142.07 192.02 141.847 192.542 141.846 193.087V210.399C141.846 210.944 142.069 211.466 142.465 211.851C142.862 212.237 143.399 212.453 143.96 212.453C144.521 212.453 145.059 212.237 145.455 211.851C145.851 211.466 146.074 210.944 146.074 210.399V193.087C146.073 192.542 145.85 192.02 145.454 191.635C145.058 191.25 144.521 191.033 143.96 191.032V191.032Z" fill="#231F20"/>
<g style="mix-blend-mode:multiply" opacity="0.4">
<g style="mix-blend-mode:multiply" opacity="0.4">
<path d="M141.606 207.502V210.402C141.606 211.009 141.854 211.59 142.296 212.019C142.737 212.448 143.336 212.689 143.96 212.689C144.584 212.689 145.183 212.448 145.625 212.019C146.066 211.59 146.314 211.009 146.314 210.402V207.502H141.606Z" fill="#2A2B2A"/>
</g>
</g>
<g style="mix-blend-mode:multiply" opacity="0.4">
<g style="mix-blend-mode:multiply" opacity="0.4">
<path d="M143.665 190.829C143.098 190.897 142.576 191.164 142.197 191.579C141.819 191.995 141.61 192.531 141.61 193.086V210.399C141.61 210.954 141.82 211.49 142.198 211.907C142.576 212.323 143.098 212.59 143.665 212.659V190.829Z" fill="#2A2B2A"/>
</g>
</g>
<path d="M147.356 147.475L145.122 144.179L144.639 145.777L146.006 147.019L147.356 147.475Z" fill="#13AB62"/>
<path d="M124.626 173.194L123.389 172.941L123.9 173.474L124.626 173.194Z" fill="#13AB62"/>
<path d="M142.679 140.158L141.771 140.461L141.689 141.02L142.086 140.837L142.021 141.569L143.549 142.861L143.607 142.858L143.59 142.894L144.683 143.82L144.854 143.78L144.433 143.161L146.955 143.017L143.429 140.314L143.717 140.201L142.586 139.658L142.23 139.778L142.679 140.158Z" fill="#13AB62"/>
<path d="M147.869 151.421L147.941 150.945L147.599 150.878L147.41 151.417L147.869 151.421Z" fill="#13AB62"/>
<path d="M150.014 137.211L149.987 137.168L149.956 137.384H149.99L150.014 137.211Z" fill="#13AB62"/>
<path d="M147.938 150.359L147.732 150.528L147.705 150.608L147.938 150.359Z" fill="#13AB62"/>
<path d="M153.029 116.966L152.748 116.679L152.968 117.385C152.995 117.241 153.016 117.101 153.029 116.966Z" fill="#13AB62"/>
<path d="M144.412 173.79L144.546 173.36L144.731 172.159L143.806 171.716L143.299 171.832L143.398 173.314L143.799 173.131L143.755 173.62L144.412 173.79Z" fill="#13AB62"/>
<path d="M141.144 171.35L141.048 171.51L141.086 171.543L141.144 171.35Z" fill="#13AB62"/>
<path d="M125.431 169.066L125.393 169.678L125.476 169.938L126.171 169.179L125.431 169.066Z" fill="#13AB62"/>
<path d="M150.295 135.12L150.042 136.818H150.076C150.199 135.982 150.322 135.159 150.443 134.351L150.165 134.435L149.685 135.36L150.295 135.12Z" fill="#13AB62"/>
<path d="M125.023 186.308L125.054 186.132L124.763 186.218L125.023 186.308Z" fill="#13AB62"/>
<path d="M140.4 170.299L140.393 170.268L140.363 170.299H140.4Z" fill="#13AB62"/>
<path d="M150.539 133.719L150.302 134.178L150.449 134.315C150.48 134.102 150.511 133.902 150.539 133.719Z" fill="#13AB62"/>
<path d="M146.588 159.987L146.609 159.837L146.129 159.98L146.588 159.987Z" fill="#13AB62"/>
<path d="M140.866 127.806L140.644 127.51L139.931 128.052L139.862 127.583L139.849 127.603L139.578 128.478L140.596 128.325L140.866 127.806Z" fill="#13AB62"/>
<path d="M144.491 118.834L144.687 118.484L144.621 118.401L144.491 118.834Z" fill="#13AB62"/>
<path d="M142.312 126.185L142.36 126.205L142.278 126.268L142.463 126.544L143.172 126.471L143.227 126.421L142.987 126.101L142.62 125.778L142.312 126.185Z" fill="#13AB62"/>
<path d="M150.347 129.118H151.224L151.296 128.725L150.141 128.785L150.347 129.118Z" fill="#13AB62"/>
<path d="M148.356 126.138L148.418 126.161L148.311 125.446L148.144 125.818L148.356 126.138Z" fill="#13AB62"/>
<path d="M142.531 147.985L143.707 148.384L143.724 148.308L142.312 146.866L141.88 148.294L142.065 148.461L142.62 148.437L142.531 147.985Z" fill="#13AB62"/>
<path d="M149.058 127.187L149.84 125.699L148.661 126.594L149.058 127.187Z" fill="#13AB62"/>
<path d="M141.472 142.98L141.401 142.931L141.394 142.984L141.472 142.98Z" fill="#13AB62"/>
<path d="M150.34 114.376L150.412 114.485L150.583 114.552L150.501 114.615L150.754 114.998L151.357 114.376H150.34Z" fill="#13AB62"/>
<path d="M146.876 114.376H146.033L146.108 114.722L147.544 114.569L146.876 114.376Z" fill="#13AB62"/>
<path d="M120.209 205.701L120.371 205.628L120.329 206.094L120.374 206.241L120.881 205.275L120.144 205.491L120.209 205.701Z" fill="#13AB62"/>
<path d="M140.297 167.255L142.083 167.704L142.161 167.285L141.702 166.812L142.278 166.679L142.298 166.579L142.388 166.652L142.939 166.522L142.274 166.289L143.861 164.997V163.699L145.841 164.837C145.862 164.704 145.882 164.571 145.899 164.438L145.728 164.475L145.927 163.839L145.749 163.812L146.05 163.449V163.429C146.091 163.173 146.129 162.913 146.167 162.657L145.413 162.504L146.345 161.505C146.386 161.245 146.424 160.986 146.465 160.726L145.485 162.334V162.387H145.454L144.724 163.589L143.758 161.871L144.32 163.536L142.987 163.263L139.002 164.445L142.117 166.232L140.297 167.255Z" fill="#13AB62"/>
<path d="M143.367 175.398L143.347 175.381L143.326 175.611L143.436 175.644L143.367 175.398Z" fill="#13AB62"/>
<path d="M146.91 157.849L147.136 156.361L145.971 156.997L146.91 157.849Z" fill="#13AB62"/>
<path d="M140.071 169.136L139.64 167.614L137.879 168.58L140.071 169.136Z" fill="#13AB62"/>
<path d="M147.462 152.746L146.687 151.411L147.03 151.414L146.876 151.244L145.975 152L145.862 151.421L145.214 151.96L145.92 152.636L145.927 152.05L147.352 152.869L147.414 152.806L147.462 152.746Z" fill="#13AB62"/>
<path d="M134.422 127.433L134.055 127.11L133.681 127.603L133.411 128.479L135.025 128.236L134.422 127.433Z" fill="#13AB62"/>
<path d="M143.881 175.491L143.707 175.468L143.799 175.351L143.487 175.658L143.707 175.721L143.847 175.608L143.881 175.491Z" fill="#13AB62"/>
<path d="M141.528 117.179L141.349 117.755L140.534 116.916L139.931 117.579L141.154 118.264L142.22 118.015L141.528 117.179Z" fill="#13AB62"/>
<path d="M138.41 114.375H138.098L137.546 115.284L137.022 114.375H136.834L137.132 115.261L133.544 114.529L131.167 115.481L132.044 115.787L134.202 115.81L133.822 116.406L134.85 116.766L134.021 117.432L134.925 117.951L132.911 119.07L134.559 121.164L135.1 118.291L137.217 120.042V116.073L139.403 117.299L138.41 114.375ZM135.117 116.48L136.251 115.74L136.34 117.072L135.117 116.48Z" fill="#13AB62"/>
<path d="M113.84 117.126L113.467 117.615L113.196 118.487L114.81 118.248L114.207 117.445L113.84 117.126Z" fill="#13AB62"/>
<path d="M145.276 129.131L145.009 128.778L144.851 129.124L145.276 129.131Z" fill="#13AB62"/>
<path d="M144.107 140.051L145.228 139.618L145.074 138.829L144.049 139.169L144.107 140.051Z" fill="#13AB62"/>
<path d="M141.572 130.12L141.826 130.693L142.292 130.083L141.572 130.12Z" fill="#13AB62"/>
<path d="M137.529 203.201L138.557 204.08L136.042 204.919L136.501 206.407L134.445 205.938L135.151 205.212L134.466 205.438L135.288 201.336L137.478 203.191L138.396 201.999L136.563 200.574L137.975 200.025L137.495 199.442L139.242 199.179L138.214 198.946L139.653 197.465L140.178 199.169L140.397 199.083C140.476 198.663 140.561 198.177 140.657 197.624H140.613L140.671 197.564C140.897 196.276 141.168 194.645 141.48 192.74L141.25 192.461L141.531 192.421L141.874 190.273L140.462 191.572L139.304 186.694L140.541 187.051L140.849 186.718L139.479 185.799L141.737 184.77L141.637 185.895L141.73 185.799L142.072 186.951L141.702 185.363L142.631 185.629L142.686 185.396L142.737 185.063L141.891 184.49L142.919 184.028C142.919 183.928 142.949 183.824 142.967 183.721L142.562 183.325L143.021 183.219C143.1 182.712 143.179 182.203 143.258 181.684L143.148 182.047L142.775 181.66L142.665 183.129L140.805 181.9L142.312 181.191L141.832 180.702L141.277 181.611L140.178 179.709H140.863L139.647 178.464L140.883 178.175L140.219 177.942L141.761 176.683L141.418 175.308L141.349 175.262L137.515 176.127L137.577 175.931L136.117 176.36L136.374 177.785L138.43 177.306L137.567 180.149L138.317 179.663L138.406 180.995L137.454 180.535L136.991 182.053L136.607 181.66L136.498 183.129L134.637 181.9L134.85 181.8L133.945 180.851H133.822L133.856 181.347L133.034 180.955L132.16 181.814L134.195 182.919L129.741 185.506L129.683 181.577L129.567 181.374H129.68V180.459L129.789 180.515L129.495 179.483L129.087 180.149H129.241L127.85 182.839L127.939 183.062L127.751 183.032L126.843 184.793L125.76 183.199L125.596 183.685L123.951 181.89L124.763 181.727L123.886 180.449L126.332 180.309L125.527 178.92L129.796 178.967L129.546 179.373L131.944 179.976L132.678 179.5L132.109 178.927L133.603 178.594L133.472 178.461L134.709 178.171L134.045 177.938L136.039 176.314L136.563 174.11L136.22 173.517L135.765 173.297L135.905 175.351L134.535 174.686L134.795 174.919L133.267 175.371L134.887 176.25L133.568 177.016L133.609 177.649L132.989 177.349L130.427 178.837L130.396 176.234L129.875 176.39L130.365 174.326V174.003L128.964 171.583L131.019 171.603L131.043 171.499L131.16 171.606H131.698L131.77 171.3L130.937 168.357L132.386 168.723L132.756 167.165L136.525 170.581L133.02 171.619H133.239L132.51 172.818L133.88 174.05L135.381 173.074L135.278 173.024L134.425 173.217L135.031 171.27L135.326 171.573L136.984 171.593L137.145 171.486V171.593H137.193L137.217 171.489L137.334 171.596H138.019L137.731 170.597L137.526 170.241H137.632L137.097 168.353L137.67 168.5L137.711 164.505L136.097 164.931L136.714 162.647L137.889 163.776L138.269 163.995L138.639 162.44L138.447 162.108L136.392 162.72L136.666 161.565L135.021 162.054L136.183 157.177L137.44 158.319L137.553 157.843L139.266 159.394L139.564 158.136L139.16 156.704L139.862 156.884L139.951 156.511L140.554 157.057L142.268 157.493L142.343 157.16L142.857 157.626L143.313 157.74L143.155 157.896L144.056 158.712L144.166 158.246L144.032 158.312L144.049 158.059L144.169 156.305L144.567 156.564L144.741 155.835L145.893 156.881V155.852L144.697 155.576L145.91 154.33L145.927 152.666L143.624 153.275L143.58 153.312L143.093 150.831L142.466 149.869L141.003 150.302L139.417 151.634L140.483 152.659L140.003 152.786L139.879 154.197L141.185 152.865L140.157 152.183L140.787 151.893L140.507 151.407H141.829L142.415 151.141L142.391 151.414H142.754L142.329 152.11L142.268 152.799L142.826 154.211L141.863 154.064L141.839 154.693L142.394 156.498L138.523 155.605L139.448 154.653L137.772 153.518L138.406 153.228L138.136 153.298L138.338 152.553L137.409 153.332L136.364 147.985L138.954 148.864L139.27 147.532L137.933 146.17L139.989 145.691L138.276 143.161L140.798 143.017L138.773 141.466L138.625 141.516L138.653 141.373L137.282 140.314L138.996 139.648L139.444 137.418L141.11 138.829L141.308 138.753L141.788 136.356L141.298 135.856L139.263 136.459L139.852 133.995L138.896 132.996L137.971 135.879L135.648 133.432L138.68 132.767L138.046 132.101L139.65 131.751L140.726 130.353L140.585 130.18L139.605 130.23L140.003 129.474L139.475 128.838L139.297 129.417L138.797 128.901L137.574 131.608L135.405 128.725L134.997 129.75L135.155 129.544L136.525 132.677L133.041 132.274L134.538 130.33L133.287 128.815L133.109 129.394L131.369 127.6L130.307 127.839L130.505 127.203L130.327 127.177L130.618 126.824L130.379 126.581L130.721 126.501L131.458 124.14L133.171 125.935L134.223 125.692L134.295 125.669L134.404 124.137L136.035 125.209L137.961 125.699L137.755 125.905L137.837 126.281L139.551 125.885L138.961 125.262L139.509 125.136V125.083L139.599 125.119L142.829 124.373L143.888 124.041L143.594 125.342L145.581 125.129L146.338 124.463L146.461 125.029L148.236 124.84L148.198 124.58L147.489 124.79L148.12 122.153L150.155 124.001L149.353 124.237L150.381 124.646L150.501 124.417L150.751 124.79L150.922 124.856L150.837 124.92L151.659 126.151C152.087 123.281 152.461 120.775 152.759 118.76L152.372 119.393L151.772 118.354L147.818 118.554L149.494 115.361L148.154 116.407L147.969 115.131L146.06 119.356L147.431 121.567L150.014 119.523L150.114 120.132L151.227 119.103L152.012 122.269L150.391 121.803L150.576 122.925L147.589 121.82L147.66 121.933L143.504 122.03L143.474 122.13L143.381 122.033H142.672L142.936 121.56L142.137 120.735L141.277 120.638L141.62 120.202L140.729 119.293L137.224 121.261V120.708L135.425 121.331L135.535 122.399L136.32 123.398L135.634 123.485V123.644L135.35 123.518L130.738 124.097L132.876 119.103L130.444 120.435L130.478 117.299L130.07 115.108L130.351 115.205L130.464 114.382H123.303L123.005 114.472L123.026 114.382H75.1716C75.2332 114.795 75.312 115.335 75.4114 115.987C77.4055 129.471 86.6049 191.399 88.318 199.908C89.5035 205.798 93.478 207.899 96.3526 208.664C97.38 208.941 98.4419 209.079 99.5081 209.074H116.828L116.005 205.671L118.678 206.444L119.384 205.718L119.041 205.818L119.654 203.251L121.206 204.662L121.731 203.664L123.605 206.47L124.27 205.784L124.869 207.735L124.376 207.622L124.533 207.859L120.936 208.042L121.159 208.764L119.534 208.391L118.801 209.057H129.08C130.138 209.063 131.192 208.926 132.212 208.651L129.669 208.781L132.009 204.323L134.377 207.865C136.405 206.907 138.051 205.326 139.061 203.367L137.529 203.201ZM136.936 169.009L137.025 170.341L135.802 169.755L136.936 169.009ZM136.936 122.253L138.858 123.371L139.033 123.192L137.687 121.77L141.031 121.038L140.003 124.217L139.595 123.788L139.938 124.84L138.19 124.437L136.899 125.136L136.936 122.253ZM135.11 196.209L136.607 194.265L135.11 192.451L137.7 192.061L137.053 193.686L137.21 193.479L138.581 196.612L135.11 196.209ZM139.736 179.703L140.421 180.851H139.05L139.736 179.703ZM138.999 182.716L138.242 185.209L136.395 183.325L138.999 182.716ZM134.994 184.63L134.846 185.113L135.576 184.78L135.36 187.194L134.411 186.548L134.267 187.017L135.802 187.463L136.508 186.738L136.165 186.837L136.779 184.271L138.759 186.072L137.276 186.511L137.337 186.721L137.502 186.648L137.461 187.114L137.742 188.026L138.067 188.119L137.834 188.332L138.283 189.787L136.659 189.414L134.326 191.558L133.685 188.945L133.555 189.368L133 188.798L132.924 189.015L130.886 186.768L130.992 186.748L130.053 185.789L134.994 184.63ZM129.227 190.586L129.844 188.302L131.557 189.967L129.227 190.586ZM130.516 191.642L129.292 191.056L130.427 190.317L130.516 191.642ZM130.118 185.649L128.748 188.206L127.154 185.772L130.118 185.649ZM128.378 190.39L127.23 192.268L126.13 190.367H127.1L126.13 188.702L128.378 188.725L127.367 190.39H128.378ZM120.405 194.445L120.706 194.082L121.539 191.419L124.136 194.115L125.928 193.3L125.667 192.367L128.066 192.977L126.329 194.685L126.229 194.325L126.12 195.534L124.228 194.238L120.394 195.104L120.593 194.468L120.405 194.445ZM126.915 185.586L125.657 185.959L126.812 186.914L127.271 187.071L127.137 187.18L127.847 187.766L125.493 188.582L125.709 190.913L123.749 190.034L123.029 190.64L122.31 186.977L121.988 187.074L122.032 186.887L120.528 187.71V186.711L118.746 184.857L118.702 188.429L115.382 186.515L118.633 184.74L117.376 183.458L120.573 182.709V182.676L120.61 182.699L122.323 182.3L121.981 183.475L122.745 183.914L123.159 182.166L126.915 185.586ZM119.987 190.49L120.158 193.003L118.119 192.028L117.266 192.221L117.873 190.273L118.815 191.252L119.987 190.49ZM118.681 188.729L119.815 187.989L119.905 189.321L118.681 188.729ZM114.484 172.498L116.742 171.47L116.526 173.883L114.484 172.498ZM115.135 183.308L112.792 183.931L113.408 181.647L115.135 183.308ZM120.405 181.923L115.478 183.385L116.639 178.508L120.405 181.923ZM126.884 177.332L126.959 176.22L123.663 173.693L121.83 174.1L123.478 175.594L118.551 177.056L119.713 172.179L120.614 172.998L121.299 170.78L123.033 172.578L124.376 171.12L122.07 170.587L124.794 167.784L125.479 166.945L126.373 169.212H126.288L127.285 172.169L128.347 171.756L127.74 175.804L128.727 176.447L126.884 177.332ZM122.173 142.102L124.516 139.948L125.263 143.001L122.173 142.102ZM128.974 138.566L129.587 135.999L131.567 137.8L130.084 138.24L130.146 138.45L130.31 138.376L130.269 138.843L130.42 139.335H131.502L130.786 140.511L131.091 141.509L130.293 141.326L129.327 142.911L128.707 141.836L127.134 143.28L125.942 138.42L128.614 139.192L129.32 138.466L128.974 138.566ZM128.203 148.108L127.021 150.032L125.89 148.078L128.203 148.108ZM128.169 138.922L126.113 137.537L128.371 136.509L128.169 138.922ZM125.698 132.597L126.384 131.445L127.069 132.593L125.698 132.597ZM129.916 164.967L130.533 162.684L132.246 164.348L129.916 164.967ZM130.204 162.757L130.546 161.272L130.423 161.395L129.772 159.065L130.995 159.378L131.273 158.209L128.34 155.962L128.46 155.912L128.241 155.765L129.46 155.209L129.433 155.542L132.194 154.474L130.413 153.109L130.224 153.738L128.34 151.797L131.009 151.168L130.838 151.734L134.189 150.435L133.822 152.849L133.64 154.903L133.527 154.823L133.438 155.416L133.01 155.083L132.451 158.852L135.127 161.279L130.204 162.757ZM135.271 149.773L133.061 147.512L131.29 148.101L131.403 148.358L130.752 148.281L130.334 148.421L130.399 149.42L129.152 148.82L129.025 148.864L129.176 148.101L127.918 147.958L129.416 146.014L127.918 144.199L130.509 143.81L130.056 144.942L132.863 147.316L131.766 146.17L136.71 145.012L135.271 149.773ZM133.274 137.434L136.515 140.178L135.487 140.511L135.569 141.739L134.021 141L132.451 141.516L133.274 137.434ZM131.218 129.051L130.358 131.884L131.098 131.402L131.187 132.733L130.235 132.274L129.909 133.346L132.804 132.71L131.776 135.889L131.454 135.557L131.026 136.965L129.2 135.051L130.687 134.701L129.793 133.759L129.412 133.386L129.303 134.854L127.442 133.626L128.95 132.916L128.607 132.554L128.367 132.617L127.929 133.336L126.829 131.435H127.514L126.284 130.19L127.521 129.9L126.856 129.667L128.912 128.002L129.186 129.517L131.218 129.051ZM130.077 125.768L128.038 124.793L127.185 124.986L127.792 123.038L128.734 124.017L129.906 123.255L130.077 125.768ZM129.734 120.755L129.823 122.086L128.6 121.5L129.734 120.755ZM123.334 114.409L125.047 116.074L122.704 116.696L123.334 114.409ZM115.111 115.408L114.817 116.709L116.804 116.496L117.561 115.831L117.684 116.397L119.459 116.207L119.298 115.105L121.618 116.014L121.738 115.784L121.988 116.157L122.159 116.223L122.073 116.287L124.54 119.979L122.796 120.069L123.745 120.162V120.112L124.043 120.189L127.877 120.561L127.477 121.068L127.877 121.167L127.617 121.424L128.261 121.514L126.719 123.415L126.394 122.629L126.13 122.892L125.77 123.378H126.017L125.287 124.577L127.59 126.664L122.663 128.126L122.94 126.96L118.448 128.715L119.325 122.732L123.057 125.575L121.748 123.318L123.804 123.338L123.828 123.235L123.937 123.335L123.341 122.066L121.796 121.71L122.731 120.748L122.419 120.082L119.384 120.235L121.059 117.042L119.716 118.071L119.531 116.796L117.352 121.62L115.19 118.737L114.782 119.762L114.94 119.556L116.31 122.689L112.826 122.286L114.323 120.342L113.073 118.827L112.894 119.406L110.153 116.593L114.015 115.704L115.111 115.408ZM109.287 123.451L112.631 122.719L111.603 125.898L109.287 123.451ZM111.839 190.59L113.895 190.61L113.919 190.506L114.035 190.613H114.721L113.799 187.364L117.958 188.416L115.718 190.626H116.098L115.368 191.825L117.671 193.912L112.744 195.374L113.285 193.097L111.839 190.59ZM115.786 199.848L116.471 198.696L117.157 199.845L115.786 199.848ZM118.257 206.191L116.201 204.806L118.459 203.777L118.257 206.191ZM117.534 200.894L119.041 200.185L118.561 199.695L118.006 200.604L116.907 198.703H117.592L116.348 197.441L117.585 197.152L116.92 196.919L118.976 195.254L119.25 196.769L121.306 196.289L120.442 199.133L121.193 198.646L121.282 199.978L120.329 199.519L119.867 201.037L119.476 200.637L119.367 202.106L117.534 200.894ZM121.138 204.203L119.264 202.302L121.868 201.693L121.138 204.203ZM122.488 198.51L123.101 195.943L125.082 197.744L122.488 198.51ZM125.544 207.213L127.644 204.483L129.015 207.616L125.544 207.213ZM129.241 202.778L127.6 200.781L130.19 200.391L129.241 202.778ZM128.46 197.864L129.649 197.321L129.536 198.593L128.46 197.864ZM128.542 193.995L131.146 193.386L130.389 195.88L128.542 193.995ZM131.012 196.239L133.753 193.429L134.85 197.115L131.012 196.239ZM132.102 198.963L133.541 197.481L134.141 199.432L132.102 198.963Z" fill="#13AB62"/>
<path d="M136.148 181.191L135.665 180.702L135.114 181.611L135.086 181.691L136.148 181.191Z" fill="#13AB62"/>
<path d="M142.285 174.662L141.541 174.159L141.695 174.089L141.349 174.193L141.651 174.449L140.87 174.712L141.271 175.125L141.366 175.082L141.356 175.042L141.418 175.058L142.285 174.662Z" fill="#13AB62"/>
<path d="M143.642 137.611L145.074 138.822L144.587 136.332L145.615 136.682L146.602 136.232L146.574 136.565L149.216 135.543L148.75 134.854L147.818 135.13L148.109 133.912L147.767 133.412L147.359 134.761L145.471 132.82L147.112 132.434L146.499 131.508L149.021 131.365L147.527 130.216V130.419L146.982 130.156L146.163 130.2L146.132 130.266L146.084 130.203L145.766 130.22L145.903 129.96L145.303 129.171L144.618 130.28L145.094 131.358L143.895 131.218L143.724 131.598L143.381 131.162L141.932 130.992L142.682 132.69L140.996 132.494L140.411 134.318L140.496 134.395L144.906 133.359L143.642 137.611ZM146.04 133.819L148.075 135.666L145.409 136.455L146.04 133.819Z" fill="#13AB62"/>
<path d="M152.358 117.395L152.406 117.465L152.68 117.469L152.358 117.395Z" fill="#13AB62"/>
<path d="M135.867 126.035L135.754 125.632L135.196 125.898L135.083 126.391L135.867 126.035Z" fill="#13AB62"/>
<path d="M147.612 142.98L147.571 142.918L147.561 142.984L147.612 142.98Z" fill="#13AB62"/>
<path d="M141.236 171.203L141.175 171.303L142.107 172.272L142.723 171.869L141.236 171.203Z" fill="#13AB62"/>
<path d="M144.964 170.64L145.029 170.214L144.83 170.008L144.772 170.764L144.964 170.64Z" fill="#13AB62"/>
<path d="M142.86 170.248L142.939 170.211L142.658 170.078L142.819 171.806L143.028 171.672L143.367 170.58L142.86 170.248Z" fill="#13AB62"/>
<path d="M148.421 147.838C148.572 146.831 148.723 145.832 148.873 144.842L148.801 144.739L147.383 147.485L148.421 147.838Z" fill="#13AB62"/>
<path d="M143.333 169.961L143.148 169.638L143.179 170.098L144.371 169.538L143.97 169.132L143.803 169.189L143.333 169.961Z" fill="#13AB62"/>
<path d="M153.197 115.83C153.225 115.644 153.252 115.471 153.276 115.304L152.248 115.008L152.933 114.375H152.043L152.539 115.984L153.197 115.83Z" fill="#13AB62"/>
<path d="M150.905 131.258C150.981 130.739 151.059 130.23 151.131 129.727L150.319 131.059L149.792 130.146L149.617 131.332L150.905 131.258Z" fill="#13AB62"/>
<path d="M142.645 115.781L142.278 115.461L141.904 115.95L141.634 116.823L143.248 116.583L142.645 115.781Z" fill="#13AB62"/>
<path d="M145.732 114.376H143.388L143.241 115.028L145.228 114.818L145.732 114.376Z" fill="#13AB62"/>
<path d="M141.839 169.871L141.757 169.955L141.915 169.845L141.839 169.871Z" fill="#13AB62"/>
<path d="M143.631 117.086L143.367 117.748L144.015 117.595L143.631 117.086Z" fill="#13AB62"/>
<path d="M155.465 114.103H73.1227V115.644H155.465V114.103Z" fill="#13AB62"/>
<path opacity="0.18" d="M112.017 209.024C110.623 208.994 108.553 209.051 106.193 209.067C105.367 209.067 104.504 209.067 103.623 209.067C101.193 209.066 98.766 208.929 96.3526 208.658V208.658C93.4779 207.902 89.5001 205.791 88.318 199.902C86.6049 191.392 77.4054 129.464 75.4114 115.98L79.8826 115.741C79.8826 115.741 88.9382 188.133 91.7956 198.62C92.4021 200.86 93.4334 203.357 96.3868 204.889C102.386 208.005 112.017 209.024 112.017 209.024Z" fill="white"/>
<path d="M114.32 145.298C114.361 145.351 114.405 145.405 114.447 145.461C115.015 146.21 115.563 146.976 116.098 147.752C116.262 147.991 116.413 148.241 116.561 148.491C115.999 148.74 115.437 148.99 114.871 149.227H114.851C114.769 149.267 114.683 149.31 114.601 149.356C115.157 149.634 115.729 149.879 116.314 150.092C117.277 150.468 118.25 150.815 119.195 151.224C120.072 151.6 120.977 151.92 121.885 152.223C121.937 152.229 121.988 152.239 122.039 152.253C122.073 152.163 122.097 152.07 122.132 151.98C122.32 151.404 122.515 150.831 122.711 150.262C122.939 149.596 123.167 148.93 123.396 148.264C123.443 148.05 123.515 147.841 123.612 147.642C123.756 147.246 123.889 146.859 124.03 146.467C124.136 146.174 124.242 145.887 124.348 145.598C124.348 145.598 124.365 145.598 124.365 145.581C124.4 145.501 124.434 145.418 124.461 145.345C124.271 145.434 124.074 145.508 123.872 145.568C123.413 145.777 122.923 145.944 122.45 146.117C122.005 145.514 121.566 144.912 121.128 144.303C120.694 143.675 120.213 143.08 119.689 142.521C119.473 142.302 119.137 142.132 118.897 141.929C118.726 141.819 118.529 141.753 118.325 141.739C116.889 141.676 115.444 141.779 114.011 141.819C112.829 141.856 111.661 141.746 110.469 141.872C110.093 141.831 109.712 141.872 109.355 141.992C109.197 142.072 109.052 142.175 108.927 142.298C108.92 142.308 108.912 142.317 108.903 142.325L108.865 142.355C107.762 143.32 106.912 144.539 105.963 145.641C105.641 146.014 105.319 146.383 105 146.756L105.182 146.893V146.876C106.1 147.452 106.96 148.165 107.837 148.794C108.633 149.435 109.47 150.026 110.342 150.565V150.565C110.472 150.642 110.595 150.725 110.712 150.805C110.76 150.728 110.811 150.645 110.859 150.562C111.233 149.929 111.661 149.326 112.052 148.701C112.442 148.075 112.788 147.525 113.158 146.939C113.497 146.361 113.886 145.812 114.32 145.298V145.298ZM110.794 142.438C110.537 142.362 110.143 142.172 109.873 142.262C109.701 142.318 109.777 142.315 109.605 142.295C109.581 142.295 109.588 142.255 109.605 142.252C109.821 142.225 109.948 142.089 110.184 142.122C110.356 142.149 110.527 142.182 110.695 142.218C111.118 142.318 111.515 142.503 111.86 142.761C112.735 143.402 113.515 144.159 114.176 145.008C114.214 145.062 114.124 145.162 114.073 145.112C113.73 144.805 113.484 144.446 113.138 144.136C112.792 143.826 112.401 143.47 112.024 143.174C111.666 142.855 111.248 142.605 110.794 142.438V142.438Z" fill="white"/>
<path d="M105.61 157.645C105.634 157.583 105.657 157.518 105.684 157.454C106.03 156.587 106.402 155.727 106.79 154.873C106.91 154.61 107.046 154.353 107.185 154.098C107.704 154.424 108.222 154.749 108.732 155.085L108.743 155.102C108.822 155.147 108.905 155.194 108.99 155.236C108.933 154.633 108.839 154.033 108.71 153.44C108.521 152.45 108.299 151.469 108.148 150.475C108.004 149.556 107.797 148.644 107.573 147.739C107.55 147.693 107.532 147.645 107.516 147.596C107.419 147.617 107.325 147.647 107.229 147.667C106.627 147.822 106.024 147.97 105.423 148.116C104.721 148.287 104.019 148.457 103.318 148.628C103.105 148.705 102.885 148.758 102.66 148.786C102.238 148.881 101.83 148.979 101.413 149.075C101.101 149.145 100.795 149.212 100.486 149.281C100.486 149.281 100.477 149.267 100.462 149.276C100.374 149.29 100.284 149.307 100.205 149.324C100.385 149.432 100.555 149.553 100.716 149.686C101.145 149.949 101.553 150.261 101.957 150.555C101.672 151.242 101.383 151.925 101.089 152.611C100.776 153.302 100.516 154.016 100.312 154.744C100.236 155.039 100.269 155.405 100.221 155.71C100.217 155.909 100.266 156.105 100.363 156.28C101.079 157.488 101.945 158.616 102.749 159.766C103.415 160.713 103.947 161.728 104.697 162.635C104.863 162.965 105.103 163.254 105.399 163.482C105.554 163.569 105.721 163.631 105.896 163.668C105.908 163.668 105.92 163.67 105.932 163.673L105.978 163.688C107.411 164.072 108.927 164.113 110.395 164.297C110.893 164.361 111.387 164.426 111.882 164.486L111.904 164.264L111.889 164.273C111.897 163.213 112.055 162.127 112.132 161.071C112.262 160.076 112.328 159.074 112.328 158.071V158.071C112.325 157.924 112.331 157.778 112.338 157.64C112.246 157.642 112.146 157.645 112.047 157.65C111.297 157.684 110.542 157.657 109.788 157.674C109.034 157.69 108.37 157.702 107.662 157.714C106.977 157.747 106.291 157.724 105.61 157.645V157.645ZM105.015 162.065C105.086 162.316 105.133 162.741 105.356 162.914C105.497 163.023 105.454 162.964 105.529 163.114C105.542 163.134 105.503 163.15 105.491 163.138C105.352 162.975 105.165 162.945 105.067 162.734C104.998 162.579 104.935 162.421 104.877 162.264C104.737 161.865 104.684 161.441 104.724 161.02C104.812 159.96 105.051 158.916 105.435 157.919C105.461 157.859 105.596 157.878 105.58 157.947C105.498 158.392 105.317 158.787 105.234 159.236C105.15 159.686 105.05 160.196 104.995 160.664C104.91 161.128 104.917 161.604 105.015 162.065V162.065Z" fill="white"/>
<path d="M128.559 156.827C128.561 156.816 128.561 156.805 128.559 156.794C128.564 156.779 128.564 156.762 128.559 156.747C128.289 155.326 127.648 153.994 127.189 152.636C127.024 152.17 126.867 151.713 126.699 151.257C126.63 151.277 126.558 151.307 126.49 151.334C126.489 151.342 126.489 151.349 126.49 151.357C125.506 151.82 124.434 152.166 123.427 152.569C122.451 152.899 121.497 153.29 120.573 153.738C120.442 153.804 120.302 153.857 120.165 153.914C120.213 153.997 120.264 154.081 120.309 154.16C120.675 154.806 120.994 155.472 121.337 156.121C121.679 156.771 121.991 157.337 122.31 157.949C122.639 158.521 122.919 159.118 123.149 159.734C123.08 159.746 123.01 159.755 122.94 159.76C121.988 159.844 121.028 159.903 120.072 159.95C119.771 159.95 119.476 159.95 119.178 159.95C119.25 159.354 119.319 158.758 119.404 158.162C119.404 158.162 119.404 158.162 119.425 158.162C119.425 158.069 119.425 157.982 119.425 157.889C118.893 158.212 118.38 158.562 117.886 158.938C117.061 159.544 116.249 160.17 115.402 160.749C114.614 161.278 113.864 161.871 113.134 162.47L113.028 162.584C113.09 162.653 113.158 162.723 113.22 162.797C113.631 163.253 114.032 163.709 114.436 164.168L115.807 165.78C115.973 165.93 116.119 166.1 116.242 166.286C116.516 166.605 116.79 166.922 117.064 167.235L117.667 167.957C117.667 167.957 117.667 167.957 117.667 167.977L117.825 168.177H117.845C117.863 167.974 117.898 167.774 117.952 167.577C118.006 167.088 118.113 166.579 118.212 166.106C118.962 166.046 119.723 165.996 120.484 165.946C121.261 165.911 122.034 165.819 122.796 165.67C123.108 165.603 123.43 165.413 123.732 165.32C123.92 165.239 124.081 165.109 124.198 164.944C124.992 163.789 125.654 162.527 126.36 161.315C126.945 160.316 127.641 159.401 128.148 158.345C128.381 158.051 128.542 157.71 128.621 157.347C128.634 157.171 128.613 156.995 128.559 156.827V156.827ZM128.217 157.723C127.668 158.439 127.189 159.055 126.298 159.387C125.461 159.697 124.566 159.827 123.673 159.77C123.574 159.77 123.619 159.63 123.691 159.61C124.537 159.461 125.404 159.431 126.219 159.128C127.035 158.825 127.569 158.305 128.172 157.686C128.196 157.656 128.237 157.689 128.21 157.723H128.217Z" fill="white"/>
<path d="M150.014 137.211L149.987 137.168L149.956 137.384H149.99C150.001 137.318 150.007 137.265 150.014 137.211Z" fill="#0B9B56"/>
<path d="M147.612 142.98L147.571 142.918L147.561 142.984L147.612 142.98Z" fill="#0B9B56"/>
<path d="M142.586 139.658L142.23 139.778L142.679 140.158L141.771 140.461L141.689 141.02L142.086 140.837L142.021 141.569L143.549 142.861L143.607 142.858L143.59 142.894L144.683 143.82L144.854 143.78L144.433 143.161L146.955 143.017L143.429 140.314L143.717 140.201L142.586 139.658Z" fill="#0B9B56"/>
<path d="M147.462 152.746L146.687 151.411L147.03 151.414L146.876 151.244L145.975 152L145.862 151.421L145.214 151.96L145.92 152.636L145.927 152.05L147.352 152.869L147.414 152.806L147.462 152.746Z" fill="#0B9B56"/>
<path d="M139.115 154.427L139.037 155.079L139.451 154.653L139.115 154.427Z" fill="#0B9B56"/>
<path d="M139.54 158.156L139.136 156.727L139.842 156.904L139.931 156.531L140.53 157.08L142.25 157.513L142.329 157.197L142.84 157.663L143.295 157.78L143.138 157.933L144.039 158.752L144.149 158.286L144.015 158.349L144.032 158.099L144.025 158.096L144.032 158.092L144.152 156.335L144.553 156.594L144.728 155.865L145.875 156.911L145.886 155.882L144.69 155.609L145.903 154.36L145.92 152.689L143.617 153.302L143.621 153.295L143.576 153.332L143.093 150.851L142.463 149.892L141.003 150.325L139.455 151.62L139.448 151.684L140.479 152.679L140.003 152.806L139.879 154.214L141.181 152.872L140.171 152.186L140.801 151.9L140.52 151.411L141.843 151.424L142.429 151.158L142.405 151.431L142.768 151.434L142.343 152.133L142.281 152.819L142.84 154.234L141.877 154.084L141.839 154.697L142.398 156.498L138.961 155.709L138.584 158.822L139.242 159.418L139.54 158.156Z" fill="#0B9B56"/>
<path d="M142.059 130.097L142.017 130.443L142.292 130.083L142.059 130.097Z" fill="#0B9B56"/>
<path d="M144.107 140.051L145.228 139.618L145.074 138.829L144.049 139.169L144.107 140.051Z" fill="#0B9B56"/>
<path d="M141.106 138.826L141.301 138.749L141.781 136.352L141.356 135.916L141.014 138.749L141.106 138.826Z" fill="#0B9B56"/>
<path d="M140.52 142.814L140.493 143.034L140.787 143.017L140.52 142.814Z" fill="#0B9B56"/>
<path d="M147.383 147.485L148.411 147.838C148.562 146.831 148.712 145.832 148.863 144.842L148.791 144.739L147.383 147.485Z" fill="#0B9B56"/>
<path d="M147.938 150.359L147.732 150.528L147.705 150.608L147.938 150.359Z" fill="#0B9B56"/>
<path d="M147.356 147.475L145.122 144.179L144.639 145.777L146.006 147.019L147.356 147.475Z" fill="#0B9B56"/>
<path d="M147.869 151.421C147.893 151.264 147.917 151.104 147.938 150.945L147.595 150.878L147.407 151.417L147.869 151.421Z" fill="#0B9B56"/>
<path d="M141.472 142.98L141.401 142.931L141.394 142.984L141.472 142.98Z" fill="#0B9B56"/>
<path d="M142.86 170.248L142.939 170.211L142.658 170.078L142.819 171.806L143.028 171.672L143.367 170.58L142.86 170.248Z" fill="#0B9B56"/>
<path d="M146.108 114.722L147.544 114.569L146.879 114.379H146.033L146.108 114.722Z" fill="#0B9B56"/>
<path d="M141.236 171.203L141.175 171.303L142.107 172.272L142.723 171.869L141.236 171.203Z" fill="#0B9B56"/>
<path d="M144.491 118.834L144.687 118.484L144.621 118.401L144.491 118.834Z" fill="#0B9B56"/>
<path d="M144.015 117.595L143.631 117.086L143.367 117.748L144.015 117.595Z" fill="#0B9B56"/>
<path d="M142.285 174.662L141.541 174.159L141.695 174.089L141.349 174.193L141.651 174.449L140.87 174.712L141.271 175.125L141.366 175.082L141.356 175.042L141.418 175.058L142.285 174.662Z" fill="#0B9B56"/>
<path d="M142.62 148.437L142.531 147.985L143.707 148.384L143.724 148.308L142.312 146.866L141.88 148.294L142.065 148.461L142.62 148.437Z" fill="#0B9B56"/>
<path d="M143.881 175.491L143.707 175.468L143.799 175.351L143.487 175.658L143.707 175.721L143.847 175.608L143.881 175.491Z" fill="#0B9B56"/>
<path d="M142.645 115.781L142.278 115.461L141.904 115.95L141.634 116.823L143.248 116.583L142.645 115.781Z" fill="#0B9B56"/>
<path d="M143.241 115.028L145.228 114.818L145.732 114.379H143.388L143.241 115.028Z" fill="#0B9B56"/>
<path d="M142.083 167.704L142.161 167.285L141.702 166.812L142.278 166.679L142.298 166.579L142.388 166.652L142.939 166.522L142.274 166.289L143.861 164.997V163.699L145.841 164.837C145.862 164.704 145.879 164.571 145.899 164.438L145.728 164.475L145.927 163.839L145.749 163.812L146.05 163.449V163.433C146.091 163.173 146.129 162.917 146.167 162.657L145.413 162.504L146.345 161.505C146.386 161.245 146.424 160.986 146.465 160.726L145.485 162.334V162.387H145.454L144.724 163.589L143.758 161.871L144.32 163.536L142.987 163.263L139.002 164.445L142.117 166.232L140.277 167.231L142.083 167.704Z" fill="#0B9B56"/>
<path d="M149.792 130.146L149.617 131.332L150.905 131.258C150.981 130.739 151.059 130.23 151.131 129.727L150.319 131.059L149.792 130.146Z" fill="#0B9B56"/>
<path d="M144.964 170.64C144.985 170.497 145.009 170.354 145.029 170.214L144.83 170.008L144.772 170.764L144.964 170.64Z" fill="#0B9B56"/>
<path d="M143.97 169.132L143.803 169.189L143.333 169.961L143.148 169.638L143.179 170.098L144.371 169.538L143.97 169.132Z" fill="#0B9B56"/>
<path d="M147.777 133.406L147.369 134.754L145.471 132.82L147.112 132.434L146.499 131.508L149.021 131.365L147.527 130.216V130.419L146.982 130.156L146.163 130.2L146.132 130.266L146.084 130.203L145.766 130.22L145.903 129.96L145.303 129.171L144.618 130.28L145.094 131.358L143.895 131.218L143.724 131.598L143.381 131.162L141.932 130.992L142.682 132.69L141.733 132.58L141.545 134.148L144.906 133.359L143.618 137.611L145.05 138.822L144.563 136.332L145.591 136.682L146.578 136.232L146.55 136.565L149.192 135.543L148.726 134.854L147.794 135.13L148.085 133.912L147.777 133.406ZM148.089 135.666L145.423 136.455L146.054 133.819L148.089 135.666Z" fill="#0B9B56"/>
<path d="M143.878 124.064L143.583 125.366L145.57 125.152L146.328 124.487L146.451 125.053L148.226 124.863L148.188 124.603L147.479 124.813L148.109 122.176L150.145 124.024L149.343 124.26L150.371 124.67L150.491 124.44L150.741 124.813L150.912 124.879L150.826 124.943L151.649 126.175C152.077 123.305 152.45 120.798 152.748 118.784L152.361 119.416L151.762 118.377L147.808 118.577L149.483 115.384L148.154 116.406L147.969 115.131L146.06 119.356L147.431 121.567L150.014 119.523L150.114 120.132L151.227 119.103L152.012 122.269L150.391 121.803L150.576 122.925L147.589 121.82L147.66 121.933L143.504 122.03L143.474 122.129L143.381 122.033H143.018L142.73 124.393H142.802L143.878 124.064Z" fill="#0B9B56"/>
<path d="M138.252 164.019L138.625 162.46L138.434 162.128L138.173 162.204L137.975 163.859L138.252 164.019Z" fill="#0B9B56"/>
<path d="M141.144 171.35L141.048 171.51L141.086 171.543L141.144 171.35Z" fill="#0B9B56"/>
<path d="M137.718 170.621L137.509 170.264H137.615L137.324 169.236L137.043 171.553L137.108 171.513L137.118 171.619H137.162L137.19 171.513L137.306 171.619L138.002 171.629L137.718 170.621Z" fill="#0B9B56"/>
<path d="M152.039 114.375L152.536 115.984L153.197 115.83C153.225 115.644 153.252 115.471 153.276 115.304L152.248 115.008L152.933 114.375H152.039Z" fill="#0B9B56"/>
<path d="M144.412 173.79L144.546 173.36C144.608 172.964 144.669 172.561 144.731 172.159L143.806 171.716L143.299 171.832L143.398 173.314L143.799 173.131L143.755 173.62L144.412 173.79Z" fill="#0B9B56"/>
<path d="M137.676 166.326L137.416 168.463L137.652 168.523L137.676 166.326Z" fill="#0B9B56"/>
<path d="M150.343 114.379L150.412 114.486L150.583 114.552L150.501 114.615L150.754 114.998L151.357 114.379H150.343Z" fill="#0B9B56"/>
<path d="M141.524 117.176L141.551 117.193L141.524 117.176Z" fill="#0B9B56"/>
<path d="M129.662 208.791L130.142 207.875C129.796 208.243 129.377 208.538 128.91 208.743C128.443 208.948 127.938 209.058 127.425 209.067H129.073C130.131 209.073 131.185 208.936 132.205 208.661L129.662 208.791Z" fill="#0B9B56"/>
<path d="M131.167 115.481L132.044 115.787L134.202 115.811L133.839 116.407H135.23L136.258 115.741L136.302 116.407H137.224V116.074L137.844 116.407H138.913H139.112L138.427 114.366H138.115L137.563 115.275L137.039 114.366H136.851L137.149 115.251L133.562 114.519L131.167 115.481Z" fill="#0B9B56"/>
<path d="M147.136 156.358L145.971 156.994L146.91 157.846L147.136 156.358Z" fill="#0B9B56"/>
<path d="M137.529 203.201L138.557 204.08L136.042 204.919L136.501 206.407L134.446 205.937L135.151 205.212L134.466 205.438L135.288 201.336L137.478 203.191L138.396 201.999L136.563 200.574L137.975 200.025L137.495 199.442L139.242 199.179L138.214 198.946L139.653 197.464L140.178 199.169L140.397 199.082C140.476 198.663 140.561 198.177 140.657 197.624H140.613L140.671 197.564C140.894 196.276 141.168 194.645 141.48 192.74L141.25 192.461L141.531 192.421L141.874 190.273L140.462 191.572L139.304 186.694L140.541 187.05L140.849 186.718L139.479 185.799L141.737 184.77L141.637 185.895L141.73 185.799L142.072 186.951L141.702 185.363L142.631 185.629L142.686 185.396L142.737 185.063L141.891 184.49L142.919 184.027C142.919 183.928 142.949 183.824 142.967 183.721L142.562 183.325L143.018 183.218C143.097 182.716 143.179 182.203 143.258 181.687L143.148 182.047L142.775 181.66L142.665 183.129L140.805 181.9L142.312 181.191L141.832 180.702L141.277 181.61L140.178 179.709H140.863L139.647 178.464L140.883 178.175L140.219 177.942L141.761 176.683L141.418 175.308L141.349 175.261L137.515 176.127L137.577 175.931L136.474 176.264L136.323 177.505L136.374 177.792L138.43 177.312L137.567 180.156L138.317 179.669L138.406 181.001L137.454 180.542L136.991 182.06L136.607 181.66L136.498 183.129L135.706 182.606L135.436 184.846L135.576 184.783L135.36 187.197L135.165 187.064L135.141 187.274L135.802 187.467L136.508 186.741L136.165 186.841L136.779 184.274L138.759 186.075L137.276 186.514L137.337 186.724L137.502 186.651L137.461 187.117L137.742 188.029L138.067 188.122L137.834 188.336L138.283 189.79L136.659 189.418L134.658 191.255L134.206 195.001L134.857 197.115L133.993 196.915C133.949 197.298 133.884 197.801 133.795 198.383L134.113 199.415L133.64 199.306C133.335 201.113 132.846 202.886 132.181 204.599L134.37 207.875C136.397 206.915 138.042 205.335 139.054 203.377L137.529 203.201ZM139.736 179.703L140.421 180.851H139.05L139.736 179.703ZM138.242 185.209L136.395 183.325L138.999 182.716L138.242 185.209ZM137.7 192.061L137.053 193.686L137.21 193.479L138.581 196.612L135.096 196.209L136.594 194.265L135.096 192.451L137.7 192.061Z" fill="#0B9B56"/>
<path d="M135.908 180.948L135.861 181.328L136.148 181.191L135.908 180.948Z" fill="#0B9B56"/>
<path d="M143.367 175.398L143.347 175.381L143.326 175.611L143.436 175.644L143.367 175.398Z" fill="#0B9B56"/>
<path d="M114.039 115.717L115.098 115.384L114.868 116.383H116.876L117.561 115.801L117.684 116.367L119.459 116.177L119.298 115.075L121.618 115.984L121.738 115.754L121.988 116.127L122.159 116.193L122.073 116.257L122.159 116.383H122.807L123.348 114.386L125.061 116.05L123.745 116.407H130.324L130.08 115.105L130.361 115.201L130.474 114.379H123.3L123.005 114.469L123.026 114.379H75.1716C75.2435 114.878 75.3463 115.568 75.4697 116.407H111.051L114.039 115.717Z" fill="#0B9B56"/>
<path d="M150.347 129.118H151.224C151.224 128.985 151.261 128.851 151.282 128.718L150.127 128.778L150.347 129.118Z" fill="#0B9B56"/>
<path d="M148.356 126.138L148.418 126.161L148.311 125.446L148.144 125.818L148.356 126.138Z" fill="#0B9B56"/>
<path d="M150.302 134.165L150.449 134.301C150.48 134.102 150.511 133.902 150.539 133.705L150.302 134.165Z" fill="#0B9B56"/>
<path d="M149.058 127.187L149.84 125.699L148.661 126.594L149.058 127.187Z" fill="#0B9B56"/>
<path d="M146.609 159.837L146.129 159.98H146.588L146.609 159.837Z" fill="#0B9B56"/>
<path d="M150.165 134.431L149.685 135.357L150.295 135.12L150.042 136.818H150.076C150.199 135.982 150.322 135.159 150.443 134.351L150.165 134.431Z" fill="#0B9B56"/>
<path d="M141.839 169.871L141.757 169.955L141.915 169.845L141.839 169.871Z" fill="#0B9B56"/>
<path d="M140.393 170.268L140.363 170.299H140.4L140.393 170.268Z" fill="#0B9B56"/>
<path d="M145.276 129.131L145.009 128.778L144.851 129.124L145.276 129.131Z" fill="#0B9B56"/>
<path d="M152.968 117.405C152.988 117.259 153.009 117.119 153.029 116.982L152.748 116.696L152.968 117.405Z" fill="#0B9B56"/>
<path d="M152.68 117.469L152.358 117.395L152.406 117.465L152.68 117.469Z" fill="#0B9B56"/>
<path d="M140.071 169.136L139.64 167.614L137.879 168.58L140.071 169.136Z" fill="#0B9B56"/>
<path d="M142.573 125.845L142.49 126.544L143.172 126.471L143.227 126.421L142.987 126.101L142.62 125.778L142.573 125.845Z" fill="#0B9B56"/>
<path d="M134.696 99.1108L134.374 98.5315L134.106 99.0542L134.696 99.1108Z" fill="#13AB62"/>
<path d="M126.712 89.6825L127.082 89.9921L127.326 89.8623V90.1952L128.614 91.2839L129.779 90.7745C128.898 90.1101 127.826 89.7285 126.712 89.6825Z" fill="#13AB62"/>
<path d="M134.822 100.935L134.665 101.152L134.994 101.192L134.822 100.935Z" fill="#13AB62"/>
<path d="M129.32 100.486L129.169 99.7102L131.437 100.479L130.618 98.7147L133.88 99.031L132.003 96.261L131.8 96.4575L131.701 96.0979L131.595 97.3064L130.43 96.5174L130.786 97.9556L129.275 97.5195L128.412 100.373L129.32 100.486Z" fill="#13AB62"/>
<path d="M117.719 98.5416L118.692 99.2707H119.555L120.802 99.4272L119.007 99.0143L121.748 96.2044L121.943 96.8403L122.108 96.7671L122.067 97.2332L122.82 99.6802L126.819 100.176L125.928 99.2674L124.057 99.8233L124.694 97.1599L121.594 95.7416L122.587 95.0758L120.977 93.4345L123.581 92.8252L122.992 94.7662L124.403 93.814L124.688 97.0734L125.195 94.9459L127.655 97.1732L127.884 97.12L127.576 97.0301L130.002 94.7895L130.207 95.6185L131.235 95.1457L131.057 94.886H131.266L130.923 93.7674L128.593 92.136L128.289 92.2392L128.371 93.4677L126.822 92.7286L125.256 93.2414L125.599 91.5401L125.28 91.3537L120.854 93.0815L121.354 89.6724H101.958C99.3437 89.7889 98.1514 91.4069 98.1514 91.4069L92.6694 101.305L109.009 99.2707H117.626L117.719 98.5416ZM116.006 93.2147L120.936 96.8969L115.197 99.1941L116.006 93.2147Z" fill="#13AB62"/>
<path d="M125.969 89.6758H125.085L125.852 90.2584L125.969 89.6758Z" fill="#13AB62"/>
<path d="M132.078 94.3801L132.003 94.2402L131.924 94.3201V94.3401L132.078 94.3801Z" fill="#13AB62"/>
<g opacity="0.18">
<path opacity="0.18" d="M130.437 93.4345C130.437 93.4345 129.244 91.8165 126.627 91.7H101.958C99.3437 91.8165 98.1514 93.4345 98.1514 93.4345L92.6694 101.295H135.909L130.437 93.4345Z" fill="white"/>
</g>
<path d="M129.481 101.308L129.169 99.7102L131.437 100.479L130.618 98.7147L131.752 98.8246L130.588 97.1566L130.786 97.9556L129.275 97.5195L128.128 101.308H129.481Z" fill="#149356"/>
<path d="M117.352 101.305L117.732 98.5417L121.422 101.305H122.858L122.375 100.473L124.622 100.496L124.126 101.305H125.839L125.541 101.165L126.658 100.426L126.719 101.305H127.908L125.904 99.2608L124.033 99.8168L124.67 97.1534L121.57 95.7351L122.563 95.0693L120.977 93.4346L123.581 92.8253L122.992 94.7663L124.403 93.8141L124.688 97.0735L125.195 94.9461L127.655 97.1734L127.884 97.1201L127.576 97.0302L129.358 95.3855L128.621 94.3268C128 93.609 127.15 93.1143 126.205 92.9219L125.253 93.2548L125.342 92.812H125.239H121.594L120.847 93.105L120.891 92.812H103.346C101.019 92.9152 99.9638 94.3501 99.9638 94.3501L95.1054 101.305H117.352ZM121.724 96.1979L121.919 96.8338L122.084 96.7605L122.043 97.2266L122.865 99.8901L118.993 98.9978L121.724 96.1979ZM116.019 93.2015L120.936 96.897L115.197 99.1942L116.019 93.2015Z" fill="#149356"/>
<path d="M97.9561 97.2166L95.1089 101.308H133.479L130.629 97.2166H97.9561Z" fill="#0B9B56"/>
<path d="M142.278 115.461L142.137 115.644H142.49L142.278 115.461Z" fill="#13AB62"/>
<path d="M147.732 115.644H148.044L147.969 115.125L147.732 115.644Z" fill="#13AB62"/>
<path d="M130.975 110.747L131.098 109.865L134.048 112.075L135.518 110.48L135.922 111.676L136.995 111.686L136.337 110.817L139.153 110.517L139.599 110.108L139.684 110.46L140.335 110.391L140.311 108.706H137.951L138.684 109.185L136.82 110.074L136.912 108.706H126.065L126.593 110.411L128.778 109.705L128.967 108.922L129.549 109.455L130.903 109.019L130.608 110.414L130.975 110.747Z" fill="#13AB62"/>
<path d="M143.241 115.028L145.228 114.819L145.985 114.156L146.108 114.722L147.544 114.569L146.763 114.346L147.506 113.66L146.821 113.5L147.143 113.98L143.436 114.166L143.241 115.028Z" fill="#13AB62"/>
<path d="M149.144 115.644H149.356L149.497 115.378L149.144 115.644Z" fill="#13AB62"/>
<path d="M155.113 114.542L155.119 114.509L155.099 114.496L155.113 114.542Z" fill="#13AB62"/>
<path d="M131.636 115.644H138.845L138.3 114.053L137.546 115.285L136.57 113.597L137.132 115.261L133.548 114.532L131.167 115.481L131.636 115.644Z" fill="#13AB62"/>
<path d="M115.098 115.391L115.039 115.644H119.367L119.284 115.095L120.686 115.644H122.998L123.334 114.396L124.636 115.644H130.183L130.08 115.101L130.361 115.201L130.67 112.951L130.032 113.141L129.868 113.92L129.234 113.377L127.802 113.8L128.131 112.421L126.017 110.597L126.349 110.49L124.756 110.124L127.932 113.004L123.005 114.466L124.078 109.968L122.762 109.665L123.694 108.706H73.1227V115.644H114.275L115.098 115.391Z" fill="#13AB62"/>
<path d="M149.233 108.706L149.213 110.167L146.862 108.802L147.037 108.706H144.255L144.813 109.012L143.494 109.775L143.539 110.407L143.032 110.164L141.949 111.23L141.332 112.595L141.86 112.728L143.275 111.809L144.337 109.781L146.444 112.934L148.791 110.514L149.055 111.366L149.374 109.785L151.289 111.403L152.337 110.837L152.313 112.272L152.615 112.525L152.31 112.628L152.296 113.497L151.351 112.947L149.713 113.493L149.935 114.216L149.699 114.163L149.713 114.209L150.042 114.339L150.162 114.109L150.412 114.486L150.583 114.552L150.501 114.615L150.754 114.998L151.875 113.843L152.43 115.644H153.989L154.246 115.584L152.245 115.012L154.674 112.771L154.88 113.6L155.465 113.334V110.038L152.762 109.039L153.18 108.706H149.233Z" fill="#13AB62"/>
<path d="M126.281 110.823L126.017 110.597L126.349 110.49L124.756 110.124L125.554 110.847L126.281 110.823Z" fill="#13AB62"/>
<path d="M142.867 110.331L143.343 110.314L143.032 110.164L142.867 110.331Z" fill="#13AB62"/>
<path d="M131.101 99.76H129.292L131.424 100.479L131.101 99.76Z" fill="#13AB62"/>
<path d="M111.993 111.249L114.292 111.183L116.591 111.249V111.113L123.855 110.897L124.078 109.964L122.762 109.661L125.503 106.851L125.698 107.487L125.863 107.414L125.822 107.88L126.599 110.41L128.789 109.705L128.974 108.922L129.56 109.455L130.93 109.016L130.635 110.414L130.934 110.687H131.009L131.122 109.864L132.17 110.65L135.48 110.554L135.545 110.484L135.569 110.55L139.266 110.44L139.609 110.108L139.688 110.44H140.147L140.345 110.417L140.318 108.42V107.374L138.04 106.532L138.112 106.645L136.923 106.672L136.902 107.874L134.918 106.718H134.754L135.227 108.256L132.112 107.541L132.427 108.559L130.372 108.09L131.811 106.608L131.872 106.815L134.062 104.561L134.106 104.504L133.335 103.173H135.11L135.494 102.487L136.635 104.301L137.049 102.76L138.763 104.424L136.991 104.897L137.851 106.266L140.435 104.221L140.877 106.885L141.459 107.201L141.733 106.918L141.891 107.434L144.81 109.019L143.491 109.785L143.528 110.317L144.066 110.301L144.334 109.791L144.676 110.284L149.175 110.151L146.869 108.819L149.267 107.524L149.223 110.154H149.315L149.387 109.801L149.788 110.134L153.256 110.031L150.251 105.929L150.018 105.843L150.09 105.956L145.101 106.072L147.383 102.007C147.349 101.954 145.927 99.5504 143.271 99.7002H143.093L143.152 100.366L146.458 103.362L143.597 104.211H143.614L141.103 105.21L141.288 103.878L137.519 103.01L138.663 101.831L138.105 101.215L139.533 100.935L140.25 100.2L140.4 100.759L141.106 100.619L140.709 101.758L141.295 103.655L141.438 102.597L141.945 102.976L142.459 100.809L140.119 99.7402C138.886 99.7402 137.378 99.7402 135.693 99.7402L135.391 100.146L137.313 100.066L135.943 102.623L134.826 100.919L134.415 101.471H134.459L134.315 101.591L132.876 103.539L132.63 103.003L130.231 105.024L129.203 99.7169H128.624L128.1 101.445L126.38 99.7601H124.29L124.033 99.8367L124.05 99.7568H122.813L122.865 99.9233L122.132 99.7535H119.305L122.649 102.257L116.91 104.554L117.571 99.7468H116.434V99.7235H114.292H112.151V99.7468C104.11 99.7801 87.3758 99.84 85.3372 99.7235C82.6408 99.5704 81.2257 102.054 81.2257 102.054L75.3566 110.071L112.017 111.166L111.993 111.249ZM136.957 108.06L138.67 109.182L136.82 110.081L136.957 108.06ZM126.658 100.426L126.747 101.758L125.524 101.172L126.658 100.426ZM127.343 103.479L126.76 105.42L128.172 104.468L128.463 107.797L125.339 106.369L125.712 106.119L124.41 105.237L125.438 104.774L124.753 104.082L127.343 103.479ZM122.354 100.483L124.602 100.506L123.454 102.384L122.354 100.483Z" fill="#13AB62"/>
<path d="M148.983 104.205L149.846 105.576L149.936 105.503L148.983 104.205Z" fill="#13AB62"/>
<path opacity="0.18" d="M155.465 108.653H73.1227V109.575H155.465V108.653Z" fill="white"/>
<path opacity="0.18" d="M87.8521 100.266C83.6858 100.266 82.3701 102.464 82.3701 102.464L78.2141 107.701C78.2141 107.701 84.765 107.701 84.7753 107.664C86.6803 103.389 87.948 102.157 93.5225 101.771C97.9526 101.462 136.813 100.586 141.243 100.28C141.298 100.28 115.276 100.28 115.331 100.28L87.8521 100.266Z" fill="white"/>
<path d="M173.645 203.321L170.25 204.296L172.816 206.667L173.645 203.321Z" fill="#13AB62"/>
<path d="M176.996 200.434L175.005 198.18L173.995 200.984L176.996 200.434Z" fill="#13AB62"/>
<path d="M188.155 195.354L184.636 195.66L186.668 198.467L188.155 195.354Z" fill="#13AB62"/>
<path d="M180.508 180.359L178.736 178.694L178.137 181.015L180.508 180.359Z" fill="#13AB62"/>
<path d="M190.084 169.305L190.893 166.952L188.388 167.448L190.084 169.305Z" fill="#13AB62"/>
<path d="M203.556 168.476L201.202 166.582L200.692 169.512L203.556 168.476Z" fill="#13AB62"/>
<path d="M193.815 165.936L191.489 166.609L193.247 168.23L193.815 165.936Z" fill="#13AB62"/>
<path d="M185.404 159.964L181.971 159.218L183.019 162.481L185.404 159.964Z" fill="#13AB62"/>
<path d="M155.613 188.842L151.46 184.137L149.346 189.984L155.613 188.842Z" fill="#13AB62"/>
<path d="M169.845 182.366L166.882 179.643L165.936 183.498L169.845 182.366Z" fill="#13AB62"/>
<path d="M155.911 173.377L152.221 169.898L150.967 174.742L155.911 173.377Z" fill="#13AB62"/>
<path d="M175.403 149.01L176.194 146.703L173.744 147.189L175.403 149.01Z" fill="#13AB62"/>
<path d="M204.005 148.584L199.092 144.636L198.026 150.745L204.005 148.584Z" fill="#13AB62"/>
<path d="M183.677 143.287L178.822 144.682L182.495 148.071L183.677 143.287Z" fill="#13AB62"/>
<path d="M194.566 145.201L195.498 142.894L192.976 143.264L194.566 145.201Z" fill="#13AB62"/>
<path d="M202.511 139.851L203.405 136.385L199.869 137.368L202.511 139.851Z" fill="#13AB62"/>
<path d="M216.96 141.426L217.885 139.199L215.435 139.535L216.96 141.426Z" fill="#13AB62"/>
<path d="M218.375 136.589L217.162 133.329L214.863 135.979L218.375 136.589Z" fill="#13AB62"/>
<path d="M209.521 135.533L206.571 135.769L208.257 138.13L209.521 135.533Z" fill="#13AB62"/>
<path d="M206.146 128.026L203.265 126.361L203.22 129.614L206.146 128.026Z" fill="#13AB62"/>
<path d="M214.571 114.602L214.969 112.358L212.769 113.147L214.571 114.602Z" fill="#13AB62"/>
<path d="M225.378 119.553L226.231 116.74L223.298 117.432L225.378 119.553Z" fill="#13AB62"/>
<path d="M229.366 118.86L226.121 119.809L228.588 122.066L229.366 118.86Z" fill="#13AB62"/>
<path d="M226.879 116.926L224.456 119.416L227.886 120.209L226.879 116.926Z" fill="#13AB62"/>
<path d="M210.847 115.611L209.405 117.302L211.632 117.668L210.847 115.611Z" fill="#13AB62"/>
<path d="M197.454 116.074L195.196 118.63L198.602 119.256L197.454 116.074Z" fill="#13AB62"/>
<path d="M165.172 175.451L160.016 175.861L162.962 179.996L165.172 175.451Z" fill="#13AB62"/>
<path d="M172.926 175.335L169.397 175.618L171.411 178.448L172.926 175.335Z" fill="#13AB62"/>
<path d="M156.623 161.039L154.246 159.664L154.208 162.351L156.623 161.039Z" fill="#13AB62"/>
<path d="M166.183 144.296L164.579 146.177L167.056 146.586L166.183 144.296Z" fill="#13AB62"/>
<path d="M137.93 144.233L133.106 149.689L140.38 151.021L137.93 144.233Z" fill="#13AB62"/>
<path d="M182.005 96.897L181.265 93.4446L178.558 95.7951L182.005 96.897Z" fill="#13AB62"/>
<path d="M188.69 92.3391L188.268 89.9054L186.312 91.4768L188.69 92.3391Z" fill="#13AB62"/>
<path d="M192.75 86.3298L191.551 83.7163L189.824 86.0335L192.75 86.3298Z" fill="#13AB62"/>
<path d="M202.059 82.1682L199.205 81.6621L200.178 84.3189L202.059 82.1682Z" fill="#13AB62"/>
<path d="M203.491 87.5183L202.117 90.7943L205.725 90.3149L203.491 87.5183Z" fill="#13AB62"/>
<path d="M194.206 82.3346L193.521 84.7583L196.022 84.1224L194.206 82.3346Z" fill="#13AB62"/>
<path d="M181.762 95.2056L180.892 97.586L183.448 97.1332L181.762 95.2056Z" fill="#13AB62"/>
<path d="M173.933 94.4399L172.751 97.4929L176.061 96.9602L173.933 94.4399Z" fill="#13AB62"/>
<path d="M159.286 94.9292L158.244 97.7857L161.307 97.2364L159.286 94.9292Z" fill="#13AB62"/>
<path d="M144.515 95.855L143.227 99.0644L146.732 98.545L144.515 95.855Z" fill="#13AB62"/>
<path d="M133.356 102.723L132.561 104.681L134.702 104.371L133.356 102.723Z" fill="#13AB62"/>
<path d="M123.591 104.411L122.214 107.89L126.003 107.308L123.591 104.411Z" fill="#13AB62"/>
<path d="M118.315 94.1003L119.572 92.359L117.393 92.1726L118.315 94.1003Z" fill="#13AB62"/>
<path d="M131.862 100.989L133.246 99.0076L130.786 98.8345L131.862 100.989Z" fill="#13AB62"/>
<path d="M146.876 94.8994L149.13 92.5655L145.92 91.8364L146.876 94.8994Z" fill="#13AB62"/>
<path d="M157.71 103.163L159.978 100.326L156.319 99.8368L157.71 103.163Z" fill="#13AB62"/>
<path d="M168.965 99.4539L171.014 97.9024L168.605 96.9569L168.965 99.4539Z" fill="#13AB62"/>
<path d="M166.429 116.986L165.593 119.316L168.088 118.854L166.429 116.986Z" fill="#13AB62"/>
<path d="M155.931 120.635L155.315 123.262L157.963 122.466L155.931 120.635Z" fill="#13AB62"/>
<path d="M141.545 117.439L140.513 120.601L143.847 119.889L141.545 117.439Z" fill="#13AB62"/>
<path d="M132.338 125.709L132.092 127.913L134.182 127.017L132.338 125.709Z" fill="#13AB62"/>
<path d="M127.274 119.343L128.789 116.996L125.942 116.899L127.274 119.343Z" fill="#13AB62"/>
<path d="M136.313 115.887L138.372 113.384L135.114 112.901L136.313 115.887Z" fill="#13AB62"/>
<path d="M146.526 121.254L147.75 119.493L145.567 119.343L146.526 121.254Z" fill="#13AB62"/>
<path d="M156.946 117.692L159.084 115.424L155.997 114.758L156.946 117.692Z" fill="#13AB62"/>
<path d="M168.393 121.058L170.03 119.376L167.714 118.84L168.393 121.058Z" fill="#13AB62"/>
<path d="M174.08 131.568L173.549 134.584L176.503 133.526L174.08 131.568Z" fill="#13AB62"/>
<path d="M168.122 140.81L167.879 143.756L170.627 142.488L168.122 140.81Z" fill="#13AB62"/>
<path d="M157.816 143.633L157.449 146.869L160.516 145.561L157.816 143.633Z" fill="#13AB62"/>
<path d="M148.719 144.166L151.498 143.587L149.593 141.536L148.719 144.166Z" fill="#13AB62"/>
<path d="M161.465 142.159L163.623 139.955L160.577 139.239L161.465 142.159Z" fill="#13AB62"/>
<path d="M199.931 181.301L202.066 180.299L200.106 179L199.931 181.301Z" fill="#13AB62"/>
<path d="M205.845 95.3954L206.653 93.0416L204.149 93.5377L205.845 95.3954Z" fill="#13AB62"/>
<path d="M219.317 94.5664L216.963 92.672L216.453 95.6018L219.317 94.5664Z" fill="#13AB62"/>
<path d="M215.692 107.391L217.826 106.389L215.867 105.09L215.692 107.391Z" fill="#13AB62"/>
<path d="M187.007 143.061L183.612 144.036L186.178 146.407L187.007 143.061Z" fill="#13AB62"/>
<path d="M176.653 124.194L174.663 121.94L173.652 124.743L176.653 124.194Z" fill="#13AB62"/>
<path d="M183.701 120.445L180.182 120.751L182.214 123.558L183.701 120.445Z" fill="#13AB62"/>
<path d="M176.054 105.45L174.282 103.785L173.683 106.106L176.054 105.45Z" fill="#13AB62"/>
<path d="M165.316 114.519L163.291 112.225L162.26 115.075L165.316 114.519Z" fill="#13AB62"/>
<path d="M171.867 107.384L167.399 107.77L169.979 111.336L171.867 107.384Z" fill="#13AB62"/>
<path d="M195.477 106.392L197.612 105.39L195.652 104.092L195.477 106.392Z" fill="#13AB62"/>
<path d="M158.563 156.987L159.371 154.633L156.867 155.129L158.563 156.987Z" fill="#13AB62"/>
<path d="M172.035 156.158L169.681 154.264L169.17 157.193L172.035 156.158Z" fill="#13AB62"/>
<path d="M162.294 153.618L159.968 154.29L161.725 155.915L162.294 153.618Z" fill="#13AB62"/>
<path d="M153.882 147.645L150.449 146.899L151.498 150.162L153.882 147.645Z" fill="#13AB62"/>
<path d="M168.41 168.982L170.544 167.98L168.585 166.682L168.41 168.982Z" fill="#13AB62"/>
<path d="M165.895 165.35L164.891 168.65L168.331 167.847L165.895 165.35Z" fill="#13AB62"/>
<path d="M182.221 163.05L180.45 161.382L179.85 163.702L182.221 163.05Z" fill="#13AB62"/>
<path d="M191.797 151.993L192.606 149.639L190.101 150.135L191.797 151.993Z" fill="#13AB62"/>
<path d="M195.528 148.624L193.202 149.296L194.96 150.921L195.528 148.624Z" fill="#13AB62"/>
<path d="M187.117 142.651L183.684 141.906L184.732 145.168L187.117 142.651Z" fill="#13AB62"/>
<path d="M154.993 152.443L153.852 151.364L153.461 152.865L154.993 152.443Z" fill="#13AB62"/>
<path d="M190.153 137.321L191.513 136.389L190.002 135.71L190.153 137.321Z" fill="#13AB62"/>
<path d="M181.477 133.879L179.518 133.632L180.278 135.403L181.477 133.879Z" fill="#13AB62"/>
<path d="M196.279 127.889L197.211 125.582L194.689 125.952L196.279 127.889Z" fill="#13AB62"/>
<path d="M186.983 167.461L180.689 167.964L184.284 173.004L186.983 167.461Z" fill="#13AB62"/>
<path d="M174.639 158.023L171.11 158.306L173.124 161.135L174.639 158.023Z" fill="#13AB62"/>
<path d="M168.228 125.932L165.155 129.541L169.907 130.323L168.228 125.932Z" fill="#13AB62"/>
<path d="M159.529 126.321L159.162 129.557L162.229 128.249L159.529 126.321Z" fill="#13AB62"/>
<path d="M188.721 125.748L185.325 126.724L187.891 129.094L188.721 125.748Z" fill="#13AB62"/>
<path d="M144.515 193.276L145.324 190.922L142.819 191.419L144.515 193.276Z" fill="#13AB62"/>
<path d="M157.987 192.447L155.633 190.553L155.123 193.483L157.987 192.447Z" fill="#13AB62"/>
<path d="M148.246 189.907L145.92 190.576L147.678 192.201L148.246 189.907Z" fill="#13AB62"/>
<path d="M158.436 172.162L155.664 169.938L155.065 173.381L158.436 172.162Z" fill="#13AB62"/>
<path d="M148.997 169.172L149.929 166.865L147.407 167.235L148.997 169.172Z" fill="#13AB62"/>
<path d="M171.391 165.397L172.316 163.17L169.866 163.506L171.391 165.397Z" fill="#13AB62"/>
<path d="M172.806 160.56L171.593 157.3L169.294 159.95L172.806 160.56Z" fill="#13AB62"/>
<path d="M163.952 159.504L161.002 159.74L162.688 162.101L163.952 159.504Z" fill="#13AB62"/>
<path d="M161.605 149.999L158.724 148.334L158.679 151.587L161.605 149.999Z" fill="#13AB62"/>
<path d="M169.003 138.573L169.4 136.332L167.2 137.118L169.003 138.573Z" fill="#13AB62"/>
<path d="M165.278 139.582L163.836 141.273L166.063 141.639L165.278 139.582Z" fill="#13AB62"/>
<path d="M151.885 140.044L149.627 142.601L153.033 143.224L151.885 140.044Z" fill="#13AB62"/>
<path d="M143.121 116.31L142.699 113.876L140.743 115.448L143.121 116.31Z" fill="#13AB62"/>
<path d="M157.922 111.489L156.548 114.765L160.156 114.286L157.922 111.489Z" fill="#13AB62"/>
<path d="M154.362 205.272L156.497 204.269L154.537 202.971L154.362 205.272Z" fill="#13AB62"/>
<path d="M160.276 119.366L161.084 117.012L158.58 117.509L160.276 119.366Z" fill="#13AB62"/>
<path d="M173.748 118.537L171.394 116.643L170.884 119.573L173.748 118.537Z" fill="#13AB62"/>
<path d="M170.123 131.362L172.257 130.36L170.298 129.061L170.123 131.362Z" fill="#13AB62"/>
<path d="M149.908 130.363L152.043 129.361L150.083 128.062L149.908 130.363Z" fill="#13AB62"/>
<path d="M146.228 175.964L147.037 173.61L144.532 174.106L146.228 175.964Z" fill="#13AB62"/>
<path d="M149.96 172.595L147.633 173.264L149.391 174.889L149.96 172.595Z" fill="#13AB62"/>
<path d="M150.71 151.86L151.642 149.553L149.12 149.922L150.71 151.86Z" fill="#13AB62"/>
<path d="M143.152 149.719L139.756 150.695L142.322 153.065L143.152 149.719Z" fill="#13AB62"/>
<path d="M160.276 139.675L161.084 137.321L158.58 137.817L160.276 139.675Z" fill="#13AB62"/>
<path d="M173.748 138.846L171.394 136.952L170.884 139.881L173.748 138.846Z" fill="#13AB62"/>
<path d="M164.007 136.306L161.681 136.978L163.438 138.603L164.007 136.306Z" fill="#13AB62"/>
<path d="M170.123 151.67L172.257 150.668L170.298 149.37L170.123 151.67Z" fill="#13AB62"/>
<path d="M167.608 148.038L166.604 151.337L170.044 150.535L167.608 148.038Z" fill="#13AB62"/>
<path d="M169.886 191.013L168.115 189.348L167.516 191.668L169.886 191.013Z" fill="#13AB62"/>
<path d="M179.463 179.959L180.271 177.605L177.767 178.102L179.463 179.959Z" fill="#13AB62"/>
<path d="M183.194 176.59L180.868 177.259L182.625 178.884L183.194 176.59Z" fill="#13AB62"/>
<path d="M174.783 170.617L171.349 169.871L172.398 173.134L174.783 170.617Z" fill="#13AB62"/>
<path d="M145.29 184.031L141.599 180.552L140.345 185.396L145.29 184.031Z" fill="#13AB62"/>
<path d="M154.65 136.998L156.339 132.081L151.114 133.116L154.65 136.998Z" fill="#13AB62"/>
<path d="M173.056 153.941L168.201 155.336L171.874 158.725L173.056 153.941Z" fill="#13AB62"/>
<path d="M183.944 155.855L184.876 153.548L182.355 153.918L183.944 155.855Z" fill="#13AB62"/>
<path d="M155.119 186.105L148.825 186.608L152.42 191.648L155.119 186.105Z" fill="#13AB62"/>
<path d="M162.304 185.989L158.775 186.272L160.79 189.101L162.304 185.989Z" fill="#13AB62"/>
<path d="M144.786 171.703L141.723 169.928L141.671 173.394L144.786 171.703Z" fill="#13AB62"/>
<path d="M154.277 155.359L152.724 157.18L155.123 157.576L154.277 155.359Z" fill="#13AB62"/>
<path d="M147.195 154.287L146.828 157.523L149.894 156.215L147.195 154.287Z" fill="#13AB62"/>
<path d="M176.386 153.714L172.991 154.69L175.557 157.06L176.386 153.714Z" fill="#13AB62"/>
<path d="M147.941 167.641L148.75 165.287L146.245 165.783L147.941 167.641Z" fill="#13AB62"/>
<path d="M161.413 166.812L159.06 164.917L158.549 167.847L161.413 166.812Z" fill="#13AB62"/>
<path d="M151.673 164.271L149.346 164.944L151.104 166.569L151.673 164.271Z" fill="#13AB62"/>
<path d="M157.788 179.636L159.923 178.634L157.963 177.336L157.788 179.636Z" fill="#13AB62"/>
<path d="M155.274 176.004L154.27 179.303L157.71 178.501L155.274 176.004Z" fill="#13AB62"/>
<path d="M151.327 164.543L150.333 167.643L153.595 166.93L151.327 164.543Z" fill="#13AB62"/>
<path d="M136.693 167.231L135.61 170.611L139.16 169.832L136.693 167.231Z" fill="#13AB62"/>
<path d="M126.712 169.575L126.061 171.986L128.535 171.33L126.712 169.575Z" fill="#13AB62"/>
<path d="M115.101 171.766L115.169 175.345L118.325 173.497L115.101 171.766Z" fill="#13AB62"/>
<path d="M115.365 176.17L118.147 173.657L114.515 172.571L115.365 176.17Z" fill="#13AB62"/>
<path d="M0.407719 2.45365L2.20308 0.988768L0 0.209717L0.407719 2.45365Z" fill="#13AB62"/>
<path d="M144.707 177.915L147.657 177.289L145.622 175.122L144.707 177.915Z" fill="#13AB62"/>
<path d="M141.096 192.87L140.366 196.343L143.823 195.221L141.096 192.87Z" fill="#13AB62"/>
<path d="M129.666 193.383L128.878 196.632L132.17 195.673L129.666 193.383Z" fill="#13AB62"/>
<path d="M123.242 196.226L126.771 195.23L124.119 192.757L123.242 196.226Z" fill="#13AB62"/>
<path d="M130.8 194.851L132.907 192.257L129.546 191.781L130.8 194.851Z" fill="#13AB62"/>
<path d="M146.146 196.133L147.568 194.511L145.409 194.125L146.146 196.133Z" fill="#13AB62"/>
<path d="M155.938 203.504L158.95 203.69L157.61 201.064L155.938 203.504Z" fill="#13AB62"/>
</svg>
