<svg width="420" height="255" viewBox="0 0 420 255" fill="none" xmlns="http://www.w3.org/2000/svg">
<path d="M98.1984 177.66H73.1514V190.586H98.1984V177.66Z" fill="#4D4D4D"/>
<path d="M95.5116 177.66H92.8247V187.813H95.5116V177.66Z" fill="#E6E6E6"/>
<path d="M78.5173 177.66H75.8306V187.813H78.5173V177.66Z" fill="#E6E6E6"/>
<path d="M97.0169 187.813H73.4298C71.2975 187.813 69.5688 189.596 69.5688 191.797V192.139C69.5688 194.341 71.2975 196.125 73.4298 196.125H97.0169C99.1491 196.125 100.878 194.341 100.878 192.139V191.797C100.878 189.596 99.1491 187.813 97.0169 187.813Z" fill="#333333"/>
<path d="M142.912 172.121H65.0986V179.508H142.912V172.121Z" fill="#333333"/>
<path d="M280.679 105.672L270.375 108.173V165.658" stroke="#333333" stroke-width="3" stroke-linecap="round" stroke-linejoin="round"/>
<path d="M127.709 194.276H323.344C335.438 194.276 343.951 189.678 343.951 177.186C343.951 164.71 335.438 160.096 323.344 160.096H269.909L261.63 166.691L127.709 166.574V194.276Z" fill="#333333"/>
<path d="M282.53 86.259H283.012C283.14 86.259 283.261 86.259 283.389 86.259H345.208L356.723 106.021L367.561 140.163L367.674 191.519H328.063C328.063 170.288 309.18 169.363 309.18 169.363H275.334V94.0117C275.334 90.0654 278.751 86.259 282.53 86.259Z" fill="#CCCCCC"/>
<path d="M287.821 92.7222V124.121C287.821 124.121 293.984 134.127 350.228 141.437C350.228 141.437 347.819 105.648 329.357 92.7222H287.821Z" fill="#333333"/>
<path d="M298.546 145.344H288.708V161.96H298.546V145.344Z" fill="#4D4D4D"/>
<path d="M298.546 156.429H288.708V161.968H298.546V156.429Z" fill="#666666"/>
<path d="M354.57 182.274H342.701C341.039 182.274 339.692 183.666 339.692 185.381V185.63C339.692 187.347 341.039 188.738 342.701 188.738H354.57C356.234 188.738 357.581 187.347 357.581 185.63V185.381C357.581 183.666 356.234 182.274 354.57 182.274Z" fill="white"/>
<path d="M339.699 185.996C339.699 187.806 340.775 188.736 343.259 188.736H350.431V182.274H343.259C341.369 182.08 339.699 183.16 339.699 184.962V185.996Z" fill="#F7931E"/>
<path d="M345.237 86.9038C345.237 86.9038 367.674 104.957 367.561 143.184C367.561 143.184 364.008 143.425 363.798 141.631C360.381 111.327 347.977 96.21 345.237 86.9038Z" fill="#333333"/>
<path d="M366.59 156.429H366.462C365.51 156.429 364.738 157.226 364.738 158.208V184.193C364.738 185.176 365.51 185.972 366.462 185.972H366.59C367.542 185.972 368.313 185.176 368.313 184.193V158.208C368.313 157.226 367.542 156.429 366.59 156.429Z" fill="#999999"/>
<path d="M367.989 191.51H327.498C325.836 191.51 324.489 192.901 324.489 194.618V194.867C324.489 196.582 325.836 197.973 327.498 197.973H367.989C369.653 197.973 371 196.582 371 194.867V194.618C371 192.901 369.653 191.51 367.989 191.51Z" fill="#666666"/>
<path d="M345.404 86.2589C345.404 86.2589 338.479 50.9369 275.688 51.1002C275.688 51.1002 273.92 76.8206 276.651 81.6447C276.651 81.6447 278.751 86.2589 281.326 86.2589H345.404Z" fill="#E6E6E6"/>
<path d="M274.725 196.412C274.725 200.915 276.02 205.318 278.443 209.063C280.867 212.807 284.313 215.726 288.345 217.448C292.375 219.171 296.812 219.623 301.09 218.742C305.37 217.863 309.3 215.695 312.385 212.51C315.47 209.325 317.57 205.267 318.42 200.849C319.271 196.432 318.833 191.853 317.163 187.693C315.492 183.533 312.663 179.978 309.034 177.477C305.405 174.976 301.14 173.642 296.776 173.644C293.881 173.644 291.012 174.233 288.337 175.377C285.66 176.521 283.229 178.198 281.181 180.313C279.134 182.427 277.51 184.937 276.402 187.699C275.294 190.462 274.725 193.422 274.725 196.412Z" fill="#333333"/>
<path d="M282.447 196.411C282.447 199.332 283.285 202.185 284.857 204.612C286.428 207.039 288.662 208.931 291.275 210.048C293.888 211.166 296.763 211.457 299.537 210.887C302.311 210.319 304.858 208.913 306.859 206.848C308.858 204.784 310.22 202.154 310.772 199.292C311.324 196.428 311.041 193.46 309.958 190.764C308.876 188.067 307.043 185.761 304.691 184.139C302.34 182.518 299.575 181.652 296.747 181.652C292.955 181.652 289.317 183.207 286.635 185.976C283.954 188.744 282.447 192.497 282.447 196.411Z" fill="#CCCCCC"/>
<path d="M292.592 196.412C292.59 197.269 292.835 198.106 293.296 198.818C293.756 199.532 294.411 200.088 295.177 200.417C295.943 200.744 296.786 200.831 297.601 200.664C298.414 200.498 299.163 200.085 299.749 199.48C300.335 198.874 300.735 198.102 300.896 197.263C301.057 196.422 300.975 195.552 300.656 194.76C300.338 193.97 299.8 193.293 299.109 192.818C298.418 192.345 297.606 192.092 296.776 192.093C295.667 192.093 294.602 192.547 293.818 193.358C293.034 194.168 292.592 195.266 292.592 196.412Z" fill="#E6E6E6" stroke="#333333" stroke-miterlimit="10"/>
<path d="M300.336 184.123H293.179V185.972H300.336V184.123Z" fill="#333333"/>
<path d="M300.336 207.202H293.179V209.051H300.336V207.202Z" fill="#333333"/>
<path d="M287.821 193.351H286.029V199.814H287.821V193.351Z" fill="#333333"/>
<path d="M308.39 193.351H306.599V199.814H308.39V193.351Z" fill="#333333"/>
<path d="M242.197 185.047H144.703V191.51H242.197V185.047Z" fill="#808080"/>
<path d="M105.996 196.412C105.996 200.915 107.289 205.317 109.713 209.061C112.137 212.806 115.582 215.724 119.613 217.447C123.644 219.171 128.079 219.621 132.358 218.743C136.637 217.864 140.568 215.696 143.653 212.513C146.738 209.328 148.839 205.271 149.69 200.855C150.541 196.437 150.105 191.859 148.435 187.699C146.765 183.539 143.938 179.983 140.31 177.481C136.683 174.979 132.418 173.644 128.055 173.644C122.204 173.644 116.593 176.042 112.457 180.312C108.32 184.582 105.996 190.373 105.996 196.412Z" fill="#333333"/>
<path d="M113.725 196.411C113.725 199.332 114.564 202.185 116.135 204.612C117.706 207.039 119.94 208.931 122.553 210.048C125.165 211.166 128.041 211.457 130.814 210.887C133.588 210.319 136.136 208.913 138.136 206.848C140.136 204.784 141.498 202.154 142.05 199.292C142.601 196.428 142.318 193.46 141.236 190.764C140.154 188.067 138.321 185.761 135.969 184.139C133.618 182.518 130.853 181.652 128.025 181.652C124.232 181.652 120.595 183.207 117.913 185.976C115.232 188.744 113.725 192.497 113.725 196.411Z" fill="#CCCCCC"/>
<path d="M123.863 196.412C123.861 197.269 124.106 198.105 124.566 198.818C125.025 199.53 125.679 200.087 126.445 200.415C127.211 200.744 128.054 200.831 128.868 200.665C129.682 200.498 130.429 200.087 131.016 199.483C131.603 198.877 132.003 198.106 132.166 197.267C132.328 196.428 132.246 195.556 131.928 194.766C131.611 193.974 131.074 193.298 130.385 192.823C129.695 192.348 128.884 192.093 128.055 192.093C127.505 192.092 126.96 192.203 126.451 192.42C125.943 192.636 125.48 192.954 125.091 193.355C124.702 193.757 124.393 194.233 124.182 194.757C123.971 195.282 123.863 195.845 123.863 196.412Z" fill="#E6E6E6" stroke="#333333" stroke-miterlimit="10"/>
<path d="M131.291 184.123H125.029V185.972H131.291V184.123Z" fill="#333333"/>
<path d="M131.291 207.202H125.029V209.051H131.291V207.202Z" fill="#333333"/>
<path d="M118.768 193.351H116.977V199.814H118.768V193.351Z" fill="#333333"/>
<path d="M139.344 193.351H137.553V199.814H139.344V193.351Z" fill="#333333"/>
<path d="M339.345 93.3823C339.345 93.3823 356.242 119.017 355.346 144.52V173.309L328.613 173.27C328.613 173.27 323.78 162.9 308.217 162.9" stroke="#999999" stroke-linecap="round" stroke-linejoin="round"/>
<path d="M348.812 145.344H340.406C339.517 145.344 338.796 146.088 338.796 147.006V147.371C338.796 148.289 339.517 149.034 340.406 149.034H348.812C349.703 149.034 350.424 148.289 350.424 147.371V147.006C350.424 146.088 349.703 145.344 348.812 145.344Z" fill="#666666"/>
<path d="M263.661 182.274H230.569V197.05H263.661V182.274Z" fill="#666666"/>
<path d="M49.8955 185.972H64.4586L70.8936 166.582H49.8955V185.972Z" fill="#D9D9D9"/>
<path d="M317.369 92.7222L324.082 137.242C316.823 135.797 309.659 133.882 302.633 131.509L296.754 92.7222H317.369Z" fill="#4D4D4D"/>
<path d="M261.878 35.4861H49.8955V173.045H261.878V35.4861Z" fill="url(#paint0_linear)"/>
<path d="M61.7495 161.044H251.507V43.7981H61.7495V161.044Z" fill="url(#paint1_linear)"/>
<path d="M103.663 95.5032H73.7989C70.2408 95.5032 67.3564 98.4803 67.3564 102.153C67.3564 105.825 70.2408 108.802 73.7989 108.802H103.663C107.221 108.802 110.105 105.825 110.105 102.153C110.105 98.4803 107.221 95.5032 103.663 95.5032Z" fill="#E1632A"/>
<path d="M103.67 109.09H73.7987C72.0143 109.09 70.3028 108.358 69.041 107.056C67.7791 105.753 67.0703 103.987 67.0703 102.145C67.0703 100.303 67.7791 98.5367 69.041 97.2343C70.3028 95.9319 72.0143 95.2002 73.7987 95.2002H103.67C105.454 95.2002 107.166 95.9319 108.428 97.2343C109.69 98.5367 110.398 100.303 110.398 102.145C110.398 103.987 109.69 105.753 108.428 107.056C107.166 108.358 105.454 109.09 103.67 109.09ZM73.7987 95.7906C72.1659 95.7906 70.5999 96.4601 69.4454 97.6517C68.2909 98.8434 67.6422 100.46 67.6422 102.145C67.6422 103.83 68.2909 105.447 69.4454 106.638C70.5999 107.83 72.1659 108.499 73.7987 108.499H103.67C105.303 108.499 106.869 107.83 108.023 106.638C109.178 105.447 109.827 103.83 109.827 102.145C109.827 100.46 109.178 98.8434 108.023 97.6517C106.869 96.4601 105.303 95.7906 103.67 95.7906H73.7987Z" fill="black"/>
<path d="M72.3688 100.547C72.3601 100.522 72.3601 100.494 72.3688 100.469C72.3907 100.461 72.4146 100.461 72.4365 100.469H73.9418C74.0684 100.47 74.1936 100.496 74.3106 100.547C74.4229 100.596 74.525 100.668 74.6117 100.757C74.6993 100.845 74.7685 100.95 74.8148 101.067C74.8687 101.189 74.8969 101.322 74.8976 101.456C74.8961 101.564 74.8783 101.671 74.8449 101.774C74.8083 101.87 74.7575 101.959 74.6944 102.038C74.8002 102.14 74.8869 102.261 74.9503 102.396C75.0047 102.527 75.0327 102.668 75.0327 102.811C75.0327 102.954 75.0047 103.096 74.9503 103.227C74.9006 103.348 74.8292 103.459 74.7395 103.553C74.6514 103.648 74.5467 103.724 74.431 103.778C74.3151 103.833 74.1895 103.862 74.0622 103.864H72.4591C72.4373 103.873 72.4131 103.873 72.3914 103.864C72.3827 103.839 72.3827 103.811 72.3914 103.786L72.3688 100.547ZM74.0396 101.448C74.0508 101.405 74.0508 101.359 74.0396 101.316C74.0241 101.278 74.0011 101.243 73.9719 101.215C73.9414 101.183 73.9057 101.157 73.8665 101.137C73.8218 101.128 73.7758 101.128 73.731 101.137H73.2569V101.798H73.7235C73.7709 101.806 73.8192 101.806 73.8665 101.798C73.9057 101.782 73.9417 101.758 73.9719 101.728C74.0011 101.699 74.0241 101.665 74.0396 101.627C74.0537 101.579 74.0537 101.527 74.0396 101.479V101.448ZM74.1525 102.769C74.1596 102.725 74.1596 102.68 74.1525 102.636C74.1347 102.591 74.1091 102.549 74.0772 102.512C74.0491 102.476 74.0131 102.446 73.9719 102.427C73.9302 102.403 73.8839 102.39 73.8364 102.388H73.2494V103.165H73.8364C73.881 103.176 73.9273 103.176 73.9719 103.165C74.0133 103.146 74.0495 103.116 74.0772 103.079C74.1091 103.045 74.1346 103.006 74.1525 102.963C74.1621 102.909 74.1621 102.854 74.1525 102.8V102.769Z" fill="black"/>
<path d="M75.4923 100.546C75.4837 100.52 75.4837 100.493 75.4923 100.468C75.5168 100.46 75.543 100.46 75.5676 100.468H77.7576C77.7696 100.463 77.7824 100.46 77.7953 100.46C77.8083 100.46 77.8211 100.463 77.8329 100.468C77.8378 100.48 77.8405 100.493 77.8405 100.507C77.8405 100.52 77.8378 100.533 77.8329 100.546V101.112C77.8423 101.138 77.8423 101.165 77.8329 101.19C77.8213 101.196 77.8084 101.2 77.7953 101.2C77.7823 101.2 77.7693 101.196 77.7576 101.19H76.3278V101.757H77.434H77.5018C77.5064 101.767 77.5088 101.778 77.5088 101.788C77.5088 101.799 77.5064 101.81 77.5018 101.819V102.317C77.5059 102.326 77.508 102.337 77.508 102.348C77.508 102.358 77.5059 102.369 77.5018 102.379C77.4799 102.387 77.4559 102.387 77.434 102.379H76.3278V102.961H77.8329C77.9006 102.961 77.9307 102.961 77.9307 103.062V103.637C77.9307 103.637 77.9307 103.637 77.9307 103.676C77.9299 103.687 77.9269 103.698 77.9217 103.707C77.9166 103.717 77.9094 103.725 77.9009 103.732C77.8923 103.739 77.8826 103.743 77.8721 103.746C77.8617 103.748 77.8509 103.748 77.8405 103.746H75.5826C75.5609 103.755 75.5367 103.755 75.5149 103.746C75.5094 103.734 75.5067 103.721 75.5067 103.707C75.5067 103.694 75.5094 103.68 75.5149 103.668L75.4923 100.546Z" fill="black"/>
<path d="M78.9015 102.768L78.9918 102.853L79.1273 102.955C79.1976 103.005 79.2733 103.047 79.353 103.079C79.4276 103.107 79.5068 103.12 79.5864 103.118C79.6487 103.127 79.7121 103.127 79.7745 103.118C79.8199 103.106 79.8616 103.082 79.8949 103.048C79.9243 103.021 79.9452 102.986 79.9551 102.947C79.9622 102.908 79.9622 102.869 79.9551 102.83C79.9524 102.781 79.9339 102.735 79.9024 102.698C79.8642 102.661 79.8211 102.63 79.7745 102.605L79.6165 102.527L79.4734 102.473C79.3158 102.417 79.1622 102.35 79.0143 102.271C78.8909 102.205 78.7768 102.121 78.6757 102.022C78.5945 101.936 78.5283 101.836 78.48 101.727C78.4336 101.611 78.4106 101.487 78.4123 101.362C78.412 101.228 78.4402 101.095 78.495 100.974C78.5537 100.858 78.6359 100.758 78.7358 100.678C78.8458 100.592 78.9711 100.529 79.1046 100.492C79.2609 100.444 79.4233 100.42 79.5864 100.422C79.7157 100.421 79.8445 100.437 79.9701 100.469C80.0993 100.499 80.2235 100.549 80.3389 100.616L80.4819 100.71L80.5949 100.81C80.6294 100.831 80.658 100.86 80.6776 100.896C80.6864 100.918 80.6864 100.943 80.6776 100.966C80.6839 100.983 80.6839 101.003 80.6776 101.02L80.64 101.075L80.3014 101.447C80.2806 101.468 80.2543 101.481 80.2261 101.486H80.1658L80.1131 101.44L80.0153 101.354L79.8949 101.284L79.7669 101.23C79.722 101.223 79.6763 101.223 79.6315 101.23H79.4885L79.3755 101.277C79.3454 101.293 79.3195 101.317 79.3003 101.347C79.2917 101.382 79.2917 101.419 79.3003 101.455C79.2928 101.491 79.2928 101.528 79.3003 101.564C79.3259 101.6 79.3594 101.629 79.3981 101.649C79.4443 101.683 79.495 101.709 79.5486 101.727L79.7669 101.805L80.196 101.968C80.3176 102.021 80.4317 102.092 80.5346 102.178C80.6298 102.255 80.707 102.353 80.7604 102.465C80.8177 102.591 80.846 102.73 80.8433 102.869C80.8464 103.028 80.813 103.185 80.7454 103.327C80.6784 103.461 80.5833 103.578 80.4669 103.669C80.3472 103.771 80.209 103.848 80.0604 103.894C79.8976 103.949 79.7273 103.975 79.5562 103.972C79.3867 103.971 79.2185 103.94 79.0595 103.879C78.8969 103.816 78.7427 103.733 78.6004 103.63L78.4499 103.498C78.4212 103.461 78.3883 103.427 78.352 103.397C78.3257 103.376 78.3072 103.346 78.2993 103.312C78.2993 103.312 78.2993 103.257 78.352 103.219L78.7358 102.846C78.7603 102.837 78.7867 102.837 78.8111 102.846H78.8563L78.9015 102.768Z" fill="black"/>
<path d="M81.1969 100.545C81.1889 100.523 81.1889 100.498 81.1969 100.475C81.2089 100.47 81.2217 100.468 81.2346 100.468C81.2474 100.468 81.2602 100.47 81.2722 100.475H83.6504C83.6624 100.47 83.6752 100.468 83.6881 100.468C83.7011 100.468 83.7137 100.47 83.7257 100.475C83.7311 100.486 83.7338 100.498 83.7338 100.511C83.7338 100.523 83.7311 100.535 83.7257 100.545V101.112C83.7333 101.138 83.7333 101.165 83.7257 101.19C83.7126 101.196 83.6986 101.199 83.6843 101.199C83.6701 101.199 83.6561 101.196 83.6429 101.19H82.8903V103.692C82.8951 103.703 82.8976 103.714 82.8976 103.727C82.8976 103.739 82.8951 103.75 82.8903 103.762C82.8818 103.774 82.8705 103.784 82.8573 103.791C82.8442 103.797 82.8297 103.801 82.815 103.8H82.1679C82.1456 103.806 82.1223 103.806 82.1 103.8C82.089 103.791 82.0799 103.779 82.0735 103.766C82.067 103.752 82.0631 103.738 82.0624 103.723V101.221H81.3097C81.2979 101.226 81.2851 101.229 81.2722 101.229C81.2592 101.229 81.2464 101.226 81.2346 101.221C81.2248 101.194 81.2248 101.163 81.2346 101.136L81.1969 100.545Z" fill="black"/>
<path d="M86.1267 102.766L86.2246 102.852L86.3526 102.953C86.4229 103.003 86.4987 103.045 86.5784 103.077C86.653 103.106 86.7322 103.119 86.8116 103.116C86.8741 103.125 86.9374 103.125 86.9999 103.116C87.0453 103.104 87.0868 103.08 87.1203 103.046C87.1496 103.019 87.1706 102.984 87.1804 102.945C87.1876 102.906 87.1876 102.867 87.1804 102.828C87.181 102.804 87.1765 102.779 87.1675 102.757C87.1584 102.734 87.1449 102.713 87.1277 102.696C87.0896 102.659 87.0465 102.628 86.9999 102.603L86.8418 102.526L86.6988 102.471C86.5411 102.416 86.3877 102.348 86.2397 102.269C86.1173 102.205 86.0054 102.121 85.9085 102.021C85.8229 101.937 85.7538 101.836 85.7053 101.725C85.6665 101.595 85.6561 101.457 85.6753 101.321C85.675 101.187 85.7032 101.055 85.758 100.933C85.8167 100.818 85.8989 100.717 85.9988 100.638C86.1087 100.551 86.2341 100.488 86.3676 100.451C86.5239 100.403 86.6863 100.38 86.8493 100.381C86.981 100.381 87.1124 100.397 87.2407 100.428C87.367 100.46 87.4885 100.51 87.6019 100.576L87.7449 100.669L87.8653 100.77C87.8961 100.792 87.9217 100.822 87.9405 100.855C87.9493 100.878 87.9493 100.903 87.9405 100.925C87.9469 100.943 87.9469 100.962 87.9405 100.98V101.034L87.6019 101.407C87.5811 101.427 87.555 101.441 87.5266 101.446H87.4665L87.4138 101.399L87.3159 101.314L87.203 101.244L87.0676 101.189C87.0227 101.182 86.977 101.182 86.932 101.189H86.7966C86.7568 101.199 86.7187 101.215 86.6838 101.236C86.6499 101.25 86.621 101.274 86.6009 101.306C86.5923 101.342 86.5923 101.379 86.6009 101.415C86.5905 101.45 86.5905 101.488 86.6009 101.523C86.6214 101.561 86.6531 101.591 86.6912 101.609C86.7374 101.642 86.7881 101.669 86.8418 101.687L87.06 101.764L87.4891 101.927C87.6121 101.983 87.7284 102.053 87.8353 102.137C87.9262 102.216 88.0005 102.314 88.0535 102.425C88.1142 102.55 88.1427 102.689 88.1362 102.828C88.1395 102.987 88.1059 103.144 88.0384 103.287C87.9719 103.419 87.8796 103.535 87.7674 103.629C87.6441 103.729 87.5038 103.806 87.3535 103.854C87.191 103.909 87.0204 103.935 86.8493 103.932C86.6797 103.931 86.5115 103.899 86.3526 103.838C86.1899 103.776 86.0357 103.692 85.8935 103.59L85.743 103.458L85.6527 103.357C85.6276 103.335 85.6114 103.305 85.6074 103.271C85.611 103.235 85.6271 103.202 85.6527 103.178L86.0365 102.805C86.0611 102.798 86.0871 102.798 86.1117 102.805H86.1569L86.1267 102.766Z" fill="black"/>
<path d="M88.6103 100.545C88.6049 100.533 88.6021 100.52 88.6021 100.506C88.6021 100.493 88.6049 100.48 88.6103 100.467C88.6322 100.459 88.6563 100.459 88.678 100.467H90.9434C90.9681 100.46 90.9941 100.46 91.0187 100.467C91.0263 100.493 91.0263 100.52 91.0187 100.545V101.112C91.0254 101.138 91.0254 101.164 91.0187 101.19C91.0056 101.196 90.9916 101.199 90.9773 101.199C90.9631 101.199 90.9489 101.196 90.9359 101.19H89.4381V101.757H90.5445C90.5663 101.748 90.5906 101.748 90.6123 101.757C90.6123 101.757 90.6123 101.757 90.6123 101.819V102.316C90.6187 102.336 90.6187 102.358 90.6123 102.378C90.5877 102.386 90.5616 102.386 90.5371 102.378H89.4381V102.961H90.9434C91.0111 102.961 91.0488 102.961 91.0488 103.062V103.637C91.0521 103.643 91.0538 103.65 91.0538 103.656C91.0538 103.663 91.0521 103.67 91.0488 103.676C91.0488 103.722 91.0187 103.746 90.9584 103.746H88.7006C88.679 103.755 88.6546 103.755 88.6329 103.746C88.6243 103.72 88.6243 103.693 88.6329 103.668L88.6103 100.545Z" fill="black"/>
<path d="M91.6054 100.546C91.5969 100.52 91.5969 100.493 91.6054 100.468C91.6174 100.463 91.6302 100.46 91.6431 100.46C91.6559 100.46 91.6687 100.463 91.6807 100.468H93.1031C93.2511 100.466 93.3975 100.498 93.5322 100.561C93.6622 100.613 93.7802 100.692 93.8783 100.794C93.9796 100.895 94.0591 101.017 94.1117 101.151C94.1717 101.285 94.2025 101.431 94.2019 101.579C94.2022 101.679 94.1871 101.778 94.1568 101.874C94.1269 101.965 94.0891 102.054 94.044 102.138C93.9946 102.217 93.9365 102.29 93.8708 102.355C93.8052 102.421 93.7319 102.479 93.6526 102.526L94.2171 103.637L94.2546 103.707C94.2627 103.732 94.2627 103.76 94.2546 103.785C94.2582 103.793 94.26 103.803 94.26 103.812C94.26 103.821 94.2582 103.831 94.2546 103.839C94.2329 103.848 94.2087 103.848 94.1869 103.839H93.4344H93.3665C93.3499 103.821 93.3369 103.8 93.329 103.777L92.7946 102.728H92.4484V103.762C92.4495 103.775 92.4477 103.789 92.4433 103.802C92.4388 103.814 92.4316 103.826 92.4223 103.836C92.4129 103.845 92.4016 103.853 92.3892 103.857C92.3769 103.862 92.3636 103.864 92.3506 103.862H91.6957C91.6824 103.865 91.6685 103.865 91.6552 103.861C91.6422 103.857 91.6302 103.849 91.6204 103.839C91.6108 103.829 91.6036 103.817 91.5997 103.803C91.5958 103.79 91.5951 103.775 91.5979 103.762L91.6054 100.546ZM93.3365 101.555C93.347 101.512 93.347 101.467 93.3365 101.423C93.3089 101.328 93.2468 101.247 93.1634 101.198C93.1217 101.173 93.0756 101.157 93.0279 101.151H92.4484V101.99H92.9977C93.0455 101.984 93.0916 101.968 93.1333 101.944C93.1748 101.921 93.2107 101.889 93.2387 101.851C93.2683 101.814 93.2912 101.772 93.3064 101.726C93.3236 101.682 93.3338 101.634 93.3365 101.586V101.555Z" fill="black"/>
<path d="M95.6173 103.808C95.5994 103.784 95.5843 103.758 95.572 103.73L95.5344 103.637L94.3979 100.545C94.3979 100.499 94.3979 100.475 94.4808 100.475H95.1958C95.2208 100.476 95.2452 100.484 95.2654 100.5C95.2858 100.515 95.3008 100.536 95.3086 100.561L95.9861 102.643C96.0462 102.472 96.1065 102.293 96.159 102.122C96.2117 101.951 96.2644 101.773 96.3247 101.602L96.4827 101.081C96.543 100.911 96.5957 100.74 96.6558 100.561C96.6664 100.535 96.6843 100.513 96.7071 100.498C96.7298 100.483 96.7567 100.475 96.7838 100.475H97.4762C97.488 100.47 97.5008 100.468 97.5138 100.468C97.5267 100.468 97.5395 100.47 97.5515 100.475C97.5515 100.475 97.5515 100.475 97.5515 100.522L96.4226 103.653V103.723C96.4165 103.749 96.4034 103.773 96.3849 103.793C96.3766 103.818 96.3608 103.84 96.3397 103.855C96.3203 103.862 96.2988 103.862 96.2796 103.855H95.7377C95.727 103.861 95.7151 103.865 95.7029 103.866C95.6906 103.867 95.6782 103.865 95.6667 103.861C95.6551 103.857 95.6447 103.849 95.6361 103.84C95.6276 103.831 95.6211 103.82 95.6173 103.808Z" fill="black"/>
<path d="M97.9728 100.546C97.9663 100.523 97.9663 100.498 97.9728 100.476C97.9945 100.467 98.0186 100.467 98.0405 100.476H98.6952C98.7169 100.466 98.7413 100.466 98.7629 100.476C98.7754 100.482 98.7857 100.492 98.7925 100.504C98.7991 100.517 98.802 100.531 98.8006 100.546V103.738C98.802 103.753 98.8001 103.767 98.7952 103.78C98.7903 103.794 98.7824 103.806 98.7721 103.816C98.7619 103.825 98.7497 103.833 98.7363 103.837C98.723 103.841 98.709 103.842 98.6952 103.839H98.0405C97.9802 103.839 97.9502 103.8 97.9502 103.738L97.9728 100.546Z" fill="black"/>
<path d="M102.045 100.717C102.068 100.732 102.086 100.753 102.098 100.779C102.105 100.792 102.109 100.807 102.109 100.822C102.109 100.837 102.105 100.852 102.098 100.864L101.729 101.408C101.729 101.408 101.729 101.455 101.676 101.455C101.665 101.46 101.654 101.463 101.642 101.463C101.63 101.463 101.619 101.46 101.608 101.455C101.537 101.396 101.455 101.351 101.367 101.323C101.278 101.292 101.184 101.276 101.089 101.276C100.975 101.273 100.862 101.297 100.758 101.346C100.657 101.39 100.568 101.457 100.494 101.54C100.419 101.623 100.36 101.721 100.321 101.828C100.241 102.054 100.241 102.301 100.321 102.527C100.358 102.635 100.417 102.733 100.494 102.814C100.568 102.898 100.657 102.964 100.758 103.009C100.862 103.057 100.975 103.081 101.089 103.078C101.184 103.079 101.278 103.064 101.367 103.032C101.454 103.002 101.536 102.957 101.608 102.9C101.608 102.9 101.661 102.9 101.676 102.9C101.691 102.9 101.714 102.9 101.729 102.9L102.105 103.459C102.114 103.471 102.119 103.486 102.119 103.502C102.119 103.517 102.114 103.532 102.105 103.545C102.093 103.568 102.075 103.587 102.052 103.599C101.771 103.798 101.438 103.904 101.096 103.902C100.799 103.9 100.506 103.82 100.246 103.669C100 103.508 99.792 103.293 99.6365 103.04C99.5646 102.91 99.5089 102.772 99.4709 102.628C99.3906 102.323 99.3906 102.001 99.4709 101.696C99.5103 101.55 99.5659 101.409 99.6365 101.276C99.7116 101.148 99.8027 101.031 99.9074 100.927C100.005 100.817 100.119 100.725 100.246 100.655C100.372 100.575 100.509 100.515 100.652 100.476C100.797 100.436 100.946 100.415 101.096 100.414C101.268 100.411 101.438 100.438 101.601 100.492C101.758 100.544 101.908 100.62 102.045 100.717Z" fill="black"/>
<path d="M102.654 100.546C102.645 100.52 102.645 100.493 102.654 100.468C102.678 100.459 102.705 100.459 102.729 100.468H104.919C104.931 100.463 104.944 100.46 104.957 100.46C104.97 100.46 104.983 100.463 104.995 100.468C105 100.48 105.002 100.493 105.002 100.507C105.002 100.52 105 100.533 104.995 100.546V101.112C105.004 101.138 105.004 101.165 104.995 101.19C104.983 101.196 104.97 101.199 104.957 101.199C104.944 101.199 104.931 101.196 104.919 101.19H103.489V101.757H104.596H104.663C104.663 101.757 104.663 101.757 104.663 101.819V102.317C104.67 102.337 104.67 102.359 104.663 102.379C104.642 102.387 104.618 102.387 104.596 102.379H103.512V102.961H105.017C105.085 102.961 105.115 102.961 105.115 103.062V103.637C105.119 103.65 105.119 103.663 105.115 103.676C105.114 103.687 105.111 103.698 105.106 103.707C105.101 103.717 105.094 103.725 105.085 103.732C105.077 103.739 105.067 103.743 105.056 103.746C105.046 103.748 105.035 103.748 105.025 103.746H102.767C102.742 103.754 102.716 103.754 102.692 103.746C102.683 103.721 102.683 103.693 102.692 103.668L102.654 100.546Z" fill="black"/>
<path d="M254.721 164.733H60.6279V169.347H254.721V164.733Z" fill="#E6E6E6"/>
<path d="M257.476 38.2593H251.966C251.018 38.2593 250.25 39.0522 250.25 40.0304V40.178C250.25 41.1562 251.018 41.9492 251.966 41.9492H257.476C258.422 41.9492 259.192 41.1562 259.192 40.178V40.0304C259.192 39.0522 258.422 38.2593 257.476 38.2593Z" fill="#F7931E"/>
<path d="M60.6958 38.2593H55.1867C54.239 38.2593 53.4707 39.0522 53.4707 40.0304V40.178C53.4707 41.1562 54.239 41.9492 55.1867 41.9492H60.6958C61.6435 41.9492 62.4118 41.1562 62.4118 40.178V40.0304C62.4118 39.0522 61.6435 38.2593 60.6958 38.2593Z" fill="#F7931E"/>
<path d="M196.581 180.433H169.75V188.745H196.581V180.433Z" fill="#B3B3B3"/>
<path d="M196.581 188.736H169.75V197.049H196.581V188.736Z" fill="#333333"/>
<path d="M61.5915 177.66H53.4105C52.4587 177.66 51.687 178.456 51.687 179.439V179.571C51.687 180.553 52.4587 181.35 53.4105 181.35H61.5915C62.5433 181.35 63.315 180.553 63.315 179.571V179.439C63.315 178.456 62.5433 177.66 61.5915 177.66Z" fill="#C1272D"/>
<path d="M63.8114 184.123H50.287C49.5762 184.123 49 184.718 49 185.451V194.797C49 195.53 49.5762 196.125 50.287 196.125H63.8114C64.5223 196.125 65.0985 195.53 65.0985 194.797V185.451C65.0985 184.718 64.5223 184.123 63.8114 184.123Z" fill="#333333"/>
<path d="M178.218 130.986C194.164 130.986 207.091 118.06 207.091 102.114C207.091 86.1681 194.164 73.2415 178.218 73.2415C162.272 73.2415 149.346 86.1681 149.346 102.114C149.346 118.06 162.272 130.986 178.218 130.986Z" fill="#FB8863"/>
<path d="M178.218 135.628C171.59 135.628 165.11 133.662 159.598 129.979C154.087 126.297 149.791 121.062 147.254 114.938C144.718 108.814 144.054 102.075 145.347 95.5739C146.64 89.0725 149.832 83.1006 154.519 78.4134C160.805 72.128 169.33 68.597 178.219 68.5972C182.62 68.5972 186.978 69.4642 191.045 71.1486C195.111 72.833 198.806 75.3018 201.918 78.4141C205.03 81.5264 207.499 85.2212 209.183 89.2876C210.867 93.354 211.734 97.7122 211.734 102.114C211.734 106.515 210.867 110.873 209.183 114.94C207.498 119.006 205.029 122.701 201.917 125.813C198.812 128.934 195.119 131.409 191.051 133.094C186.983 134.779 182.621 135.64 178.218 135.628V135.628ZM178.218 69.6924C160.34 69.6924 145.797 84.2325 145.797 102.112C145.797 119.992 160.337 134.534 178.218 134.534C196.1 134.534 210.64 119.994 210.64 102.112C210.64 84.231 196.095 69.6924 178.218 69.6924V69.6924Z" fill="#FB8863"/>
<path d="M168.001 87.9224H162.249C161.948 87.9224 161.659 88.042 161.446 88.2548C161.233 88.4677 161.114 88.7564 161.114 89.0574C161.114 89.3585 161.233 89.6472 161.446 89.86C161.659 90.0729 161.948 90.1925 162.249 90.1925H168.001C168.302 90.1925 168.591 90.0729 168.803 89.86C169.016 89.6472 169.136 89.3585 169.136 89.0574C169.136 88.7564 169.016 88.4677 168.803 88.2548C168.591 88.042 168.302 87.9224 168.001 87.9224V87.9224Z" fill="white"/>
<path d="M168.001 97.0044H162.249C161.948 97.0044 161.659 97.124 161.446 97.3368C161.233 97.5497 161.114 97.8384 161.114 98.1395C161.114 98.4405 161.233 98.7292 161.446 98.9421C161.659 99.155 161.948 99.2745 162.249 99.2745H168.001C168.302 99.2745 168.591 99.155 168.803 98.9421C169.016 98.7292 169.136 98.4405 169.136 98.1395C169.136 97.8384 169.016 97.5497 168.803 97.3368C168.591 97.124 168.302 97.0044 168.001 97.0044V97.0044Z" fill="white"/>
<path d="M165.731 92.4641H159.979C159.678 92.4641 159.389 92.5837 159.176 92.7966C158.963 93.0094 158.844 93.2981 158.844 93.5992C158.844 93.9002 158.963 94.1889 159.176 94.4018C159.389 94.6147 159.678 94.7343 159.979 94.7343H165.731C166.032 94.7343 166.321 94.6147 166.533 94.4018C166.746 94.1889 166.866 93.9002 166.866 93.5992C166.866 93.2981 166.746 93.0094 166.533 92.7966C166.321 92.5837 166.032 92.4641 165.731 92.4641V92.4641Z" fill="white"/>
<path d="M195.322 98.1394H188.435V93.6054C188.435 91.6104 185.996 90.5614 184.558 91.9997L175.477 101.082C175.052 101.508 174.813 102.085 174.813 102.687C174.813 103.289 175.052 103.866 175.477 104.292L180.684 109.498L174.342 115.833C173.917 116.26 173.678 116.838 173.678 117.441C173.679 118.044 173.919 118.622 174.346 119.048C174.772 119.473 175.351 119.712 175.953 119.712C176.556 119.711 177.134 119.471 177.56 119.044L185.507 111.097C185.933 110.671 186.172 110.094 186.172 109.492C186.172 108.89 185.933 108.312 185.507 107.886L180.301 102.681L183.897 99.0853V100.416C183.898 101.016 184.137 101.59 184.561 102.015C184.985 102.439 185.559 102.679 186.159 102.681H195.318C195.91 102.666 196.472 102.42 196.885 101.995C197.299 101.571 197.53 101.003 197.53 100.41C197.53 99.8182 197.299 99.2494 196.885 98.8252C196.472 98.4011 195.91 98.155 195.318 98.1394H195.322Z" fill="white"/>
<path d="M180.044 86.6012C179.608 86.31 179.084 86.1792 178.561 86.2311C178.039 86.283 177.551 86.5143 177.18 86.8858L170.936 93.1287C170.51 93.5545 170.271 94.1321 170.271 94.7344C170.271 95.3366 170.51 95.9142 170.936 96.34C171.361 96.7659 171.939 97.0051 172.541 97.0051C173.144 97.0051 173.721 96.7659 174.147 96.34L179.075 91.412L180.735 92.6081L182.952 90.3895C183.327 90.0225 183.762 89.7236 184.239 89.5061L180.044 86.6012Z" fill="white"/>
<path d="M173.872 105.891C173.31 105.324 172.909 104.617 172.71 103.843L160.72 115.833C160.294 116.259 160.055 116.836 160.055 117.439C160.055 118.041 160.294 118.618 160.719 119.044C161.145 119.47 161.722 119.709 162.324 119.709C162.926 119.709 163.504 119.47 163.93 119.045L175.477 107.497L173.872 105.891Z" fill="white"/>
<path d="M189.571 91.3292C191.451 91.3292 192.976 89.8047 192.976 87.924C192.976 86.0434 191.451 84.5188 189.571 84.5188C187.69 84.5188 186.166 86.0434 186.166 87.924C186.166 89.8047 187.69 91.3292 189.571 91.3292Z" fill="white"/>
<defs>
<linearGradient id="paint0_linear" x1="49.8955" y1="104.266" x2="261.878" y2="104.266" gradientUnits="userSpaceOnUse">
<stop stop-color="#CCCCCC"/>
<stop offset="1" stop-color="#A7A9AC"/>
</linearGradient>
<linearGradient id="paint1_linear" x1="61.7495" y1="102.417" x2="251.507" y2="102.417" gradientUnits="userSpaceOnUse">
<stop stop-color="white"/>
<stop offset="1" stop-color="#E6E6E6"/>
</linearGradient>
</defs>
</svg>
