<svg width="927" height="657" viewBox="0 0 927 657" fill="none" xmlns="http://www.w3.org/2000/svg">
<path d="M727.216 593.536C727.216 614.152 737.865 636.858 737.865 636.858H755.895C771.731 636.858 784.549 617.463 784.549 593.536C784.549 569.609 753.701 550.189 737.865 550.189C722.029 550.189 727.216 569.634 727.216 593.536Z" fill="#231F20"/>
<path d="M709.186 593.536C709.186 617.463 722.029 636.858 737.865 636.858C753.7 636.858 766.543 617.463 766.543 593.536C766.543 569.609 753.7 550.189 737.865 550.189C722.029 550.189 709.186 569.634 709.186 593.536Z" fill="#414042"/>
<path d="M716.618 593.536C716.618 611.562 726.294 626.177 738.214 626.177C750.135 626.177 759.811 611.562 759.811 593.536C759.811 575.51 750.16 560.895 738.214 560.895C726.269 560.895 716.618 575.56 716.618 593.536Z" fill="#6D6E71"/>
<path d="M849.638 235.33L874.052 605.96H514.345L489.956 235.33H849.638Z" fill="#A7A9AC"/>
<path d="M631.828 605.985H543.348C541.478 598.018 535.867 541.25 585.444 541.25C630.507 541.25 633.823 593.013 631.828 605.985Z" fill="#231F20"/>
<path d="M380.352 0.941223L380.377 29.2252L1.74182 155.98L1.31787 142.087L380.352 0.941223Z" fill="url(#paint0_linear)"/>
<path d="M380.377 29.225L380.776 447.659L9.92164 425.102L1.74194 155.98L380.377 29.225Z" fill="url(#paint1_linear)"/>
<path d="M58.8351 293.677C53.6417 293.813 48.5811 292.029 44.6248 288.668C40.6686 285.306 38.0956 280.603 37.3998 275.463C36.7041 270.323 37.9347 265.108 40.8553 260.818C43.7759 256.529 48.1808 253.468 53.224 252.222L100.756 240.595C102.203 240.248 103.682 240.048 105.17 239.998C110.743 239.843 116.149 241.9 120.207 245.717C124.264 249.534 126.64 254.801 126.816 260.364V261.908C126.965 266.835 125.376 271.658 122.327 275.534C119.278 279.411 114.962 282.096 110.133 283.121L62.5508 293.13C61.33 293.417 60.0869 293.6 58.8351 293.677V293.677Z" fill="#E1632A"/>
<path d="M46.7403 278.539L46.5408 275.825L47.8874 275.502H48.2116L48.4859 275.751C48.5671 275.876 48.634 276.009 48.6854 276.149C48.7086 276.306 48.7086 276.465 48.6854 276.622C48.7225 276.794 48.7225 276.973 48.6854 277.145C48.6997 277.302 48.6997 277.461 48.6854 277.618C48.6407 277.758 48.5639 277.886 48.461 277.992L48.1617 278.166L46.7901 278.49L46.7403 278.539ZM46.3911 273.51L46.2165 271.145L47.3138 270.896H47.5881L47.8625 271.095C47.9402 271.2 47.9992 271.318 48.037 271.443C48.054 271.584 48.054 271.726 48.037 271.867C48.0624 272.032 48.0624 272.2 48.037 272.365C48.0513 272.497 48.0513 272.631 48.037 272.763L47.7876 273.062L47.4884 273.236L46.3911 273.485V273.51ZM47.7378 268.331L44.3213 269.103L44.1716 269.252V269.551L45.0943 280.88V281.129H45.244L48.9847 280.257C49.2996 280.184 49.5858 280.019 49.8076 279.784C50.0769 279.499 50.2961 279.171 50.456 278.813C50.637 278.406 50.7708 277.98 50.855 277.543C50.9177 277.064 50.9177 276.579 50.855 276.099C50.8272 275.579 50.7178 275.067 50.5308 274.581C50.3722 274.166 50.1351 273.785 49.8326 273.46C49.9617 273.131 50.0537 272.789 50.1069 272.439C50.1443 272.05 50.1443 271.658 50.1069 271.269C50.059 270.813 49.9671 270.363 49.8326 269.925C49.6882 269.568 49.4951 269.233 49.259 268.929C49.0549 268.675 48.7887 268.477 48.4859 268.356C48.2271 268.269 47.9467 268.269 47.6879 268.356" fill="black"/>
<path d="M56.5409 266.414L51.5532 267.609L51.3787 267.759V268.033L52.3014 279.361V279.635H52.476L57.6881 278.44C57.6881 278.44 57.8626 278.44 57.8626 278.166V278.017L57.6881 275.975C57.6881 275.726 57.6881 275.626 57.4387 275.651L53.9723 276.448L53.7977 274.381L56.2915 273.784L56.4412 273.635V273.386L56.2915 271.643V271.419H56.117L53.6231 272.016L53.4485 269.999L56.7654 269.228L56.9399 269.078V268.779L56.7654 266.788V266.514H56.5658" fill="black"/>
<path d="M60.9549 265.144H60.7554C60.3626 265.243 59.9909 265.412 59.6581 265.642C59.334 265.891 59.0556 266.195 58.8352 266.539C58.6302 266.905 58.479 267.299 58.3863 267.709C58.3104 268.179 58.3104 268.658 58.3863 269.128C58.4114 269.561 58.4953 269.988 58.6357 270.398C58.7635 270.742 58.949 271.062 59.1843 271.344C59.4265 271.621 59.713 271.857 60.0322 272.041C60.3965 272.246 60.7809 272.413 61.1794 272.539H61.5036L61.9026 272.713C62.0215 272.791 62.1304 272.883 62.2268 272.987C62.3237 273.107 62.3766 273.256 62.3764 273.411C62.3889 273.56 62.3889 273.71 62.3764 273.859C62.3499 273.996 62.308 274.129 62.2517 274.257L62.0023 274.581C61.8608 274.658 61.71 274.716 61.5534 274.755V274.755C61.3975 274.79 61.2356 274.79 61.0796 274.755C60.8822 274.685 60.697 274.584 60.531 274.456L60.0571 274.257L59.8078 273.983V273.859L59.6332 274.033L58.8601 275.577V275.925C58.8956 276.024 58.9461 276.116 59.0097 276.199V276.199L59.2841 276.498C59.3885 276.648 59.5146 276.782 59.6581 276.896C59.9933 277.186 60.3834 277.407 60.8053 277.544C61.1475 277.642 61.5105 277.642 61.8527 277.544H61.9774C62.3978 277.454 62.7909 277.266 63.1245 276.996C63.8913 276.371 64.398 275.483 64.546 274.506C64.636 273.945 64.636 273.374 64.546 272.813C64.525 272.335 64.4239 271.863 64.2468 271.419C64.1069 271.084 63.9037 270.78 63.6482 270.522C63.3953 270.298 63.1093 270.113 62.8003 269.975C62.4505 269.836 62.0924 269.72 61.728 269.626L61.2043 269.452C61.0788 269.414 60.9607 269.355 60.8552 269.277L60.6058 269.004C60.5659 268.891 60.5659 268.768 60.6058 268.655C60.5794 268.515 60.5794 268.372 60.6058 268.232L60.7554 267.933L61.0048 267.734H61.329H61.6532H61.9774L62.2766 267.933L62.526 268.182H62.551L62.7255 268.008L63.3989 266.514V266.29V266.066V265.842L63.1744 265.568L62.8752 265.319L62.5011 265.045C62.2363 264.877 61.9388 264.766 61.6282 264.721C61.3897 264.671 61.1435 264.671 60.905 264.721" fill="black"/>
<path d="M70.2569 263.227L64.7456 264.522L64.571 264.646V264.92L64.7456 266.962C64.7132 267.05 64.7132 267.147 64.7456 267.236H64.9451L66.7157 266.812L67.4389 275.726V275.975H67.6135L69.1347 275.626L69.3093 275.452V275.178L68.5861 266.29L70.3567 265.866L70.5312 265.692V265.393L70.3816 263.377V263.128H70.207" fill="black"/>
<path d="M77.7633 261.31H77.514C77.1129 261.384 76.7361 261.555 76.4167 261.808C76.0887 262.035 75.816 262.333 75.6186 262.68C75.3953 263.04 75.2351 263.436 75.1448 263.85C75.0689 264.32 75.0689 264.799 75.1448 265.269C75.1823 265.7 75.2659 266.126 75.3942 266.539C75.5309 266.884 75.7248 267.204 75.9678 267.485C76.195 267.768 76.4744 268.004 76.7907 268.182C77.1511 268.388 77.5367 268.547 77.9379 268.655L78.2621 268.779L78.6611 268.954C78.785 269.025 78.8948 269.117 78.9853 269.228C79.0713 269.353 79.1229 269.499 79.1349 269.651C79.1474 269.8 79.1474 269.95 79.1349 270.099C79.1599 270.231 79.1599 270.366 79.1349 270.497L78.8856 270.821L78.4616 270.995C78.2974 271.032 78.1271 271.032 77.9628 270.995C77.7632 270.93 77.5773 270.829 77.4142 270.697C77.2921 270.595 77.1756 270.487 77.0651 270.373L76.8406 270.124L76.691 270L76.5414 270.149L75.7433 271.693V272.041C75.7608 272.154 75.8131 272.258 75.893 272.34V272.34L76.1423 272.639C76.2468 272.789 76.3729 272.923 76.5164 273.037C76.8612 273.313 77.2487 273.532 77.6636 273.684C78.0058 273.783 78.3688 273.783 78.711 273.684V273.684C79.1355 273.585 79.5347 273.398 79.8831 273.137C80.2307 272.859 80.5262 272.522 80.7559 272.141C81.0151 271.712 81.1927 271.239 81.2796 270.746C81.3682 270.194 81.3682 269.631 81.2796 269.078C81.245 268.599 81.1356 268.129 80.9554 267.684C80.8238 267.345 80.6195 267.039 80.3569 266.788C80.1117 266.547 79.8243 266.353 79.509 266.215L78.4367 265.842C78.2663 265.807 78.0994 265.757 77.9379 265.692L77.5389 265.518L77.3144 265.244C77.2828 265.122 77.2828 264.993 77.3144 264.871C77.2889 264.739 77.2889 264.604 77.3144 264.472L77.489 264.173L77.7384 263.974H78.0376H78.3618H78.686L78.9853 264.198L79.2347 264.422H79.3843H79.5339L79.6836 264.223L80.3569 262.729V262.505V262.281V262.057L80.1325 261.783L79.8332 261.534L79.4841 261.26C79.2032 261.101 78.9008 260.984 78.5863 260.912C78.3467 260.874 78.1027 260.874 77.8631 260.912" fill="black"/>
<path d="M87.0404 259.343L82.0527 260.513L81.8782 260.663V260.937L82.8009 272.29V272.539H82.9755L88.1626 271.319C88.3123 271.319 88.3622 271.319 88.3622 271.045V270.896L88.2125 268.854C88.2125 268.63 88.2125 268.505 87.9632 268.53L84.5216 269.327L84.3471 267.261L86.8409 266.663L87.0155 266.514V266.29L86.8659 264.547V264.323H86.6913L84.1974 264.945L84.0229 262.928L87.3646 262.157L87.5392 261.982V261.708L87.3646 259.692V259.418H87.1651" fill="black"/>
<path d="M91.1053 263.949L90.8559 260.986L91.5791 260.812H91.8535H92.1278C92.2328 260.776 92.3469 260.776 92.452 260.812C92.5614 260.884 92.6548 260.977 92.7263 261.086C92.8076 261.22 92.8745 261.362 92.9258 261.509C92.94 261.667 92.94 261.825 92.9258 261.982C92.9501 262.156 92.9501 262.332 92.9258 262.505C92.949 262.662 92.949 262.821 92.9258 262.978C92.8758 263.123 92.7997 263.258 92.7014 263.377C92.6133 263.473 92.5127 263.556 92.4021 263.626H92.2525H92.0779L91.1303 263.825L91.1053 263.949ZM92.3024 257.999L89.0105 258.77L88.8359 258.92V259.194L89.7337 270.547V270.796H89.9083L91.4295 270.448C91.5792 270.448 91.654 270.273 91.629 270.024L91.3547 266.364L92.1777 266.165L93.7238 269.601V269.8H93.8984L95.669 269.377V269.153V268.904V268.68L94.0231 265.045C94.2009 264.818 94.3594 264.576 94.4969 264.323C94.6348 264.036 94.7434 263.735 94.8211 263.426C94.9282 263.104 94.9951 262.769 95.0206 262.43C95.0705 262.075 95.0705 261.715 95.0206 261.36C94.9935 260.858 94.8927 260.363 94.7214 259.891C94.5629 259.479 94.3444 259.093 94.073 258.746C93.8326 258.458 93.5239 258.236 93.1752 258.098C92.8693 257.986 92.5334 257.986 92.2276 258.098" fill="black"/>
<path d="M102.302 255.783L100.681 256.156C100.607 256.186 100.543 256.238 100.499 256.304C100.455 256.371 100.431 256.45 100.432 256.53C100.432 257.177 100.257 257.824 100.183 258.472L99.9582 260.414L99.7337 262.356C99.7337 263.003 99.5592 263.65 99.4594 264.298L97.2897 257.277C97.2897 257.077 97.1401 257.003 97.0154 257.028L95.3445 257.401C95.2198 257.401 95.1699 257.401 95.1699 257.675V257.799L98.7112 268.107V268.406V268.68H98.9357L100.208 268.381V268.157V267.883V267.609L101.978 256.081V255.907H101.804" fill="black"/>
<path d="M105.195 255.111L103.699 255.459L103.55 255.609V255.882L104.472 267.236C104.472 267.452 104.547 267.551 104.697 267.535L106.218 267.186C106.367 267.186 106.442 266.987 106.442 266.763L105.52 255.409V255.16H105.345" fill="black"/>
<path d="M110.906 253.616H110.732C110.366 253.712 110.019 253.873 109.709 254.09C109.369 254.325 109.066 254.61 108.812 254.936C108.53 255.286 108.296 255.671 108.113 256.081C107.891 256.527 107.716 256.994 107.59 257.476C107.448 257.997 107.356 258.53 107.315 259.069C107.265 259.632 107.265 260.199 107.315 260.762C107.356 261.307 107.439 261.848 107.565 262.38C107.705 262.857 107.88 263.323 108.088 263.775C108.285 264.167 108.528 264.535 108.812 264.87C109.058 265.18 109.353 265.449 109.684 265.667C109.991 265.857 110.329 265.992 110.682 266.065C110.993 266.14 111.318 266.14 111.63 266.065V266.065C112.053 265.985 112.448 265.796 112.777 265.518C113.164 265.226 113.501 264.872 113.774 264.472V264.248V263.949L112.727 262.156V262.032L112.552 262.156C112.405 262.378 112.229 262.579 112.029 262.754C111.84 262.896 111.63 263.005 111.405 263.078V263.078C111.172 263.163 110.915 263.163 110.682 263.078C110.415 262.965 110.183 262.785 110.009 262.555C109.806 262.263 109.647 261.945 109.535 261.609C109.266 260.807 109.197 259.953 109.335 259.119C109.393 258.736 109.494 258.36 109.634 257.998C109.784 257.698 109.978 257.421 110.208 257.177C110.408 256.962 110.669 256.814 110.956 256.754V256.754C111.154 256.716 111.357 256.716 111.555 256.754C111.769 256.826 111.965 256.945 112.128 257.102H112.428V256.903L113.151 254.762V254.438L113.001 254.264C112.674 254.013 112.301 253.827 111.904 253.716C111.576 253.64 111.235 253.64 110.906 253.716" fill="black"/>
<path d="M119.684 251.749L114.697 252.944L114.522 253.069V253.343L115.47 264.696V264.945H115.619L120.832 263.75C120.832 263.75 121.031 263.626 121.031 263.451L120.856 261.385C120.856 261.136 120.856 261.036 120.607 261.061L117.141 261.883L116.991 259.791L119.485 259.194L119.635 259.044V258.82L119.485 257.077V256.853H119.335L116.841 257.451L116.667 255.434L120.009 254.662L120.183 254.488V254.214L120.034 252.197V251.948H119.859" fill="black"/>
<path d="M105.22 241.392C110.402 241.251 115.429 243.166 119.201 246.717C122.973 250.268 125.182 255.166 125.345 260.339V261.883C125.5 266.452 124.041 270.931 121.224 274.535C118.407 278.14 114.41 280.641 109.933 281.602L62.3512 291.561C61.1954 291.814 60.0179 291.956 58.835 291.985C54.0889 292.004 49.4973 290.301 45.9146 287.194C42.3319 284.086 40.002 279.784 39.3586 275.09C38.7152 270.395 39.8019 265.627 42.4167 261.672C45.0315 257.718 48.9961 254.846 53.573 253.592L101.105 241.965C102.452 241.626 103.832 241.434 105.22 241.392V241.392ZM105.22 238.454C103.63 238.5 102.05 238.717 100.507 239.101L52.9745 250.729C47.9546 251.94 43.5069 254.843 40.3814 258.948C37.2558 263.053 35.6438 268.108 35.8171 273.261V273.261C35.8944 276.215 36.5562 279.124 37.7642 281.822C38.9722 284.519 40.7026 286.952 42.8559 288.979C45.0091 291.006 47.5427 292.588 50.3107 293.634C53.0787 294.679 56.0266 295.168 58.9846 295.072C60.3434 295.026 61.6954 294.859 63.0246 294.574L110.582 284.49C115.757 283.414 120.385 280.549 123.652 276.4C126.918 272.25 128.613 267.083 128.437 261.808V260.265C128.36 257.311 127.698 254.401 126.49 251.704C125.282 249.007 123.552 246.574 121.398 244.547C119.245 242.52 116.712 240.938 113.944 239.892C111.176 238.847 108.228 238.358 105.27 238.454H105.22Z" fill="black"/>
<path d="M399.18 0.368408L399.23 28.6773L399.48 491.032L380.826 491.878L380.776 447.659L380.377 29.2251L380.352 0.94106L399.18 0.368408Z" fill="url(#paint2_linear)"/>
<path d="M19.6859 141.093L20.2572 158.547L29.0246 443.627L10.3948 444.706L9.53026 417.442L1.42251 159.448L0.876517 142.009L19.6859 141.093Z" fill="url(#paint3_linear)"/>
<path d="M380.776 447.66L380.825 491.878L10.7189 451.344L9.9209 425.102L380.776 447.66Z" fill="url(#paint4_linear)"/>
<path d="M732.304 70.207L744.873 483.437L399.48 491.031L399.23 28.6773L732.304 70.207Z" fill="url(#paint5_linear)"/>
<path d="M800.559 211.03C800.559 211.03 789.412 120.999 726.618 97.6944L438.907 84.374L442.947 216.632L800.559 211.03Z" fill="white"/>
<path d="M731.481 43.392L732.304 70.207L399.231 28.6773L399.181 0.368408L731.481 43.392Z" fill="url(#paint6_linear)"/>
<path fill-rule="evenodd" clip-rule="evenodd" d="M42.0414 444.721L115.783 442.107C83.738 446.912 80.1718 498.7 81.8427 526.56L16.3552 528.801C15.1083 492.102 21.1932 453.286 42.0414 444.721Z" fill="#414042"/>
<path fill-rule="evenodd" clip-rule="evenodd" d="M45.4584 444.597L119.2 441.982C87.1549 446.788 83.5389 498.575 85.2596 526.436L19.7721 528.801C18.5252 492.002 24.7098 453.161 45.4584 444.597Z" fill="#58595B"/>
<path fill-rule="evenodd" clip-rule="evenodd" d="M135.909 519.49C137.954 555.393 129.549 584.847 117.18 585.245C104.811 585.644 93.2146 556.887 91.3193 521.009C89.424 485.131 97.8282 455.677 110.073 455.253C122.317 454.83 133.839 483.612 135.909 519.49Z" fill="#231F20"/>
<path fill-rule="evenodd" clip-rule="evenodd" d="M67.2537 586.913C67.2537 586.913 96.132 589.752 117.13 585.245L110.022 455.253C110.022 455.253 80.2963 450.075 58.3508 457.395L67.2537 586.913Z" fill="#231F20"/>
<path fill-rule="evenodd" clip-rule="evenodd" d="M86.2818 521.158C88.1521 557.061 79.6233 586.49 67.254 586.913C54.8847 587.336 43.4132 558.679 41.6924 522.677C39.9717 486.674 48.4507 457.344 60.6953 456.921C72.9399 456.498 84.3865 485.28 86.2818 521.158Z" fill="#414042"/>
<path fill-rule="evenodd" clip-rule="evenodd" d="M79.1248 521.332C79.502 527.842 79.3268 534.372 78.6011 540.852C76.8804 555.592 72.2169 565.75 66.132 566.024C57.7278 566.323 49.9471 546.778 48.6753 522.353C47.4034 497.928 53.2639 477.935 61.5933 477.661C67.4039 477.462 72.9152 486.849 76.1821 500.767C77.765 507.522 78.7497 514.404 79.1248 521.332Z" fill="#D1D3D4"/>
<path fill-rule="evenodd" clip-rule="evenodd" d="M79.1247 521.332C79.5019 527.842 79.3267 534.372 78.601 540.852C78.3197 541.268 77.9508 541.617 77.5199 541.875C77.0891 542.133 76.6069 542.294 76.1072 542.346C72.0422 542.346 68.3014 533.034 67.7029 521.233C67.1044 509.431 69.8726 499.796 73.9126 499.646C74.3824 499.656 74.8454 499.76 75.274 499.953C75.7025 500.145 76.0877 500.422 76.4064 500.767C77.9138 507.529 78.8234 514.411 79.1247 521.332Z" fill="#58595B"/>
<path fill-rule="evenodd" clip-rule="evenodd" d="M103.29 442.555L45.0842 444.622C90.8706 446.639 100.397 497.978 100.447 525.889L146.907 524.245C145.51 487.471 133.415 449.303 103.29 442.555Z" fill="#414042"/>
<path fill-rule="evenodd" clip-rule="evenodd" d="M112.167 441.136L51.5928 443.277C94.6609 445.468 104.487 497.455 104.561 525.739L155.859 523.822C154.413 486.674 142.268 447.983 112.167 441.136Z" fill="#6D6E71"/>
<path fill-rule="evenodd" clip-rule="evenodd" d="M522.449 138.129C527.022 138.089 531.425 139.858 534.696 143.049C537.967 146.24 539.84 150.593 539.906 155.159L540.056 166.861C540.096 171.422 538.328 175.815 535.137 179.08C531.946 182.345 527.591 184.217 523.023 184.29C518.462 184.291 514.081 182.509 510.818 179.326C507.556 176.144 505.671 171.812 505.566 167.259L505.417 155.532C505.383 150.975 507.154 146.589 510.344 143.33C513.535 140.07 517.885 138.201 522.449 138.129Z" fill="#F58220"/>
<path fill-rule="evenodd" clip-rule="evenodd" d="M522.599 147.291C526.418 147.251 530.098 148.721 532.836 151.379C535.574 154.038 537.147 157.67 537.213 161.483L537.337 171.268C537.371 175.08 535.892 178.752 533.225 181.481C530.557 184.209 526.916 185.774 523.098 185.833V185.833C519.281 185.873 515.604 184.402 512.87 181.743C510.136 179.083 508.568 175.451 508.509 171.641L508.384 161.856C508.344 158.046 509.817 154.374 512.481 151.645C515.145 148.915 518.782 147.35 522.599 147.291V147.291Z" fill="#F0A72F"/>
<path fill-rule="evenodd" clip-rule="evenodd" d="M522.749 158.595C524.071 158.575 525.384 158.818 526.612 159.309C527.84 159.801 528.957 160.531 529.899 161.458C530.841 162.385 531.59 163.489 532.1 164.708C532.611 165.926 532.874 167.233 532.874 168.554V175.326C532.874 177.946 531.84 180.46 529.996 182.324C528.152 184.189 525.647 185.252 523.023 185.285V185.285C521.711 185.305 520.408 185.066 519.188 184.582C517.969 184.098 516.857 183.379 515.917 182.465C514.976 181.552 514.225 180.462 513.707 179.258C513.189 178.054 512.915 176.76 512.898 175.45V168.678C512.882 167.37 513.123 166.072 513.61 164.857C514.096 163.643 514.817 162.536 515.731 161.599C516.646 160.663 517.737 159.916 518.941 159.4C520.145 158.884 521.439 158.611 522.749 158.595Z" fill="#D1642C"/>
<path fill-rule="evenodd" clip-rule="evenodd" d="M540.13 166.338V167.11C540.33 180.928 532.649 192.331 523.197 192.456C513.696 192.58 505.741 181.376 505.591 167.558V166.786L540.13 166.338Z" fill="#414042"/>
<path fill-rule="evenodd" clip-rule="evenodd" d="M733.825 485.803L99.9976 444.149C113.339 473.204 124.188 498.924 125.41 538.761C125.41 541.972 125.559 545.184 125.559 548.371L737.341 601.354L733.825 485.803Z" fill="#58595B"/>
<path fill-rule="evenodd" clip-rule="evenodd" d="M774.973 134.892C779.542 134.852 783.941 136.617 787.212 139.803C790.482 142.989 792.358 147.336 792.43 151.897L792.58 163.624C792.62 168.186 790.851 172.578 787.661 175.843C784.47 179.108 780.115 180.981 775.547 181.053V181.053C770.985 181.054 766.605 179.272 763.342 176.09C760.079 172.907 758.194 168.575 758.09 164.023L757.94 152.296C757.907 147.738 759.678 143.353 762.868 140.093C766.058 136.833 770.409 134.964 774.973 134.892V134.892Z" fill="#F58220"/>
<path fill-rule="evenodd" clip-rule="evenodd" d="M775.073 144.054C778.892 144.014 782.572 145.484 785.31 148.143C788.047 150.801 789.621 154.433 789.686 158.246V168.031C789.753 171.844 788.307 175.529 785.662 178.281C783.018 181.033 779.39 182.629 775.571 182.721V182.721C771.752 182.754 768.075 181.278 765.342 178.614C762.609 175.951 761.042 172.316 760.983 168.504V158.744C760.909 154.933 762.35 151.248 764.991 148.495C767.631 145.742 771.256 144.146 775.073 144.054V144.054Z" fill="#F0A72F"/>
<path fill-rule="evenodd" clip-rule="evenodd" d="M775.222 155.333C776.545 155.313 777.858 155.556 779.085 156.048C780.313 156.54 781.43 157.27 782.373 158.197C783.315 159.123 784.063 160.228 784.574 161.446C785.084 162.664 785.347 163.972 785.347 165.292V172.089C785.363 173.397 785.122 174.696 784.636 175.91C784.149 177.125 783.428 178.232 782.514 179.168C781.599 180.105 780.508 180.852 779.304 181.368C778.1 181.883 776.806 182.157 775.496 182.173C774.174 182.193 772.861 181.95 771.633 181.458C770.405 180.967 769.288 180.236 768.346 179.309C767.404 178.383 766.656 177.278 766.145 176.06C765.634 174.842 765.371 173.534 765.371 172.214V165.442C765.352 164.132 765.591 162.831 766.076 161.613C766.56 160.396 767.281 159.286 768.196 158.347C769.111 157.408 770.203 156.658 771.408 156.141C772.614 155.624 773.91 155.349 775.222 155.333Z" fill="#D1642C"/>
<path fill-rule="evenodd" clip-rule="evenodd" d="M792.604 163.101V163.873C792.779 177.691 785.123 189.094 775.671 189.219C766.17 189.219 758.214 178.139 758.065 164.321V163.574L792.604 163.101Z" fill="#414042"/>
<path fill-rule="evenodd" clip-rule="evenodd" d="M803.576 512.269C805.235 512.106 806.906 512.106 808.564 512.269V512.269C831.008 514.186 849.014 544.487 849.512 581.809C850.011 619.131 832.679 649.93 810.385 652.395V652.544H807.891L764.548 653.092L762.728 512.817L803.576 512.269Z" fill="#231F20"/>
<path fill-rule="evenodd" clip-rule="evenodd" d="M764.524 653.067C741.058 653.366 721.506 622.094 721.007 583.353C720.509 544.612 739.237 512.892 762.704 512.593C786.171 512.295 805.722 543.591 806.221 582.307C806.72 621.024 787.991 652.769 764.524 653.067Z" fill="#414042"/>
<path fill-rule="evenodd" clip-rule="evenodd" d="M764.199 631.381C748.813 631.58 735.969 609.944 735.62 583.228C735.271 556.513 747.541 534.553 763.052 534.354C778.564 534.154 791.307 555.791 791.656 582.506C792.005 609.222 779.611 631.182 764.199 631.381Z" fill="#6D6E71"/>
<path fill-rule="evenodd" clip-rule="evenodd" d="M459.082 503.43L570.58 502.011C521.975 506.518 514.519 561.592 515.915 591.27L416.936 592.54C416.512 553.375 427.435 512.169 459.082 503.43Z" fill="#808285"/>
<path fill-rule="evenodd" clip-rule="evenodd" d="M464.269 503.356L575.767 501.937C527.163 506.443 519.706 561.518 521.078 591.196L422.098 592.466C421.674 553.326 432.672 512.095 464.269 503.356Z" fill="#58595B"/>
<path fill-rule="evenodd" clip-rule="evenodd" d="M518.385 515.929C520.043 515.768 521.714 515.768 523.372 515.929C545.817 517.847 563.822 548.147 564.321 585.469C564.82 622.791 547.488 653.59 525.168 656.055V656.204H522.674L479.307 656.752L477.561 516.353L518.385 515.929Z" fill="#231F20"/>
<path fill-rule="evenodd" clip-rule="evenodd" d="M479.332 656.727C455.865 657.026 436.339 625.754 435.84 587.013C435.341 548.272 454.07 516.627 477.561 516.353C501.053 516.079 520.555 547.351 521.053 586.067C521.552 624.783 502.799 656.428 479.332 656.727Z" fill="#414042"/>
<path fill-rule="evenodd" clip-rule="evenodd" d="M479.057 635.041C462.848 635.265 449.331 613.629 448.982 586.913C448.633 560.198 461.601 538.213 477.811 538.014C494.02 537.815 507.487 559.426 507.886 586.067C508.285 612.708 495.267 634.842 479.057 635.041Z" fill="#D1D3D4"/>
<path fill-rule="evenodd" clip-rule="evenodd" d="M448.982 586.067C448.982 559.675 461.75 538.263 477.81 538.064C493.871 537.864 507.487 559.351 507.886 586.067C508.205 597.265 505.791 608.374 500.853 618.434C490.125 618.048 479.686 614.855 470.583 609.175C461.479 603.494 454.03 595.526 448.982 586.067V586.067Z" fill="#D1D3D4"/>
<path fill-rule="evenodd" clip-rule="evenodd" d="M479.007 630.136C464.418 630.335 452.273 610.89 451.974 586.864C451.675 562.837 463.296 543.118 477.885 542.919C492.474 542.72 504.594 562.165 504.893 586.191C505.192 610.218 493.571 629.962 479.007 630.136Z" fill="#A7A9AC"/>
<path fill-rule="evenodd" clip-rule="evenodd" d="M452.024 588.557V586.988C451.725 562.912 463.321 543.243 477.935 543.043C492.549 542.844 504.644 562.24 504.943 586.316C505.385 597.665 502.546 608.902 496.763 618.683C487.265 618.205 478.078 615.146 470.194 609.837C462.31 604.528 456.027 597.17 452.024 588.557V588.557Z" fill="#D1D3D4"/>
<path fill-rule="evenodd" clip-rule="evenodd" d="M467.71 616.567C456.438 616.691 447.061 603.396 446.862 586.938C446.662 570.481 455.665 556.936 466.937 556.787C478.209 556.637 487.586 569.958 487.81 586.415C488.035 602.873 478.982 616.417 467.71 616.567Z" fill="#6D6E71"/>
<path fill-rule="evenodd" clip-rule="evenodd" d="M502.674 590.847C494.743 590.847 488.384 594.88 488.434 599.611C488.484 604.342 494.319 607.728 501.676 608.001C503.475 602.473 504.523 596.728 504.793 590.922C504.095 590.872 503.397 590.847 502.674 590.847Z" fill="#6D6E71"/>
<path fill-rule="evenodd" clip-rule="evenodd" d="M501.102 564.455C494.618 565.352 489.78 568.862 489.83 572.995C489.83 577.726 496.364 581.486 504.294 581.386H504.668C504.251 575.608 503.051 569.912 501.102 564.455V564.455Z" fill="#6D6E71"/>
<path fill-rule="evenodd" clip-rule="evenodd" d="M482.748 543.591C477.935 545.583 475.466 548.794 477.062 551.583C479.107 555.093 486.813 556.562 494.294 555.044L496.165 554.571C493.126 549.448 488.375 545.56 482.748 543.591V543.591Z" fill="#6D6E71"/>
<path fill-rule="evenodd" clip-rule="evenodd" d="M486.563 628.219C479.581 626.675 475.491 622.816 477.361 619.405C479.232 615.994 486.962 614.077 494.494 615.496C495.668 615.715 496.827 616.014 497.96 616.392C495.408 621.367 491.444 625.48 486.563 628.219V628.219Z" fill="#6D6E71"/>
<path fill-rule="evenodd" clip-rule="evenodd" d="M462.598 617.04C452.473 617.164 444.044 603.669 443.819 586.988C443.595 570.306 451.7 556.563 461.825 556.438C471.95 556.314 480.404 569.808 480.603 586.515C480.803 603.221 472.773 616.915 462.598 617.04Z" fill="#BCBEC0"/>
<path fill-rule="evenodd" clip-rule="evenodd" d="M462.598 605.686C456.263 605.686 450.977 597.32 450.852 586.888C450.727 576.456 455.84 567.866 462.099 567.792C468.358 567.717 473.72 576.157 473.845 586.589C473.97 597.022 468.832 605.611 462.598 605.686Z" fill="#E6E7E8"/>
<path fill-rule="evenodd" clip-rule="evenodd" d="M454.717 572.273C455.48 570.996 456.541 569.922 457.809 569.142C459.076 568.361 460.514 567.898 461.999 567.792C468.359 567.792 473.621 576.132 473.745 586.589C473.795 589.103 473.527 591.612 472.947 594.059C472.176 595.329 471.114 596.398 469.848 597.177C468.582 597.956 467.148 598.424 465.665 598.54C459.306 598.54 454.044 590.2 453.919 579.742C453.859 577.229 454.127 574.718 454.717 572.273Z" fill="#58595B"/>
<path d="M560.897 494.732L447.463 496.194L447.622 508.518L561.056 507.055L560.897 494.732Z" fill="#414042"/>
<path fill-rule="evenodd" clip-rule="evenodd" d="M828.041 487.969L649.26 490.26L667.091 570.879C667.463 572.688 668.456 574.311 669.9 575.466C671.344 576.62 673.146 577.235 674.996 577.203L806.719 575.51C808.598 575.496 810.411 574.815 811.832 573.587C813.254 572.36 814.19 570.667 814.475 568.813L828.041 487.969Z" fill="#414042"/>
<path fill-rule="evenodd" clip-rule="evenodd" d="M422.921 487.372L597.987 485.106V492.874L598.161 506.618L599.458 607.131L542.4 620.575C556.041 575.311 540.929 497.555 486.987 495.488C476.738 495.09 459.231 497.331 451.052 508.51L423.196 508.883L422.921 487.372Z" fill="#CCCCCC"/>
<path fill-rule="evenodd" clip-rule="evenodd" d="M897.07 585.071L582.301 589.129C581.004 606.383 560.53 616.343 542.575 620.575L860.112 616.492C873.853 616.99 893.304 602.947 897.07 585.071Z" fill="#58595B"/>
<path fill-rule="evenodd" clip-rule="evenodd" d="M595.418 485.156L422.921 487.372L418.632 183.791C418.632 177.617 425.291 173.409 433.595 173.309L583.872 173.757L595.418 485.156Z" fill="#CCCCCC"/>
<path d="M872.73 379.414L902.656 379.016C906.135 378.963 909.452 377.538 911.882 375.051C914.312 372.565 915.657 369.219 915.624 365.745L914.402 270.934C914.349 267.454 912.919 264.136 910.424 261.705C907.929 259.275 904.571 257.929 901.085 257.962L871.159 258.361C867.676 258.413 864.355 259.842 861.924 262.334C859.494 264.826 858.152 268.178 858.192 271.656L859.413 366.467C859.436 368.19 859.799 369.892 860.48 371.475C861.162 373.059 862.149 374.492 863.386 375.695C864.623 376.897 866.084 377.844 867.688 378.482C869.291 379.121 871.004 379.437 872.73 379.414ZM901.16 261.448C902.427 261.431 903.685 261.664 904.863 262.133C906.04 262.603 907.113 263.299 908.021 264.182C908.929 265.065 909.653 266.118 910.153 267.281C910.653 268.444 910.919 269.693 910.936 270.959L912.157 365.77C912.191 368.328 911.207 370.795 909.421 372.629C907.635 374.463 905.193 375.516 902.631 375.555L872.706 375.953C870.141 375.98 867.671 374.992 865.834 373.205C863.997 371.418 862.944 368.977 862.905 366.417L861.608 271.681C861.592 270.412 861.826 269.153 862.297 267.974C862.768 266.796 863.467 265.722 864.354 264.813C865.241 263.905 866.298 263.179 867.466 262.679C868.634 262.178 869.889 261.912 871.159 261.896L901.16 261.448Z" fill="#414042"/>
<path d="M885.893 481.355L422.981 487.324L423.1 496.511L886.012 490.541L885.893 481.355Z" fill="#414042"/>
<path fill-rule="evenodd" clip-rule="evenodd" d="M788.29 170.944L475.192 173.807C472.226 173.847 469.398 175.059 467.326 177.178C465.255 179.297 464.111 182.15 464.144 185.111L465.241 241.679L878.815 236.376L873.478 207.17C872.58 177.741 798.564 170.82 788.29 170.944Z" fill="#EBEBEC"/>
<path d="M805.851 196.214L667.56 198.334C658.554 198.473 651.365 205.868 651.503 214.853C651.641 223.838 659.055 231.01 668.061 230.872L806.351 228.751C815.358 228.613 822.547 221.217 822.409 212.232C822.27 203.247 814.857 196.076 805.851 196.214Z" fill="#E1632A"/>
<path d="M672.627 208.789C672.588 208.693 672.588 208.586 672.627 208.49C672.67 208.47 672.717 208.46 672.764 208.46C672.811 208.46 672.858 208.47 672.901 208.49H678.787C679.292 208.467 679.795 208.561 680.258 208.764C680.719 208.936 681.136 209.208 681.48 209.561C681.837 209.896 682.117 210.303 682.303 210.756C682.524 211.214 682.635 211.717 682.627 212.225C682.648 212.647 682.588 213.069 682.452 213.47C682.316 213.838 682.123 214.182 681.879 214.49C682.303 214.879 682.649 215.343 682.901 215.86C683.157 216.397 683.293 216.983 683.3 217.578C683.302 218.099 683.201 218.615 683.001 219.097C682.825 219.57 682.553 220.002 682.203 220.366C681.857 220.74 681.442 221.045 680.981 221.263C680.521 221.479 680.018 221.589 679.51 221.586H673.101C673.012 221.619 672.915 221.619 672.826 221.586C672.79 221.49 672.79 221.384 672.826 221.288L672.627 208.789ZM679.884 217.279C679.907 217.106 679.907 216.93 679.884 216.756C679.808 216.585 679.707 216.425 679.585 216.283C679.457 216.148 679.304 216.038 679.136 215.959C678.955 215.922 678.768 215.922 678.587 215.959H676.243V218.922H678.587C678.778 218.911 678.965 218.86 679.136 218.773C679.293 218.687 679.436 218.578 679.56 218.449C679.684 218.313 679.777 218.152 679.834 217.976C679.904 217.751 679.921 217.512 679.884 217.279V217.279ZM679.335 212.299C679.375 212.136 679.375 211.965 679.335 211.801C679.273 211.651 679.18 211.515 679.061 211.403C678.937 211.275 678.782 211.181 678.612 211.129C678.439 211.091 678.261 211.091 678.088 211.129H676.168V213.619H678.038C678.22 213.647 678.405 213.647 678.587 213.619C678.749 213.564 678.894 213.47 679.011 213.345C679.138 213.231 679.233 213.085 679.285 212.922C679.387 212.686 679.405 212.422 679.335 212.175V212.299Z" fill="black"/>
<path d="M685.121 208.59C685.082 208.494 685.082 208.387 685.121 208.291C685.163 208.269 685.21 208.258 685.258 208.258C685.306 208.258 685.353 208.269 685.395 208.291L694.173 208.141C694.285 208.141 694.393 208.186 694.473 208.265C694.552 208.345 694.597 208.452 694.597 208.565V210.756C694.629 210.853 694.629 210.958 694.597 211.055C694.501 211.091 694.394 211.091 694.298 211.055H688.562V213.246H692.976C693.074 213.216 693.178 213.216 693.275 213.246C693.297 213.288 693.309 213.335 693.309 213.382C693.309 213.43 693.297 213.477 693.275 213.519V215.412C693.3 215.493 693.3 215.579 693.275 215.661C693.196 215.74 693.088 215.785 692.976 215.785H688.537V218.051H694.472C694.527 218.042 694.582 218.047 694.635 218.064C694.687 218.081 694.734 218.11 694.773 218.149C694.812 218.188 694.841 218.235 694.858 218.287C694.875 218.339 694.88 218.395 694.871 218.449V220.665C694.882 220.688 694.888 220.714 694.888 220.74C694.888 220.766 694.882 220.791 694.871 220.814C694.871 220.989 694.722 221.063 694.522 221.088L685.57 221.213C685.518 221.221 685.464 221.216 685.414 221.201C685.364 221.185 685.318 221.158 685.28 221.122C685.241 221.086 685.212 221.042 685.193 220.993C685.174 220.944 685.166 220.892 685.171 220.839L685.121 208.59Z" fill="black"/>
<path d="M698.837 216.881C698.978 216.978 699.112 217.086 699.236 217.204C699.406 217.355 699.589 217.488 699.785 217.603C700.063 217.791 700.364 217.942 700.682 218.051C700.977 218.163 701.291 218.213 701.605 218.2C701.853 218.243 702.106 218.243 702.353 218.2C702.535 218.141 702.704 218.048 702.852 217.926C702.959 217.814 703.036 217.677 703.076 217.528C703.103 217.371 703.103 217.211 703.076 217.055C703.075 216.877 703.004 216.707 702.877 216.582C702.718 216.43 702.543 216.296 702.353 216.183L701.73 215.91L701.156 215.735C700.515 215.524 699.889 215.266 699.286 214.963C698.794 214.714 698.341 214.395 697.939 214.017C697.592 213.693 697.313 213.304 697.116 212.872C696.932 212.43 696.839 211.956 696.842 211.478C696.823 210.963 696.926 210.452 697.141 209.984C697.356 209.522 697.681 209.12 698.089 208.814C698.528 208.469 699.027 208.207 699.56 208.042C700.183 207.857 700.83 207.764 701.48 207.768C702 207.753 702.519 207.804 703.027 207.917C703.542 208.038 704.037 208.231 704.498 208.49L705.072 208.839L705.545 209.187C705.667 209.29 705.776 209.407 705.87 209.536C705.908 209.57 705.939 209.612 705.961 209.66C705.982 209.707 705.994 209.758 705.994 209.81C706.019 209.874 706.019 209.945 705.994 210.009C705.952 210.095 705.893 210.171 705.82 210.233L704.498 211.702C704.461 211.746 704.415 211.782 704.364 211.807C704.312 211.833 704.256 211.848 704.199 211.851C704.125 211.873 704.048 211.873 703.974 211.851L703.75 211.677L703.376 211.353L702.902 211.079L702.378 210.88C702.188 210.856 701.995 210.856 701.805 210.88H701.256C701.1 210.919 700.949 210.977 700.807 211.054C700.685 211.119 700.582 211.213 700.508 211.328C700.456 211.465 700.456 211.615 700.508 211.752C700.496 211.903 700.541 212.054 700.633 212.175C700.727 212.313 700.856 212.425 701.007 212.499L701.63 212.797L702.478 213.071C703.101 213.27 703.7 213.47 704.224 213.694C704.719 213.888 705.181 214.156 705.595 214.49C705.981 214.782 706.296 215.157 706.518 215.586C706.747 216.068 706.867 216.596 706.867 217.13C706.876 217.739 706.748 218.343 706.493 218.897C706.245 219.429 705.878 219.898 705.421 220.267C704.937 220.658 704.388 220.961 703.8 221.163C703.147 221.375 702.466 221.485 701.78 221.487C701.1 221.503 700.424 221.393 699.785 221.163C699.131 220.928 698.511 220.61 697.939 220.217L697.316 219.719L696.942 219.321C696.831 219.232 696.752 219.11 696.717 218.972C696.739 218.836 696.81 218.712 696.917 218.623L698.438 217.154C698.52 217.075 698.624 217.023 698.737 217.005H698.912L698.837 216.881Z" fill="black"/>
<path d="M707.964 208.241C707.943 208.199 707.931 208.152 707.931 208.104C707.931 208.056 707.943 208.009 707.964 207.967C708.062 207.938 708.166 207.938 708.264 207.967L717.79 207.818C717.889 207.796 717.991 207.796 718.089 207.818C718.169 207.897 718.214 208.004 718.214 208.116V210.307C718.205 210.418 718.162 210.522 718.089 210.606C718.058 210.656 718.013 210.696 717.961 210.722C717.908 210.749 717.849 210.76 717.79 210.756H714.748L714.872 220.441C714.907 220.529 714.907 220.627 714.872 220.715C714.839 220.763 714.794 220.802 714.742 220.828C714.69 220.854 714.632 220.866 714.573 220.864H712.079C711.982 220.896 711.877 220.896 711.78 220.864C711.751 220.767 711.751 220.663 711.78 220.565L711.63 210.88H708.588C708.476 210.88 708.368 210.835 708.289 210.756C708.246 210.714 708.213 210.663 708.192 210.607C708.17 210.551 708.161 210.492 708.164 210.432L707.964 208.241Z" fill="black"/>
<path d="M727.79 216.432L728.189 216.781L728.737 217.179C729.015 217.368 729.317 217.519 729.635 217.627C729.932 217.727 730.244 217.778 730.558 217.777C730.805 217.82 731.058 217.82 731.306 217.777C731.488 217.717 731.657 217.624 731.805 217.503C731.911 217.386 731.995 217.251 732.054 217.105C732.068 216.947 732.068 216.789 732.054 216.632C732.047 216.448 731.977 216.272 731.855 216.134L731.331 215.76L730.707 215.486L730.134 215.287C729.484 215.098 728.857 214.839 728.264 214.515C727.767 214.284 727.312 213.973 726.917 213.594C726.577 213.263 726.299 212.876 726.094 212.449C725.912 212.006 725.819 211.533 725.82 211.054C725.815 210.533 725.917 210.016 726.119 209.536C726.341 209.085 726.665 208.693 727.067 208.39C727.509 208.05 728.007 207.789 728.538 207.619C729.161 207.433 729.808 207.341 730.458 207.345C730.978 207.318 731.499 207.368 732.004 207.494C732.515 207.617 733.009 207.801 733.476 208.042L734.049 208.415L734.523 208.764C734.652 208.867 734.769 208.984 734.872 209.112C734.902 209.201 734.902 209.298 734.872 209.386C734.895 209.451 734.895 209.521 734.872 209.585C734.83 209.671 734.77 209.748 734.697 209.81L733.376 211.279C733.339 211.322 733.293 211.358 733.242 211.384C733.19 211.41 733.134 211.425 733.077 211.428H732.852L732.628 211.254L732.229 210.955L731.755 210.681L731.231 210.482C731.041 210.458 730.848 210.458 730.658 210.482H730.109C729.954 210.513 729.803 210.563 729.66 210.631C729.537 210.704 729.434 210.807 729.361 210.93C729.321 211.068 729.321 211.215 729.361 211.353C729.351 211.505 729.396 211.654 729.485 211.776C729.58 211.915 729.709 212.026 729.86 212.1L730.483 212.399L731.331 212.673C731.954 212.872 732.553 213.071 733.077 213.295C733.572 213.489 734.034 213.758 734.448 214.092C734.839 214.378 735.156 214.754 735.371 215.187C735.611 215.666 735.731 216.196 735.72 216.731C735.729 217.341 735.601 217.945 735.346 218.499C735.097 219.031 734.731 219.499 734.274 219.868C733.79 220.259 733.241 220.562 732.653 220.765C732 220.977 731.319 221.086 730.633 221.088C729.954 221.092 729.28 220.983 728.638 220.765C727.984 220.53 727.364 220.212 726.792 219.818C726.576 219.663 726.368 219.497 726.169 219.321L725.795 218.922C725.688 218.834 725.617 218.71 725.595 218.574C725.595 218.574 725.595 218.349 725.77 218.225L727.291 216.756C727.373 216.676 727.477 216.624 727.59 216.607H727.765L727.79 216.432Z" fill="black"/>
<path d="M737.64 207.818C737.602 207.722 737.602 207.615 737.64 207.519C737.683 207.497 737.73 207.486 737.778 207.486C737.825 207.486 737.872 207.497 737.915 207.519L746.693 207.37C746.806 207.37 746.913 207.414 746.993 207.494C747.073 207.573 747.117 207.681 747.117 207.793V209.984C747.152 210.072 747.152 210.17 747.117 210.258C747.084 210.306 747.039 210.344 746.987 210.371C746.934 210.397 746.876 210.409 746.818 210.407H741.082V212.598H745.496C745.594 212.569 745.698 212.569 745.795 212.598C745.817 212.64 745.829 212.687 745.829 212.735C745.829 212.783 745.817 212.83 745.795 212.872V214.764C745.82 214.845 745.82 214.932 745.795 215.013C745.716 215.093 745.608 215.137 745.496 215.138H741.057V217.403H746.992C747.267 217.403 747.391 217.528 747.416 217.802V220.068C747.434 220.116 747.434 220.169 747.416 220.217C747.416 220.391 747.267 220.466 747.067 220.466L738.114 220.615C738.062 220.623 738.009 220.619 737.959 220.603C737.909 220.587 737.863 220.561 737.824 220.525C737.786 220.489 737.756 220.445 737.737 220.396C737.719 220.347 737.711 220.294 737.715 220.242L737.64 207.818Z" fill="black"/>
<path d="M749.611 207.619C749.582 207.521 749.582 207.417 749.611 207.32C749.709 207.292 749.812 207.292 749.91 207.32H755.621C756.211 207.309 756.796 207.419 757.342 207.643C757.856 207.859 758.329 208.162 758.738 208.54C759.139 208.922 759.461 209.379 759.686 209.884C759.936 210.405 760.064 210.975 760.06 211.552C760.063 211.939 760.013 212.325 759.91 212.698C759.81 213.054 759.668 213.396 759.486 213.719C759.296 214.04 759.061 214.334 758.788 214.59C758.538 214.862 758.242 215.089 757.915 215.262L760.26 219.495C760.308 219.6 760.367 219.7 760.434 219.794C760.452 219.892 760.452 219.994 760.434 220.092C760.45 220.128 760.458 220.166 760.458 220.204C760.458 220.243 760.45 220.281 760.434 220.317C760.353 220.345 760.265 220.345 760.185 220.317H757.142C757.142 220.317 756.968 220.317 756.868 220.317C756.839 220.236 756.839 220.148 756.868 220.068L754.648 216.059H753.227V220.068C753.227 220.317 753.227 220.441 752.828 220.441H750.209C750.113 220.48 750.006 220.48 749.91 220.441C749.888 220.399 749.877 220.352 749.877 220.304C749.877 220.256 749.888 220.209 749.91 220.167L749.611 207.619ZM756.594 211.453C756.62 211.271 756.62 211.087 756.594 210.905C756.518 210.734 756.417 210.574 756.294 210.432C756.178 210.282 756.034 210.156 755.87 210.059C755.701 209.964 755.515 209.904 755.322 209.884H753.152V213.146H755.347C755.542 213.121 755.73 213.053 755.895 212.947C756.059 212.85 756.203 212.723 756.319 212.573C756.422 212.427 756.506 212.268 756.569 212.1C756.609 211.895 756.617 211.685 756.594 211.478V211.453Z" fill="black"/>
<path d="M765.846 220.067C765.778 219.965 765.72 219.857 765.671 219.744L765.522 219.395L760.808 207.594V207.444C760.808 207.27 760.933 207.195 761.132 207.195H764C764.101 207.191 764.199 207.221 764.281 207.28C764.362 207.338 764.421 207.423 764.449 207.519L767.267 215.536C767.517 214.855 767.741 214.183 767.941 213.519C768.165 212.847 768.365 212.175 768.564 211.503C768.764 210.83 768.988 210.133 769.187 209.461L769.861 207.444C769.893 207.343 769.956 207.255 770.041 207.193C770.126 207.13 770.229 207.096 770.335 207.096H773.128C773.225 207.063 773.33 207.063 773.427 207.096C773.441 207.127 773.448 207.161 773.448 207.195C773.448 207.23 773.441 207.263 773.427 207.295V207.295L769.038 219.221C769.038 219.221 769.038 219.395 769.038 219.495L768.888 219.769C768.851 219.857 768.791 219.935 768.714 219.993C768.674 220.009 768.632 220.018 768.589 220.018C768.546 220.018 768.504 220.009 768.464 219.993H766.295C766.02 220.067 765.896 220.067 765.846 220.067Z" fill="black"/>
<path d="M775.097 207.245C775.072 207.156 775.072 207.061 775.097 206.971C775.177 206.892 775.284 206.847 775.397 206.847H777.891C777.988 206.815 778.093 206.815 778.19 206.847C778.236 206.876 778.274 206.917 778.3 206.965C778.326 207.012 778.34 207.066 778.339 207.121L778.514 219.57C778.514 219.844 778.389 219.968 778.09 219.968H775.596C775.542 219.977 775.486 219.972 775.434 219.955C775.382 219.938 775.334 219.909 775.295 219.87C775.256 219.831 775.227 219.784 775.21 219.732C775.193 219.679 775.189 219.624 775.197 219.57L775.097 207.245Z" fill="black"/>
<path d="M791.407 207.619C791.494 207.68 791.57 207.756 791.632 207.843C791.656 207.898 791.669 207.957 791.669 208.017C791.669 208.077 791.656 208.137 791.632 208.191L790.16 210.333C790.141 210.374 790.114 210.411 790.079 210.441C790.045 210.471 790.004 210.494 789.961 210.507C789.918 210.527 789.871 210.537 789.824 210.537C789.776 210.537 789.729 210.527 789.686 210.507C789.389 210.3 789.06 210.14 788.714 210.034C788.361 209.914 787.99 209.855 787.617 209.86C787.151 209.857 786.691 209.96 786.27 210.158C785.875 210.335 785.525 210.599 785.247 210.93C784.948 211.254 784.719 211.635 784.574 212.051C784.401 212.486 784.316 212.952 784.325 213.42C784.339 213.88 784.431 214.335 784.599 214.764C784.772 215.17 785.017 215.542 785.322 215.86C785.623 216.164 785.978 216.409 786.37 216.582C786.796 216.761 787.254 216.854 787.716 216.856C788.098 216.84 788.475 216.773 788.839 216.657C789.177 216.528 789.496 216.352 789.786 216.134C789.876 216.107 789.971 216.107 790.06 216.134C790.14 216.176 790.208 216.235 790.26 216.308L791.806 218.449C791.837 218.498 791.854 218.554 791.854 218.611C791.854 218.669 791.837 218.725 791.806 218.773C791.792 218.823 791.766 218.869 791.732 218.908C791.697 218.946 791.655 218.977 791.607 218.997C791.051 219.375 790.447 219.677 789.811 219.893C789.159 220.106 788.477 220.215 787.791 220.217C787.186 220.24 786.581 220.173 785.996 220.018C785.426 219.872 784.88 219.646 784.375 219.346C783.868 219.065 783.399 218.722 782.978 218.325C782.579 217.912 782.22 217.461 781.906 216.98C781.608 216.471 781.373 215.928 781.207 215.362C780.959 214.498 780.884 213.594 780.986 212.701C781.089 211.807 781.368 210.944 781.806 210.158C782.098 209.653 782.45 209.185 782.853 208.764C783.25 208.346 783.703 207.986 784.2 207.693C785.217 207.057 786.391 206.712 787.592 206.698C788.274 206.696 788.954 206.789 789.612 206.971C790.233 207.118 790.835 207.335 791.407 207.619V207.619Z" fill="black"/>
<path d="M793.826 206.996C793.797 206.899 793.797 206.795 793.826 206.697C793.923 206.661 794.029 206.661 794.126 206.697L802.904 206.573C803.016 206.573 803.124 206.618 803.203 206.697C803.242 206.793 803.242 206.9 803.203 206.996V209.187C803.227 209.277 803.227 209.371 803.203 209.461C803.166 209.511 803.116 209.551 803.06 209.577C803.003 209.603 802.941 209.614 802.879 209.61H797.143V211.801H801.557C801.646 211.773 801.742 211.773 801.831 211.801C801.873 211.828 801.906 211.865 801.928 211.909C801.95 211.953 801.959 212.001 801.956 212.05V213.967C801.983 214.048 801.983 214.136 801.956 214.216C801.914 214.238 801.867 214.25 801.819 214.25C801.771 214.25 801.724 214.238 801.682 214.216H797.243V216.482H803.203C803.257 216.474 803.313 216.478 803.365 216.495C803.417 216.512 803.465 216.541 803.504 216.58C803.543 216.619 803.572 216.666 803.589 216.719C803.606 216.771 803.61 216.826 803.602 216.88V219.121C803.602 219.121 803.602 219.121 803.602 219.271C803.602 219.42 803.452 219.52 803.228 219.52H794.275C794.232 219.538 794.185 219.548 794.138 219.548C794.091 219.548 794.044 219.538 794.001 219.52C793.98 219.473 793.97 219.422 793.97 219.37C793.97 219.319 793.98 219.268 794.001 219.221L793.826 206.996Z" fill="black"/>
<path d="M806.744 229.429H806.47L668.163 231.546C665.927 231.58 663.705 231.174 661.625 230.351C659.546 229.528 657.649 228.305 656.043 226.75C652.799 223.61 650.938 219.312 650.869 214.802C650.799 210.292 652.527 205.939 655.672 202.701C658.817 199.462 663.122 197.604 667.64 197.535L805.946 195.394C810.381 195.424 814.629 197.177 817.791 200.282C820.953 203.387 822.779 207.599 822.883 212.025C822.986 216.451 821.36 220.744 818.347 223.993C815.334 227.242 811.173 229.192 806.744 229.429V229.429ZM667.44 199.004C663.465 199.296 659.755 201.1 657.073 204.043C654.391 206.986 652.942 210.844 653.025 214.822C653.108 218.801 654.717 222.595 657.519 225.424C660.322 228.253 664.105 229.9 668.088 230.027L806.395 227.91H806.744C810.871 227.815 814.791 226.086 817.642 223.105C820.492 220.123 822.04 216.134 821.944 212.013C821.848 207.893 820.117 203.979 817.131 201.133C814.144 198.287 810.148 196.742 806.021 196.838L667.714 198.979L667.44 199.004Z" fill="black"/>
<path fill-rule="evenodd" clip-rule="evenodd" d="M788.29 170.944L430.827 173.434C424.667 173.434 418.109 178.737 418.358 185.659V190.638L852.281 185.41C849.937 176.471 797.692 170.82 788.29 170.944Z" fill="white"/>
<path fill-rule="evenodd" clip-rule="evenodd" d="M534.694 188.846L418.857 190.041L419.779 242.326L589.358 240.135L581.229 215.586C578.012 205.527 557.812 188.148 534.694 188.846Z" fill="#CCCCCC"/>
<path fill-rule="evenodd" clip-rule="evenodd" d="M868.092 236.5L573.996 240.285L594.894 383.049L884.925 378.02L868.092 236.5Z" fill="#636363"/>
<g opacity="0.1">
<path opacity="0.1" fill-rule="evenodd" clip-rule="evenodd" d="M737.466 238.193L573.996 240.285L585.667 319.958L714.523 318.29C727.914 318.14 738.762 308.206 738.613 296.23L737.89 241.903C737.88 240.655 737.738 239.411 737.466 238.193V238.193Z" fill="white"/>
</g>
<g opacity="0.1">
<path opacity="0.1" fill-rule="evenodd" clip-rule="evenodd" d="M726.942 238.318L706.842 238.591L727.416 275.814L726.942 238.318ZM728.787 380.734L699.934 381.232L621.653 239.687L670.706 239.04L728.289 343.163L728.787 380.734ZM795.472 237.496L726.867 238.367L727.341 275.864L784.699 379.812L873.179 378.269L795.472 237.496ZM728.139 343.212L748.713 380.435L728.638 380.783L728.139 343.212Z" fill="white"/>
</g>
<g opacity="0.1">
<path opacity="0.1" fill-rule="evenodd" clip-rule="evenodd" d="M758.663 332.432L767.716 348.814L856.171 361.413C858.729 361.889 861.36 361.795 863.877 361.139L803.402 251.787L762.678 252.285C761.404 252.271 760.16 252.673 759.137 253.431C758.694 253.714 758.329 254.105 758.076 254.566C757.823 255.027 757.691 255.544 757.69 256.07L758.663 332.432Z" fill="white"/>
</g>
<g opacity="0.1">
<path opacity="0.1" fill-rule="evenodd" clip-rule="evenodd" d="M868.092 236.5L583.349 240.16L588.71 287.392L873.454 283.732L868.092 236.5Z" fill="white"/>
</g>
<path fill-rule="evenodd" clip-rule="evenodd" d="M885.948 490.384L827.817 491.131C826.029 491.17 824.314 491.846 822.983 493.038C821.651 494.23 820.792 495.859 820.56 497.629L809.362 568.887C809.175 570.694 808.335 572.37 806.999 573.603C805.664 574.835 803.924 575.54 802.106 575.585L679.21 577.153C677.41 577.175 675.662 576.547 674.288 575.385C672.914 574.223 672.005 572.606 671.729 570.829L657.115 499.571C656.802 497.827 655.877 496.25 654.507 495.124C653.136 493.997 651.409 493.394 649.634 493.422L590.755 494.169C588.076 494.266 585.544 495.418 583.713 497.372C581.881 499.327 580.898 501.925 580.979 504.601L582.077 588.706C582.063 591.37 583.103 593.931 584.971 595.834C586.839 597.736 589.384 598.825 592.052 598.864L887.095 595.08C889.772 594.982 892.301 593.83 894.128 591.875C895.956 589.919 896.933 587.321 896.845 584.648L895.773 500.567C895.787 497.926 894.768 495.384 892.933 493.482C891.098 491.58 888.591 490.468 885.948 490.384V490.384Z" fill="#E6E7E8"/>
<path fill-rule="evenodd" clip-rule="evenodd" d="M810.161 563.659L809.363 568.788C809.175 570.594 808.335 572.27 806.999 573.503C805.664 574.736 803.924 575.44 802.106 575.485L679.211 577.054C677.959 577.057 676.728 576.738 675.636 576.127C674.544 575.516 673.628 574.635 672.976 573.568L675.071 581.212L813.752 579.419L813.552 563.609H810.161V563.659Z" fill="white"/>
<path fill-rule="evenodd" clip-rule="evenodd" d="M885.948 490.384L827.817 491.131H827.642C825.988 491.192 824.404 491.816 823.154 492.899L827.194 497.156L895.025 496.285V496.111V495.887V495.762V495.613L894.901 495.389L894.776 495.189V495.04L894.502 494.667L894.377 494.492L894.227 494.318L893.853 493.895H893.728H893.579L893.379 493.745L893.205 493.596L893.005 493.447H892.856L892.457 493.173H892.307H892.083H891.933H891.708H891.484H891.309H891.06H890.836H890.511H890.337H890.112H889.888H889.713H889.464H889.215H888.466H887.718L885.948 490.384ZM656.941 498.7C656.889 498.485 656.813 498.277 656.717 498.078C656.48 497.493 656.17 496.941 655.794 496.434V496.434C655.483 496.004 655.123 495.612 654.722 495.264H654.597C654.051 494.845 653.457 494.494 652.826 494.218H652.577H652.352H651.704H651.455H649.958L591.079 494.965H590.306H589.583H589.334H589.084H588.835H588.611H588.386H588.212H588.087L587.788 495.09H587.563H587.339H587.164H586.965L586.74 495.214H586.591H586.366H586.217L585.817 495.488H585.693L585.493 495.663L584.795 496.434L584.62 496.584L584.396 496.808L583.947 497.281V497.405L583.299 498.302V498.924V499.074L583.174 499.298V499.522V499.671V499.82L583.049 500.045V500.219L658.188 499.248V498.949V498.65L656.941 498.7Z" fill="white"/>
<path fill-rule="evenodd" clip-rule="evenodd" d="M640.008 529.748L586.341 521.631C583.623 521.233 581.353 524.121 581.353 526.909L581.628 548.321C581.614 549.662 582.13 550.955 583.063 551.919C583.996 552.884 585.272 553.443 586.615 553.475L641.753 552.479C642.432 552.48 643.104 552.343 643.728 552.076C644.351 551.809 644.914 551.417 645.381 550.925C645.848 550.434 646.209 549.852 646.443 549.216C646.677 548.58 646.778 547.902 646.741 547.226L644.995 534.777C644.841 533.505 644.266 532.321 643.363 531.41C642.461 530.5 641.28 529.915 640.008 529.748Z" fill="#A4A2A2"/>
<path fill-rule="evenodd" clip-rule="evenodd" d="M836.321 527.208L889.763 517.747C892.481 517.274 894.751 520.013 894.751 522.876L895.025 544.313C895.045 544.985 894.932 545.655 894.691 546.283C894.451 546.912 894.089 547.487 893.625 547.975C893.162 548.463 892.606 548.855 891.991 549.128C891.375 549.401 890.711 549.55 890.037 549.566L834.899 550.014C834.229 550.015 833.566 549.881 832.949 549.62C832.333 549.358 831.775 548.976 831.309 548.495C830.844 548.014 830.48 547.444 830.24 546.82C830 546.195 829.888 545.529 829.912 544.861L831.333 532.412C831.464 531.113 832.026 529.896 832.93 528.953C833.834 528.01 835.027 527.396 836.321 527.208V527.208Z" fill="#A4A2A2"/>
<path fill-rule="evenodd" clip-rule="evenodd" d="M581.453 526.311C581.44 526.494 581.44 526.677 581.453 526.859L581.702 546.778C581.748 548.068 582.293 549.29 583.223 550.186C584.154 551.083 585.397 551.584 586.69 551.583L641.828 550.612H642.152C642.165 550.438 642.165 550.263 642.152 550.089L640.407 538.536C640.243 537.29 639.66 536.136 638.754 535.263C637.848 534.39 636.672 533.85 635.419 533.731L581.752 526.262L581.453 526.311Z" fill="#DBDCDA"/>
<path fill-rule="evenodd" clip-rule="evenodd" d="M894.776 522.278C894.788 522.469 894.788 522.66 894.776 522.851L895.025 542.944C895.025 544.264 894.5 545.531 893.564 546.465C892.629 547.398 891.36 547.923 890.037 547.923L834.874 548.371H834.675C834.663 548.189 834.663 548.006 834.675 547.824L836.121 536.221C836.261 534.948 836.832 533.761 837.738 532.856C838.645 531.951 839.834 531.381 841.109 531.242L894.551 522.328L894.776 522.278Z" fill="#DBDCDA"/>
<path fill-rule="evenodd" clip-rule="evenodd" d="M542.101 255.174L454.518 256.244C453.236 256.226 451.983 256.629 450.952 257.39C450.512 257.674 450.151 258.066 449.902 258.527C449.654 258.988 449.526 259.505 449.531 260.029L450.653 348.541C450.742 349.393 451.11 350.192 451.701 350.814C452.292 351.435 453.072 351.844 453.92 351.977L548.011 365.347C551.231 366.062 554.598 365.694 557.587 364.301C558.84 363.748 559.894 362.828 560.611 361.663C561.328 360.498 561.674 359.143 561.603 357.778L552.375 262.021C551.852 258.087 547.388 255.099 542.101 255.174Z" fill="#636363"/>
<path d="M551.976 367.388C554.228 367.422 556.451 366.883 558.435 365.82C559.996 365.108 561.306 363.944 562.196 362.478C563.085 361.013 563.513 359.315 563.423 357.604L554.046 261.846C553.547 256.867 548.46 253.356 542.175 253.431L454.568 254.526C452.913 254.493 451.296 255.019 449.979 256.02C449.319 256.465 448.78 257.066 448.41 257.77C448.04 258.474 447.851 259.259 447.859 260.054L449.007 348.566C449.115 349.773 449.614 350.911 450.429 351.81C451.243 352.708 452.328 353.317 453.52 353.545L547.761 366.965C549.151 367.228 550.562 367.369 551.976 367.388V367.388ZM454.543 257.987L542.125 256.892C546.54 256.892 550.205 259.157 550.505 262.195L559.856 357.952C559.858 358.975 559.561 359.975 559.003 360.833C558.446 361.69 557.65 362.368 556.714 362.782C554.071 364.036 551.075 364.335 548.235 363.629L454.119 350.259C453.171 349.96 452.373 349.263 452.373 348.516L451.251 259.904C451.266 259.655 451.342 259.414 451.472 259.201C451.603 258.988 451.784 258.811 451.999 258.684C452.744 258.172 453.64 257.927 454.543 257.987V257.987Z" fill="#414042"/>
<g opacity="0.1">
<path opacity="0.1" fill-rule="evenodd" clip-rule="evenodd" d="M540.829 256.493L464.144 257.439L464.693 301.16C464.842 313.136 475.94 322.771 489.332 322.597L556.664 321.75L550.954 263.34C550.58 259.431 546.141 256.443 540.829 256.493Z" fill="white"/>
</g>
<path fill-rule="evenodd" clip-rule="evenodd" d="M918.018 267.896L905.549 268.046C903.681 267.95 901.85 268.59 900.451 269.829C899.051 271.068 898.195 272.806 898.067 274.669L898.691 323.095C898.862 324.948 899.755 326.659 901.178 327.86C902.6 329.062 904.439 329.657 906.297 329.519L918.766 329.344C919.691 329.402 920.619 329.277 921.495 328.976C922.372 328.676 923.181 328.205 923.876 327.593C924.57 326.98 925.137 326.237 925.544 325.405C925.951 324.574 926.19 323.67 926.247 322.747L925.624 274.295C925.453 272.445 924.559 270.736 923.135 269.538C921.712 268.341 919.873 267.751 918.018 267.896V267.896Z" fill="#414042"/>
<path fill-rule="evenodd" clip-rule="evenodd" d="M920.137 335.121L903.08 335.345C901.532 335.27 900.017 335.804 898.86 336.833C897.703 337.862 896.998 339.304 896.895 340.847L897.144 359.297C897.284 360.834 898.024 362.255 899.205 363.252C900.386 364.249 901.912 364.742 903.454 364.625L920.511 364.401C922.059 364.476 923.574 363.941 924.731 362.912C925.888 361.883 926.593 360.442 926.696 358.898L926.447 340.449C926.307 338.911 925.567 337.49 924.386 336.493C923.206 335.496 921.679 335.003 920.137 335.121V335.121Z" fill="#414042"/>
<path d="M892.937 411.875L880.569 412.034C875.542 412.099 871.52 416.22 871.585 421.238L872.247 472.449C872.312 477.468 876.44 481.484 881.467 481.419L893.835 481.259C898.862 481.194 902.884 477.074 902.819 472.055L902.157 420.844C902.092 415.826 897.964 411.81 892.937 411.875Z" fill="#A7A9AC"/>
<path fill-rule="evenodd" clip-rule="evenodd" d="M890.461 415.89L880.486 416.039C878.446 416.167 876.539 417.095 875.18 418.619C873.821 420.144 873.12 422.143 873.229 424.181L873.802 469.594C873.742 471.637 874.496 473.621 875.898 475.11C877.301 476.599 879.238 477.472 881.284 477.537L891.259 477.412C893.299 477.284 895.206 476.357 896.565 474.832C897.924 473.307 898.625 471.309 898.516 469.271L897.943 423.857C898.003 421.811 897.25 419.825 895.848 418.332C894.446 416.839 892.51 415.961 890.461 415.89V415.89Z" fill="#58595B"/>
<path fill-rule="evenodd" clip-rule="evenodd" d="M883.653 367.314L589.383 371.073C587.112 371.08 584.935 371.98 583.324 373.579C581.714 375.177 580.799 377.346 580.78 379.613L582.052 476.889C582.117 479.157 583.08 481.306 584.731 482.865C586.381 484.424 588.583 485.265 590.855 485.205L885.124 481.421C887.395 481.427 889.576 480.535 891.189 478.939C892.802 477.342 893.715 475.173 893.728 472.906L892.481 375.605C892.403 373.339 891.431 371.197 889.778 369.644C888.124 368.091 885.923 367.253 883.653 367.314V367.314Z" fill="#E6E7E8"/>
<path fill-rule="evenodd" clip-rule="evenodd" d="M833.054 406.802L643.325 409.291C642.88 409.32 642.452 409.466 642.083 409.716C641.715 409.965 641.42 410.309 641.23 410.711C640.72 411.663 640.544 412.759 640.731 413.823L643.599 431.251C643.898 432.994 644.995 434.214 646.292 434.189L831.034 431.7C832.356 431.7 833.528 430.405 833.677 428.612L835.772 411.184C835.928 410.122 835.708 409.038 835.149 408.121C834.954 407.733 834.655 407.406 834.285 407.177C833.915 406.948 833.489 406.827 833.054 406.827V406.802ZM825.922 466.034L653.025 468.275C652.584 468.289 652.155 468.427 651.789 468.674C651.423 468.92 651.134 469.265 650.956 469.669C650.427 470.615 650.243 471.714 650.432 472.781L651.205 477.437C651.479 479.18 652.602 480.375 653.898 480.375L825.448 478.159C826.77 478.159 827.942 476.864 828.066 475.097L828.64 470.416C828.79 469.354 828.57 468.273 828.016 467.353C827.813 466.97 827.512 466.647 827.145 466.415C826.777 466.184 826.356 466.052 825.922 466.034V466.034ZM829.014 440.339L648.811 442.655C648.374 442.685 647.952 442.83 647.589 443.074C647.225 443.319 646.933 443.655 646.741 444.049C646.215 444.996 646.03 446.094 646.217 447.161L647.813 456.821C648.088 458.564 649.21 459.759 650.507 459.735L827.942 457.469C829.263 457.469 830.435 456.174 830.56 454.381L831.732 444.721C831.892 443.659 831.672 442.574 831.109 441.659C830.908 441.271 830.609 440.943 830.242 440.707C829.874 440.471 829.451 440.335 829.014 440.314V440.339Z" fill="#414042"/>
<path d="M576.366 485.404H579.832L577.463 365.72L562.101 243.272L448.084 244.741C441.575 244.741 436.338 248.999 436.388 254.078L439.406 487.222H442.872L439.879 254.078C439.879 250.966 443.62 248.302 448.134 248.252L559.059 246.833L574.022 366.019L576.366 485.404Z" fill="#414042"/>
<path fill-rule="evenodd" clip-rule="evenodd" d="M584.994 254.651L577.064 254.725L589.533 371.073L598.212 370.974L584.994 254.651Z" fill="#82ADB1"/>
<path fill-rule="evenodd" clip-rule="evenodd" d="M878.815 236.375L573.996 240.284L577.662 262.319L882.481 258.41L878.815 236.375Z" fill="#6D6E71"/>
<path fill-rule="evenodd" clip-rule="evenodd" d="M591.428 240.06L573.996 240.284L577.662 262.319L595.094 262.095L591.428 240.06Z" fill="#58595B"/>
<path opacity="0.1" d="M883.654 367.438C883.899 367.468 884.147 367.445 884.383 367.372C884.618 367.298 884.836 367.175 885.02 367.012C885.205 366.848 885.353 366.648 885.454 366.423C885.555 366.198 885.608 365.954 885.608 365.708C885.608 365.462 885.555 365.218 885.454 364.993C885.353 364.769 885.205 364.568 885.02 364.404C884.836 364.241 884.618 364.118 884.383 364.045C884.147 363.971 883.899 363.948 883.654 363.978L596.192 367.613C594.786 367.636 593.421 367.141 592.358 366.222C591.295 365.304 590.609 364.026 590.431 362.633L576.765 246.708C576.716 246.284 576.509 245.893 576.187 245.612C575.864 245.331 575.448 245.181 575.02 245.19H574.82C574.363 245.252 573.949 245.49 573.664 245.852C573.38 246.215 573.249 246.674 573.299 247.132L586.965 363.032C587.23 365.287 588.322 367.364 590.03 368.863C591.739 370.362 593.943 371.176 596.217 371.148L883.654 367.438Z" fill="white"/>
<path fill-rule="evenodd" clip-rule="evenodd" d="M883.653 367.314L589.383 371.073C587.211 371.08 585.122 371.904 583.531 373.381C581.941 374.857 580.967 376.879 580.804 379.041L892.331 375.057C892.13 372.911 891.124 370.921 889.514 369.485C887.905 368.049 885.811 367.273 883.653 367.314Z" fill="white"/>
<path fill-rule="evenodd" clip-rule="evenodd" d="M536.115 272.777L548.585 272.602C550.422 272.498 552.228 273.109 553.624 274.307C555.019 275.505 555.895 277.196 556.066 279.026L556.689 327.477C556.632 328.401 556.393 329.304 555.986 330.136C555.579 330.967 555.012 331.711 554.318 332.323C553.623 332.936 552.814 333.406 551.937 333.707C551.061 334.007 550.133 334.132 549.208 334.075L536.739 334.225C534.901 334.349 533.088 333.748 531.689 332.552C530.289 331.355 529.417 329.658 529.257 327.826L528.634 279.374C528.691 278.451 528.93 277.547 529.337 276.716C529.744 275.884 530.311 275.141 531.006 274.528C531.701 273.915 532.509 273.445 533.386 273.145C534.263 272.844 535.19 272.719 536.115 272.777V272.777Z" fill="#414042"/>
<path fill-rule="evenodd" clip-rule="evenodd" d="M535.717 340.026L552.799 339.826C554.341 339.709 555.867 340.202 557.048 341.199C558.229 342.196 558.969 343.617 559.109 345.155L559.333 363.604C559.236 365.145 558.536 366.587 557.383 367.616C556.231 368.646 554.718 369.181 553.173 369.106L536.091 369.305C534.549 369.423 533.022 368.93 531.842 367.933C530.661 366.936 529.921 365.515 529.781 363.977L529.557 345.528C529.653 343.987 530.354 342.545 531.506 341.516C532.659 340.486 534.172 339.951 535.717 340.026V340.026Z" fill="#414042"/>
<path d="M554.321 383.547L575.294 383.273V379.812L554.296 380.086C551.731 380.113 549.261 379.125 547.424 377.338C545.588 375.551 544.535 373.11 544.495 370.55L543.273 275.739C543.257 274.471 543.491 273.211 543.962 272.033C544.433 270.854 545.132 269.78 546.019 268.872C546.906 267.963 547.963 267.238 549.131 266.737C550.299 266.237 551.554 265.971 552.824 265.954L573.822 265.68V262.22L552.824 262.493C551.099 262.516 549.394 262.878 547.808 263.559C546.222 264.239 544.786 265.225 543.582 266.459C542.378 267.694 541.429 269.154 540.79 270.754C540.151 272.355 539.834 274.066 539.857 275.789L541.079 370.6C541.125 374.067 542.543 377.375 545.025 379.801C547.506 382.227 550.848 383.574 554.321 383.547Z" fill="#414042"/>
<path fill-rule="evenodd" clip-rule="evenodd" d="M827.193 497.156L812.729 579.568L806.544 573.942L806.869 573.643L807.143 573.319V573.17V572.921V572.647C807.143 572.348 807.342 572.049 807.417 571.726V571.253L818.615 499.97C818.869 498.33 819.637 496.814 820.809 495.638L827.193 497.156Z" fill="#A7A9AC"/>
<path fill-rule="evenodd" clip-rule="evenodd" d="M587.538 415.865H580.057L580.93 485.23H588.411C589.605 485.217 590.785 484.969 591.883 484.5C592.981 484.031 593.976 483.35 594.81 482.497C595.644 481.643 596.301 480.634 596.743 479.526C597.186 478.419 597.405 477.235 597.389 476.043L596.74 424.803C596.701 422.401 595.711 420.113 593.987 418.438C592.262 416.763 589.944 415.838 587.538 415.865V415.865Z" fill="#CCCCCC"/>
<path fill-rule="evenodd" clip-rule="evenodd" d="M598.61 549.915C594.346 549.915 590.805 544.537 590.705 537.815C590.605 531.092 594.022 525.59 598.311 525.515C602.601 525.44 606.117 530.893 606.192 537.616C606.266 544.338 602.875 549.865 598.61 549.915Z" fill="white"/>
<path fill-rule="evenodd" clip-rule="evenodd" d="M878.441 546.23C874.176 546.23 870.61 540.852 870.535 534.13C870.46 527.407 873.852 521.88 878.017 521.83C882.181 521.78 885.822 527.208 885.922 533.931C886.022 540.653 882.705 546.23 878.441 546.23Z" fill="white"/>
<path fill-rule="evenodd" clip-rule="evenodd" d="M598.56 546.355C595.543 546.355 593.024 542.545 592.974 537.79C592.924 533.034 595.318 529.125 598.336 529.076C601.353 529.026 603.872 532.885 603.947 537.64C604.022 542.396 601.603 546.23 598.56 546.355Z" fill="#DBDCDA"/>
<path d="M685.244 428.608C675.122 414.049 658.854 405.904 651.985 403.652C712.613 401.078 830.861 397.049 818.822 401.523C806.782 405.996 802.143 420.456 801.328 427.127L685.244 428.608Z" fill="#E6E7E8"/>
<path fill-rule="evenodd" clip-rule="evenodd" d="M878.391 542.769C875.374 542.769 872.855 538.96 872.78 534.204C872.705 529.449 875.149 525.54 878.167 525.49C881.184 525.44 883.703 529.299 883.753 534.055C883.803 538.81 881.409 542.719 878.391 542.769Z" fill="#DBDCDA"/>
<path fill-rule="evenodd" clip-rule="evenodd" d="M619.409 549.641C616.292 549.641 613.723 545.732 613.648 540.827C613.573 535.922 616.142 531.914 619.184 531.889C622.227 531.864 624.87 535.798 624.92 540.703C624.97 545.607 622.501 549.616 619.409 549.641Z" fill="white"/>
<path fill-rule="evenodd" clip-rule="evenodd" d="M857.643 546.579C854.55 546.579 851.957 542.67 851.882 537.79C851.807 532.91 854.376 528.876 857.418 528.827C860.461 528.777 863.104 532.735 863.179 537.64C863.254 542.545 860.76 546.554 857.643 546.579Z" fill="white"/>
<path fill-rule="evenodd" clip-rule="evenodd" d="M619.359 547.052C617.165 547.052 615.344 544.288 615.294 540.827C615.244 537.367 617.015 534.503 619.209 534.479C621.404 534.454 623.249 537.242 623.274 540.728C623.299 544.214 621.579 547.027 619.359 547.052Z" fill="#DBDCDA"/>
<path fill-rule="evenodd" clip-rule="evenodd" d="M857.618 543.989C855.423 543.989 853.578 541.226 853.528 537.765C853.478 534.304 855.249 531.441 857.443 531.416C859.638 531.391 861.483 534.204 861.533 537.665C861.583 541.126 859.812 543.964 857.618 543.989Z" fill="#DBDCDA"/>
<path d="M634.813 566.922L593.02 567.461C590.321 567.496 588.161 569.709 588.195 572.404L588.294 580.047C588.329 582.742 590.546 584.898 593.245 584.863L635.038 584.325C637.737 584.29 639.897 582.077 639.862 579.382L639.763 571.739C639.728 569.044 637.512 566.888 634.813 566.922Z" fill="#A8A6A7"/>
<path d="M888.12 563.657L846.303 564.196C843.603 564.231 841.443 566.444 841.478 569.138L841.577 576.782C841.612 579.476 843.828 581.633 846.528 581.598L888.345 581.059C891.045 581.024 893.205 578.811 893.17 576.116L893.071 568.473C893.036 565.778 890.82 563.622 888.12 563.657Z" fill="#A8A6A7"/>
<path fill-rule="evenodd" clip-rule="evenodd" d="M627.913 569.784L593 570.232H592.875C590.231 570.232 588.137 571.875 588.162 573.742V579.145C588.162 581.037 590.381 582.556 593.149 582.531L628.062 582.083C630.731 582.083 632.925 580.465 632.9 578.573V573.17C632.9 571.302 630.731 569.808 628.087 569.784H627.913Z" fill="#EEE6D4"/>
<path fill-rule="evenodd" clip-rule="evenodd" d="M846.271 566.97L881.184 566.522C883.803 566.522 885.947 568.041 885.972 569.908V575.336C885.972 577.228 883.828 578.797 881.134 578.822L846.221 579.27C843.528 579.27 841.233 577.801 841.233 575.909V570.481C841.233 568.614 843.328 567.07 845.947 566.995L846.271 566.97Z" fill="#EEE6D4"/>
<path fill-rule="evenodd" clip-rule="evenodd" d="M608.96 570.032L593 570.232H592.875C590.231 570.232 588.137 571.875 588.162 573.742V579.145C588.162 581.037 590.381 582.556 593.149 582.531L609.11 582.332L608.96 570.032Z" fill="#F58220"/>
<path fill-rule="evenodd" clip-rule="evenodd" d="M865.224 566.746L881.184 566.522C883.803 566.522 885.947 568.041 885.972 569.908V575.336C885.972 577.228 883.827 578.797 881.134 578.822L865.174 579.046L865.224 566.746Z" fill="#F58220"/>
<path fill-rule="evenodd" clip-rule="evenodd" d="M627.913 569.784L593 570.232H592.875C590.231 570.232 588.137 571.875 588.162 573.742V574.738L632.826 574.166V573.17C632.826 571.302 630.656 569.808 628.013 569.784H627.913Z" fill="#D2C8AD"/>
<path fill-rule="evenodd" clip-rule="evenodd" d="M846.271 566.97L881.184 566.522C883.803 566.522 885.947 568.041 885.972 569.908V570.929L841.308 571.502V570.481C841.308 568.614 843.403 567.07 846.021 566.995L846.271 566.97Z" fill="#D2C8AD"/>
<path fill-rule="evenodd" clip-rule="evenodd" d="M608.96 570.032L593 570.232H592.875C590.231 570.232 588.137 571.875 588.162 573.742V574.738L609.01 574.489L608.96 570.032Z" fill="#D56A2C"/>
<path fill-rule="evenodd" clip-rule="evenodd" d="M865.223 566.746L881.184 566.522C883.802 566.522 885.947 568.041 885.972 569.908V570.929L865.124 571.203L865.223 566.746Z" fill="#D56A2C"/>
<path d="M490.485 372.554L469.863 372.82C467.48 372.851 465.574 374.804 465.604 377.183L465.69 383.83C465.721 386.209 467.677 388.112 470.06 388.081L490.682 387.815C493.065 387.785 494.971 385.832 494.94 383.453L494.854 376.806C494.824 374.427 492.867 372.524 490.485 372.554Z" fill="#414042"/>
<path fill-rule="evenodd" clip-rule="evenodd" d="M500.005 376.426L460.628 376.949C460.384 376.948 460.141 376.998 459.917 377.096C459.693 377.195 459.492 377.339 459.328 377.52C459.163 377.7 459.038 377.914 458.962 378.146C458.885 378.378 458.858 378.623 458.883 378.866L459.157 382.377C459.207 382.89 459.446 383.366 459.829 383.711C460.212 384.056 460.711 384.247 461.227 384.244L500.604 383.746C500.852 383.76 501.101 383.722 501.334 383.635C501.567 383.548 501.779 383.414 501.957 383.241C502.135 383.068 502.275 382.859 502.369 382.629C502.462 382.399 502.506 382.152 502.499 381.904L502.2 378.418C502.187 378.143 502.12 377.874 502.003 377.625C501.886 377.376 501.72 377.153 501.517 376.968C501.313 376.783 501.074 376.64 500.815 376.547C500.556 376.454 500.281 376.413 500.005 376.426V376.426Z" fill="#58595B"/>
<path d="M169.315 463.241L164.684 550.585L384.854 562.22L389.484 474.876L169.315 463.241Z" fill="white"/>
<path d="M344.652 472.508L340.021 559.852L353.818 560.581L358.449 473.237L344.652 472.508Z" fill="#A7A9AC"/>
<path fill-rule="evenodd" clip-rule="evenodd" d="M209.901 513.738L212.444 465.561L198.653 464.839L194.015 552.18L207.806 552.903L209.901 513.738Z" fill="#A7A9AC"/>
<path d="M270.487 468.611L265.856 555.955L279.652 556.684L284.283 469.34L270.487 468.611Z" fill="#A7A9AC"/>
<path fill-rule="evenodd" clip-rule="evenodd" d="M421.924 466.482L337.034 461.378L347.907 554.073L359.678 585.793L416.936 592.54L421.924 466.482Z" fill="#58595B"/>
<path fill-rule="evenodd" clip-rule="evenodd" d="M132.766 468.051L364.018 488.89L365.215 504.227L133.938 482.989L132.766 468.051Z" fill="#58595B"/>
<path fill-rule="evenodd" clip-rule="evenodd" d="M134.188 486.027L365.414 506.866L365.664 510.078L134.413 488.815L134.188 486.027Z" fill="#58595B"/>
<path fill-rule="evenodd" clip-rule="evenodd" d="M137.355 512.618L368.756 532.138L370.177 547.475L138.752 527.532L137.355 512.618Z" fill="#58595B"/>
<path fill-rule="evenodd" clip-rule="evenodd" d="M139.026 530.594L370.427 550.114L370.726 553.301L139.3 533.358L139.026 530.594Z" fill="#58595B"/>
<path d="M698.976 414.487L702.496 414.08C702.73 415.259 703.174 416.12 703.829 416.663C704.492 417.206 705.375 417.467 706.477 417.447C707.644 417.426 708.517 417.165 709.095 416.664C709.682 416.155 709.969 415.57 709.957 414.909C709.949 414.485 709.816 414.128 709.557 413.839C709.307 413.541 708.869 413.288 708.245 413.079C707.818 412.94 706.846 412.697 705.329 412.349C703.378 411.904 702.004 411.337 701.208 410.65C700.088 409.683 699.515 408.489 699.488 407.069C699.472 406.155 699.713 405.297 700.212 404.496C700.72 403.687 701.455 403.065 702.419 402.631C703.391 402.197 704.566 401.967 705.945 401.941C708.198 401.9 709.9 402.362 711.053 403.329C712.214 404.295 712.838 405.602 712.926 407.249L709.305 407.476C709.133 406.556 708.786 405.901 708.265 405.511C707.751 405.112 706.984 404.922 705.964 404.941C704.911 404.961 704.091 405.192 703.503 405.636C703.125 405.92 702.94 406.295 702.948 406.76C702.956 407.185 703.142 407.545 703.507 407.84C703.971 408.215 705.089 408.594 706.859 408.978C708.63 409.362 709.939 409.77 710.788 410.204C711.645 410.629 712.317 411.224 712.805 411.991C713.301 412.749 713.559 413.696 713.58 414.83C713.599 415.858 713.331 416.827 712.776 417.735C712.222 418.643 711.426 419.327 710.39 419.787C709.353 420.239 708.055 420.479 706.497 420.508C704.228 420.55 702.476 420.06 701.24 419.038C700.005 418.008 699.25 416.491 698.976 414.487Z" fill="#A6A6A6"/>
<path d="M728.086 413.19L731.62 414.239C731.117 416.208 730.246 417.681 729.007 418.66C727.776 419.629 726.198 420.132 724.271 420.168C721.888 420.212 719.915 419.436 718.35 417.84C716.786 416.236 715.978 414.022 715.925 411.199C715.87 408.211 716.599 405.879 718.111 404.202C719.622 402.517 721.635 401.651 724.149 401.605C726.344 401.564 728.139 402.18 729.535 403.452C730.365 404.205 730.997 405.295 731.432 406.724L727.861 407.647C727.631 406.721 727.173 405.994 726.486 405.468C725.807 404.942 724.986 404.688 724.023 404.705C722.692 404.73 721.62 405.227 720.805 406.198C719.998 407.168 719.615 408.722 719.654 410.86C719.696 413.129 720.134 414.737 720.968 415.685C721.802 416.633 722.872 417.095 724.178 417.071C725.141 417.053 725.963 416.732 726.646 416.107C727.328 415.482 727.808 414.51 728.086 413.19Z" fill="#A6A6A6"/>
<path d="M751.026 419.367L747.085 419.44L745.442 415.392L738.269 415.525L736.863 419.629L733.019 419.7L739.677 401.624L743.509 401.553L751.026 419.367ZM744.223 412.39L741.628 405.776L739.327 412.481L744.223 412.39Z" fill="#A6A6A6"/>
<path d="M752.997 419.331L752.666 401.384L756.191 401.319L763.758 413.168L763.537 401.183L766.903 401.121L767.235 419.068L763.599 419.135L756.148 407.565L756.364 419.268L752.997 419.331Z" fill="#A6A6A6"/>
<path d="M787.262 418.698L783.32 418.77L781.678 414.723L774.504 414.855L773.099 418.959L769.255 419.03L775.913 400.955L779.745 400.884L787.262 418.698ZM780.459 411.721L777.863 405.107L775.563 411.811L780.459 411.721Z" fill="#A6A6A6"/>
<defs>
<linearGradient id="paint0_linear" x1="23370.3" y1="21190" x2="81585.8" y2="19418.7" gradientUnits="userSpaceOnUse">
<stop stop-color="#CCCCCC"/>
<stop offset="1" stop-color="#A7A9AC"/>
</linearGradient>
<linearGradient id="paint1_linear" x1="25361.8" y1="86677.7" x2="83444.6" y2="84910.5" gradientUnits="userSpaceOnUse">
<stop stop-color="white"/>
<stop offset="1" stop-color="#E6E6E6"/>
</linearGradient>
<linearGradient id="paint2_linear" x1="7397.9" y1="104081" x2="7653.13" y2="104074" gradientUnits="userSpaceOnUse">
<stop stop-color="#CCCCCC"/>
<stop offset="1" stop-color="#A7A9AC"/>
</linearGradient>
<linearGradient id="paint3_linear" x1="8932.79" y1="64108.3" x2="9187.15" y2="64088.1" gradientUnits="userSpaceOnUse">
<stop stop-color="#CCCCCC"/>
<stop offset="1" stop-color="#A7A9AC"/>
</linearGradient>
<linearGradient id="paint4_linear" x1="22826.8" y1="19205.7" x2="77832.4" y2="17532" gradientUnits="userSpaceOnUse">
<stop stop-color="#CCCCCC"/>
<stop offset="1" stop-color="#A7A9AC"/>
</linearGradient>
<linearGradient id="paint5_linear" x1="392.463" y1="261.529" x2="737.771" y2="251.022" gradientUnits="userSpaceOnUse">
<stop stop-color="#E6E6E6"/>
<stop offset="1" stop-color="white"/>
</linearGradient>
<linearGradient id="paint6_linear" x1="74168.1" y1="6573.88" x2="118450" y2="5226.52" gradientUnits="userSpaceOnUse">
<stop stop-color="#CCCCCC"/>
<stop offset="1" stop-color="#A7A9AC"/>
</linearGradient>
</defs>
</svg>
