<?xml version="1.0" standalone="no"?>
<!DOCTYPE svg PUBLIC "-//W3C//DTD SVG 20010904//EN"
 "http://www.w3.org/TR/2001/REC-SVG-20010904/DTD/svg10.dtd">
<svg version="1.0" xmlns="http://www.w3.org/2000/svg"
 width="756.000000pt" height="756.000000pt" viewBox="0 0 756.000000 756.000000"
 preserveAspectRatio="xMidYMid meet">
<metadata>
Created by potrace 1.11, written by Peter Selinger 2001-2013
</metadata>
<g transform="translate(0.000000,756.000000) scale(0.100000,-0.100000)"
fill="#000000" stroke="none">
<path d="M3667 7534 c-1 -1 -51 -4 -112 -8 -122 -7 -137 -9 -315 -31 -71 -9
-117 -17 -245 -45 -171 -37 -158 -34 -269 -66 -88 -25 -310 -102 -371 -129
-16 -7 -50 -21 -75 -31 -144 -59 -445 -224 -600 -329 -148 -101 -175 -120
-191 -137 -9 -10 -19 -18 -23 -18 -3 0 -14 -7 -23 -15 -10 -9 -54 -46 -98 -83
-44 -37 -97 -84 -117 -104 -21 -21 -40 -38 -42 -38 -5 0 -177 -176 -223 -229
-21 -24 -48 -55 -61 -68 -12 -13 -22 -28 -22 -33 0 -6 -4 -10 -8 -10 -4 0 -46
-51 -92 -112 -47 -62 -88 -114 -92 -116 -5 -2 -8 -8 -8 -13 0 -4 -26 -48 -58
-96 -57 -85 -74 -113 -151 -253 -40 -71 -107 -207 -140 -285 -12 -27 -26 -59
-31 -70 -18 -38 -68 -170 -78 -205 -6 -19 -19 -59 -30 -87 -11 -29 -19 -53
-16 -53 2 0 -1 -11 -6 -25 -23 -60 -86 -324 -96 -399 -2 -15 -5 -35 -8 -45 -3
-9 -8 -36 -11 -61 -3 -25 -8 -63 -12 -85 -31 -202 -35 -659 -8 -875 14 -116
18 -141 35 -240 9 -56 16 -89 26 -137 3 -16 7 -37 9 -48 2 -11 11 -47 20 -80
9 -33 18 -64 19 -70 18 -68 71 -244 83 -275 4 -8 7 -17 8 -20 1 -3 5 -14 10
-25 4 -11 20 -51 36 -90 62 -160 212 -465 246 -503 7 -7 13 -17 13 -22 0 -5
11 -26 25 -47 14 -21 30 -45 35 -53 52 -81 149 -222 187 -270 15 -20 184 -222
198 -236 103 -113 266 -269 365 -350 19 -16 41 -35 48 -42 8 -7 30 -25 50 -40
21 -15 39 -29 42 -32 15 -17 240 -170 249 -170 6 0 11 -4 11 -10 0 -5 5 -10
10 -10 6 0 16 -5 23 -11 28 -24 192 -115 332 -184 214 -105 431 -188 650 -250
82 -22 183 -48 200 -50 6 -1 24 -5 40 -8 17 -4 44 -10 60 -13 17 -3 41 -7 55
-10 14 -3 35 -7 47 -9 13 -2 40 -6 60 -9 44 -7 122 -17 173 -21 19 -2 67 -7
105 -11 148 -14 608 -6 637 12 4 3 8 0 8 -7 0 -8 4 -8 13 -1 6 5 45 13 85 16
40 4 78 9 85 11 7 2 30 7 52 9 22 3 65 10 95 16 30 6 69 14 85 16 24 4 180 43
230 58 6 1 30 8 55 15 78 21 283 93 323 113 20 10 37 16 37 12 0 -3 10 0 23 8
12 7 49 24 82 38 148 59 426 215 615 344 78 53 81 55 117 84 12 9 34 26 49 37
15 11 38 29 50 40 12 11 48 40 78 64 31 24 56 48 56 52 0 5 5 9 11 9 7 0 77
66 158 148 175 176 224 232 353 405 85 112 198 281 198 295 0 6 4 12 8 14 9 3
82 131 132 230 17 35 35 70 40 78 4 8 17 35 28 60 72 160 84 190 87 205 0 6 6
21 12 35 27 63 44 105 43 108 0 1 15 53 34 115 33 106 80 282 89 337 3 14 12
63 21 110 8 47 18 103 20 125 3 22 8 56 10 75 32 221 37 590 11 825 -2 17 -6
55 -9 85 -3 30 -7 64 -10 75 -2 11 -7 43 -11 70 -14 95 -19 123 -46 235 -12
47 -23 94 -25 105 -5 27 -10 47 -17 65 -3 8 -15 49 -27 90 -22 76 -92 278
-110 315 -5 11 -28 62 -50 114 -51 116 -155 317 -209 404 -23 35 -41 67 -41
71 0 3 -9 16 -20 28 -10 13 -19 27 -19 32 0 5 -3 12 -8 15 -4 3 -21 25 -36 49
-15 23 -34 50 -42 60 -8 9 -35 46 -62 82 -26 36 -50 67 -53 70 -3 3 -25 30
-50 60 -24 30 -52 63 -62 73 -10 10 -18 22 -18 28 0 6 -4 7 -10 4 -5 -3 -10
-1 -10 5 0 18 -242 256 -400 392 -36 31 -250 188 -305 224 -33 21 -61 42 -63
47 -2 4 -8 7 -14 7 -5 0 -29 14 -53 30 -24 17 -48 30 -53 30 -6 0 -12 3 -14 8
-6 15 -299 162 -448 225 -189 80 -551 192 -681 211 -20 3 -42 8 -50 10 -14 5
-71 15 -124 22 -16 2 -39 6 -50 8 -11 3 -49 8 -85 12 -36 4 -76 8 -90 9 -14 2
-25 4 -25 4 0 6 -461 21 -468 15z"/>
</g>
</svg>
