<svg width="217" height="39" viewBox="0 0 217 39" fill="none" xmlns="http://www.w3.org/2000/svg">
<path d="M217 19.5C217 24.6717 214.9 29.6316 211.162 33.2886C207.424 36.9455 202.354 39 197.068 39H19.9324C14.646 39 9.57612 36.9455 5.83807 33.2886C2.10002 29.6316 0 24.6717 0 19.5C0 14.3283 2.10002 9.36838 5.83807 5.71142C9.57612 2.05446 14.646 0 19.9324 0L197.068 0C202.354 0 207.424 2.05446 211.162 5.71142C214.9 9.36838 217 14.3283 217 19.5Z" fill="#232020"/>
<path d="M212.487 19.5C212.487 23.4963 210.866 27.3293 207.98 30.1576C205.094 32.9858 201.179 34.5781 197.094 34.5849H19.9061C15.8166 34.5849 11.8946 32.9956 9.00293 30.1666C6.11123 27.3377 4.48669 23.5008 4.48669 19.5C4.48669 15.4992 6.11123 11.6623 9.00293 8.83337C11.8946 6.0044 15.8166 4.4151 19.9061 4.4151H197.094C201.179 4.42192 205.094 6.01423 207.98 8.84246C210.866 11.6707 212.487 15.5037 212.487 19.5Z" fill="#E06D0E"/>
<path d="M28.4328 26.704H23.6613C22.9725 26.704 22.479 26.5546 22.1808 26.2559C21.8897 25.9503 21.7441 25.4675 21.7441 24.8076V13.325C21.7441 12.6512 21.8933 12.1684 22.1915 11.8767C22.4968 11.578 22.9867 11.4286 23.6613 11.4286H28.7204C29.466 11.4286 30.1121 11.4738 30.6589 11.5641C31.2056 11.6544 31.6955 11.828 32.1287 12.0851C32.4979 12.3004 32.8245 12.5748 33.1085 12.9082C33.3926 13.2347 33.6091 13.5994 33.7582 14.0023C33.9073 14.3982 33.9819 14.8185 33.9819 15.2631C33.9819 16.7913 33.2008 17.9097 31.6387 18.6182C33.6908 19.2573 34.7168 20.5007 34.7168 22.3485C34.7168 23.2029 34.4931 23.974 34.0458 24.6617C33.5985 25.3424 32.9949 25.8461 32.2352 26.1725C31.7594 26.367 31.2127 26.506 30.5949 26.5893C29.9772 26.6657 29.2565 26.704 28.4328 26.704ZM28.1985 19.9207H24.9074V24.3803H28.305C30.4423 24.3803 31.5109 23.6267 31.5109 22.1193C31.5109 21.3482 31.234 20.789 30.6802 20.4417C30.1263 20.0944 29.2991 19.9207 28.1985 19.9207ZM24.9074 13.7522V17.7013H27.8044C28.5926 17.7013 29.1997 17.6284 29.6257 17.4825C30.0589 17.3366 30.389 17.0587 30.6163 16.6489C30.7938 16.3572 30.8825 16.0307 30.8825 15.6694C30.8825 14.8984 30.602 14.3878 30.0411 14.1377C29.4802 13.8807 28.6246 13.7522 27.4743 13.7522H24.9074Z" fill="#232020"/>
<path d="M49.1712 13.8147H42.0458V17.5658H48.6067C49.0896 17.5658 49.4481 17.6735 49.6824 17.8889C49.9239 18.0972 50.0446 18.3751 50.0446 18.7224C50.0446 19.0698 49.9274 19.3546 49.6931 19.5768C49.4588 19.7922 49.0967 19.8999 48.6067 19.8999H42.0458V24.2449H49.4162C49.9132 24.2449 50.286 24.3595 50.5345 24.5887C50.7901 24.811 50.9179 25.1097 50.9179 25.4848C50.9179 25.8461 50.7901 26.1413 50.5345 26.3705C50.286 26.5928 49.9132 26.704 49.4162 26.704H40.821C40.1322 26.704 39.6352 26.5546 39.3299 26.2559C39.0317 25.9572 38.8825 25.4744 38.8825 24.8076V13.325C38.8825 12.8804 38.95 12.5192 39.0849 12.2414C39.2198 11.9565 39.4293 11.7516 39.7133 11.6266C40.0044 11.4946 40.3737 11.4286 40.821 11.4286H49.1712C49.6753 11.4286 50.0481 11.5398 50.2895 11.762C50.5381 11.9774 50.6623 12.2622 50.6623 12.6165C50.6623 12.9777 50.5381 13.2694 50.2895 13.4917C50.0481 13.7071 49.6753 13.8147 49.1712 13.8147Z" fill="#232020"/>
<path d="M66.7143 22.1193C66.7143 23.0431 66.4694 23.8733 65.9794 24.6096C65.4966 25.3459 64.7866 25.9225 63.8493 26.3393C62.912 26.756 61.8008 26.9644 60.5156 26.9644C58.9748 26.9644 57.7038 26.6796 56.7026 26.11C55.9925 25.7002 55.4139 25.1549 54.9665 24.4741C54.5263 23.7864 54.3062 23.1196 54.3062 22.4735C54.3062 22.0984 54.4375 21.7789 54.7002 21.5149C54.9701 21.244 55.3109 21.1086 55.7227 21.1086C56.0564 21.1086 56.3369 21.2127 56.5641 21.4211C56.7985 21.6295 56.9973 21.9387 57.1606 22.3485C57.3594 22.8348 57.5724 23.2411 57.7996 23.5676C58.0339 23.8941 58.3606 24.165 58.7795 24.3803C59.1984 24.5887 59.7487 24.6929 60.4304 24.6929C61.3676 24.6929 62.1274 24.4811 62.7096 24.0573C63.299 23.6267 63.5937 23.0918 63.5937 22.4527C63.5937 21.9456 63.4339 21.5358 63.1144 21.2232C62.802 20.9036 62.3937 20.6605 61.8895 20.4938C61.3925 20.3271 60.725 20.1499 59.8872 19.9624C58.7653 19.7054 57.8245 19.4067 57.0647 19.0663C56.3121 18.719 55.7121 18.2501 55.2647 17.6596C54.8245 17.0622 54.6044 16.3224 54.6044 15.4402C54.6044 14.5997 54.8387 13.8529 55.3073 13.2C55.776 12.547 56.4541 12.0469 57.3416 11.6995C58.2292 11.3453 59.273 11.1681 60.473 11.1681C61.4316 11.1681 62.2588 11.2862 62.9546 11.5224C63.6576 11.7516 64.2398 12.0607 64.7013 12.4497C65.1629 12.8318 65.5002 13.2347 65.7132 13.6584C65.9262 14.0822 66.0327 14.4955 66.0327 14.8984C66.0327 15.2666 65.8978 15.6 65.628 15.8987C65.3652 16.1904 65.0351 16.3363 64.6374 16.3363C64.2753 16.3363 63.9984 16.2495 63.8067 16.0758C63.6221 15.8952 63.4197 15.6035 63.1996 15.2006C62.9156 14.624 62.5747 14.176 62.1771 13.8564C61.7795 13.5299 61.1404 13.3667 60.26 13.3667C59.4434 13.3667 58.7831 13.5438 58.2789 13.8981C57.7819 14.2454 57.5334 14.6657 57.5334 15.1589C57.5334 15.4645 57.6186 15.7285 57.789 15.9508C57.9594 16.1731 58.1937 16.3641 58.4919 16.5239C58.7902 16.6836 59.0919 16.8087 59.3973 16.899C59.7026 16.9893 60.2067 17.1213 60.9097 17.2949C61.7901 17.4964 62.5854 17.7187 63.2954 17.9618C64.0126 18.2049 64.6197 18.5001 65.1167 18.8475C65.6209 19.1948 66.0114 19.6359 66.2883 20.1708C66.5723 20.6987 66.7143 21.3482 66.7143 22.1193Z" fill="#232020"/>
<path d="M80.9557 13.9815H77.5049V25.0785C77.5049 25.7175 77.3593 26.1934 77.0682 26.506C76.7771 26.8116 76.4007 26.9644 75.9392 26.9644C75.4706 26.9644 75.0871 26.8081 74.7889 26.4956C74.4978 26.183 74.3522 25.7106 74.3522 25.0785V13.9815H70.9014C70.3617 13.9815 69.9606 13.8668 69.6978 13.6376C69.4351 13.4014 69.3038 13.0923 69.3038 12.7102C69.3038 12.3143 69.4387 12.0017 69.7085 11.7725C69.9854 11.5432 70.383 11.4286 70.9014 11.4286H80.9557C81.5025 11.4286 81.9072 11.5467 82.1699 11.7829C82.4397 12.0191 82.5746 12.3282 82.5746 12.7102C82.5746 13.0923 82.4397 13.4014 82.1699 13.6376C81.9001 13.8668 81.4954 13.9815 80.9557 13.9815Z" fill="#232020"/>
<path d="M104.603 22.1193C104.603 23.0431 104.358 23.8733 103.868 24.6096C103.385 25.3459 102.675 25.9225 101.738 26.3393C100.801 26.756 99.6895 26.9644 98.4043 26.9644C96.8635 26.9644 95.5925 26.6796 94.5913 26.11C93.8812 25.7002 93.3026 25.1549 92.8552 24.4741C92.415 23.7864 92.1949 23.1196 92.1949 22.4735C92.1949 22.0984 92.3262 21.7789 92.589 21.5149C92.8588 21.244 93.1996 21.1086 93.6114 21.1086C93.9452 21.1086 94.2256 21.2127 94.4528 21.4211C94.6872 21.6295 94.886 21.9387 95.0493 22.3485C95.2481 22.8348 95.4611 23.2411 95.6883 23.5676C95.9227 23.8941 96.2493 24.165 96.6682 24.3803C97.0871 24.5887 97.6374 24.6929 98.3191 24.6929C99.2564 24.6929 100.016 24.4811 100.598 24.0573C101.188 23.6267 101.482 23.0918 101.482 22.4527C101.482 21.9456 101.323 21.5358 101.003 21.2232C100.691 20.9036 100.282 20.6605 99.7782 20.4938C99.2812 20.3271 98.6138 20.1499 97.7759 19.9624C96.654 19.7054 95.7132 19.4067 94.9534 19.0663C94.2008 18.719 93.6008 18.2501 93.1535 17.6596C92.7132 17.0622 92.4931 16.3224 92.4931 15.4402C92.4931 14.5997 92.7274 13.8529 93.1961 13.2C93.6647 12.547 94.3428 12.0469 95.2304 11.6995C96.1179 11.3453 97.1617 11.1681 98.3617 11.1681C99.3203 11.1681 100.147 11.2862 100.843 11.5224C101.546 11.7516 102.129 12.0607 102.59 12.4497C103.052 12.8318 103.389 13.2347 103.602 13.6584C103.815 14.0822 103.921 14.4955 103.921 14.8984C103.921 15.2666 103.786 15.6 103.517 15.8987C103.254 16.1904 102.924 16.3363 102.526 16.3363C102.164 16.3363 101.887 16.2495 101.695 16.0758C101.511 15.8952 101.308 15.6035 101.088 15.2006C100.804 14.624 100.463 14.176 100.066 13.8564C99.6682 13.5299 99.0291 13.3667 98.1487 13.3667C97.3321 13.3667 96.6718 13.5438 96.1676 13.8981C95.6706 14.2454 95.4221 14.6657 95.4221 15.1589C95.4221 15.4645 95.5073 15.7285 95.6777 15.9508C95.8481 16.1731 96.0824 16.3641 96.3806 16.5239C96.6789 16.6836 96.9806 16.8087 97.286 16.899C97.5913 16.9893 98.0954 17.1213 98.7984 17.2949C99.6788 17.4964 100.474 17.7187 101.184 17.9618C101.901 18.2049 102.508 18.5001 103.005 18.8475C103.51 19.1948 103.9 19.6359 104.177 20.1708C104.461 20.6987 104.603 21.3482 104.603 22.1193Z" fill="#232020"/>
<path d="M118.994 13.8147H111.868V17.5658H118.429C118.912 17.5658 119.27 17.6735 119.505 17.8889C119.746 18.0972 119.867 18.3751 119.867 18.7224C119.867 19.0698 119.75 19.3546 119.515 19.5768C119.281 19.7922 118.919 19.8999 118.429 19.8999H111.868V24.2449H119.239C119.736 24.2449 120.108 24.3595 120.357 24.5887C120.612 24.811 120.74 25.1097 120.74 25.4848C120.74 25.8461 120.612 26.1413 120.357 26.3705C120.108 26.5928 119.736 26.704 119.239 26.704H110.643C109.955 26.704 109.458 26.5546 109.152 26.2559C108.854 25.9572 108.705 25.4744 108.705 24.8076V13.325C108.705 12.8804 108.772 12.5192 108.907 12.2414C109.042 11.9565 109.252 11.7516 109.536 11.6266C109.827 11.4946 110.196 11.4286 110.643 11.4286H118.994C119.498 11.4286 119.87 11.5398 120.112 11.762C120.36 11.9774 120.485 12.2622 120.485 12.6165C120.485 12.9777 120.36 13.2694 120.112 13.4917C119.87 13.7071 119.498 13.8147 118.994 13.8147Z" fill="#232020"/>
<path d="M128.921 20.1708H127.814V25.0785C127.814 25.7245 127.668 26.2003 127.377 26.506C127.086 26.8116 126.706 26.9644 126.237 26.9644C125.733 26.9644 125.343 26.8047 125.066 26.4851C124.789 26.1656 124.65 25.6967 124.65 25.0785V13.325C124.65 12.6581 124.803 12.1754 125.108 11.8767C125.414 11.578 125.907 11.4286 126.589 11.4286H131.733C132.443 11.4286 133.05 11.4599 133.554 11.5224C134.059 11.578 134.513 11.6961 134.918 11.8767C135.408 12.0781 135.841 12.3664 136.217 12.7415C136.593 13.1166 136.878 13.5542 137.069 14.0544C137.268 14.5476 137.367 15.072 137.367 15.6278C137.367 16.767 137.037 17.677 136.377 18.3577C135.724 19.0385 134.73 19.5213 133.395 19.8061C133.956 20.0978 134.492 20.5285 135.003 21.0981C135.514 21.6677 135.969 22.2756 136.366 22.9216C136.771 23.5607 137.083 24.1407 137.304 24.6617C137.531 25.1757 137.644 25.53 137.644 25.7245C137.644 25.9259 137.577 26.1274 137.442 26.3288C137.314 26.5233 137.137 26.6762 136.909 26.7873C136.682 26.9054 136.42 26.9644 136.121 26.9644C135.766 26.9644 135.468 26.8811 135.227 26.7144C134.985 26.5546 134.776 26.3497 134.598 26.0996C134.428 25.8495 134.194 25.4814 133.895 24.9951L132.628 22.932C132.173 22.1748 131.765 21.5983 131.403 21.2023C131.048 20.8064 130.686 20.5355 130.317 20.3896C129.947 20.2437 129.482 20.1708 128.921 20.1708ZM130.732 13.7522H127.814V17.9514H130.647C131.407 17.9514 132.046 17.8889 132.564 17.7638C133.082 17.6318 133.476 17.413 133.746 17.1074C134.023 16.7948 134.162 16.3676 134.162 15.8257C134.162 15.402 134.051 15.0304 133.831 14.7108C133.611 14.3843 133.306 14.1412 132.915 13.9815C132.546 13.8286 131.818 13.7522 130.732 13.7522Z" fill="#232020"/>
<path d="M143.546 13.2L147.082 23.4426L150.629 13.127C150.814 12.5852 150.952 12.2101 151.044 12.0017C151.137 11.7864 151.289 11.5953 151.502 11.4286C151.715 11.255 152.006 11.1681 152.376 11.1681C152.646 11.1681 152.894 11.2341 153.121 11.3661C153.356 11.4981 153.537 11.6752 153.664 11.8975C153.799 12.1128 153.867 12.3317 153.867 12.5539C153.867 12.7068 153.846 12.8735 153.803 13.0541C153.76 13.2278 153.707 13.4014 153.643 13.5751C153.579 13.7418 153.515 13.9155 153.451 14.0961L149.67 24.0782C149.535 24.4602 149.401 24.8249 149.266 25.1722C149.131 25.5126 148.975 25.8148 148.797 26.0788C148.62 26.3358 148.382 26.5477 148.083 26.7144C147.792 26.8811 147.434 26.9644 147.008 26.9644C146.582 26.9644 146.22 26.8811 145.921 26.7144C145.63 26.5546 145.392 26.3427 145.208 26.0788C145.03 25.8079 144.874 25.5022 144.739 25.1618C144.604 24.8215 144.469 24.4602 144.334 24.0782L140.617 14.1794C140.553 13.9988 140.486 13.8217 140.415 13.648C140.351 13.4744 140.294 13.2868 140.244 13.0854C140.202 12.8839 140.181 12.7137 140.181 12.5748C140.181 12.2205 140.326 11.8975 140.617 11.6058C140.908 11.314 141.274 11.1681 141.714 11.1681C142.254 11.1681 142.634 11.3314 142.854 11.6578C143.081 11.9774 143.312 12.4914 143.546 13.2Z" fill="#232020"/>
<path d="M157.798 25.0785V13.0437C157.798 12.4185 157.944 11.9496 158.235 11.637C158.526 11.3244 158.902 11.1681 159.364 11.1681C159.84 11.1681 160.223 11.3244 160.514 11.637C160.812 11.9427 160.962 12.4115 160.962 13.0437V25.0785C160.962 25.7106 160.812 26.183 160.514 26.4956C160.223 26.8081 159.84 26.9644 159.364 26.9644C158.909 26.9644 158.533 26.8081 158.235 26.4956C157.944 26.176 157.798 25.7037 157.798 25.0785Z" fill="#232020"/>
<path d="M179.229 21.8796C179.229 22.3659 179.105 22.8938 178.856 23.4634C178.615 24.0261 178.231 24.5818 177.706 25.1306C177.18 25.6724 176.509 26.1135 175.693 26.4539C174.876 26.7943 173.925 26.9644 172.838 26.9644C172.015 26.9644 171.266 26.888 170.591 26.7352C169.917 26.5824 169.302 26.3462 168.749 26.0267C168.202 25.7002 167.698 25.273 167.236 24.745C166.824 24.2657 166.473 23.7309 166.182 23.1404C165.891 22.543 165.67 21.9074 165.521 21.2336C165.379 20.5598 165.308 19.8443 165.308 19.0871C165.308 17.8576 165.489 16.7566 165.852 15.7841C166.221 14.8116 166.746 13.9815 167.428 13.2937C168.109 12.5991 168.908 12.0712 169.824 11.7099C170.74 11.3487 171.717 11.1681 172.753 11.1681C174.017 11.1681 175.143 11.4147 176.13 11.9079C177.116 12.4011 177.873 13.0124 178.398 13.7418C178.924 14.4642 179.186 15.1485 179.186 15.7945C179.186 16.1488 179.058 16.4613 178.803 16.7323C178.547 17.0032 178.238 17.1386 177.876 17.1386C177.472 17.1386 177.166 17.0449 176.96 16.8573C176.761 16.6697 176.538 16.3467 176.289 15.8883C175.877 15.1311 175.391 14.565 174.83 14.1898C174.276 13.8147 173.591 13.6272 172.775 13.6272C171.475 13.6272 170.438 14.11 169.664 15.0755C168.898 16.0411 168.514 17.413 168.514 19.1913C168.514 20.3792 168.685 21.369 169.025 22.1609C169.366 22.9459 169.849 23.5329 170.474 23.9219C171.099 24.3109 171.83 24.5054 172.668 24.5054C173.577 24.5054 174.344 24.2866 174.969 23.8489C175.601 23.4044 176.076 22.7549 176.396 21.9005C176.531 21.4976 176.698 21.1711 176.896 20.921C177.095 20.664 177.415 20.5355 177.855 20.5355C178.231 20.5355 178.554 20.664 178.824 20.921C179.094 21.178 179.229 21.4976 179.229 21.8796Z" fill="#232020"/>
<path d="M193.779 13.8147H186.654V17.5658H193.215C193.697 17.5658 194.056 17.6735 194.29 17.8889C194.532 18.0972 194.653 18.3751 194.653 18.7224C194.653 19.0698 194.535 19.3546 194.301 19.5768C194.067 19.7922 193.705 19.8999 193.215 19.8999H186.654V24.2449H194.024C194.521 24.2449 194.894 24.3595 195.142 24.5887C195.398 24.811 195.526 25.1097 195.526 25.4848C195.526 25.8461 195.398 26.1413 195.142 26.3705C194.894 26.5928 194.521 26.704 194.024 26.704H185.429C184.74 26.704 184.243 26.5546 183.938 26.2559C183.64 25.9572 183.49 25.4744 183.49 24.8076V13.325C183.49 12.8804 183.558 12.5192 183.693 12.2414C183.828 11.9565 184.037 11.7516 184.321 11.6266C184.612 11.4946 184.982 11.4286 185.429 11.4286H193.779C194.283 11.4286 194.656 11.5398 194.897 11.762C195.146 11.9774 195.27 12.2622 195.27 12.6165C195.27 12.9777 195.146 13.2694 194.897 13.4917C194.656 13.7071 194.283 13.8147 193.779 13.8147Z" fill="#232020"/>
<path d="M28.4328 26.704H23.6613C22.9725 26.704 22.479 26.5546 22.1808 26.2559C21.8897 25.9503 21.7441 25.4675 21.7441 24.8076V13.325C21.7441 12.6512 21.8933 12.1684 22.1915 11.8767C22.4968 11.578 22.9867 11.4286 23.6613 11.4286H28.7204C29.466 11.4286 30.1121 11.4738 30.6589 11.5641C31.2056 11.6544 31.6955 11.828 32.1287 12.0851C32.4979 12.3004 32.8245 12.5748 33.1085 12.9082C33.3926 13.2347 33.6091 13.5994 33.7582 14.0023C33.9073 14.3982 33.9819 14.8185 33.9819 15.2631C33.9819 16.7913 33.2008 17.9097 31.6387 18.6182C33.6908 19.2573 34.7168 20.5007 34.7168 22.3485C34.7168 23.2029 34.4931 23.974 34.0458 24.6617C33.5985 25.3424 32.9949 25.8461 32.2352 26.1725C31.7594 26.367 31.2127 26.506 30.5949 26.5893C29.9772 26.6657 29.2565 26.704 28.4328 26.704ZM28.1985 19.9207H24.9074V24.3803H28.305C30.4423 24.3803 31.5109 23.6267 31.5109 22.1193C31.5109 21.3482 31.234 20.789 30.6802 20.4417C30.1263 20.0944 29.2991 19.9207 28.1985 19.9207ZM24.9074 13.7522V17.7013H27.8044C28.5926 17.7013 29.1997 17.6284 29.6257 17.4825C30.0589 17.3366 30.389 17.0587 30.6163 16.6489C30.7938 16.3572 30.8825 16.0307 30.8825 15.6694C30.8825 14.8984 30.602 14.3878 30.0411 14.1377C29.4802 13.8807 28.6246 13.7522 27.4743 13.7522H24.9074Z" stroke="#232020" stroke-width="2" stroke-miterlimit="10"/>
<path d="M49.1712 13.8147H42.0458V17.5658H48.6067C49.0896 17.5658 49.4481 17.6735 49.6824 17.8889C49.9239 18.0972 50.0446 18.3751 50.0446 18.7224C50.0446 19.0698 49.9274 19.3546 49.6931 19.5768C49.4588 19.7922 49.0967 19.8999 48.6067 19.8999H42.0458V24.2449H49.4162C49.9132 24.2449 50.286 24.3595 50.5345 24.5887C50.7901 24.811 50.9179 25.1097 50.9179 25.4848C50.9179 25.8461 50.7901 26.1413 50.5345 26.3705C50.286 26.5928 49.9132 26.704 49.4162 26.704H40.821C40.1322 26.704 39.6352 26.5546 39.3299 26.2559C39.0317 25.9572 38.8825 25.4744 38.8825 24.8076V13.325C38.8825 12.8804 38.95 12.5192 39.0849 12.2414C39.2198 11.9565 39.4293 11.7516 39.7133 11.6266C40.0044 11.4946 40.3737 11.4286 40.821 11.4286H49.1712C49.6753 11.4286 50.0481 11.5398 50.2895 11.762C50.5381 11.9774 50.6623 12.2622 50.6623 12.6165C50.6623 12.9777 50.5381 13.2694 50.2895 13.4917C50.0481 13.7071 49.6753 13.8147 49.1712 13.8147Z" stroke="#232020" stroke-width="2" stroke-miterlimit="10"/>
<path d="M66.7143 22.1193C66.7143 23.0431 66.4694 23.8733 65.9794 24.6096C65.4966 25.3459 64.7866 25.9225 63.8493 26.3393C62.912 26.756 61.8008 26.9644 60.5156 26.9644C58.9748 26.9644 57.7038 26.6796 56.7026 26.11C55.9925 25.7002 55.4139 25.1549 54.9665 24.4741C54.5263 23.7864 54.3062 23.1196 54.3062 22.4735C54.3062 22.0984 54.4375 21.7789 54.7002 21.5149C54.9701 21.244 55.3109 21.1086 55.7227 21.1086C56.0564 21.1086 56.3369 21.2127 56.5641 21.4211C56.7985 21.6295 56.9973 21.9387 57.1606 22.3485C57.3594 22.8348 57.5724 23.2411 57.7996 23.5676C58.0339 23.8941 58.3606 24.165 58.7795 24.3803C59.1984 24.5887 59.7487 24.6929 60.4304 24.6929C61.3676 24.6929 62.1274 24.4811 62.7096 24.0573C63.299 23.6267 63.5937 23.0918 63.5937 22.4527C63.5937 21.9456 63.4339 21.5358 63.1144 21.2232C62.802 20.9036 62.3937 20.6605 61.8895 20.4938C61.3925 20.3271 60.725 20.1499 59.8872 19.9624C58.7653 19.7054 57.8245 19.4067 57.0647 19.0663C56.3121 18.719 55.7121 18.2501 55.2647 17.6596C54.8245 17.0622 54.6044 16.3224 54.6044 15.4402C54.6044 14.5997 54.8387 13.8529 55.3073 13.2C55.776 12.547 56.4541 12.0469 57.3416 11.6995C58.2292 11.3453 59.273 11.1681 60.473 11.1681C61.4316 11.1681 62.2588 11.2862 62.9546 11.5224C63.6576 11.7516 64.2398 12.0607 64.7013 12.4497C65.1629 12.8318 65.5002 13.2347 65.7132 13.6584C65.9262 14.0822 66.0327 14.4955 66.0327 14.8984C66.0327 15.2666 65.8978 15.6 65.628 15.8987C65.3652 16.1904 65.0351 16.3363 64.6374 16.3363C64.2753 16.3363 63.9984 16.2495 63.8067 16.0758C63.6221 15.8952 63.4197 15.6035 63.1996 15.2006C62.9156 14.624 62.5747 14.176 62.1771 13.8564C61.7795 13.5299 61.1404 13.3667 60.26 13.3667C59.4434 13.3667 58.7831 13.5438 58.2789 13.8981C57.7819 14.2454 57.5334 14.6657 57.5334 15.1589C57.5334 15.4645 57.6186 15.7285 57.789 15.9508C57.9594 16.1731 58.1937 16.3641 58.4919 16.5239C58.7902 16.6836 59.0919 16.8087 59.3973 16.899C59.7026 16.9893 60.2067 17.1213 60.9097 17.2949C61.7901 17.4964 62.5854 17.7187 63.2954 17.9618C64.0126 18.2049 64.6197 18.5001 65.1167 18.8475C65.6209 19.1948 66.0114 19.6359 66.2883 20.1708C66.5723 20.6987 66.7143 21.3482 66.7143 22.1193Z" stroke="#232020" stroke-width="2" stroke-miterlimit="10"/>
<path d="M80.9557 13.9815H77.5049V25.0785C77.5049 25.7175 77.3593 26.1934 77.0682 26.506C76.7771 26.8116 76.4007 26.9644 75.9392 26.9644C75.4706 26.9644 75.0871 26.8081 74.7889 26.4956C74.4978 26.183 74.3522 25.7106 74.3522 25.0785V13.9815H70.9014C70.3617 13.9815 69.9606 13.8668 69.6978 13.6376C69.4351 13.4014 69.3038 13.0923 69.3038 12.7102C69.3038 12.3143 69.4387 12.0017 69.7085 11.7725C69.9854 11.5432 70.383 11.4286 70.9014 11.4286H80.9557C81.5025 11.4286 81.9072 11.5467 82.1699 11.7829C82.4397 12.0191 82.5746 12.3282 82.5746 12.7102C82.5746 13.0923 82.4397 13.4014 82.1699 13.6376C81.9001 13.8668 81.4954 13.9815 80.9557 13.9815Z" stroke="#232020" stroke-width="2" stroke-miterlimit="10"/>
<path d="M104.603 22.1193C104.603 23.0431 104.358 23.8733 103.868 24.6096C103.385 25.3459 102.675 25.9225 101.738 26.3393C100.801 26.756 99.6895 26.9644 98.4043 26.9644C96.8635 26.9644 95.5925 26.6796 94.5913 26.11C93.8812 25.7002 93.3026 25.1549 92.8552 24.4741C92.415 23.7864 92.1949 23.1196 92.1949 22.4735C92.1949 22.0984 92.3262 21.7789 92.589 21.5149C92.8588 21.244 93.1996 21.1086 93.6114 21.1086C93.9452 21.1086 94.2256 21.2127 94.4528 21.4211C94.6872 21.6295 94.886 21.9387 95.0493 22.3485C95.2481 22.8348 95.4611 23.2411 95.6883 23.5676C95.9227 23.8941 96.2493 24.165 96.6682 24.3803C97.0871 24.5887 97.6374 24.6929 98.3191 24.6929C99.2564 24.6929 100.016 24.4811 100.598 24.0573C101.188 23.6267 101.482 23.0918 101.482 22.4527C101.482 21.9456 101.323 21.5358 101.003 21.2232C100.691 20.9036 100.282 20.6605 99.7782 20.4938C99.2812 20.3271 98.6138 20.1499 97.7759 19.9624C96.654 19.7054 95.7132 19.4067 94.9534 19.0663C94.2008 18.719 93.6008 18.2501 93.1535 17.6596C92.7132 17.0622 92.4931 16.3224 92.4931 15.4402C92.4931 14.5997 92.7274 13.8529 93.1961 13.2C93.6647 12.547 94.3428 12.0469 95.2304 11.6995C96.1179 11.3453 97.1617 11.1681 98.3617 11.1681C99.3203 11.1681 100.147 11.2862 100.843 11.5224C101.546 11.7516 102.129 12.0607 102.59 12.4497C103.052 12.8318 103.389 13.2347 103.602 13.6584C103.815 14.0822 103.921 14.4955 103.921 14.8984C103.921 15.2666 103.786 15.6 103.517 15.8987C103.254 16.1904 102.924 16.3363 102.526 16.3363C102.164 16.3363 101.887 16.2495 101.695 16.0758C101.511 15.8952 101.308 15.6035 101.088 15.2006C100.804 14.624 100.463 14.176 100.066 13.8564C99.6682 13.5299 99.0291 13.3667 98.1487 13.3667C97.3321 13.3667 96.6718 13.5438 96.1676 13.8981C95.6706 14.2454 95.4221 14.6657 95.4221 15.1589C95.4221 15.4645 95.5073 15.7285 95.6777 15.9508C95.8481 16.1731 96.0824 16.3641 96.3806 16.5239C96.6789 16.6836 96.9806 16.8087 97.286 16.899C97.5913 16.9893 98.0954 17.1213 98.7984 17.2949C99.6788 17.4964 100.474 17.7187 101.184 17.9618C101.901 18.2049 102.508 18.5001 103.005 18.8475C103.51 19.1948 103.9 19.6359 104.177 20.1708C104.461 20.6987 104.603 21.3482 104.603 22.1193Z" stroke="#232020" stroke-width="2" stroke-miterlimit="10"/>
<path d="M118.994 13.8147H111.868V17.5658H118.429C118.912 17.5658 119.27 17.6735 119.505 17.8889C119.746 18.0972 119.867 18.3751 119.867 18.7224C119.867 19.0698 119.75 19.3546 119.515 19.5768C119.281 19.7922 118.919 19.8999 118.429 19.8999H111.868V24.2449H119.239C119.736 24.2449 120.108 24.3595 120.357 24.5887C120.612 24.811 120.74 25.1097 120.74 25.4848C120.74 25.8461 120.612 26.1413 120.357 26.3705C120.108 26.5928 119.736 26.704 119.239 26.704H110.643C109.955 26.704 109.458 26.5546 109.152 26.2559C108.854 25.9572 108.705 25.4744 108.705 24.8076V13.325C108.705 12.8804 108.772 12.5192 108.907 12.2414C109.042 11.9565 109.252 11.7516 109.536 11.6266C109.827 11.4946 110.196 11.4286 110.643 11.4286H118.994C119.498 11.4286 119.87 11.5398 120.112 11.762C120.36 11.9774 120.485 12.2622 120.485 12.6165C120.485 12.9777 120.36 13.2694 120.112 13.4917C119.87 13.7071 119.498 13.8147 118.994 13.8147Z" stroke="#232020" stroke-width="2" stroke-miterlimit="10"/>
<path d="M128.921 20.1708H127.814V25.0785C127.814 25.7245 127.668 26.2003 127.377 26.506C127.086 26.8116 126.706 26.9644 126.237 26.9644C125.733 26.9644 125.343 26.8047 125.066 26.4851C124.789 26.1656 124.65 25.6967 124.65 25.0785V13.325C124.65 12.6581 124.803 12.1754 125.108 11.8767C125.414 11.578 125.907 11.4286 126.589 11.4286H131.733C132.443 11.4286 133.05 11.4599 133.554 11.5224C134.059 11.578 134.513 11.6961 134.918 11.8767C135.408 12.0781 135.841 12.3664 136.217 12.7415C136.593 13.1166 136.878 13.5542 137.069 14.0544C137.268 14.5476 137.367 15.072 137.367 15.6278C137.367 16.767 137.037 17.677 136.377 18.3577C135.724 19.0385 134.73 19.5213 133.395 19.8061C133.956 20.0978 134.492 20.5285 135.003 21.0981C135.514 21.6677 135.969 22.2756 136.366 22.9216C136.771 23.5607 137.083 24.1407 137.304 24.6617C137.531 25.1757 137.644 25.53 137.644 25.7245C137.644 25.9259 137.577 26.1274 137.442 26.3288C137.314 26.5233 137.137 26.6762 136.909 26.7873C136.682 26.9054 136.42 26.9644 136.121 26.9644C135.766 26.9644 135.468 26.8811 135.227 26.7144C134.985 26.5546 134.776 26.3497 134.598 26.0996C134.428 25.8495 134.194 25.4814 133.895 24.9951L132.628 22.932C132.173 22.1748 131.765 21.5983 131.403 21.2023C131.048 20.8064 130.686 20.5355 130.317 20.3896C129.947 20.2437 129.482 20.1708 128.921 20.1708ZM130.732 13.7522H127.814V17.9514H130.647C131.407 17.9514 132.046 17.8889 132.564 17.7638C133.082 17.6318 133.476 17.413 133.746 17.1074C134.023 16.7948 134.162 16.3676 134.162 15.8257C134.162 15.402 134.051 15.0304 133.831 14.7108C133.611 14.3843 133.306 14.1412 132.915 13.9815C132.546 13.8286 131.818 13.7522 130.732 13.7522Z" stroke="#232020" stroke-width="2" stroke-miterlimit="10"/>
<path d="M143.546 13.2L147.082 23.4426L150.629 13.127C150.814 12.5852 150.952 12.2101 151.044 12.0017C151.137 11.7864 151.289 11.5953 151.502 11.4286C151.715 11.255 152.006 11.1681 152.376 11.1681C152.646 11.1681 152.894 11.2341 153.121 11.3661C153.356 11.4981 153.537 11.6752 153.664 11.8975C153.799 12.1128 153.867 12.3317 153.867 12.5539C153.867 12.7068 153.846 12.8735 153.803 13.0541C153.76 13.2278 153.707 13.4014 153.643 13.5751C153.579 13.7418 153.515 13.9155 153.451 14.0961L149.67 24.0782C149.535 24.4602 149.401 24.8249 149.266 25.1722C149.131 25.5126 148.975 25.8148 148.797 26.0788C148.62 26.3358 148.382 26.5477 148.083 26.7144C147.792 26.8811 147.434 26.9644 147.008 26.9644C146.582 26.9644 146.22 26.8811 145.921 26.7144C145.63 26.5546 145.392 26.3427 145.208 26.0788C145.03 25.8079 144.874 25.5022 144.739 25.1618C144.604 24.8215 144.469 24.4602 144.334 24.0782L140.617 14.1794C140.553 13.9988 140.486 13.8217 140.415 13.648C140.351 13.4744 140.294 13.2868 140.244 13.0854C140.202 12.8839 140.181 12.7137 140.181 12.5748C140.181 12.2205 140.326 11.8975 140.617 11.6058C140.908 11.314 141.274 11.1681 141.714 11.1681C142.254 11.1681 142.634 11.3314 142.854 11.6578C143.081 11.9774 143.312 12.4914 143.546 13.2Z" stroke="#232020" stroke-width="2" stroke-miterlimit="10"/>
<path d="M157.798 25.0785V13.0437C157.798 12.4185 157.944 11.9496 158.235 11.637C158.526 11.3244 158.902 11.1681 159.364 11.1681C159.84 11.1681 160.223 11.3244 160.514 11.637C160.812 11.9427 160.962 12.4115 160.962 13.0437V25.0785C160.962 25.7106 160.812 26.183 160.514 26.4956C160.223 26.8081 159.84 26.9644 159.364 26.9644C158.909 26.9644 158.533 26.8081 158.235 26.4956C157.944 26.176 157.798 25.7037 157.798 25.0785Z" stroke="#232020" stroke-width="2" stroke-miterlimit="10"/>
<path d="M179.229 21.8796C179.229 22.3659 179.105 22.8938 178.856 23.4634C178.615 24.0261 178.231 24.5818 177.706 25.1306C177.18 25.6724 176.509 26.1135 175.693 26.4539C174.876 26.7943 173.925 26.9644 172.838 26.9644C172.015 26.9644 171.266 26.888 170.591 26.7352C169.917 26.5824 169.302 26.3462 168.749 26.0267C168.202 25.7002 167.698 25.273 167.236 24.745C166.824 24.2657 166.473 23.7309 166.182 23.1404C165.891 22.543 165.67 21.9074 165.521 21.2336C165.379 20.5598 165.308 19.8443 165.308 19.0871C165.308 17.8576 165.489 16.7566 165.852 15.7841C166.221 14.8116 166.746 13.9815 167.428 13.2937C168.109 12.5991 168.908 12.0712 169.824 11.7099C170.74 11.3487 171.717 11.1681 172.753 11.1681C174.017 11.1681 175.143 11.4147 176.13 11.9079C177.116 12.4011 177.873 13.0124 178.398 13.7418C178.924 14.4642 179.186 15.1485 179.186 15.7945C179.186 16.1488 179.058 16.4613 178.803 16.7323C178.547 17.0032 178.238 17.1386 177.876 17.1386C177.472 17.1386 177.166 17.0449 176.96 16.8573C176.761 16.6697 176.538 16.3467 176.289 15.8883C175.877 15.1311 175.391 14.565 174.83 14.1898C174.276 13.8147 173.591 13.6272 172.775 13.6272C171.475 13.6272 170.438 14.11 169.664 15.0755C168.898 16.0411 168.514 17.413 168.514 19.1913C168.514 20.3792 168.685 21.369 169.025 22.1609C169.366 22.9459 169.849 23.5329 170.474 23.9219C171.099 24.3109 171.83 24.5054 172.668 24.5054C173.577 24.5054 174.344 24.2866 174.969 23.8489C175.601 23.4044 176.076 22.7549 176.396 21.9005C176.531 21.4976 176.698 21.1711 176.896 20.921C177.095 20.664 177.415 20.5355 177.855 20.5355C178.231 20.5355 178.554 20.664 178.824 20.921C179.094 21.178 179.229 21.4976 179.229 21.8796Z" stroke="#232020" stroke-width="2" stroke-miterlimit="10"/>
<path d="M193.779 13.8147H186.654V17.5658H193.215C193.697 17.5658 194.056 17.6735 194.29 17.8889C194.532 18.0972 194.653 18.3751 194.653 18.7224C194.653 19.0698 194.535 19.3546 194.301 19.5768C194.067 19.7922 193.705 19.8999 193.215 19.8999H186.654V24.2449H194.024C194.521 24.2449 194.894 24.3595 195.142 24.5887C195.398 24.811 195.526 25.1097 195.526 25.4848C195.526 25.8461 195.398 26.1413 195.142 26.3705C194.894 26.5928 194.521 26.704 194.024 26.704H185.429C184.74 26.704 184.243 26.5546 183.938 26.2559C183.64 25.9572 183.49 25.4744 183.49 24.8076V13.325C183.49 12.8804 183.558 12.5192 183.693 12.2414C183.828 11.9565 184.037 11.7516 184.321 11.6266C184.612 11.4946 184.982 11.4286 185.429 11.4286H193.779C194.283 11.4286 194.656 11.5398 194.897 11.762C195.146 11.9774 195.27 12.2622 195.27 12.6165C195.27 12.9777 195.146 13.2694 194.897 13.4917C194.656 13.7071 194.283 13.8147 193.779 13.8147Z" stroke="#232020" stroke-width="2" stroke-miterlimit="10"/>
</svg>
